<?xml version="1.0" encoding="utf-8"?>
<!-- Generator: Adobe Illustrator 20.1.0, SVG Export Plug-In . SVG Version: 6.00 Build 0)  -->
<svg version="1.1" id="Layer_1" xmlns="http://www.w3.org/2000/svg" xmlns:xlink="http://www.w3.org/1999/xlink" x="0px" y="0px"
	 viewBox="0 0 345.8 75" style="enable-background:new 0 0 345.8 75;" xml:space="preserve">
<style type="text/css">
	.st0{fill:#5A6772;}
	.st1{fill:#6F7072;}
</style>
<path class="st0" d="M80.3,24H74l-1.1,2.6c-0.2,0.6-0.4,1.1-0.4,1.4c0,0.2,0.1,0.5,0.3,0.6s0.7,0.3,1.5,0.4v0.4h-5.1V29
	c0.6-0.1,1.1-0.2,1.3-0.5c0.4-0.4,0.9-1.1,1.4-2.3l5.7-13.3H78l5.7,13.4c0.5,1,0.9,1.8,1.3,2.1c0.4,0.3,0.9,0.5,1.5,0.6v0.4h-6.4V29
	c0.6,0,1.1-0.2,1.3-0.3c0.2-0.2,0.3-0.4,0.3-0.6c0-0.3-0.2-0.9-0.5-1.7C81.1,26.2,80.3,24,80.3,24L80.3,24z M80,23.1l-2.7-6.5
	l-2.8,6.5H80z M90.5,25.4c-0.6-0.3-1.2-0.8-1.5-1.4c-0.3-0.6-0.6-1.2-0.6-1.9c0-1,0.4-2,1.2-2.8s1.8-1.2,3.1-1.2
	c1,0,1.9,0.2,2.7,0.7h2.9c0.1,0,0.1,0.1,0.2,0.1c0.1,0.1,0.1,0.2,0.1,0.4s0,0.3-0.1,0.4c0,0.1-0.1,0.1-0.2,0.1h-2.1
	c0.5,0.6,0.6,1.3,0.6,2.2c0,1-0.4,1.9-1.2,2.6c-0.8,0.7-1.8,1.1-3.1,1.1c-0.6,0-1.1-0.1-1.7-0.2c-0.3,0.3-0.6,0.6-0.7,0.8
	c-0.2,0.2-0.2,0.4-0.2,0.6s0.1,0.2,0.2,0.4c0.2,0.2,0.4,0.2,0.8,0.2c0.2,0,0.8,0.1,1.7,0.1c1.7,0.1,2.7,0.1,3.2,0.2
	c0.7,0.1,1.4,0.4,1.8,0.8c0.5,0.5,0.6,1,0.6,1.6c0,0.9-0.4,1.8-1.3,2.5c-1.3,1.1-2.9,1.8-4.9,1.8c-1.5,0-2.9-0.3-3.9-1
	c-0.6-0.4-0.9-0.8-0.9-1.2c0-0.2,0.1-0.4,0.2-0.6c0.2-0.3,0.4-0.7,0.8-1.2c0.1-0.1,0.5-0.5,1.2-1.3c-0.4-0.2-0.7-0.5-0.9-0.6
	s-0.2-0.4-0.2-0.6s0.1-0.6,0.3-1C89.1,26.6,89.7,26.1,90.5,25.4z M90.4,29.4c-0.4,0.4-0.6,0.8-0.9,1.1c-0.2,0.3-0.3,0.6-0.3,1
	s0.2,0.7,0.7,1c0.8,0.5,1.9,0.7,3.4,0.7c1.4,0,2.5-0.2,3.2-0.7s1-1,1-1.6c0-0.4-0.2-0.7-0.6-0.9c-0.4-0.2-1.2-0.2-2.5-0.3
	C92.7,29.6,91.3,29.5,90.4,29.4L90.4,29.4z M92.5,18.8c-0.6,0-1.1,0.2-1.5,0.7c-0.4,0.5-0.6,1.2-0.6,2.2c0,1.3,0.2,2.2,0.8,2.9
	c0.4,0.6,1,0.8,1.6,0.8s1.1-0.2,1.5-0.6c0.4-0.5,0.6-1.1,0.6-2.2c0-1.3-0.2-2.2-0.8-3C93.7,18.9,93.2,18.8,92.5,18.8z M101.7,22.5
	c0,1.6,0.4,2.9,1.2,3.8c0.8,0.9,1.8,1.4,2.8,1.4c0.7,0,1.4-0.2,1.8-0.6c0.6-0.4,1-1,1.4-2l0.4,0.2c-0.2,1.1-0.6,2.1-1.4,3
	c-0.8,0.9-1.8,1.4-3,1.4c-1.3,0-2.5-0.5-3.4-1.5c-1-1-1.4-2.4-1.4-4.1c0-1.8,0.5-3.3,1.4-4.3c1-1,2.2-1.6,3.6-1.6
	c1.2,0,2.2,0.4,3,1.2c0.8,0.8,1.2,1.8,1.2,3.2h-7.6V22.5z M101.7,21.8h5.1c-0.1-0.7-0.2-1.2-0.2-1.4c-0.2-0.5-0.5-0.8-0.9-1
	s-0.8-0.4-1.2-0.4c-0.6,0-1.3,0.2-1.8,0.8C102.1,20.2,101.7,20.9,101.7,21.8z M113.9,20.3c1.3-1.5,2.5-2.3,3.7-2.3
	c0.6,0,1.1,0.2,1.5,0.5s0.8,0.8,1,1.4c0.2,0.5,0.2,1.2,0.2,2.2v4.6c0,0.7,0.1,1.1,0.2,1.4c0.1,0.2,0.2,0.3,0.4,0.5
	c0.2,0.1,0.6,0.2,1.1,0.2v0.4h-5.4v-0.4h0.2c0.5,0,0.9-0.1,1-0.2c0.2-0.2,0.3-0.4,0.4-0.7c0-0.1,0.1-0.5,0.1-1.1v-4.4
	c0-1-0.2-1.7-0.4-2.2c-0.2-0.5-0.7-0.6-1.3-0.6c-1,0-1.9,0.5-2.8,1.5v5.8c0,0.7,0.1,1.2,0.2,1.4c0.1,0.2,0.2,0.4,0.5,0.5
	c0.2,0.1,0.6,0.2,1.2,0.2v0.4h-5.4V29h0.2c0.6,0,1-0.2,1.1-0.4c0.1-0.2,0.3-0.8,0.3-1.6v-4c0-1.3,0-2.1-0.1-2.4s-0.2-0.5-0.2-0.6
	c-0.1-0.1-0.3-0.2-0.5-0.2c-0.2,0-0.5,0.1-0.8,0.2l-0.2-0.4l3.3-1.4h0.5C113.9,18.2,113.9,20.3,113.9,20.3z M132.5,26l-0.2,3.4h-9.6
	V29l7.3-9.6h-3.6c-0.8,0-1.3,0.1-1.5,0.2c-0.2,0.1-0.4,0.3-0.6,0.6c-0.2,0.4-0.3,0.9-0.4,1.4h-0.5l0.1-3h9.2V19l-7.4,9.7h4
	c0.9,0,1.4-0.1,1.7-0.2c0.3-0.2,0.6-0.4,0.7-0.7c0.2-0.2,0.2-0.8,0.3-1.6h0.5V26L132.5,26z M137.7,18.2v8.7c0,0.7,0.1,1.1,0.2,1.4
	c0.1,0.2,0.2,0.4,0.5,0.5c0.2,0.1,0.6,0.2,1,0.2v0.4H134V29c0.6,0,0.9-0.1,1-0.2c0.2-0.1,0.3-0.2,0.5-0.5c0.1-0.2,0.2-0.7,0.2-1.4
	v-4.2c0-1.2,0-1.9-0.1-2.3c-0.1-0.2-0.2-0.4-0.2-0.6c-0.2-0.1-0.3-0.2-0.5-0.2s-0.5,0.1-0.8,0.2l-0.2-0.4l3.3-1.4L137.7,18.2
	L137.7,18.2z M136.6,12.5c0.3,0,0.6,0.1,0.9,0.3c0.2,0.2,0.3,0.5,0.3,0.9c0,0.3-0.1,0.6-0.3,0.9c-0.2,0.2-0.6,0.3-0.9,0.3
	c-0.3,0-0.6-0.1-0.9-0.3s-0.4-0.6-0.4-0.9s0.1-0.6,0.3-0.9C136,12.5,136.3,12.5,136.6,12.5z M146.9,27.8c-1.1,0.9-1.8,1.4-2.1,1.5
	c-0.4,0.2-0.9,0.3-1.4,0.3c-0.7,0-1.4-0.2-1.8-0.8c-0.5-0.5-0.7-1.2-0.7-2c0-0.6,0.2-1,0.3-1.4c0.3-0.6,0.9-1,1.7-1.5s2.2-1,4-1.8
	v-0.4c0-1.1-0.2-1.8-0.5-2.2s-0.9-0.6-1.5-0.6c-0.5,0-0.9,0.2-1.2,0.4s-0.5,0.6-0.5,1V21c0,0.4-0.1,0.6-0.2,0.9
	c-0.2,0.2-0.4,0.3-0.7,0.3s-0.6-0.1-0.7-0.3c-0.2-0.2-0.3-0.5-0.3-0.9c0-0.6,0.3-1.3,1-1.8c0.7-0.6,1.7-0.9,3-0.9
	c1,0,1.8,0.2,2.4,0.5c0.5,0.2,0.8,0.6,1,1.1c0.2,0.3,0.2,1,0.2,2.1v3.7c0,1,0,1.7,0.1,1.9c0,0.2,0.1,0.4,0.2,0.5
	c0.1,0.1,0.2,0.1,0.3,0.1c0.1,0,0.2,0,0.3-0.1c0.2-0.1,0.5-0.4,1-0.9v0.6c-0.9,1.2-1.8,1.8-2.6,1.8c-0.4,0-0.7-0.2-1-0.4
	C147,28.9,146.9,28.4,146.9,27.8L146.9,27.8z M146.9,27v-4.2c-1.2,0.5-2,0.8-2.3,1c-0.6,0.3-1.1,0.7-1.4,1.1
	c-0.2,0.4-0.4,0.8-0.4,1.3c0,0.6,0.2,1,0.5,1.4c0.3,0.4,0.7,0.6,1.2,0.6C145.1,28.1,145.9,27.8,146.9,27L146.9,27z M156.9,19.6
	l3.4-1.4h0.5v2.6c0.6-1,1.1-1.6,1.7-2c0.6-0.4,1.2-0.6,1.8-0.6c1.1,0,2,0.4,2.7,1.3c0.9,1,1.4,2.4,1.4,4.1c0,1.8-0.6,3.4-1.6,4.6
	c-0.9,1-2,1.5-3.4,1.5c-0.6,0-1.1-0.1-1.5-0.2c-0.3-0.1-0.7-0.3-1-0.7V32c0,0.7,0.1,1.2,0.2,1.4c0.1,0.2,0.2,0.4,0.5,0.5
	c0.2,0.1,0.6,0.2,1.2,0.2v0.5H157v-0.5h0.3c0.4,0,0.8-0.1,1.1-0.2c0.2-0.1,0.2-0.2,0.3-0.4c0.1-0.2,0.2-0.7,0.2-1.4V21.9
	c0-0.7,0-1.1-0.1-1.4c-0.1-0.2-0.2-0.3-0.3-0.4c-0.2-0.1-0.3-0.2-0.6-0.2c-0.2,0-0.4,0.1-0.7,0.2C157.2,20.1,156.9,19.6,156.9,19.6z
	 M160.7,21.5v4.1c0,0.9,0,1.4,0.1,1.8c0.1,0.5,0.4,0.9,0.8,1.2c0.4,0.3,1,0.6,1.7,0.6c0.8,0,1.4-0.3,1.9-1c0.6-0.8,1-1.9,1-3.4
	c0-1.7-0.4-3-1.1-3.8c-0.5-0.6-1.1-1-1.8-1c-0.4,0-0.8,0.1-1.1,0.3C161.8,20.4,161.3,20.8,160.7,21.5L160.7,21.5z M171.7,22.6
	c0,1.6,0.4,2.9,1.2,3.8s1.8,1.4,2.8,1.4c0.7,0,1.4-0.2,1.8-0.6c0.6-0.4,1-1,1.4-2l0.4,0.2c-0.2,1.1-0.6,2.1-1.4,3s-1.8,1.4-3,1.4
	c-1.4,0-2.5-0.5-3.4-1.5c-1-1-1.4-2.4-1.4-4.1c0-1.8,0.5-3.3,1.4-4.3c1-1,2.2-1.6,3.6-1.6c1.2,0,2.2,0.4,3,1.2
	c0.8,0.8,1.2,1.8,1.2,3.2h-7.6V22.6z M171.7,21.9h5c0-0.7-0.2-1.2-0.2-1.4c-0.2-0.5-0.5-0.8-0.9-1s-0.8-0.4-1.2-0.4
	c-0.6,0-1.3,0.2-1.8,0.8C172.1,20.2,171.9,21,171.7,21.9z M184.1,18.1v2.5c0.9-1.6,1.8-2.5,2.8-2.5c0.4,0,0.8,0.2,1.1,0.4
	c0.3,0.2,0.4,0.6,0.4,1c0,0.3-0.1,0.6-0.3,0.8c-0.2,0.2-0.5,0.3-0.7,0.3s-0.6-0.2-1-0.4c-0.3-0.2-0.6-0.4-0.8-0.4s-0.3,0.1-0.5,0.2
	c-0.3,0.3-0.7,0.9-1.1,1.6v5.2c0,0.6,0.1,1,0.2,1.4c0.1,0.2,0.3,0.4,0.6,0.6c0.2,0.2,0.6,0.2,1.1,0.2v0.4h-5.6v-0.4
	c0.6,0,1-0.1,1.3-0.2c0.2-0.2,0.3-0.3,0.4-0.6c0-0.2,0.1-0.5,0.1-1.1V23c0-1.3,0-2-0.1-2.2l-0.3-0.6c-0.2-0.1-0.3-0.2-0.6-0.2h-0.8
	l-0.2-0.4l3.3-1.4C183.4,18.1,184.1,18.1,184.1,18.1z M198.9,12.4v14.4c0,0.7,0.1,1.1,0.2,1.4c0.1,0.2,0.2,0.4,0.5,0.5
	c0.2,0.1,0.6,0.2,1.1,0.2v0.4h-5.4v-0.4c0.5,0,0.9-0.1,1-0.2c0.2-0.1,0.3-0.2,0.4-0.5c0.1-0.2,0.2-0.7,0.2-1.4V17c0-1.2,0-2-0.1-2.2
	c-0.1-0.2-0.2-0.5-0.2-0.6c-0.2-0.1-0.3-0.2-0.5-0.2c-0.2,0-0.5,0.1-0.8,0.2l-0.2-0.4l3.3-1.4L198.9,12.4L198.9,12.4z M204,19v-0.6
	c0.8-0.5,1.4-1,1.7-1.4c0.2-0.3,0.3-0.6,0.3-1c0-0.2-0.1-0.4-0.2-0.6c-0.1-0.1-0.2-0.2-0.3-0.2c-0.1,0-0.2,0-0.3,0.1
	c-0.2,0.1-0.4,0.1-0.5,0.1c-0.3,0-0.6-0.1-0.9-0.3c-0.2-0.2-0.4-0.6-0.4-0.9c0-0.4,0.2-0.7,0.4-1c0.3-0.3,0.7-0.5,1.2-0.5
	c0.6,0,1,0.2,1.4,0.6c0.4,0.5,0.6,1,0.6,1.7c0,1-0.3,1.8-1,2.6C205.6,18.3,204.9,18.8,204,19L204,19z M216.9,28.8v0.4h-7v-0.4h0.6
	c0.6,0,1.2-0.2,1.4-0.6c0.2-0.2,0.3-0.9,0.3-1.8V16c0-0.8-0.1-1.4-0.2-1.6s-0.2-0.4-0.5-0.5c-0.3-0.2-0.7-0.3-1.1-0.3h-0.6v-0.4h7
	v0.4h-0.5c-0.6,0-1.1,0.2-1.4,0.6c-0.2,0.2-0.3,0.9-0.3,1.8v10.4c0,0.8,0.1,1.4,0.2,1.6s0.2,0.4,0.5,0.5c0.3,0.2,0.7,0.3,1.1,0.3
	C216.4,28.8,216.9,28.8,216.9,28.8z M221.4,14.8v3.6h2.6v0.8h-2.6v7c0,0.7,0.1,1.2,0.3,1.4s0.5,0.4,0.8,0.4c0.2,0,0.5-0.1,0.8-0.2
	c0.2-0.2,0.4-0.4,0.6-0.7h0.5c-0.2,0.8-0.6,1.4-1.2,1.8c-0.5,0.4-1,0.6-1.6,0.6c-0.4,0-0.7-0.1-1.1-0.3c-0.3-0.2-0.6-0.5-0.8-0.9
	c-0.2-0.4-0.2-1-0.2-1.8v-7.3h-1.8v-0.4c0.5-0.2,0.9-0.5,1.4-0.9s0.9-0.9,1.2-1.4c0.2-0.3,0.4-0.9,0.8-1.7H221.4L221.4,14.8z
	 M231.3,27.7c-1.1,0.9-1.8,1.4-2.1,1.5c-0.4,0.2-0.9,0.3-1.4,0.3c-0.8,0-1.4-0.2-1.8-0.8c-0.5-0.5-0.7-1.2-0.7-2
	c0-0.6,0.1-1,0.4-1.4c0.3-0.6,0.9-1,1.7-1.5s2.2-1,4-1.8v-0.4c0-1.1-0.2-1.8-0.5-2.2s-0.9-0.6-1.5-0.6c-0.5,0-0.9,0.2-1.2,0.4
	s-0.5,0.6-0.5,1v0.7c0,0.4-0.1,0.6-0.3,0.9c-0.2,0.2-0.4,0.3-0.7,0.3s-0.6-0.1-0.7-0.3c-0.2-0.2-0.3-0.5-0.3-0.9
	c0-0.6,0.3-1.3,1-1.8c0.7-0.6,1.7-0.9,3-0.9c1,0,1.8,0.2,2.4,0.5c0.5,0.2,0.8,0.6,1,1.1c0.2,0.3,0.2,1,0.2,2.1v3.7
	c0,1,0,1.7,0.1,1.9c0.1,0.2,0.1,0.4,0.2,0.5s0.2,0.1,0.3,0.1c0.2,0,0.2,0,0.3-0.1c0.2-0.1,0.5-0.4,1-0.9v0.6
	c-0.9,1.2-1.8,1.8-2.6,1.8c-0.4,0-0.7-0.2-1-0.4C231.4,28.9,231.3,28.4,231.3,27.7L231.3,27.7z M231.3,26.9v-4.2
	c-1.2,0.5-2,0.8-2.3,1c-0.6,0.3-1.1,0.7-1.4,1.1c-0.2,0.4-0.4,0.8-0.4,1.3c0,0.6,0.2,1,0.5,1.4c0.3,0.4,0.7,0.6,1.2,0.6
	C229.5,28.1,230.3,27.7,231.3,26.9L231.3,26.9z M239.7,12.4v14.4c0,0.7,0.1,1.1,0.2,1.4c0.1,0.2,0.2,0.4,0.5,0.5
	c0.2,0.1,0.6,0.2,1.2,0.2v0.4h-5.4v-0.4c0.5,0,0.9-0.1,1-0.2c0.2-0.1,0.3-0.2,0.4-0.5c0.1-0.2,0.2-0.7,0.2-1.4V17c0-1.2,0-2-0.1-2.2
	c-0.1-0.2-0.2-0.5-0.2-0.6c-0.2-0.1-0.3-0.2-0.5-0.2c-0.2,0-0.5,0.1-0.8,0.2l-0.2-0.4l3.3-1.4L239.7,12.4L239.7,12.4z M246.5,18.1
	v8.7c0,0.7,0.1,1.1,0.2,1.4c0.1,0.2,0.2,0.4,0.5,0.5c0.2,0.1,0.6,0.2,1,0.2v0.4h-5.4V29c0.6,0,0.9-0.1,1-0.2
	c0.2-0.1,0.3-0.2,0.4-0.5c0.1-0.2,0.2-0.7,0.2-1.4v-4.2c0-1.2,0-1.9-0.1-2.3c-0.1-0.2-0.2-0.4-0.2-0.6c-0.2-0.1-0.3-0.2-0.5-0.2
	c-0.2,0-0.5,0.1-0.8,0.2l-0.2-0.4l3.3-1.4L246.5,18.1L246.5,18.1z M245.6,12.4c0.3,0,0.6,0.1,0.9,0.3s0.3,0.5,0.3,0.9
	c0,0.3-0.1,0.6-0.3,0.9c-0.2,0.2-0.6,0.3-0.9,0.3c-0.3,0-0.6-0.1-0.9-0.3s-0.3-0.6-0.3-0.9s0.1-0.6,0.3-0.9S245.2,12.4,245.6,12.4z
	 M255.8,27.7c-1.1,0.9-1.8,1.4-2.2,1.5c-0.4,0.2-0.9,0.3-1.4,0.3c-0.7,0-1.4-0.2-1.8-0.8c-0.5-0.5-0.7-1.2-0.7-2
	c0-0.6,0.2-1,0.4-1.4c0.3-0.6,0.9-1,1.7-1.5c0.8-0.5,2.2-1,4.1-1.8v-0.4c0-1.1-0.2-1.8-0.6-2.2c-0.3-0.4-0.9-0.6-1.5-0.6
	c-0.5,0-0.9,0.2-1.2,0.4c-0.3,0.2-0.5,0.6-0.5,1v0.7c0,0.4-0.1,0.6-0.3,0.9c-0.2,0.2-0.4,0.3-0.7,0.3c-0.3,0-0.6-0.1-0.7-0.3
	c-0.2-0.2-0.3-0.5-0.3-0.9c0-0.6,0.3-1.3,1-1.8c0.7-0.6,1.7-0.9,3-0.9c1,0,1.8,0.2,2.4,0.5c0.5,0.2,0.8,0.6,1,1.1
	c0.2,0.3,0.2,1,0.2,2.1v3.7c0,1,0,1.7,0.1,1.9s0.1,0.4,0.2,0.5c0.1,0.1,0.2,0.1,0.3,0.1c0.2,0,0.2,0,0.3-0.1c0.2-0.1,0.5-0.4,1-0.9
	v0.6c-0.9,1.2-1.8,1.8-2.6,1.8c-0.4,0-0.7-0.2-1-0.4C255.9,28.9,255.8,28.4,255.8,27.7L255.8,27.7z M255.8,26.9v-4.2
	c-1.2,0.5-2,0.8-2.3,1c-0.6,0.3-1.1,0.7-1.4,1.1c-0.2,0.4-0.4,0.8-0.4,1.3c0,0.6,0.2,1,0.5,1.4c0.3,0.4,0.7,0.6,1.2,0.6
	C254,28.1,254.8,27.7,255.8,26.9L255.8,26.9z M266.2,29.3v-0.4h0.6c0.7,0,1.2-0.2,1.4-0.6c0.2-0.2,0.2-0.9,0.2-1.8V16.1
	c0-1-0.1-1.6-0.3-1.9c-0.3-0.3-0.8-0.6-1.4-0.6h-0.6v-0.4h6.6c2.4,0,4.2,0.2,5.5,0.8c1.3,0.6,2.3,1.4,3,2.7c0.8,1.3,1.1,2.7,1.1,4.4
	c0,2.2-0.7,4.1-2.1,5.6c-1.5,1.7-3.9,2.5-7,2.5L266.2,29.3L266.2,29.3z M270.9,28.1c1,0.2,1.8,0.3,2.6,0.3c1.8,0,3.4-0.6,4.6-1.9
	s1.8-3,1.8-5.3c0-2.2-0.6-4-1.8-5.3c-1.2-1.3-2.8-1.9-4.7-1.9c-0.7,0-1.5,0.1-2.5,0.3L270.9,28.1L270.9,28.1z M288.1,18.1v8.7
	c0,0.7,0.1,1.1,0.2,1.4c0.1,0.2,0.2,0.4,0.5,0.5c0.2,0.1,0.6,0.2,1,0.2v0.4h-5.4v-0.4c0.6,0,0.9-0.1,1-0.2c0.2-0.1,0.3-0.2,0.4-0.5
	c0.1-0.2,0.2-0.7,0.2-1.4v-4.2c0-1.2,0-1.9-0.1-2.3c-0.1-0.2-0.2-0.4-0.2-0.6c-0.2-0.1-0.3-0.2-0.5-0.2c-0.2,0-0.5,0.1-0.8,0.2
	l-0.2-0.4l3.3-1.4L288.1,18.1L288.1,18.1z M287.1,12.4c0.3,0,0.6,0.1,0.9,0.3c0.2,0.2,0.3,0.5,0.3,0.9c0,0.3-0.1,0.6-0.3,0.9
	c-0.2,0.3-0.6,0.3-0.9,0.3s-0.6-0.1-0.9-0.3c-0.2-0.2-0.3-0.6-0.3-0.9s0.1-0.6,0.3-0.9C286.4,12.4,286.8,12.4,287.1,12.4z
	 M294.1,25.3c-0.6-0.3-1.2-0.8-1.5-1.4c-0.3-0.6-0.6-1.2-0.6-1.9c0-1,0.4-2,1.2-2.8c0.8-0.8,1.8-1.2,3.1-1.2c1,0,1.9,0.2,2.7,0.7
	h2.9c0.1,0,0.1,0.1,0.2,0.1c0.1,0.1,0.1,0.2,0.1,0.4s0,0.3-0.1,0.4c0,0.1-0.1,0.1-0.2,0.1h-2.1c0.5,0.6,0.6,1.3,0.6,2.2
	c0,1-0.4,1.9-1.2,2.6c-0.8,0.7-1.8,1.1-3.1,1.1c-0.6,0-1.1-0.1-1.7-0.2c-0.3,0.3-0.6,0.6-0.7,0.8c-0.2,0.2-0.2,0.4-0.2,0.6
	s0.1,0.2,0.2,0.4c0.2,0.2,0.4,0.2,0.8,0.2c0.2,0,0.8,0.1,1.7,0.1c1.7,0.1,2.7,0.1,3.2,0.2c0.7,0.1,1.4,0.4,1.8,0.8
	c0.5,0.5,0.6,1,0.6,1.6c0,0.9-0.4,1.8-1.3,2.5c-1.3,1.1-2.9,1.8-4.9,1.8c-1.5,0-2.9-0.3-3.9-1c-0.6-0.4-0.9-0.8-0.9-1.2
	c0-0.2,0.1-0.4,0.2-0.6c0.2-0.3,0.4-0.7,0.8-1.2c0.1-0.1,0.5-0.5,1.2-1.3c-0.4-0.2-0.7-0.5-0.9-0.6c-0.2-0.2-0.2-0.4-0.2-0.6
	s0.1-0.6,0.3-1C292.7,26.5,293.3,26,294.1,25.3L294.1,25.3z M293.9,29.3c-0.4,0.4-0.6,0.8-0.9,1.1c-0.2,0.3-0.3,0.6-0.3,1
	s0.2,0.7,0.7,1c0.8,0.5,1.9,0.7,3.4,0.7c1.4,0,2.5-0.2,3.2-0.7c0.7-0.5,1-1,1-1.6c0-0.4-0.2-0.7-0.6-0.9c-0.4-0.2-1.2-0.2-2.5-0.3
	C296.3,29.5,294.9,29.4,293.9,29.3L293.9,29.3z M296.1,18.7c-0.6,0-1.1,0.2-1.5,0.7s-0.6,1.2-0.6,2.2c0,1.3,0.2,2.2,0.8,2.9
	c0.4,0.6,1,0.8,1.6,0.8s1.1-0.2,1.5-0.6c0.4-0.5,0.6-1.1,0.6-2.2c0-1.3-0.2-2.2-0.8-3C297.3,18.9,296.8,18.7,296.1,18.7z
	 M307.2,18.1v8.7c0,0.7,0.1,1.1,0.2,1.4c0.1,0.2,0.2,0.4,0.5,0.5c0.2,0.1,0.6,0.2,1,0.2v0.4h-5.4v-0.4c0.6,0,0.9-0.1,1-0.2
	c0.2-0.1,0.3-0.2,0.4-0.5c0.1-0.2,0.2-0.7,0.2-1.4v-4.2c0-1.2,0-1.9-0.1-2.3c-0.1-0.2-0.2-0.4-0.2-0.6c-0.1-0.1-0.3-0.2-0.5-0.2
	c-0.2,0-0.5,0.1-0.8,0.2l-0.2-0.4l3.3-1.4L307.2,18.1L307.2,18.1z M306.1,12.4c0.3,0,0.6,0.1,0.9,0.3c0.2,0.2,0.3,0.5,0.3,0.9
	c0,0.3-0.1,0.6-0.3,0.9c-0.2,0.3-0.6,0.3-0.9,0.3s-0.6-0.1-0.9-0.3c-0.2-0.2-0.3-0.6-0.3-0.9s0.1-0.6,0.3-0.9
	C305.4,12.4,305.8,12.4,306.1,12.4z M313.4,14.8v3.6h2.6v0.8h-2.6v7c0,0.7,0.1,1.2,0.3,1.4c0.2,0.2,0.5,0.4,0.8,0.4
	c0.2,0,0.5-0.1,0.8-0.2c0.2-0.2,0.4-0.4,0.6-0.7h0.5c-0.2,0.8-0.6,1.4-1.2,1.8c-0.5,0.4-1,0.6-1.6,0.6c-0.4,0-0.7-0.1-1-0.3
	c-0.3-0.2-0.6-0.5-0.8-0.9c-0.2-0.4-0.2-1-0.2-1.8v-7.3h-1.8v-0.4c0.5-0.2,0.9-0.5,1.4-0.9s0.9-0.9,1.2-1.4c0.2-0.3,0.5-0.9,0.8-1.7
	H313.4z M323.3,27.7c-1.1,0.9-1.8,1.4-2.1,1.5c-0.4,0.2-0.9,0.3-1.4,0.3c-0.7,0-1.4-0.2-1.8-0.8c-0.5-0.5-0.7-1.2-0.7-2
	c0-0.6,0.2-1,0.4-1.4c0.3-0.6,0.9-1,1.7-1.5c0.8-0.5,2.2-1,4.1-1.8v-0.4c0-1.1-0.2-1.8-0.5-2.2c-0.3-0.4-0.9-0.6-1.5-0.6
	c-0.5,0-0.9,0.2-1.2,0.4c-0.3,0.2-0.5,0.6-0.5,1v0.7c0,0.4-0.1,0.6-0.3,0.9c-0.2,0.2-0.4,0.3-0.7,0.3c-0.3,0-0.6-0.1-0.7-0.3
	c-0.2-0.2-0.2-0.5-0.2-0.9c0-0.6,0.3-1.3,1-1.8c0.7-0.5,1.7-0.9,3-0.9c1,0,1.8,0.2,2.4,0.5c0.5,0.2,0.8,0.6,1,1.1
	c0.2,0.3,0.2,1,0.2,2.1v3.7c0,1,0,1.7,0.1,1.9s0.1,0.4,0.2,0.5c0.1,0.1,0.2,0.1,0.3,0.1c0.2,0,0.2,0,0.3-0.1c0.2-0.1,0.5-0.4,1-0.9
	v0.6c-0.9,1.2-1.8,1.8-2.6,1.8c-0.4,0-0.7-0.2-1-0.4C323.3,28.8,323.3,28.3,323.3,27.7L323.3,27.7z M323.3,26.9v-4.2
	c-1.2,0.5-2,0.8-2.3,1c-0.6,0.3-1.1,0.7-1.4,1.1c-0.2,0.4-0.4,0.8-0.4,1.3c0,0.6,0.2,1,0.5,1.4c0.3,0.4,0.7,0.6,1.2,0.6
	S322.2,27.7,323.3,26.9L323.3,26.9z M331.7,12.4v14.4c0,0.7,0.1,1.1,0.2,1.4c0.1,0.2,0.2,0.4,0.5,0.5c0.2,0.1,0.6,0.2,1.2,0.2v0.4
	h-5.4v-0.4c0.5,0,0.9-0.1,1-0.2c0.2-0.1,0.3-0.2,0.4-0.5c0.1-0.2,0.2-0.7,0.2-1.4V17c0-1.2,0-2-0.1-2.2s-0.2-0.5-0.2-0.6
	c-0.2-0.1-0.3-0.2-0.5-0.2c-0.2,0-0.5,0.1-0.8,0.2l-0.2-0.4l3.3-1.4L331.7,12.4L331.7,12.4z M336.5,22.5c0,1.6,0.4,2.9,1.2,3.8
	c0.8,0.9,1.8,1.4,2.8,1.4c0.7,0,1.4-0.2,1.8-0.6c0.6-0.4,1-1,1.4-2l0.4,0.2c-0.2,1.1-0.6,2.1-1.4,3s-1.8,1.4-3,1.4
	c-1.3,0-2.5-0.5-3.4-1.5c-1-1-1.4-2.4-1.4-4.1c0-1.8,0.5-3.3,1.4-4.3c1-1,2.2-1.6,3.6-1.6c1.2,0,2.2,0.4,3,1.2
	c0.8,0.8,1.2,1.8,1.2,3.2h-7.6V22.5z M336.5,21.8h5c0-0.7-0.2-1.2-0.2-1.4c-0.2-0.5-0.5-0.8-0.9-1s-0.8-0.4-1.2-0.4
	c-0.6,0-1.3,0.2-1.8,0.8C336.9,20.2,336.6,20.9,336.5,21.8L336.5,21.8z M72.1,45.2h4.7c1.2,0,2.2,0.2,2.8,0.8c0.6,0.6,1,1.2,1,2
	c0,0.6-0.2,1.2-0.6,1.8c-0.4,0.6-1,1-1.8,1.4s-1.6,0.6-2.5,0.6c-0.6,0-1.3-0.1-2.1-0.3l-1,3.4c-0.2,0.8-0.3,1.3-0.3,1.6
	c0,0.2,0.1,0.3,0.2,0.5c0.2,0.2,0.6,0.2,1.1,0.2l-0.1,0.3h-4.8l0.1-0.3c0.6,0,1-0.1,1.3-0.3c0.2-0.2,0.5-0.8,0.8-1.8l2-7
	c0.2-0.8,0.3-1.4,0.3-1.7c0-0.2-0.1-0.4-0.2-0.6c-0.2-0.2-0.6-0.2-1.1-0.2C72,45.5,72.1,45.2,72.1,45.2z M73.7,50.8
	c0.6,0.2,1.2,0.2,1.6,0.2c0.6,0,1.2-0.2,1.8-0.4c0.6-0.2,1-0.6,1.3-1.2c0.3-0.6,0.5-1.1,0.5-1.7s-0.2-1.1-0.6-1.4
	c-0.4-0.3-1-0.6-1.7-0.6c-0.4,0-0.9,0.1-1.4,0.2C75.2,46,73.7,50.8,73.7,50.8z M81.3,49.7l3-0.5L83,53.6c1-1.8,2-3,2.8-3.8
	c0.5-0.4,0.9-0.6,1.2-0.6c0.2,0,0.3,0.1,0.5,0.2c0.1,0.1,0.2,0.3,0.2,0.5c0,0.4-0.1,0.8-0.3,1.1c-0.2,0.2-0.3,0.4-0.6,0.4
	c-0.2,0-0.2-0.1-0.3-0.2c-0.1-0.1-0.2-0.2-0.2-0.4c0-0.1,0-0.2-0.1-0.2c-0.1-0.1-0.1-0.1-0.2-0.1c-0.1,0-0.2,0-0.3,0.1
	c-0.2,0.1-0.4,0.3-0.7,0.7c-0.5,0.6-1,1.4-1.6,2.3c-0.2,0.4-0.5,0.9-0.6,1.4c-0.2,0.7-0.4,1.1-0.4,1.2l-0.3,1.1h-1.4l1.7-5.6
	c0.2-0.6,0.3-1.1,0.3-1.4c0-0.1-0.1-0.2-0.2-0.2c-0.1-0.1-0.2-0.2-0.5-0.2c-0.2,0-0.3,0-0.7,0.1C81.3,50,81.3,49.7,81.3,49.7z
	 M88.9,54c-0.1,0.3-0.1,0.6-0.1,0.7c0,0.6,0.2,1,0.6,1.4c0.4,0.4,0.8,0.6,1.4,0.6c0.4,0,0.8-0.1,1.2-0.2c0.4-0.2,1-0.6,1.8-1.2
	l0.2,0.2c-1.4,1.4-2.7,2.1-4,2.1c-0.9,0-1.5-0.2-1.9-0.8c-0.4-0.6-0.6-1.2-0.6-1.8c0-0.9,0.2-1.8,0.8-2.7c0.6-1,1.2-1.7,2.1-2.2
	c0.8-0.5,1.7-0.8,2.6-0.8c0.6,0,1.1,0.2,1.4,0.4c0.3,0.2,0.5,0.6,0.5,0.9c0,0.5-0.2,1-0.6,1.4c-0.5,0.6-1.3,1-2.2,1.4
	C91,53.6,90.1,53.8,88.9,54z M88.9,53.5c0.9-0.1,1.6-0.2,2.2-0.6c0.7-0.3,1.3-0.7,1.6-1.2c0.4-0.5,0.6-0.9,0.6-1.3
	c0-0.2-0.1-0.5-0.2-0.6c-0.2-0.2-0.4-0.2-0.6-0.2c-0.6,0-1.3,0.3-1.9,1C89.7,51.1,89.3,52.1,88.9,53.5L88.9,53.5z M101.3,49.2
	l-0.6,2.8h-0.3c0-0.8-0.2-1.4-0.5-1.8c-0.3-0.4-0.7-0.6-1.1-0.6c-0.4,0-0.6,0.1-0.9,0.3c-0.2,0.2-0.3,0.5-0.3,0.7s0.1,0.4,0.2,0.6
	c0.1,0.2,0.2,0.4,0.6,0.7c0.8,0.9,1.3,1.5,1.5,1.9c0.2,0.4,0.3,0.8,0.3,1.2c0,0.6-0.2,1.2-0.8,1.7c-0.5,0.5-1.1,0.7-1.9,0.7
	c-0.4,0-0.9-0.1-1.4-0.3C95.9,57,95.8,57,95.6,57c-0.2,0-0.5,0.2-0.6,0.4h-0.3l0.6-2.9h0.3c0,0.9,0.2,1.5,0.6,1.9
	c0.3,0.4,0.8,0.6,1.4,0.6c0.5,0,0.8-0.2,1-0.4c0.2-0.2,0.4-0.6,0.4-1c0-0.2-0.1-0.5-0.2-0.6c-0.2-0.3-0.5-0.9-1-1.5
	c-0.6-0.6-0.9-1.1-1-1.4c-0.2-0.3-0.2-0.6-0.2-1c0-0.6,0.2-1,0.6-1.4s1-0.6,1.6-0.6c0.2,0,0.4,0,0.5,0.1c0.1,0,0.2,0.1,0.6,0.2
	c0.3,0.1,0.5,0.2,0.6,0.2c0.2,0,0.5-0.2,0.6-0.4L101.3,49.2L101.3,49.2z M106,49.2l-1.8,6.3c-0.1,0.4-0.2,0.7-0.2,0.8
	c0,0.1,0,0.2,0.1,0.2c0.1,0.1,0.2,0.1,0.2,0.1c0.1,0,0.2-0.1,0.3-0.2c0.3-0.2,0.6-0.6,1-1.1l0.3,0.2c-0.4,0.6-0.9,1.1-1.4,1.6
	c-0.4,0.3-0.8,0.5-1.1,0.5c-0.2,0-0.5-0.1-0.6-0.2c-0.2-0.2-0.2-0.3-0.2-0.6s0.1-0.6,0.2-1.1l1.1-4c0.2-0.6,0.3-1,0.3-1.3
	c0-0.2-0.1-0.2-0.2-0.3c-0.1-0.1-0.2-0.2-0.4-0.2c-0.2,0-0.4,0-0.8,0.1v-0.3L106,49.2z M105.9,45.6c0.2,0,0.5,0.1,0.6,0.2
	c0.2,0.2,0.2,0.4,0.2,0.6s-0.1,0.5-0.2,0.6c-0.2,0.2-0.4,0.2-0.6,0.2c-0.2,0-0.5-0.1-0.6-0.2s-0.2-0.4-0.2-0.6s0.1-0.5,0.2-0.6
	S105.7,45.6,105.9,45.6z M116.7,44.5l-3,10.6c-0.2,0.6-0.2,1-0.2,1.1s0,0.1,0.1,0.2c0.1,0.1,0.1,0.1,0.2,0.1s0.2-0.1,0.2-0.1
	c0.2-0.2,0.6-0.5,1-1.1l0.3,0.2c-0.4,0.6-0.9,1.1-1.3,1.4c-0.4,0.4-0.8,0.6-1.2,0.6c-0.2,0-0.4-0.1-0.5-0.2
	c-0.2-0.2-0.2-0.3-0.2-0.6s0.1-0.8,0.2-1.4l0.3-1.1c-0.9,1.4-1.6,2.2-2.3,2.8c-0.5,0.3-1,0.6-1.4,0.6c-0.5,0-0.9-0.2-1.2-0.6
	s-0.5-1-0.5-1.7c0-0.9,0.2-1.8,0.9-2.9c0.6-1,1.3-1.8,2.2-2.5c0.7-0.5,1.4-0.8,2-0.8c0.3,0,0.6,0.1,0.8,0.2c0.2,0.2,0.5,0.3,0.7,0.6
	l0.9-3.1c0.1-0.2,0.1-0.4,0.2-0.6c0.1-0.2,0.1-0.5,0.1-0.6c0-0.2-0.1-0.2-0.2-0.3c-0.2-0.1-0.3-0.2-0.5-0.2c-0.2,0-0.3,0-0.6,0.1
	v-0.3L116.7,44.5L116.7,44.5z M113.4,50.9c0-0.4-0.1-0.7-0.3-1c-0.2-0.3-0.5-0.3-0.8-0.3c-0.7,0-1.5,0.6-2.3,1.8
	c-0.8,1.3-1.2,2.5-1.2,3.6c0,0.5,0.1,0.8,0.3,1c0.2,0.2,0.4,0.3,0.7,0.3c0.6,0,1.4-0.6,2.3-2C112.9,53,113.4,52,113.4,50.9z
	 M118.1,54c-0.1,0.3-0.1,0.6-0.1,0.7c0,0.6,0.2,1,0.6,1.4c0.4,0.4,0.8,0.6,1.4,0.6c0.4,0,0.8-0.1,1.2-0.2s1-0.6,1.8-1.2l0.2,0.2
	c-1.4,1.4-2.7,2.1-4,2.1c-0.9,0-1.5-0.2-1.9-0.8c-0.4-0.6-0.6-1.2-0.6-1.8c0-0.9,0.2-1.8,0.8-2.7c0.6-1,1.2-1.7,2.1-2.2
	c0.8-0.5,1.7-0.8,2.6-0.8c0.6,0,1.1,0.2,1.4,0.4c0.3,0.2,0.5,0.6,0.5,0.9c0,0.5-0.2,1-0.6,1.4c-0.5,0.6-1.3,1-2.2,1.4
	C120.2,53.6,119.3,53.8,118.1,54z M118.2,53.5c0.9-0.1,1.6-0.2,2.2-0.6c0.7-0.3,1.3-0.7,1.6-1.2c0.4-0.5,0.6-0.9,0.6-1.3
	c0-0.2-0.1-0.5-0.2-0.6c-0.2-0.2-0.4-0.2-0.6-0.2c-0.6,0-1.3,0.3-1.9,1C119,51.1,118.5,52.1,118.2,53.5L118.2,53.5z M128.1,49.2
	l-1.2,4.1c1.1-1.7,1.9-2.8,2.6-3.3c0.6-0.6,1.1-0.8,1.7-0.8c0.3,0,0.6,0.1,0.7,0.3c0.2,0.2,0.3,0.5,0.3,0.8s-0.1,0.8-0.2,1.4
	l-1.1,3.8c-0.2,0.4-0.2,0.7-0.2,0.8c0,0.1,0,0.2,0.1,0.2c0.1,0.1,0.1,0.1,0.2,0.1c0.1,0,0.2-0.1,0.2-0.1c0.3-0.2,0.6-0.6,1-1.1
	l0.2,0.2c-0.6,0.8-1,1.4-1.6,1.7c-0.3,0.2-0.6,0.3-1,0.3c-0.2,0-0.4-0.1-0.6-0.2c-0.2-0.2-0.2-0.3-0.2-0.6s0.1-0.8,0.3-1.5l1-3.6
	c0.2-0.5,0.2-0.8,0.2-1s-0.1-0.2-0.1-0.3c-0.1-0.1-0.2-0.1-0.3-0.1c-0.2,0-0.4,0.1-0.6,0.2c-0.5,0.2-0.9,0.7-1.4,1.4
	c-0.5,0.6-1,1.4-1.5,2.4c-0.2,0.5-0.5,1-0.7,1.7l-0.5,1.5H124l1.6-5.6c0.2-0.6,0.3-1.1,0.3-1.2c0-0.2-0.1-0.2-0.2-0.3
	c-0.1-0.1-0.2-0.2-0.4-0.2h-0.4l-0.3,0.1l-0.1-0.3C124.5,50,128.1,49.2,128.1,49.2z M134.6,49.4h5.6v0.2l-6.2,6.5h2.6
	c0.6,0,1,0,1.2-0.1s0.3-0.2,0.5-0.3s0.3-0.4,0.5-0.9h0.3l-0.8,2.5h-5.8v-0.2l6.2-6.5h-2.6c-0.6,0-0.9,0-1,0.1
	c-0.2,0-0.3,0.2-0.5,0.3c-0.2,0.2-0.3,0.4-0.5,0.8h-0.2C133.9,51.8,134.6,49.4,134.6,49.4z M148.7,49.2l-1.8,6.1l-0.2,0.8v0.2
	c0,0.1,0,0.2,0.1,0.2c0.1,0,0.1,0.1,0.2,0.1c0.1,0,0.2-0.1,0.3-0.2l1-1l0.3,0.2c-0.4,0.6-0.8,1.1-1.3,1.4c-0.4,0.3-0.8,0.5-1.2,0.5
	c-0.2,0-0.5-0.1-0.6-0.2c-0.2-0.2-0.2-0.3-0.2-0.6s0.1-0.7,0.2-1.2l0.2-0.6c-0.8,1-1.5,1.8-2.2,2.2c-0.5,0.3-1,0.5-1.4,0.5
	s-0.8-0.2-1.1-0.6s-0.5-0.9-0.5-1.5c0-1,0.2-2,0.9-3c0.6-1,1.3-1.9,2.2-2.6c0.6-0.5,1.3-0.7,1.9-0.7c0.4,0,0.6,0.1,0.9,0.3
	c0.2,0.2,0.4,0.5,0.6,1l0.3-1L148.7,49.2L148.7,49.2z M145.5,49.6c-0.4,0-0.8,0.2-1.2,0.6c-0.6,0.5-1.1,1.3-1.6,2.2
	c-0.5,1-0.7,1.9-0.7,2.7c0,0.4,0.1,0.7,0.3,1c0.2,0.2,0.4,0.3,0.7,0.3c0.6,0,1.4-0.5,2.1-1.4c1-1.3,1.5-2.6,1.5-3.9
	c0-0.5-0.1-0.9-0.3-1.1S145.9,49.6,145.5,49.6L145.5,49.6z M163.6,44.5l-3,10.6c-0.2,0.6-0.2,1-0.2,1.1s0,0.1,0.1,0.2
	c0.1,0.1,0.1,0.1,0.2,0.1c0.1,0,0.2-0.1,0.2-0.1c0.2-0.2,0.6-0.5,1-1.1l0.3,0.2c-0.4,0.6-0.9,1.1-1.3,1.4c-0.4,0.4-0.8,0.6-1.2,0.6
	c-0.2,0-0.4-0.1-0.5-0.2c-0.2-0.2-0.2-0.3-0.2-0.6s0.1-0.8,0.2-1.4l0.3-1.1c-0.9,1.4-1.6,2.2-2.3,2.8c-0.5,0.3-1,0.6-1.4,0.6
	c-0.5,0-0.9-0.2-1.2-0.6s-0.5-1-0.5-1.7c0-0.9,0.3-1.8,0.9-2.9c0.6-1.1,1.3-1.8,2.2-2.5c0.7-0.5,1.4-0.8,2-0.8
	c0.3,0,0.6,0.1,0.8,0.2c0.2,0.2,0.5,0.3,0.7,0.6l0.9-3.1c0.1-0.2,0.1-0.4,0.2-0.6c0.1-0.2,0.1-0.5,0.1-0.6c0-0.2-0.1-0.2-0.2-0.3
	c-0.2-0.1-0.3-0.2-0.5-0.2c-0.2,0-0.4,0-0.6,0.1v-0.3L163.6,44.5L163.6,44.5z M160.3,50.9c0-0.4-0.1-0.7-0.3-1
	c-0.2-0.2-0.5-0.3-0.8-0.3c-0.7,0-1.5,0.6-2.3,1.8c-0.8,1.3-1.2,2.5-1.2,3.6c0,0.5,0.1,0.8,0.3,1c0.2,0.2,0.4,0.3,0.7,0.3
	c0.6,0,1.4-0.6,2.3-2C159.8,53,160.3,52,160.3,50.9z M165,54c-0.1,0.3-0.1,0.6-0.1,0.7c0,0.6,0.2,1,0.6,1.4c0.4,0.4,0.8,0.6,1.4,0.6
	c0.4,0,0.8-0.1,1.2-0.2c0.4-0.2,1-0.6,1.8-1.2l0.2,0.2c-1.4,1.4-2.7,2.1-4,2.1c-0.9,0-1.5-0.2-1.9-0.8c-0.4-0.6-0.6-1.2-0.6-1.8
	c0-0.9,0.2-1.8,0.8-2.7c0.6-1,1.2-1.7,2.1-2.2c0.8-0.5,1.7-0.8,2.6-0.8c0.6,0,1.1,0.2,1.4,0.4c0.3,0.2,0.5,0.6,0.5,0.9
	c0,0.5-0.2,1-0.6,1.4c-0.5,0.6-1.3,1-2.2,1.4C167.2,53.6,166.2,53.8,165,54z M165.1,53.5c0.9-0.1,1.6-0.2,2.2-0.6
	c0.7-0.3,1.3-0.7,1.6-1.2c0.4-0.5,0.6-0.9,0.6-1.3c0-0.2-0.1-0.5-0.2-0.6c-0.2-0.2-0.4-0.2-0.6-0.2c-0.6,0-1.3,0.3-1.9,1
	C165.9,51.1,165.4,52.1,165.1,53.5L165.1,53.5z M176.3,44.5l-3,10.7c-0.2,0.6-0.2,0.9-0.2,1s0,0.2,0.1,0.2c0.1,0.1,0.2,0.1,0.2,0.1
	l0.4-0.2c0.3-0.2,0.6-0.6,1-1.1l0.2,0.2c-0.6,0.8-1,1.4-1.5,1.7c-0.3,0.2-0.7,0.3-1,0.3c-0.3,0-0.4-0.1-0.6-0.2s-0.2-0.3-0.2-0.6
	s0.1-0.6,0.3-1.4l2.4-8.5c0.2-0.7,0.3-1.1,0.3-1.2c0-0.2-0.1-0.2-0.2-0.3c-0.1-0.1-0.3-0.2-0.6-0.2c-0.2,0-0.3,0-0.6,0.1v-0.3
	C173.3,44.9,176.3,44.5,176.3,44.5L176.3,44.5z M193.3,44.8l-0.9,3.9h-0.3v-1c0-0.3-0.1-0.7-0.2-1s-0.2-0.6-0.5-0.7
	c-0.2-0.2-0.5-0.4-0.8-0.5s-0.7-0.2-1.1-0.2c-1,0-2,0.3-2.8,0.9c-1,0.7-1.8,1.8-2.4,3.2c-0.5,1.1-0.7,2.2-0.7,3.4s0.3,2.2,1,2.8
	c0.7,0.7,1.6,1,2.6,1c0.8,0,1.5-0.2,2.2-0.6s1.2-1,1.8-1.8h0.4c-0.6,1-1.4,1.8-2.2,2.3s-1.8,0.7-2.9,0.7c-1,0-1.8-0.2-2.6-0.6
	c-0.7-0.4-1.4-1-1.8-1.8c-0.4-0.7-0.6-1.6-0.6-2.4c0-1.4,0.3-2.6,1-3.9c0.7-1.3,1.7-2.2,2.9-3s2.5-1,3.7-1c0.6,0,1.3,0.2,2,0.4
	c0.3,0.1,0.6,0.2,0.7,0.2c0.2,0,0.2,0,0.4-0.1c0.1-0.1,0.3-0.2,0.6-0.5L193.3,44.8L193.3,44.8z M201,52c0,0.9-0.2,1.8-0.7,2.6
	s-1.1,1.6-2,2.1c-0.8,0.5-1.7,0.8-2.5,0.8c-0.8,0-1.4-0.2-2-0.8c-0.5-0.6-0.8-1.2-0.8-2c0-0.9,0.2-1.8,0.7-2.6
	c0.5-0.9,1.2-1.6,2-2.1c0.8-0.5,1.7-0.8,2.4-0.8c0.8,0,1.4,0.2,1.9,0.8C200.8,50.5,201,51.2,201,52z M199.6,51.4
	c0-0.6-0.2-1-0.4-1.3c-0.2-0.3-0.6-0.5-1-0.5c-0.9,0-1.7,0.6-2.4,1.9s-1.1,2.5-1.1,3.8c0,0.6,0.2,1,0.4,1.3c0.3,0.3,0.6,0.5,1,0.5
	c0.8,0,1.6-0.6,2.3-1.9C199.2,53.9,199.6,52.6,199.6,51.4z M205.7,49.1l-1.2,4.1c1.1-1.7,1.9-2.8,2.6-3.3c0.6-0.6,1.1-0.8,1.7-0.8
	c0.3,0,0.6,0.1,0.7,0.3c0.2,0.2,0.3,0.5,0.3,0.8s-0.1,0.8-0.2,1.4l-1.1,3.8c-0.2,0.4-0.2,0.7-0.2,0.8c0,0.1,0,0.2,0.1,0.2
	c0.1,0.1,0.1,0.1,0.2,0.1s0.2-0.1,0.2-0.1c0.3-0.2,0.6-0.6,1-1.1l0.2,0.2c-0.6,0.8-1,1.4-1.6,1.7c-0.3,0.2-0.6,0.3-1,0.3
	c-0.2,0-0.4-0.1-0.6-0.2c-0.2-0.2-0.2-0.3-0.2-0.6s0.1-0.8,0.3-1.5l1-3.6c0.2-0.5,0.2-0.8,0.2-1s-0.1-0.2-0.1-0.3
	c-0.1-0.1-0.2-0.1-0.3-0.1c-0.2,0-0.4,0.1-0.6,0.2c-0.4,0.2-0.9,0.7-1.4,1.4c-0.5,0.6-1,1.4-1.5,2.4c-0.2,0.5-0.5,1-0.7,1.7
	l-0.5,1.5h-1.4l1.6-5.6c0.2-0.6,0.3-1.1,0.3-1.2c0-0.2-0.1-0.2-0.2-0.3c-0.1-0.1-0.2-0.2-0.4-0.2h-0.4l-0.3,0.1l-0.1-0.3
	C202.5,49.8,205.7,49.1,205.7,49.1z M217.4,49.1l-0.6,2.8h-0.3c0-0.8-0.2-1.4-0.5-1.8s-0.7-0.6-1.1-0.6c-0.4,0-0.6,0.1-0.9,0.3
	c-0.2,0.2-0.3,0.5-0.3,0.7s0.1,0.4,0.2,0.6s0.2,0.4,0.6,0.7c0.8,0.9,1.3,1.5,1.5,1.9c0.2,0.4,0.3,0.8,0.3,1.2c0,0.6-0.2,1.2-0.8,1.7
	c-0.5,0.5-1.1,0.7-1.9,0.7c-0.4,0-0.9-0.1-1.4-0.3c-0.2-0.1-0.3-0.1-0.5-0.1c-0.2,0-0.5,0.2-0.6,0.4h-0.3l0.6-2.9h0.3
	c0,0.9,0.2,1.5,0.6,1.9c0.3,0.4,0.8,0.6,1.4,0.6c0.5,0,0.8-0.2,1-0.4c0.2-0.2,0.4-0.6,0.4-1c0-0.2-0.1-0.5-0.2-0.6
	c-0.2-0.3-0.5-0.9-1-1.5c-0.6-0.6-0.9-1.1-1-1.4c-0.2-0.3-0.2-0.6-0.2-1c0-0.6,0.2-1,0.6-1.4c0.4-0.4,1-0.6,1.6-0.6
	c0.2,0,0.3,0,0.5,0.1c0.1,0,0.2,0.1,0.6,0.2c0.3,0.1,0.5,0.2,0.6,0.2c0.2,0,0.5-0.2,0.6-0.4L217.4,49.1L217.4,49.1z M222.1,49.1
	l-1.8,6.3c-0.1,0.4-0.2,0.7-0.2,0.8c0,0.1,0,0.2,0.1,0.2c0.1,0.1,0.2,0.1,0.2,0.1s0.2-0.1,0.3-0.2c0.3-0.2,0.6-0.6,1-1.1l0.3,0.2
	c-0.4,0.6-0.9,1.1-1.4,1.6c-0.4,0.3-0.8,0.5-1.1,0.5c-0.2,0-0.5-0.1-0.6-0.2c-0.2-0.2-0.2-0.3-0.2-0.6s0.1-0.6,0.2-1.1l1.1-4
	c0.2-0.6,0.3-1,0.3-1.3c0-0.2-0.1-0.2-0.2-0.3c-0.1-0.1-0.2-0.2-0.4-0.2c-0.2,0-0.4,0-0.8,0.1v-0.3L222.1,49.1z M221.9,45.5
	c0.2,0,0.5,0.1,0.6,0.2c0.2,0.2,0.2,0.4,0.2,0.6s-0.1,0.5-0.2,0.6c-0.2,0.2-0.4,0.2-0.6,0.2c-0.2,0-0.5-0.1-0.6-0.2
	c-0.2-0.2-0.2-0.4-0.2-0.6s0.1-0.5,0.2-0.6C221.5,45.6,221.7,45.5,221.9,45.5z M232.4,49.6l-0.2,1h-1.5c0.1,0.3,0.2,0.6,0.2,0.9
	c0,0.8-0.3,1.5-1,2.1c-0.6,0.6-1.6,1-2.7,1c-0.6,0.2-1.1,0.4-1.4,0.7c-0.2,0.1-0.2,0.2-0.2,0.3s0.1,0.2,0.2,0.3
	c0.1,0.1,0.4,0.2,0.8,0.3l1.7,0.4c1,0.2,1.6,0.5,1.9,0.8c0.3,0.3,0.5,0.7,0.5,1.1c0,0.5-0.2,1-0.6,1.4s-0.9,0.7-1.6,1
	c-0.7,0.2-1.4,0.3-2.3,0.3c-0.7,0-1.4-0.1-2-0.2c-0.6-0.2-1-0.4-1.3-0.7c-0.2-0.3-0.4-0.6-0.4-1c0-0.2,0.1-0.6,0.2-0.8
	c0.2-0.2,0.4-0.5,0.6-0.7c0.2-0.1,0.6-0.4,1.4-0.8c-0.2-0.2-0.4-0.5-0.4-0.7s0.2-0.5,0.3-0.8c0.2-0.2,0.7-0.6,1.5-0.9
	c-0.6-0.2-1.2-0.4-1.5-0.8c-0.4-0.4-0.6-0.9-0.6-1.4c0-0.9,0.4-1.6,1.1-2.3c0.7-0.6,1.7-1,3-1c0.5,0,0.8,0.1,1.1,0.2
	s0.6,0.2,0.8,0.4L232.4,49.6L232.4,49.6z M225,57.2c-0.5,0.2-0.9,0.5-1.1,0.9c-0.2,0.3-0.4,0.7-0.4,1c0,0.4,0.2,0.7,0.6,1
	c0.5,0.4,1.3,0.6,2.2,0.6c0.9,0,1.6-0.2,2.2-0.4c0.6-0.3,0.9-0.6,0.9-1.1c0-0.2-0.1-0.5-0.3-0.6c-0.2-0.2-0.6-0.4-1.3-0.5
	C227.4,57.9,226.5,57.6,225,57.2L225,57.2z M229.3,51.1c0-0.5-0.2-0.9-0.4-1.1c-0.2-0.2-0.6-0.4-1-0.4c-0.6,0-1.2,0.3-1.7,1
	c-0.4,0.7-0.6,1.4-0.6,2.2c0,0.5,0.2,0.8,0.4,1.1c0.2,0.3,0.6,0.5,1,0.5c0.3,0,0.6-0.1,0.9-0.2c0.3-0.2,0.6-0.4,0.7-0.7
	s0.3-0.7,0.5-1.2C229.3,51.6,229.3,51.3,229.3,51.1L229.3,51.1z M237.4,44.4l-3,10.7c-0.2,0.6-0.2,0.9-0.2,1s0,0.2,0.1,0.2
	c0.1,0.1,0.2,0.1,0.2,0.1c0.1,0,0.2-0.1,0.4-0.2c0.3-0.2,0.6-0.6,1-1.1l0.2,0.2c-0.6,0.8-1.1,1.4-1.5,1.7c-0.3,0.2-0.7,0.3-1,0.3
	c-0.3,0-0.4-0.1-0.6-0.2c-0.2-0.2-0.2-0.3-0.2-0.6s0.1-0.6,0.3-1.4l2.4-8.5c0.2-0.7,0.3-1.1,0.3-1.2c0-0.2-0.1-0.2-0.2-0.3
	c-0.1-0.1-0.3-0.2-0.6-0.2c-0.2,0-0.3,0-0.6,0.1v-0.3C234.5,44.9,237.4,44.5,237.4,44.4L237.4,44.4z M241.2,49.1l-1.8,6.3
	c-0.1,0.4-0.2,0.7-0.2,0.8c0,0.1,0,0.2,0.1,0.2c0.1,0.1,0.2,0.1,0.2,0.1s0.2-0.1,0.3-0.2c0.3-0.2,0.6-0.6,1-1.1l0.3,0.2
	c-0.4,0.6-0.9,1.1-1.4,1.6c-0.4,0.3-0.8,0.5-1.1,0.5c-0.2,0-0.5-0.1-0.6-0.2c-0.2-0.2-0.2-0.3-0.2-0.6s0.1-0.6,0.2-1.1l1.1-4
	c0.2-0.6,0.2-1,0.2-1.3c0-0.2-0.1-0.2-0.2-0.3c-0.1-0.1-0.2-0.2-0.4-0.2c-0.2,0-0.4,0-0.8,0.1v-0.3L241.2,49.1z M241.1,45.5
	c0.2,0,0.5,0.1,0.6,0.2c0.2,0.2,0.2,0.4,0.2,0.6s-0.1,0.5-0.2,0.6c-0.2,0.2-0.4,0.2-0.6,0.2s-0.5-0.1-0.6-0.2
	c-0.1-0.1-0.2-0.4-0.2-0.6s0.1-0.5,0.2-0.6C240.6,45.6,240.9,45.5,241.1,45.5z M250.5,51.9c0,0.9-0.2,1.8-0.7,2.6
	c-0.5,0.9-1.1,1.6-2,2.1c-0.9,0.5-1.7,0.8-2.5,0.8c-0.8,0-1.4-0.2-2-0.8c-0.5-0.6-0.8-1.2-0.8-2c0-0.9,0.2-1.8,0.7-2.6
	c0.5-0.9,1.2-1.6,2-2.1c0.8-0.5,1.7-0.8,2.4-0.8c0.8,0,1.4,0.2,1.9,0.8C250.2,50.4,250.5,51.1,250.5,51.9z M249,51.3
	c0-0.6-0.2-1-0.4-1.3c-0.2-0.3-0.6-0.5-1-0.5c-0.9,0-1.7,0.6-2.4,1.9c-0.7,1.3-1.1,2.5-1.1,3.8c0,0.6,0.2,1,0.4,1.3
	c0.3,0.3,0.6,0.5,1,0.5c0.8,0,1.6-0.6,2.3-1.9C248.6,53.9,249,52.6,249,51.3z M265.5,44.4l-3,10.6c-0.2,0.6-0.2,1-0.2,1.1
	s0,0.1,0.1,0.2s0.1,0.1,0.2,0.1c0.1,0,0.2-0.1,0.2-0.1c0.2-0.2,0.6-0.5,1-1.1l0.3,0.2c-0.4,0.6-0.9,1.1-1.3,1.4
	c-0.4,0.4-0.9,0.6-1.2,0.6c-0.2,0-0.4-0.1-0.5-0.2c-0.2-0.2-0.2-0.3-0.2-0.6s0.1-0.8,0.2-1.4l0.3-1.1c-0.9,1.4-1.6,2.2-2.3,2.8
	c-0.5,0.3-1,0.6-1.4,0.6c-0.5,0-0.9-0.2-1.2-0.6c-0.3-0.4-0.5-1-0.5-1.7c0-0.9,0.3-1.8,0.9-2.9c0.6-1,1.3-1.8,2.2-2.5
	c0.7-0.5,1.4-0.8,2-0.8c0.3,0,0.6,0.1,0.8,0.2c0.2,0.2,0.5,0.3,0.7,0.6l0.9-3.1c0.1-0.2,0.1-0.4,0.2-0.6s0.1-0.5,0.1-0.6
	c0-0.2-0.1-0.2-0.2-0.3c-0.2-0.1-0.3-0.2-0.5-0.2c-0.2,0-0.4,0-0.6,0.1v-0.3L265.5,44.4L265.5,44.4z M262.2,50.8
	c0-0.4-0.1-0.7-0.3-1c-0.2-0.3-0.5-0.3-0.8-0.3c-0.7,0-1.5,0.6-2.3,1.8c-0.8,1.3-1.2,2.5-1.2,3.6c0,0.5,0.1,0.8,0.3,1
	c0.2,0.2,0.4,0.3,0.7,0.3c0.6,0,1.4-0.6,2.3-2C261.7,53,262.2,51.9,262.2,50.8z M266.9,53.9c-0.1,0.3-0.1,0.6-0.1,0.7
	c0,0.6,0.2,1,0.6,1.4s0.8,0.6,1.4,0.6c0.4,0,0.8-0.1,1.2-0.2s1-0.6,1.8-1.2l0.2,0.2c-1.4,1.4-2.7,2.1-4,2.1c-0.9,0-1.5-0.2-1.9-0.8
	c-0.4-0.6-0.6-1.2-0.6-1.8c0-0.9,0.2-1.8,0.8-2.7c0.6-1,1.2-1.7,2.1-2.2c0.8-0.5,1.7-0.8,2.6-0.8c0.6,0,1.1,0.2,1.4,0.4
	c0.3,0.2,0.5,0.6,0.5,0.9c0,0.5-0.2,1-0.6,1.4c-0.5,0.6-1.3,1-2.2,1.4C269.1,53.5,268.1,53.7,266.9,53.9z M267,53.4
	c0.9-0.1,1.6-0.2,2.2-0.6c0.7-0.3,1.3-0.7,1.6-1.2c0.3-0.5,0.6-0.9,0.6-1.3c0-0.2-0.1-0.5-0.2-0.6c-0.2-0.2-0.4-0.2-0.6-0.2
	c-0.6,0-1.3,0.3-1.9,1C267.8,51.1,267.3,52.1,267,53.4L267,53.4z M277,49.1l-1.8,6.3c-0.1,0.4-0.2,0.7-0.2,0.8c0,0.1,0,0.2,0.1,0.2
	c0.1,0.1,0.2,0.1,0.2,0.1c0.1,0,0.2-0.1,0.3-0.2c0.3-0.2,0.6-0.6,1-1.1l0.3,0.2c-0.4,0.6-0.9,1.1-1.4,1.6c-0.4,0.3-0.8,0.5-1.1,0.5
	c-0.2,0-0.5-0.1-0.6-0.2c-0.2-0.2-0.2-0.3-0.2-0.6s0.1-0.6,0.2-1.1l1.1-4c0.2-0.6,0.2-1,0.2-1.3c0-0.2-0.1-0.2-0.2-0.3
	c-0.1-0.1-0.2-0.2-0.4-0.2c-0.2,0-0.4,0-0.8,0.1v-0.3L277,49.1L277,49.1z M276.9,45.5c0.2,0,0.5,0.1,0.6,0.2s0.2,0.4,0.2,0.6
	s-0.1,0.5-0.2,0.6c-0.1,0.1-0.4,0.2-0.6,0.2s-0.5-0.1-0.6-0.2c-0.2-0.2-0.2-0.4-0.2-0.6s0.1-0.5,0.2-0.6
	C276.5,45.6,276.6,45.5,276.9,45.5z M288.2,45.1l1.1,9.8l7-9.8h3v0.3c-0.6,0.1-1,0.1-1.1,0.2c-0.2,0.1-0.4,0.2-0.6,0.5
	c-0.2,0.2-0.3,0.7-0.6,1.4l-2.2,7.8c-0.2,0.5-0.2,0.8-0.2,1s0.1,0.4,0.2,0.6c0.2,0.2,0.6,0.2,1,0.2h0.2l-0.1,0.3h-5l0.1-0.3h0.2
	c0.5,0,0.8-0.1,1-0.2c0.2-0.1,0.3-0.2,0.5-0.6c0.2-0.2,0.3-0.9,0.6-1.8l2-7l-7,9.9H288l-1.1-9.9l-2.2,7.5c-0.2,0.6-0.2,1-0.2,1.3
	s0.1,0.4,0.2,0.5c0.2,0.1,0.6,0.2,1.2,0.2l-0.1,0.3h-4l0.1-0.3h0.2c0.6,0,1-0.2,1.3-0.5c0.2-0.2,0.4-0.7,0.6-1.4l2.6-9.1
	c-0.2-0.2-0.4-0.3-0.6-0.4s-0.5-0.2-1-0.2l0.1-0.3H288.2z M301.7,49.1l-1.8,6.3c-0.1,0.4-0.2,0.7-0.2,0.8c0,0.1,0,0.2,0.1,0.2
	c0.1,0.1,0.2,0.1,0.2,0.1c0.1,0,0.2-0.1,0.3-0.2c0.3-0.2,0.6-0.6,1-1.1l0.3,0.2c-0.4,0.6-0.9,1.1-1.4,1.6c-0.4,0.3-0.8,0.5-1.1,0.5
	c-0.2,0-0.5-0.1-0.6-0.2c-0.2-0.2-0.2-0.3-0.2-0.6s0.1-0.6,0.2-1.1l1.1-4c0.2-0.6,0.3-1,0.3-1.3c0-0.2-0.1-0.2-0.2-0.3
	c-0.1-0.1-0.2-0.2-0.4-0.2c-0.2,0-0.4,0-0.8,0.1v-0.3L301.7,49.1L301.7,49.1z M301.7,45.5c0.2,0,0.5,0.1,0.6,0.2s0.2,0.4,0.2,0.6
	s-0.1,0.5-0.2,0.6c-0.1,0.1-0.4,0.2-0.6,0.2s-0.5-0.1-0.6-0.2s-0.2-0.4-0.2-0.6s0.1-0.5,0.2-0.6C301.2,45.6,301.3,45.5,301.7,45.5z
	 M306.6,49.1l-1.2,4.1c1.1-1.7,1.9-2.8,2.6-3.3c0.6-0.6,1.1-0.8,1.7-0.8c0.3,0,0.6,0.1,0.7,0.3c0.2,0.2,0.3,0.5,0.3,0.8
	s-0.1,0.8-0.2,1.4l-1.1,3.8c-0.2,0.4-0.2,0.7-0.2,0.8c0,0.1,0,0.2,0.1,0.2c0.1,0.1,0.1,0.1,0.2,0.1c0.1,0,0.2-0.1,0.2-0.1
	c0.3-0.2,0.6-0.6,1-1.1l0.2,0.2c-0.6,0.8-1,1.4-1.5,1.7c-0.3,0.2-0.6,0.3-1,0.3c-0.2,0-0.4-0.1-0.6-0.2c-0.2-0.2-0.2-0.3-0.2-0.6
	s0.1-0.8,0.3-1.5l1-3.6c0.2-0.5,0.2-0.8,0.2-1s0-0.2-0.1-0.3c-0.1-0.1-0.2-0.1-0.3-0.1c-0.2,0-0.4,0.1-0.6,0.2
	c-0.4,0.2-0.9,0.7-1.4,1.4c-0.5,0.6-1,1.4-1.5,2.4c-0.2,0.5-0.5,1-0.7,1.7l-0.5,1.5h-1.4l1.6-5.6c0.2-0.6,0.3-1.1,0.3-1.2
	c0-0.2-0.1-0.2-0.2-0.3c-0.1-0.1-0.2-0.2-0.4-0.2h-0.4l-0.3,0.1l-0.1-0.3L306.6,49.1L306.6,49.1z M315.9,49.1l-1.8,6.3
	c-0.1,0.4-0.2,0.7-0.2,0.8c0,0.1,0,0.2,0.1,0.2c0.1,0.1,0.2,0.1,0.2,0.1c0.1,0,0.2-0.1,0.3-0.2c0.3-0.2,0.6-0.6,1-1.1l0.3,0.2
	c-0.4,0.6-0.9,1.1-1.4,1.6c-0.4,0.3-0.8,0.5-1.1,0.5c-0.2,0-0.4-0.1-0.6-0.2s-0.2-0.3-0.2-0.6s0.1-0.6,0.2-1.1l1.1-4
	c0.2-0.6,0.3-1,0.3-1.3c0-0.2-0.1-0.2-0.2-0.3c-0.1-0.1-0.2-0.2-0.4-0.2c-0.2,0-0.4,0-0.8,0.1v-0.3L315.9,49.1L315.9,49.1z
	 M315.7,45.5c0.2,0,0.5,0.1,0.6,0.2c0.2,0.2,0.2,0.4,0.2,0.6s-0.1,0.5-0.2,0.6c-0.2,0.2-0.4,0.2-0.6,0.2s-0.5-0.1-0.6-0.2
	c-0.2-0.2-0.2-0.4-0.2-0.6s0.1-0.5,0.2-0.6C315.3,45.6,315.5,45.5,315.7,45.5z M323.3,49.1l-0.6,2.8h-0.3c0-0.8-0.2-1.4-0.5-1.8
	c-0.3-0.4-0.7-0.6-1.1-0.6c-0.4,0-0.6,0.1-0.9,0.3c-0.2,0.2-0.3,0.5-0.3,0.7s0.1,0.4,0.2,0.6c0.1,0.2,0.2,0.4,0.6,0.7
	c0.8,0.9,1.3,1.5,1.5,1.9c0.2,0.4,0.3,0.8,0.3,1.2c0,0.6-0.2,1.2-0.8,1.7c-0.5,0.5-1.2,0.7-1.9,0.7c-0.4,0-0.9-0.1-1.4-0.3
	c-0.2-0.1-0.3-0.1-0.5-0.1c-0.2,0-0.5,0.2-0.6,0.4h-0.3l0.6-2.9h0.3c0,0.9,0.2,1.5,0.6,1.9c0.3,0.4,0.8,0.6,1.4,0.6
	c0.5,0,0.8-0.2,1-0.4c0.2-0.2,0.4-0.6,0.4-1c0-0.2-0.1-0.5-0.2-0.6c-0.2-0.3-0.5-0.9-1-1.5c-0.6-0.6-0.9-1.1-1-1.4
	c-0.2-0.3-0.2-0.6-0.2-1c0-0.6,0.2-1,0.6-1.4s1-0.6,1.6-0.6c0.2,0,0.4,0,0.5,0.1c0.1,0,0.2,0.1,0.6,0.2c0.3,0.1,0.5,0.2,0.6,0.2
	c0.2,0,0.5-0.2,0.6-0.4L323.3,49.1L323.3,49.1z M328.5,46.9l-0.7,2.5h1.4L329,50h-1.4l-1.5,5.3c-0.2,0.6-0.2,1-0.2,1.1
	s0,0.2,0.1,0.2c0.1,0.1,0.1,0.1,0.2,0.1c0.2,0,0.3-0.1,0.6-0.3c0.2-0.2,0.5-0.5,1-1.1l0.3,0.2c-0.6,0.8-1,1.4-1.5,1.7
	c-0.3,0.2-0.6,0.3-1,0.3c-0.2,0-0.5-0.1-0.6-0.2c-0.2-0.2-0.2-0.4-0.2-0.6c0-0.3,0.1-0.8,0.3-1.5l1.5-5.2h-1.4l0.1-0.3
	c0.6-0.2,1.2-0.5,1.6-0.8c0.4-0.3,0.9-1,1.4-1.8h0.2L328.5,46.9L328.5,46.9z M329.8,49.6l3-0.5l-1.3,4.4c1-1.8,2-3,2.8-3.8
	c0.5-0.4,0.9-0.6,1.2-0.6c0.2,0,0.3,0.1,0.5,0.2c0.1,0.1,0.2,0.3,0.2,0.5c0,0.4-0.1,0.8-0.3,1.1c-0.2,0.2-0.3,0.4-0.6,0.4
	c-0.2,0-0.2-0.1-0.3-0.2s-0.2-0.2-0.2-0.4c0-0.1,0-0.2-0.1-0.2c-0.1-0.1-0.1-0.1-0.2-0.1c-0.1,0-0.2,0-0.3,0.1
	c-0.2,0.1-0.4,0.3-0.7,0.7c-0.5,0.6-1,1.4-1.6,2.3c-0.2,0.4-0.5,0.9-0.6,1.4c-0.2,0.7-0.4,1.1-0.4,1.2l-0.3,1.1h-1.4l1.7-5.6
	c0.2-0.6,0.2-1.1,0.2-1.4c0-0.1-0.1-0.2-0.2-0.2c-0.2-0.1-0.2-0.2-0.5-0.2c-0.2,0-0.3,0-0.7,0.1L329.8,49.6L329.8,49.6z M340.1,49.1
	l-1.8,6.3c-0.1,0.4-0.2,0.7-0.2,0.8c0,0.1,0,0.2,0.1,0.2c0.1,0.1,0.2,0.1,0.2,0.1c0.1,0,0.2-0.1,0.3-0.2c0.3-0.2,0.6-0.6,1-1.1
	l0.3,0.2c-0.4,0.6-0.9,1.1-1.4,1.6c-0.4,0.3-0.8,0.5-1.1,0.5c-0.2,0-0.5-0.1-0.6-0.2c-0.2-0.2-0.2-0.3-0.2-0.6s0.1-0.6,0.2-1.1
	l1.1-4c0.2-0.6,0.3-1,0.3-1.3c0-0.2-0.1-0.2-0.2-0.3c-0.1-0.1-0.2-0.2-0.4-0.2c-0.2,0-0.4,0-0.8,0.1v-0.3L340.1,49.1L340.1,49.1z
	 M340,45.5c0.2,0,0.5,0.1,0.6,0.2s0.2,0.4,0.2,0.6s-0.1,0.5-0.2,0.6c-0.1,0.1-0.4,0.2-0.6,0.2s-0.5-0.1-0.6-0.2s-0.2-0.4-0.2-0.6
	s0.1-0.5,0.2-0.6C339.5,45.6,339.7,45.5,340,45.5z M345.4,38h-0.6c-0.2,0-0.2-0.1-0.2-0.2s0.1-0.2,0.2-0.2h0.6
	c0.1,0,0.2,0.1,0.2,0.2S345.5,38,345.4,38z M343.7,38H343c-0.1,0-0.2-0.1-0.2-0.2s0.1-0.2,0.2-0.2h0.7c0.2,0,0.2,0.1,0.2,0.2
	S343.8,38,343.7,38z M341.9,38h-0.8c-0.2,0-0.2-0.1-0.2-0.2s0.1-0.2,0.2-0.2h0.7c0.1,0,0.2,0.1,0.2,0.2S342,38,341.9,38L341.9,38z
	 M340.1,38h-0.8c-0.1,0-0.2-0.1-0.2-0.2s0.1-0.2,0.2-0.2h0.7c0.2,0,0.2,0.1,0.2,0.2S340.1,38,340.1,38L340.1,38z M338.2,38h-0.7
	c-0.2,0-0.2-0.1-0.2-0.2s0.1-0.2,0.2-0.2h0.7c0.2,0,0.2,0.1,0.2,0.2S338.3,38,338.2,38z M336.4,38h-0.7c-0.1,0-0.2-0.1-0.2-0.2
	s0.1-0.2,0.2-0.2h0.7c0.2,0,0.2,0.1,0.2,0.2S336.5,38,336.4,38z M334.5,38h-0.7c-0.1,0-0.2-0.1-0.2-0.2s0.1-0.2,0.2-0.2h0.7
	c0.1,0,0.2,0.1,0.2,0.2S334.7,38,334.5,38z M332.7,38H332c-0.1,0-0.2-0.1-0.2-0.2s0.1-0.2,0.2-0.2h0.7c0.1,0,0.2,0.1,0.2,0.2
	S332.9,38,332.7,38z M330.9,38h-0.7c-0.1,0-0.2-0.1-0.2-0.2s0.1-0.2,0.2-0.2h0.7c0.2,0,0.2,0.1,0.2,0.2S331,38,330.9,38z M329.1,38
	h-0.8c-0.2,0-0.2-0.1-0.2-0.2s0.1-0.2,0.2-0.2h0.7c0.1,0,0.2,0.1,0.2,0.2S329.2,38,329.1,38L329.1,38z M327.3,38h-0.7
	c-0.2,0-0.2-0.1-0.2-0.2s0.1-0.2,0.2-0.2h0.7c0.2,0,0.2,0.1,0.2,0.2L327.3,38z M325.4,38h-0.7c-0.2,0-0.2-0.1-0.2-0.2
	s0.1-0.2,0.2-0.2h0.7c0.1,0,0.2,0.1,0.2,0.2S325.5,38,325.4,38z M323.6,38h-0.7c-0.1,0-0.2-0.1-0.2-0.2s0.1-0.2,0.2-0.2h0.7
	c0.1,0,0.2,0.1,0.2,0.2S323.7,38,323.6,38z M321.7,38H321c-0.2,0-0.2-0.1-0.2-0.2s0.1-0.2,0.2-0.2h0.7c0.2,0,0.2,0.1,0.2,0.2
	S321.9,38,321.7,38z M319.9,38h-0.7c-0.2,0-0.2-0.1-0.2-0.2s0.1-0.2,0.2-0.2h0.7c0.1,0,0.2,0.1,0.2,0.2S320.1,38,319.9,38z
	 M318.1,38h-0.8c-0.1,0-0.2-0.1-0.2-0.2s0.1-0.2,0.2-0.2h0.7c0.2,0,0.2,0.1,0.2,0.2S318.2,38,318.1,38L318.1,38z M316.3,38h-0.8
	c-0.2,0-0.2-0.1-0.2-0.2s0.1-0.2,0.2-0.2h0.7c0.2,0,0.2,0.1,0.2,0.2S316.4,38,316.3,38L316.3,38z M314.5,38h-0.7
	c-0.1,0-0.2-0.1-0.2-0.2s0.1-0.2,0.2-0.2h0.7c0.1,0,0.2,0.1,0.2,0.2L314.5,38z M312.6,38h-0.7c-0.1,0-0.2-0.1-0.2-0.2
	s0.1-0.2,0.2-0.2h0.7c0.2,0,0.2,0.1,0.2,0.2S312.7,38,312.6,38z M310.8,38h-0.7c-0.2,0-0.2-0.1-0.2-0.2s0.1-0.2,0.2-0.2h0.7
	c0.1,0,0.2,0.1,0.2,0.2S310.9,38,310.8,38z M308.9,38h-0.7c-0.1,0-0.2-0.1-0.2-0.2s0.1-0.2,0.2-0.2h0.7c0.2,0,0.2,0.1,0.2,0.2
	S309.1,38,308.9,38z M307.1,38h-0.7c-0.1,0-0.2-0.1-0.2-0.2s0.1-0.2,0.2-0.2h0.7c0.1,0,0.2,0.1,0.2,0.2S307.3,38,307.1,38z
	 M305.3,38h-0.7c-0.2,0-0.2-0.1-0.2-0.2s0.1-0.2,0.2-0.2h0.7c0.2,0,0.2,0.1,0.2,0.2S305.4,38,305.3,38z M303.5,38h-0.8
	c-0.1,0-0.2-0.1-0.2-0.2s0.1-0.2,0.2-0.2h0.7c0.1,0,0.2,0.1,0.2,0.2S303.6,38,303.5,38L303.5,38z M301.7,38H301
	c-0.2,0-0.2-0.1-0.2-0.2s0.1-0.2,0.2-0.2h0.7c0.1,0,0.2,0.1,0.2,0.2L301.7,38z M299.8,38h-0.7c-0.1,0-0.2-0.1-0.2-0.2
	s0.1-0.2,0.2-0.2h0.7c0.2,0,0.2,0.1,0.2,0.2S299.9,38,299.8,38z M298,38h-0.7c-0.2,0-0.2-0.1-0.2-0.2s0.1-0.2,0.2-0.2h0.7
	c0.1,0,0.2,0.1,0.2,0.2S298.1,38,298,38z M296.1,38h-0.7c-0.2,0-0.2-0.1-0.2-0.2s0.1-0.2,0.2-0.2h0.7c0.2,0,0.2,0.1,0.2,0.2
	S296.3,38,296.1,38z M294.3,38h-0.7c-0.2,0-0.2-0.1-0.2-0.2s0.1-0.2,0.2-0.2h0.7c0.1,0,0.2,0.1,0.2,0.2S294.5,38,294.3,38z
	 M292.5,38h-0.7c-0.2,0-0.2-0.1-0.2-0.2s0.1-0.2,0.2-0.2h0.7c0.2,0,0.2,0.1,0.2,0.2S292.6,38,292.5,38z M290.7,38H290
	c-0.1,0-0.2-0.1-0.2-0.2s0.1-0.2,0.2-0.2h0.7c0.2,0,0.2,0.1,0.2,0.2S290.8,38,290.7,38z M288.9,38h-0.7c-0.2,0-0.2-0.1-0.2-0.2
	s0.1-0.2,0.2-0.2h0.7c0.2,0,0.2,0.1,0.2,0.2S288.9,38,288.9,38z M287,38h-0.7c-0.1,0-0.2-0.1-0.2-0.2s0.1-0.2,0.2-0.2h0.7
	c0.1,0,0.2,0.1,0.2,0.2S287.1,38,287,38z M285.2,38h-0.7c-0.1,0-0.2-0.1-0.2-0.2s0.1-0.2,0.2-0.2h0.7c0.1,0,0.2,0.1,0.2,0.2
	S285.3,38,285.2,38z M283.3,38h-0.7c-0.2,0-0.2-0.1-0.2-0.2s0.1-0.2,0.2-0.2h0.7c0.2,0,0.2,0.1,0.2,0.2S283.5,38,283.3,38z
	 M281.5,38h-0.7c-0.1,0-0.2-0.1-0.2-0.2s0.1-0.2,0.2-0.2h0.7c0.1,0,0.2,0.1,0.2,0.2S281.7,38,281.5,38z M279.7,38H279
	c-0.2,0-0.2-0.1-0.2-0.2s0.1-0.2,0.2-0.2h0.7c0.1,0,0.2,0.1,0.2,0.2S279.8,38,279.7,38z M277.9,38h-0.7c-0.2,0-0.2-0.1-0.2-0.2
	s0.1-0.2,0.2-0.2h0.7c0.1,0,0.2,0.1,0.2,0.2S278,38,277.9,38z M276.1,38h-0.8c-0.2,0-0.2-0.1-0.2-0.2s0.1-0.2,0.2-0.2h0.7
	c0.1,0,0.2,0.1,0.2,0.2S276.1,38,276.1,38L276.1,38z M274.2,38h-0.7c-0.1,0-0.2-0.1-0.2-0.2s0.1-0.2,0.2-0.2h0.7
	c0.2,0,0.2,0.1,0.2,0.2S274.4,38,274.2,38z M272.4,38h-0.7c-0.2,0-0.2-0.1-0.2-0.2s0.1-0.2,0.2-0.2h0.7c0.2,0,0.2,0.1,0.2,0.2
	S272.5,38,272.4,38z M270.5,38h-0.7c-0.1,0-0.2-0.1-0.2-0.2s0.1-0.2,0.2-0.2h0.7c0.1,0,0.2,0.1,0.2,0.2S270.7,38,270.5,38z
	 M268.7,38H268c-0.2,0-0.2-0.1-0.2-0.2s0.1-0.2,0.2-0.2h0.7c0.2,0,0.2,0.1,0.2,0.2S268.9,38,268.7,38z M266.9,38h-0.7
	c-0.1,0-0.2-0.1-0.2-0.2s0.1-0.2,0.2-0.2h0.7c0.1,0,0.2,0.1,0.2,0.2S267,38,266.9,38z M265.1,38h-0.7c-0.1,0-0.2-0.1-0.2-0.2
	s0.1-0.2,0.2-0.2h0.7c0.2,0,0.2,0.1,0.2,0.2S265.2,38,265.1,38z M263.3,38h-0.7c-0.2,0-0.2-0.1-0.2-0.2s0.1-0.2,0.2-0.2h0.7
	c0.1,0,0.2,0.1,0.2,0.2S263.3,38,263.3,38z M261.4,38h-0.7c-0.1,0-0.2-0.1-0.2-0.2s0.1-0.2,0.2-0.2h0.7c0.1,0,0.2,0.1,0.2,0.2
	S261.6,38,261.4,38z M259.6,38h-0.7c-0.1,0-0.2-0.1-0.2-0.2s0.1-0.2,0.2-0.2h0.7c0.2,0,0.2,0.1,0.2,0.2S259.7,38,259.6,38z
	 M257.7,38H257c-0.1,0-0.2-0.1-0.2-0.2s0.1-0.2,0.2-0.2h0.7c0.1,0,0.2,0.1,0.2,0.2S257.9,38,257.7,38z M255.9,38h-0.7
	c-0.1,0-0.2-0.1-0.2-0.2s0.1-0.2,0.2-0.2h0.7c0.2,0,0.2,0.1,0.2,0.2S256.1,38,255.9,38z M254.1,38h-0.7c-0.2,0-0.2-0.1-0.2-0.2
	s0.1-0.2,0.2-0.2h0.7c0.1,0,0.2,0.1,0.2,0.2S254.2,38,254.1,38z M252.3,38h-0.7c-0.1,0-0.2-0.1-0.2-0.2s0.1-0.2,0.2-0.2h0.7
	c0.1,0,0.2,0.1,0.2,0.2S252.4,38,252.3,38z M250.5,38h-0.7c-0.1,0-0.2-0.1-0.2-0.2s0.1-0.2,0.2-0.2h0.7c0.2,0,0.2,0.1,0.2,0.2
	S250.5,38,250.5,38z M248.6,38h-0.7c-0.1,0-0.2-0.1-0.2-0.2s0.1-0.2,0.2-0.2h0.7c0.1,0,0.2,0.1,0.2,0.2S248.8,38,248.6,38z
	 M246.8,38h-0.7c-0.2,0-0.2-0.1-0.2-0.2s0.1-0.2,0.2-0.2h0.7c0.2,0,0.2,0.1,0.2,0.2S246.9,38,246.8,38z M244.9,38h-0.7
	c-0.2,0-0.2-0.1-0.2-0.2s0.1-0.2,0.2-0.2h0.7c0.1,0,0.2,0.1,0.2,0.2S245.1,38,244.9,38z M243.1,38h-0.7c-0.1,0-0.2-0.1-0.2-0.2
	s0.1-0.2,0.2-0.2h0.7c0.2,0,0.2,0.1,0.2,0.2S243.3,38,243.1,38z M241.3,38h-0.7c-0.2,0-0.2-0.1-0.2-0.2s0.1-0.2,0.2-0.2h0.7
	c0.1,0,0.2,0.1,0.2,0.2S241.4,38,241.3,38z M239.5,38h-0.7c-0.2,0-0.2-0.1-0.2-0.2s0.1-0.2,0.2-0.2h0.7c0.2,0,0.2,0.1,0.2,0.2
	S239.6,38,239.5,38z M237.7,38H237c-0.1,0-0.2-0.1-0.2-0.2s0.1-0.2,0.2-0.2h0.7c0.2,0,0.2,0.1,0.2,0.2S237.7,38,237.7,38z M235.8,38
	h-0.7c-0.2,0-0.2-0.1-0.2-0.2s0.1-0.2,0.2-0.2h0.7c0.2,0,0.2,0.1,0.2,0.2S236,38,235.8,38z M234,38h-0.7c-0.1,0-0.2-0.1-0.2-0.2
	s0.1-0.2,0.2-0.2h0.7c0.1,0,0.2,0.1,0.2,0.2S234.1,38,234,38z M232.1,38h-0.7c-0.2,0-0.2-0.1-0.2-0.2s0.1-0.2,0.2-0.2h0.7
	c0.1,0,0.2,0.1,0.2,0.2S232.3,38,232.1,38z M230.4,38h-0.7c-0.2,0-0.2-0.1-0.2-0.2s0.1-0.2,0.2-0.2h0.7c0.2,0,0.2,0.1,0.2,0.2
	C230.5,37.9,230.5,38,230.4,38z M228.5,38h-0.7c-0.1,0-0.2-0.1-0.2-0.2s0.1-0.2,0.2-0.2h0.7c0.1,0,0.2,0.1,0.2,0.2
	S228.6,38,228.5,38z M226.7,38H226c-0.2,0-0.2-0.1-0.2-0.2s0.1-0.2,0.2-0.2h0.7c0.2,0,0.2,0.1,0.2,0.2S226.8,38,226.7,38z M224.9,38
	h-0.7c-0.1,0-0.2-0.1-0.2-0.2s0.1-0.2,0.2-0.2h0.7c0.2,0,0.2,0.1,0.2,0.2S224.9,38,224.9,38z M223,38h-0.7c-0.2,0-0.2-0.1-0.2-0.2
	s0.1-0.2,0.2-0.2h0.7c0.1,0,0.2,0.1,0.2,0.2S223.2,38,223,38L223,38z M221.2,38h-0.7c-0.1,0-0.2-0.1-0.2-0.2s0.1-0.2,0.2-0.2h0.7
	c0.2,0,0.2,0.1,0.2,0.2S221.3,38,221.2,38z M219.3,38h-0.7c-0.2,0-0.2-0.1-0.2-0.2s0.1-0.2,0.2-0.2h0.7c0.1,0,0.2,0.1,0.2,0.2
	S219.5,38,219.3,38z M217.6,38h-0.7c-0.1,0-0.2-0.1-0.2-0.2s0.1-0.2,0.2-0.2h0.7c0.2,0,0.2,0.1,0.2,0.2
	C217.7,37.9,217.7,38,217.6,38z M215.7,38H215c-0.1,0-0.2-0.1-0.2-0.2s0.1-0.2,0.2-0.2h0.7c0.1,0,0.2,0.1,0.2,0.2S215.8,38,215.7,38
	z M213.9,38h-0.7c-0.2,0-0.2-0.1-0.2-0.2s0.1-0.2,0.2-0.2h0.7c0.1,0,0.2,0.1,0.2,0.2S214,38,213.9,38z M212.1,38h-0.8
	c-0.1,0-0.2-0.1-0.2-0.2s0.1-0.2,0.2-0.2h0.7c0.2,0,0.2,0.1,0.2,0.2S212.2,38,212.1,38L212.1,38z M210.2,38h-0.7
	c-0.2,0-0.2-0.1-0.2-0.2s0.1-0.2,0.2-0.2h0.7c0.1,0,0.2,0.1,0.2,0.2S210.4,38,210.2,38z M208.4,38h-0.7c-0.1,0-0.2-0.1-0.2-0.2
	s0.1-0.2,0.2-0.2h0.7c0.2,0,0.2,0.1,0.2,0.2S208.5,38,208.4,38z M206.5,38h-0.7c-0.2,0-0.2-0.1-0.2-0.2s0.1-0.2,0.2-0.2h0.7
	c0.2,0,0.2,0.1,0.2,0.2S206.7,38,206.5,38z M204.8,38h-0.7c-0.2,0-0.2-0.1-0.2-0.2s0.1-0.2,0.2-0.2h0.7c0.1,0,0.2,0.1,0.2,0.2
	C204.9,37.9,204.9,38,204.8,38z M202.9,38h-0.7c-0.1,0-0.2-0.1-0.2-0.2s0.1-0.2,0.2-0.2h0.7c0.2,0,0.2,0.1,0.2,0.2S203,38,202.9,38z
	 M201.1,38h-0.7c-0.2,0-0.2-0.1-0.2-0.2s0.1-0.2,0.2-0.2h0.7c0.1,0,0.2,0.1,0.2,0.2S201.2,38,201.1,38z M199.3,38h-0.7
	c-0.1,0-0.2-0.1-0.2-0.2s0.1-0.2,0.2-0.2h0.7c0.2,0,0.2,0.1,0.2,0.2S199.4,38,199.3,38z M197.4,38h-0.7c-0.2,0-0.2-0.1-0.2-0.2
	s0.1-0.2,0.2-0.2h0.7c0.1,0,0.2,0.1,0.2,0.2S197.6,38,197.4,38z M195.6,38h-0.7c-0.1,0-0.2-0.1-0.2-0.2s0.1-0.2,0.2-0.2h0.7
	c0.1,0,0.2,0.1,0.2,0.2S195.7,38,195.6,38z M193.7,38H193c-0.1,0-0.2-0.1-0.2-0.2s0.1-0.2,0.2-0.2h0.7c0.2,0,0.2,0.1,0.2,0.2
	S193.9,38,193.7,38z M192,38h-0.7c-0.2,0-0.2-0.1-0.2-0.2s0.1-0.2,0.2-0.2h0.7c0.1,0,0.2,0.1,0.2,0.2C192.1,37.9,192.1,38,192,38
	L192,38z M190.1,38h-0.7c-0.1,0-0.2-0.1-0.2-0.2s0.1-0.2,0.2-0.2h0.7c0.2,0,0.2,0.1,0.2,0.2S190.2,38,190.1,38z M188.3,38h-0.7
	c-0.2,0-0.2-0.1-0.2-0.2s0.1-0.2,0.2-0.2h0.7c0.2,0,0.2,0.1,0.2,0.2S188.4,38,188.3,38z M186.5,38h-0.7c-0.1,0-0.2-0.1-0.2-0.2
	s0.1-0.2,0.2-0.2h0.7c0.1,0,0.2,0.1,0.2,0.2S186.6,38,186.5,38z M184.6,38h-0.7c-0.2,0-0.2-0.1-0.2-0.2s0.1-0.2,0.2-0.2h0.7
	c0.1,0,0.2,0.1,0.2,0.2S184.8,38,184.6,38z M182.8,38h-0.7c-0.2,0-0.2-0.1-0.2-0.2s0.1-0.2,0.2-0.2h0.7c0.1,0,0.2,0.1,0.2,0.2
	S182.9,38,182.8,38z M180.9,38h-0.7c-0.1,0-0.2-0.1-0.2-0.2s0.1-0.2,0.2-0.2h0.7c0.2,0,0.2,0.1,0.2,0.2S181.1,38,180.9,38z
	 M179.2,38h-0.7c-0.2,0-0.2-0.1-0.2-0.2s0.1-0.2,0.2-0.2h0.7c0.1,0,0.2,0.1,0.2,0.2C179.3,37.9,179.3,38,179.2,38z M177.3,38h-0.7
	c-0.2,0-0.2-0.1-0.2-0.2s0.1-0.2,0.2-0.2h0.7c0.2,0,0.2,0.1,0.2,0.2S177.4,38,177.3,38z M175.5,38h-0.7c-0.2,0-0.2-0.1-0.2-0.2
	s0.1-0.2,0.2-0.2h0.7c0.1,0,0.2,0.1,0.2,0.2S175.6,38,175.5,38z M173.7,38H173c-0.2,0-0.2-0.1-0.2-0.2s0.1-0.2,0.2-0.2h0.7
	c0.2,0,0.2,0.1,0.2,0.2S173.8,38,173.7,38z M171.8,38h-0.7c-0.1,0-0.2-0.1-0.2-0.2s0.1-0.2,0.2-0.2h0.7c0.2,0,0.2,0.1,0.2,0.2
	S172,38,171.8,38z M170,38h-0.7c-0.2,0-0.2-0.1-0.2-0.2s0.1-0.2,0.2-0.2h0.7c0.2,0,0.2,0.1,0.2,0.2S170.1,38,170,38L170,38z
	 M168.2,38h-0.7c-0.2,0-0.2-0.1-0.2-0.2s0.1-0.2,0.2-0.2h0.7c0.2,0,0.2,0.1,0.2,0.2S168.3,38,168.2,38z M166.4,38h-0.7
	c-0.1,0-0.2-0.1-0.2-0.2s0.1-0.2,0.2-0.2h0.7c0.1,0,0.2,0.1,0.2,0.2C166.5,37.9,166.5,38,166.4,38z M164.5,38h-0.7
	c-0.1,0-0.2-0.1-0.2-0.2s0.1-0.2,0.2-0.2h0.7c0.2,0,0.2,0.1,0.2,0.2S164.6,38,164.5,38z M162.7,38H162c-0.2,0-0.2-0.1-0.2-0.2
	s0.1-0.2,0.2-0.2h0.7c0.1,0,0.2,0.1,0.2,0.2S162.8,38,162.7,38z M160.9,38h-0.7c-0.2,0-0.2-0.1-0.2-0.2s0.1-0.2,0.2-0.2h0.7
	c0.1,0,0.2,0.1,0.2,0.2S161,38,160.9,38z M159,38h-0.7c-0.1,0-0.2-0.1-0.2-0.2s0.1-0.2,0.2-0.2h0.7c0.2,0,0.2,0.1,0.2,0.2
	S159.2,38,159,38L159,38z M157.2,38h-0.7c-0.2,0-0.2-0.1-0.2-0.2s0.1-0.2,0.2-0.2h0.7c0.1,0,0.2,0.1,0.2,0.2S157.3,38,157.2,38z
	 M155.4,38h-0.7c-0.1,0-0.2-0.1-0.2-0.2s0.1-0.2,0.2-0.2h0.7c0.2,0,0.2,0.1,0.2,0.2S155.5,38,155.4,38z M153.6,38h-0.7
	c-0.2,0-0.2-0.1-0.2-0.2s0.1-0.2,0.2-0.2h0.7c0.1,0,0.2,0.1,0.2,0.2C153.7,37.9,153.7,38,153.6,38z M151.7,38H151
	c-0.2,0-0.2-0.1-0.2-0.2s0.1-0.2,0.2-0.2h0.7c0.2,0,0.2,0.1,0.2,0.2S151.8,38,151.7,38z M149.9,38h-0.7c-0.1,0-0.2-0.1-0.2-0.2
	s0.1-0.2,0.2-0.2h0.7c0.2,0,0.2,0.1,0.2,0.2S150.1,38,149.9,38z M148.1,38h-0.8c-0.2,0-0.2-0.1-0.2-0.2s0.1-0.2,0.2-0.2h0.7
	c0.1,0,0.2,0.1,0.2,0.2S148.2,38,148.1,38L148.1,38z M146.2,38h-0.7c-0.1,0-0.2-0.1-0.2-0.2s0.1-0.2,0.2-0.2h0.7
	c0.2,0,0.2,0.1,0.2,0.2S146.4,38,146.2,38z M144.4,38h-0.7c-0.2,0-0.2-0.1-0.2-0.2s0.1-0.2,0.2-0.2h0.7c0.2,0,0.2,0.1,0.2,0.2
	S144.5,38,144.4,38z M142.6,38h-0.7c-0.1,0-0.2-0.1-0.2-0.2s0.1-0.2,0.2-0.2h0.7c0.2,0,0.2,0.1,0.2,0.2S142.7,38,142.6,38z
	 M140.8,38h-0.7c-0.2,0-0.2-0.1-0.2-0.2s0.1-0.2,0.2-0.2h0.7c0.2,0,0.2,0.1,0.2,0.2C140.9,37.9,140.9,38,140.8,38z M138.9,38h-0.7
	c-0.2,0-0.2-0.1-0.2-0.2s0.1-0.2,0.2-0.2h0.7c0.1,0,0.2,0.1,0.2,0.2S139,38,138.9,38z M137.1,38h-0.7c-0.1,0-0.2-0.1-0.2-0.2
	s0.1-0.2,0.2-0.2h0.7c0.2,0,0.2,0.1,0.2,0.2S137.3,38,137.1,38z M135.3,38h-0.8c-0.2,0-0.2-0.1-0.2-0.2s0.1-0.2,0.2-0.2h0.8
	c0.1,0,0.2,0.1,0.2,0.2S135.4,38,135.3,38z M133.4,38h-0.7c-0.1,0-0.2-0.1-0.2-0.2s0.1-0.2,0.2-0.2h0.7c0.1,0,0.2,0.1,0.2,0.2
	S133.6,38,133.4,38z M131.7,38h-0.8c-0.2,0-0.2-0.1-0.2-0.2s0.1-0.2,0.2-0.2h0.7c0.1,0,0.2,0.1,0.2,0.2S131.7,38,131.7,38z
	 M129.8,38h-0.7c-0.1,0-0.2-0.1-0.2-0.2s0.1-0.2,0.2-0.2h0.7c0.2,0,0.2,0.1,0.2,0.2S129.9,38,129.8,38z M128,38h-0.7
	c-0.1,0-0.2-0.1-0.2-0.2s0.1-0.2,0.2-0.2h0.7c0.2,0,0.2,0.1,0.2,0.2S128.1,38,128,38z M126.1,38h-0.7c-0.2,0-0.2-0.1-0.2-0.2
	s0.1-0.2,0.2-0.2h0.7c0.2,0,0.2,0.1,0.2,0.2S126.2,38,126.1,38z M124.3,38h-0.7c-0.2,0-0.2-0.1-0.2-0.2s0.1-0.2,0.2-0.2h0.7
	c0.2,0,0.2,0.1,0.2,0.2S124.5,38,124.3,38z M122.5,38h-0.7c-0.2,0-0.2-0.1-0.2-0.2s0.1-0.2,0.2-0.2h0.7c0.1,0,0.2,0.1,0.2,0.2
	S122.6,38,122.5,38z M120.6,38h-0.7c-0.1,0-0.2-0.1-0.2-0.2s0.1-0.2,0.2-0.2h0.7c0.2,0,0.2,0.1,0.2,0.2S120.8,38,120.6,38z
	 M118.9,38h-0.7c-0.2,0-0.2-0.1-0.2-0.2s0.1-0.2,0.2-0.2h0.7c0.2,0,0.2,0.1,0.2,0.2L118.9,38z M117,38h-0.7c-0.1,0-0.2-0.1-0.2-0.2
	s0.1-0.2,0.2-0.2h0.7c0.1,0,0.2,0.1,0.2,0.2S117.1,38,117,38z M115.2,38h-0.7c-0.2,0-0.2-0.1-0.2-0.2s0.1-0.2,0.2-0.2h0.7
	c0.1,0,0.2,0.1,0.2,0.2S115.3,38,115.2,38z M113.3,38h-0.7c-0.1,0-0.2-0.1-0.2-0.2s0.1-0.2,0.2-0.2h0.7c0.1,0,0.2,0.1,0.2,0.2
	S113.4,38,113.3,38z M111.5,38h-0.7c-0.1,0-0.2-0.1-0.2-0.2s0.1-0.2,0.2-0.2h0.7c0.2,0,0.2,0.1,0.2,0.2S111.7,38,111.5,38z
	 M109.7,38H109c-0.2,0-0.2-0.1-0.2-0.2s0.1-0.2,0.2-0.2h0.7c0.1,0,0.2,0.1,0.2,0.2S109.8,38,109.7,38z M107.8,38h-0.7
	c-0.2,0-0.2-0.1-0.2-0.2s0.1-0.2,0.2-0.2h0.7c0.2,0,0.2,0.1,0.2,0.2S108,38,107.8,38z M106.1,38h-0.8c-0.1,0-0.2-0.1-0.2-0.2
	s0.1-0.2,0.2-0.2h0.7c0.2,0,0.2,0.1,0.2,0.2S106.1,38,106.1,38z M104.2,38h-0.7c-0.1,0-0.2-0.1-0.2-0.2s0.1-0.2,0.2-0.2h0.7
	c0.1,0,0.2,0.1,0.2,0.2S104.3,38,104.2,38z M102.4,38h-0.7c-0.1,0-0.2-0.1-0.2-0.2s0.1-0.2,0.2-0.2h0.7c0.2,0,0.2,0.1,0.2,0.2
	S102.5,38,102.4,38z M100.5,38h-0.7c-0.2,0-0.2-0.1-0.2-0.2s0.1-0.2,0.2-0.2h0.7c0.1,0,0.2,0.1,0.2,0.2S100.7,38,100.5,38z M98.7,38
	H98c-0.1,0-0.2-0.1-0.2-0.2s0.1-0.2,0.2-0.2h0.7c0.2,0,0.2,0.1,0.2,0.2S98.9,38,98.7,38z M96.9,38h-0.7C96,38,96,37.9,96,37.8
	s0.1-0.2,0.2-0.2h0.7c0.2,0,0.2,0.1,0.2,0.2S97,38,96.9,38z M95,38h-0.7c-0.2,0-0.2-0.1-0.2-0.2s0.1-0.2,0.2-0.2H95
	c0.1,0,0.2,0.1,0.2,0.2S95.2,38,95,38z M93.3,38h-0.7c-0.1,0-0.2-0.1-0.2-0.2s0.1-0.2,0.2-0.2h0.7c0.2,0,0.2,0.1,0.2,0.2L93.3,38z
	 M91.4,38h-0.7c-0.2,0-0.2-0.1-0.2-0.2s0.1-0.2,0.2-0.2h0.7c0.1,0,0.2,0.1,0.2,0.2S91.5,38,91.4,38z M89.6,38h-0.7
	c-0.1,0-0.2-0.1-0.2-0.2s0.1-0.2,0.2-0.2h0.7c0.2,0,0.2,0.1,0.2,0.2S89.7,38,89.6,38z M87.7,38H87c-0.2,0-0.2-0.1-0.2-0.2
	s0.1-0.2,0.2-0.2h0.7c0.1,0,0.2,0.1,0.2,0.2S87.9,38,87.7,38z M85.9,38h-0.7C85,38,85,37.9,85,37.8s0.1-0.2,0.2-0.2h0.7
	c0.2,0,0.2,0.1,0.2,0.2S86.1,38,85.9,38z M84.1,38h-0.8c-0.1,0-0.2-0.1-0.2-0.2s0.1-0.2,0.2-0.2H84c0.2,0,0.2,0.1,0.2,0.2
	S84.2,38,84.1,38z M82.2,38h-0.7c-0.2,0-0.2-0.1-0.2-0.2s0.1-0.2,0.2-0.2h0.7c0.1,0,0.2,0.1,0.2,0.2S82.4,38,82.2,38z M80.5,38h-0.7
	c-0.1,0-0.2-0.1-0.2-0.2s0.1-0.2,0.2-0.2h0.7c0.2,0,0.2,0.1,0.2,0.2L80.5,38z M78.6,38h-0.7c-0.2,0-0.2-0.1-0.2-0.2s0.1-0.2,0.2-0.2
	h0.7c0.2,0,0.2,0.1,0.2,0.2S78.7,38,78.6,38z M76.8,38h-0.7c-0.1,0-0.2-0.1-0.2-0.2s0.1-0.2,0.2-0.2h0.7c0.2,0,0.2,0.1,0.2,0.2
	S76.9,38,76.8,38z M74.9,38h-0.7c-0.1,0-0.2-0.1-0.2-0.2s0.1-0.2,0.2-0.2h0.7c0.2,0,0.2,0.1,0.2,0.2S75.1,38,74.9,38z M73.1,38h-0.7
	c-0.2,0-0.2-0.1-0.2-0.2s0.1-0.2,0.2-0.2h0.7c0.1,0,0.2,0.1,0.2,0.2S73.3,38,73.1,38z M71.3,38h-0.7c-0.1,0-0.2-0.1-0.2-0.2
	s0.1-0.2,0.2-0.2h0.7c0.1,0,0.2,0.1,0.2,0.2S71.4,38,71.3,38z M69.5,38h-0.7c-0.2,0-0.2-0.1-0.2-0.2s0.1-0.2,0.2-0.2h0.7
	c0.2,0,0.2,0.1,0.2,0.2S69.6,38,69.5,38z M67.7,38H67c-0.1,0-0.2-0.1-0.2-0.2s0.1-0.2,0.2-0.2h0.7c0.2,0,0.2,0.1,0.2,0.2L67.7,38z
	 M65.8,38h-0.7c-0.2,0-0.2-0.1-0.2-0.2s0.1-0.2,0.2-0.2h0.7c0.1,0,0.2,0.1,0.2,0.2S65.9,38,65.8,38z M64,38h-0.7
	c-0.1,0-0.2-0.1-0.2-0.2s0.1-0.2,0.2-0.2H64c0.2,0,0.2,0.1,0.2,0.2S64.1,38,64,38z M62.1,38h-0.7c-0.1,0-0.2-0.1-0.2-0.2
	s0.1-0.2,0.2-0.2h0.7c0.1,0,0.2,0.1,0.2,0.2S62.3,38,62.1,38z M61.4,34.9c-0.2,0-0.2-0.1-0.2-0.2V0.2C61.2,0,61.3,0,61.4,0
	s0.2,0.1,0.2,0.2v34.4C61.7,34.8,61.5,34.9,61.4,34.9z M61.4,75c-0.2,0-0.2-0.1-0.2-0.2V40.4c0-0.1,0.1-0.2,0.2-0.2s0.2,0.1,0.2,0.2
	v34.4C61.7,74.9,61.5,75,61.4,75z"/>
<g>
	<path class="st1" d="M31.9,64.5c-0.1,0.2,0,0.3,0.2,0.4c0.2,0.2,0.4,0.2,0.5,0.1L31.9,64.5L31.9,64.5z"/>
	<path class="st0" d="M52.1,35.6c0.2-1.1,0-1.8-0.4-2.1c-0.4-0.3-0.9-0.2-1.5,0.3c-0.4-0.2-0.8,0-1.4,0.5c0.1-0.3,0.1-0.5,0-0.7
		c0.6-0.2,0.9-0.5,1-0.8c0.2-0.3,0.2-0.8,0.2-1.4c0.1-0.4,0.4-1.1,1.1-2.1c0.5-1,0.1-1.4-0.9-1.1c0.6-0.6,0.9-1,0.9-1.4
		c0-0.4-0.1-0.9-0.5-1.4c-0.2-0.3-0.4-0.4-0.7-0.2c0.1-0.2,0.2-0.5,0.2-0.8c0-0.3-0.2-0.9-0.6-1.9c-0.1-1.2-0.4-1.7-0.9-1.5
		c-0.1-0.6-0.3-1.3-0.6-1.9c-0.5-0.8-0.9-0.9-1.2-0.6c-0.8-1.2-1.6-1.7-2.3-1.5c0-0.5-0.2-1-0.5-1.4c-0.2-0.8-0.4-1.3-0.7-1.7
		c-0.4-0.2-0.6,0.1-0.8,0.6c-0.1-0.5-0.2-0.9-0.4-1.4c-0.2-0.5-0.6-0.8-1.1-0.8c-0.2,0-0.4,0-0.5,0.1c-0.3-0.2-0.6-0.3-0.8-0.3
		c-0.7-0.8-1.3-0.8-1.9-0.2l-0.1-0.7c-0.2-0.8-0.6-0.9-1.3-0.5c-1-1.1-1.9-1.7-2.6-2.1c-0.6-0.2-1-0.2-1.2,0.2
		c-0.3-0.3-0.6-0.5-1-0.6c-0.4-0.1-0.7-0.2-1-0.3c-0.5,0-0.7,0.2-0.6,0.8c-0.8,0-1.3,0.2-1.5,0.4c-0.3,0.2-0.4,0.5-0.2,0.9
		s0.4,0.7,0.9,0.9c-0.1,0.2-0.2,0.4-0.2,0.7c0,0.3,0.4,0.6,1,0.8c0.5,0.1,0.9,0.1,1.4,0c-0.1,0.5,0.1,0.8,0.5,0.9
		c0.6,0.6,1.3,0.8,2.3,0.5l-0.1,0.8l1.2,0.5c0,0.6,0.3,1,0.8,1.3l0.5,0.2c-0.1,0-0.6,0.4-0.6,0.4c-0.1,0.1-0.4,0.7,0.3,0.8
		c0.5,0,1,0.1,1.5,0.1c0,0.2,0.1,0.4,0.2,0.6s0.3,0.5,0.7,0.9c0.4,0.4,1,0.7,1.5,0.9c0,0-0.2,0.4-0.3,0.8c-0.2,0.5-0.2,1.2,0.1,1.6
		c-0.1,0-0.4,0.2-0.5,0.4c-0.4,0.6,0.4,1.5,0.6,1.8c-0.1,0-0.3,0.1-0.4,0.2c-0.3,0.2-0.2,1.2,0.6,1.4c0.2,0.1,1.1,0.6,1.6,1.1
		c0.1,0.1,0.4,0.6,0.8,1.1c0.2,0.3,0.4,0.7,0.9,0.7c0.4,1.5,1.2,2.8,2.1,4.2c0,0,0.8,0.9,1.1,1.7c-0.1,0.5-0.1,0.9-0.1,1
		c-0.1,1-0.3,1.9-0.6,2.8c-0.9-0.4-1,0.2-1.1,0.7c0,0-0.4-0.1-0.5,0.1c0-0.4-0.5-0.6-0.8-0.5c0,0-0.3,0.2-0.5,0.3
		c0,0-0.1-0.3-0.1-0.5c0-0.2,0-0.8,0.1-1c0,0,0.2-0.3,0.4-0.5c0.3-0.5,0.1-1.9-0.2-3c-0.1-0.3-0.3-0.5-0.5-0.5c-0.1,0-0.6,0-0.6,0.4
		c0-0.2-0.4-0.3-0.6-0.4c-0.7-0.2-1.4,1.1-1.3,2.4c-0.5-0.4-1.1-0.3-1.1,0.4c0.1,0.9,1.5,2.6,1.6,3.4c-0.4-0.4-1.4-0.4-1.4,0.6
		c0,0.3,0.2,0.8,0.3,0.9c-0.2,1,0.9,1.7,1.9,2.6c0,0.4,0.1,0.4,0.3,0.6c-0.2,0.3-1.2,1.9-1.2,1.9c0,0-0.8-0.4-1-0.2
		s-0.5,0.5-0.6,0.7l0.1,1.1c0.1,0.5-0.2,1-0.8,1.6s-1,1.1-1.2,1.6c-0.1,0.4-0.5,0.8-1.2,1.2c0-0.1-0.2-0.3-0.5-0.6
		c0-0.1-0.1-0.1-0.2-0.1c-0.7,0.2-2.1,1-4.3,2.1c-0.4,0.2-0.9,0.7-1.6,1.9h-1.2c-0.3-0.4-0.7-0.6-1.1-1c-0.3-0.2-0.8-0.2-1.4,0.1
		c-0.6-0.2-1.3,0-1.9,0.4c-0.4,0.2-0.7,0.2-0.9,0.1l-1.5-1.7c-3.2-1.3-4.9-1.9-5.2-1.8c-0.3,0.2-0.6,0.4-0.7,0.8
		c-0.3-0.2-0.8-0.6-1.4-1.2l-0.9-1.1c-0.7-0.8-1-1.5-0.9-2.3l0.2-0.9c0-0.2,0-0.3-0.1-0.4c-0.2-0.2-0.6-0.4-0.8-0.4
		c0,0-0.2-0.1-0.3,0.5c0,0.1-1-1.4-1-1.4c0.3-0.3,0.8-1.2,1.1-2.2c0.3-1.2,0.5-2.4,0.5-3c0-0.1,0.1-0.1,0.1-0.2
		c0.5-0.4,1.1-3.8,0.9-4.7c-0.1-0.3-0.2-0.5-0.2-0.5c-0.1,0-0.2,0-0.3,0.1l0.2-0.4c0.1-0.3,0.1-0.4,0-0.5c-0.1-0.1-0.6,0-1.1,0.2
		c-0.1-0.6-0.3-1.3-0.4-1.6c0-0.1-0.2,0-0.2,0c-0.9,0.5-1.3,1.7-1.6,3.1l-0.2,0.2c-1.1,1.4-2,3-2.4,4.9c-0.2-0.3-0.3-0.7-0.5-1.3
		c-0.2-0.6-0.2-0.9-0.2-1.1C6,39.2,6,38.9,5.7,38.6c-0.2-0.2-0.5-1.1-0.8-2.8c0-0.4,0.2-1.1,0.5-2c0.3-0.9,0.9-2,1.6-3.2
		c0,0,0.4-0.4,0.5-0.4c1.1-0.3,5.9-6.5,5.4-9.4c-0.1,0.4,2.1-3.4,2.3-4.2l0.3-0.1l0.3-0.1c1-0.4,1.9-0.9,2.7-1.2l1.3-0.7
		c0.9-0.4,1.7-0.9,2.5-1.5c0.8-0.7,1.3-1.5,1.3-2.3c-0.2-0.3-0.6-0.4-1.3-0.4c0.4-0.4,0.6-0.9,0.6-1.3c-0.3-0.4-1.1-0.4-2.4-0.2
		c-1.4,0.4-2.6,0.9-3.7,1.7c-1.1,0.7-2.1,1.5-2.9,2.5c-0.9,1-1.5,2-2.1,3.1l0.6-1.4c0.3-0.7,0.6-1.5,1-2.4c0.1-0.4,0.1-0.8,0-0.9
		c-0.1-0.2-0.3-0.3-0.6-0.2c-0.3,0.1-0.9,0.5-1.8,1.3c-0.9,1-1.8,2.2-2.5,3.6c-0.8,1.4-1.2,2.6-1.5,3.4C7.1,18.4,7,17.6,6.8,17
		c-0.1-0.3-0.3-0.4-0.7-0.2c-0.3,0.2-0.7,0.6-1,1c-0.3,0.5-0.7,0.9-0.9,1.3c-0.3,0.4-0.7,1-1.1,1.8c-0.4,0.8-0.8,1.7-1.1,2.8
		S1.5,26.2,1.3,28c-0.1,1.1,0,2.4,0.2,3.7c0.3,1.3,0.7,2.3,1,2.9c0.3,0.6,0.6,1,0.9,1.1c0.2,0.5,0.4,1.2,0.8,2.3
		c0.2,0.5,0.2,0.9,0.2,1.1c0,0.3,0,0.4,0.2,0.6C4.8,39.8,4.9,40,5,40.3c0.3,1,0.6,1.9,1.1,2.8C6,43.5,6,44,6,44.5
		c-1-2.9-1.8-5.1-2.4-6.6c-1.2-2.7-2.1-3.9-2.8-3.7c-0.4,0.1-0.6,0.4-0.7,0.9c0,0.2,0,0.7,0,1.4c0,0.8,0.1,1.6,0.2,2.4
		c0.6,2.8,1.7,5.1,3.2,6.9l2.3,2.7c0.5,0.5,0.9,0.8,1.3,1c0.4,0.2,0.8,0.3,1.1,0.2c0.5,0.8,1.2,1.7,2,2.6c0.5,0.8,1,1.1,1.5,1.1
		c0.2,0.5,0.6,0.8,1,0.8l0.5-0.1c0.6,0.6,1.2,1.1,1.7,1.5l-0.6,1.7c-1,0.2-2,0.2-2.9,0.2C10.7,57,9.6,56.2,8,55.2L8,53.4
		c0-0.6,0.1-1.2,0.4-1.6c0.1-0.4-0.1-0.7-0.6-0.9c-0.7-0.3-1-0.5-1.3-0.4c-0.1,0,0,0.2,0,0.4v0.1c0-0.1,0-0.1,0.2-0.1
		c0.9,0.2,1.3,0.5,1.2,0.9c-0.3,0.5-0.4,1-0.4,1.5l0,1.6c-1.1-0.7-2.3-1.4-3.6-1.9c0.2,0,0.3,0,0.5,0s0.3-0.1,0.4-0.2
		c0.1-0.1,0-0.2-0.4-0.2c-0.6,0-1.1,0-1.3,0.2C3,52.7,3,52.9,3.2,53.1c1.5,0.8,2.8,1.5,4,2.3c1.8,1.1,3.2,2.1,4.2,2.8
		c1,0,2.3-0.2,4.1-0.4l2.7-0.5c1.1-0.2,2.3-0.4,3.4-0.5c0.4-0.1,1-0.1,1.7-0.1c0.7,0,1.3-0.1,1.9-0.2c0.6,1,0.9,1.9,1,2.7
		c0.1,0.4,0,0.6-0.2,0.7c-2.5,0.9-4.3,1.5-5.3,1.7c-1.1,0.2-2.1,0.4-2.9,0.6c-2.2,0.4-4.3,0.7-6.4,0.9c-0.6-0.2-2.1-0.9-4.7-2.4
		c-1.8-1.1-3.1-2-3.8-2.7c-0.8-0.9-1.1-1.4-1-1.6c0.6-0.9,0.9-1.7,1.1-2.4C3,53.8,3,53.5,3,53.4c-0.2-0.7-0.1-1.1,0.5-1.1
		c1.4-0.1,2.3-0.1,2.8-0.1c0.2,0,0.4,0,0.4-0.2L7.1,51l-0.3-0.1l-0.4,0.6v-0.6v0.8l-3.2,0.1c-0.3,0-0.6,0.1-0.8,0.3
		c-0.2,0.2-0.2,0.6-0.1,1.3c0,0.2,0,0.4,0,0.6c-0.2,0.7-0.6,1.5-1.2,2.4c-0.1,0.2,0,0.4,0.1,0.7c0.2,0.3,0.6,0.8,1.2,1.4
		c0.3,0.3,0.7,0.6,1.2,1s1.5,1,2.9,1.8c1.7,1,3.2,1.8,4.7,2.4c0.3,0,2.4-0.3,6.2-0.8l0,0.4c-1.1,0.8-1.8,1.2-2.1,1
		c-0.4,0-0.6,0.4-0.4,1c0.1,0.3,0.4,0.5,0.7,0.6l0.4,0.5l1.1,0.7c0.4,0.1,0.9,0.1,1.3,0c0.4-0.2,0.6-0.5,0.8-0.9l0.1-0.1l1.3-1.3
		l0.9-0.7c0.7-0.1,1.1-0.4,1.4-0.8c0-0.3,0.1-0.6,0.3-0.6l1.1-0.8c0-0.1,0.5,0.1,1.3,0.5c0.4,0.1,0.8,0.1,1.1-0.1l0.8-0.5
		c0.7,0.2,2,1.1,3.8,2.7c0,0.2,0.1,0.4,0.4,0.7c0.2,0.2,0.6,0.4,1.2,0.5l0.4,0.8l0.4,0.2c0.6,0,1.3-0.2,1.8-0.7l0.7-0.2
		c0.4-0.3,0.5-0.6,0.5-0.8l-0.3-0.3L36,64.5c-0.8-0.4-1.5-0.8-2.3-1.4l-0.5-0.4c2.3,0.4,5.1,0.7,8.5,0.9c0.4,0.1,1-0.1,1.7-0.6
		c0.7-0.5,2.8-2,6.3-4.5c0.5-0.6,0.9-1.2,1.3-1.9c-0.3-0.3-0.6-0.7-0.8-1.3c-0.2-0.6-0.4-1-0.4-1.4c-0.1-0.4-0.1-0.7,0-0.9
		c0.1-0.3,0-0.6-0.3-0.8C49.2,52.1,49,52,48.6,52c-0.7-0.1-1.4,0-2.3,0c-0.4,0-0.6-0.1-0.7-0.3l0-0.8c0.1-0.3,0-0.5-0.3-0.4
		c-0.9,0.2-1.5,0.5-1.7,0.7c-0.3,0.3-0.3,0.6,0,0.9c0.2,0.2,0.4,0.4,0.4,0.7c-0.1,1.4-0.2,2.3-0.4,2.8c-1.5,1.2-2.5,1.9-3.1,2.2
		c-0.4,0.2-1.4,0.1-2.9-0.2c-0.3-0.3-0.6-0.8-0.7-1.5c0.5-0.3,1.1-0.7,1.7-1.1c0.4-0.1,0.7-0.2,1-0.2c0.3-0.1,0.4-0.4,0.4-0.8
		c0.3-0.1,0.5-0.3,0.6-0.7l1.8-2.2c0.6-0.5,1.2-0.8,1.9-0.9c0.8-0.1,1.9-0.5,3.2-1.4c0.2-0.2,0.2-0.6,0-0.9c0.4-0.2,1-0.9,1.9-1.9
		c0.4-0.5,0.4-1.1,0.2-1.7c0.8-1,1.3-1.8,1.4-2.4c0.1-0.5,0.1-1.1,0-1.7c0.4-0.2,0.7-0.5,0.8-0.6c0.2-0.2,0.2-0.4,0.2-0.8
		s-0.1-0.6-0.4-0.8C52.5,37.1,52.5,36.3,52.1,35.6z M23,10.7c0,0.4-0.2,0.8-0.7,1.3c-0.7,0.7-1.6,1.3-2.7,1.9
		c-1.1,0.6-2.6,1.2-4.1,2v-0.2c2-1.6,4-2.9,5.8-3.9c0.5-0.3,0.3-0.4-0.3-0.2c-0.6,0.3-1.3,0.7-2.1,1.1c-1.3,0.8-2.4,1.6-3.6,2.4
		l0-0.4c2.4-2.1,4.3-3.4,5.8-4C22,10.6,22.6,10.6,23,10.7z M16,11.5c1.1-0.9,2.5-1.7,4.1-2.2c0.8-0.2,1.4-0.3,2-0.3
		c0.3,0.1,0.4,0.2,0.2,0.5l-0.7,0.9c-0.6,0-1.5,0.4-2.5,1c-1.1,0.6-2.2,1.4-3.4,2.4l-0.4,0.3C15,13.9,14.6,14,14,14.3
		c1.9-1.6,3.6-2.8,5-3.6c0.9-0.5,1.5-0.8,1.6-0.9c-0.5,0.1-1.1,0.4-1.9,0.9c-0.8,0.5-2.2,1.4-4.1,2.8l-1.9,1.7
		C13.7,13.6,14.8,12.4,16,11.5z M14,15c0.3-0.2,0.6-0.3,0.7-0.2c0.1,0.2,0.1,0.5,0.1,0.9c0,0.4-0.3,1.1-0.8,2.3l-1.1,2.3
		c-0.8,0.1-1.6,0.5-2.3,1.1c0.4-0.6,0.8-1.4,1.3-2.2c0.5-0.8,1.3-2.1,2.5-3.8c0.2-0.3,0.2-0.4,0-0.2c-0.2,0.2-0.6,0.8-1.4,1.8
		c-0.8,1-1.8,2.6-3.1,4.8c-0.4,0.6-1.2,1.9-2.6,4l0.2-0.5l1.9-3.3l1.8-3.4C12,17,12.9,15.8,14,15z M6.4,22.6c0.8-1.3,1.8-3.3,3-5.7
		c0.4-0.7,0.9-1.5,1.5-2.4c0.2-0.5,0.1-0.5-0.4,0c-1,1.3-2.2,3.3-3.6,6L7.6,19c0.1-0.3,0.4-1.1,1-2.3c0.6-1.2,1.1-2.1,1.7-2.8
		s0.9-1.1,1.1-1.3c0.8-0.6,1.2-0.9,1.3-0.9c0.1,0.1,0.1,0.2,0.1,0.4L11.2,16c-1,1.9-2.3,4-3.9,6c-0.7,0.8-1.1,1.2-1.3,1.4
		c-0.2,0.2-0.3,0.4-0.4,0.6l0.1-0.5L6.4,22.6z M7.2,26.2c-0.4,0.8-0.8,1.5-1,2.2l-0.2,0l0.7-2L7.2,26.2z M4.9,31.5l0.2-0.9l0.2-0.9
		l0.5-0.1l-0.6,1.7l-0.4,1.5L4.9,31.5z M4.8,28.1c0.2-0.9,0.4-1.8,0.6-2.6l0.2,0.3L4.8,28.1z M3.6,34.3L3.5,34
		c-0.1-0.2,0.1-1.4,0.7-3.6C3.9,32,3.7,33.3,3.6,34.3z M3.2,32.5c-0.2-0.9-0.1-2.6,0.3-5.4s0.8-4.7,1.4-5.8c0.3-0.6,0.3-0.7,0-0.3
		c-1.3,2.2-2,5.4-2.2,9.6c0,1.5,0,2.5,0.2,3.2c0.2,0.7,0.4,1,0.7,1.1C3.7,35,3.9,35,4,34.8c0,0-0.1,0.6-0.1,0.7
		c-0.6-0.2-0.9-0.7-1.2-1.3c-0.2-0.6-0.5-1.4-0.7-2.3c-0.2-0.9-0.3-2.1-0.3-3.4c0.1-1.6,0.3-3.1,0.7-4.6c0.5-2.1,1.6-4.1,3.2-5.9
		c0.4-0.4,0.6-0.5,0.7-0.3c0.1,0.8,0.1,1.6,0,2.4c-0.1,0.8-0.3,1.7-0.6,2.6c-0.8,2.7-1.3,4.5-1.5,5.5C3.9,29.3,3.5,30.7,3.2,32.5z
		 M4.1,35.5V35c0.8-0.9,0.7-1.7,1-2.4l1.1-2.8l1.3-3c0.7-1.3,1.7-2.8,2.9-4.5c0.7-0.9,1.4-1.3,1.9-1.4c0.2,0.2,0.2,0.6,0,1.3
		c-0.2,0.6-0.4,1.3-0.8,2c0,0,0,0,0,0c-1.3,2.5-2.6,4.3-3.9,5.4L9.7,26l1-1.9c0.4-0.7,0.5-0.9,0.2-0.8c-2.1,3.2-3.4,5.1-3.8,6
		c-0.4,0.8-0.8,1.6-1.2,2.3C5.5,32.4,5.1,33,5,33.3C4.8,33.7,4.8,34.5,4.1,35.5z M12.4,36.8c-0.1,0.9-0.3,2.1-0.6,3.5
		c0-1.1-0.1-1.9-0.2-2.3l0.3-0.8c0-0.3,0-0.3-0.2,0l-0.2,0.4l0-0.6l0.5-0.6C12.4,36,12.5,36.1,12.4,36.8z M12,35.1
		c0.3-0.1,0.3,0.1,0.2,0.4l-0.6,0.9c0-0.4-0.1-0.7-0.2-0.9C11.6,35.3,11.8,35.2,12,35.1z M9.5,36.5c0.4-1.7,0.9-2.6,1.3-2.7
		c0.2,0.6,0.4,1.7,0.6,3.4c0.2,1.6,0.2,3.1,0,4.4c-0.2,1.7-0.5,2.8-0.8,3.4l-0.4,0.9c0-1.3,0-2.3,0-3.2c0-0.8,0.1-1.9,0.1-3.2
		c0-1.3,0.1-2.9,0.3-4.6c0.1-0.4,0.1-0.5-0.1-0.3c-0.3,1.7-0.5,4-0.6,6.6l0,1.8l-0.1,2.4L9.3,45C9,43.5,8.9,42,9,40.4
		C9,39.2,9.2,37.9,9.5,36.5z M6.7,41.8c0.4-1.5,1.1-3.1,2.4-4.7c-0.2,0.9-0.3,1.5-0.4,1.9c-0.9,1.6-1.6,3.2-2.1,4.7
		c-0.1,0.5-0.2,1.1-0.3,1.7C6.3,44.5,6.4,43.3,6.7,41.8z M8.8,44.4l-0.7-0.9l0.5-1.3C8.6,42.9,8.6,43.7,8.8,44.4z M15.1,57.3
		l0.4-1.3l1.4,0.9L15.1,57.3z M18.5,56.7l-2.3-1.4l-2.1-1.4l-0.4-0.5c-0.1-0.2-0.3-0.2-0.5-0.1c-0.2,0.1-0.4,0-0.5-0.4
		c-0.6,0.3-1.1,0.2-1.7-0.4l-1-1.3L9,49.6l-0.4-0.2c-0.2,0.1-0.4,0.2-0.7,0.1c-0.4,0-0.9-0.3-1.3-0.8c-0.3-0.3-0.9-1.3-1.9-3.2
		C3.5,43,2.6,41.2,2.1,40c-0.3-1-0.6-1.7-0.7-1.9c-0.1-0.3-0.2-0.3-0.1,0c0,0.3,0.2,0.8,0.5,1.7c0.3,0.9,0.8,2.2,1.6,4
		c0.7,1.4,1.3,2.7,2,3.9C3.9,46,2.8,44.4,2.1,43c-0.7-1.4-1.1-2.8-1.4-4c-0.1-0.4-0.2-1.1-0.2-2c0-0.9,0-1.4,0-1.5
		C0.7,35.2,0.8,35,1,35.1c0.1,0,0.4,0.3,0.9,0.9c0.4,0.6,1.1,1.9,1.8,4s1.2,3.4,1.4,4.1c0.2,0.6,0.4,1.2,0.5,1.7
		c0.2,0.5,0.4,0.9,0.6,1.5c0.4,0.8,0.8,1.3,1.1,1.5c0.5,0.4,0.9,0.4,1.1,0.2l-1.1-2.1c-0.1,0-0.2,0-0.4,0c0,0,0,0,0,0l0,0
		c0,0-0.1,0-0.1,0c0,0-0.1,0-0.2,0c0,0-0.1,0-0.1-0.1c0,0-0.1,0-0.1-0.1c0-0.2,0-0.2,0-0.2s0-0.1,0-0.1c0-0.1,0-0.2,0-0.4
		c0-0.4,0.2-1,0.4-1.9c0.5-1.5,1.1-3.1,2-4.6c-0.1,0.7-0.2,1.2-0.2,1.7c-0.8,1.7-1.3,3.1-1.7,4.2c-0.2,0.8-0.2,1.1,0,1.1l0.2-0.1
		L7,45.8l0.1-0.4l0.4,0.7L7.7,46l0.2,0.3l-0.2,0.3l1.4,2l0.4-0.3l0.2,0.3c-0.4,0.4-0.6,0.7-0.5,0.8c0.4,0.7,0.7,1.2,1,1.7
		c0.6,0.9,1.1,1.2,1.5,0.8c0.1-0.1,0.3-0.1,0.5,0.1s0.4,0.5,0.6,0.9l0-0.7L11.7,51l-0.7-1.3c-0.6-0.8-0.9-1.3-1.1-1.8
		C9.7,47.5,9.4,47,9,46.4s-0.8-1.2-1.3-2l0.1-0.4l1,1.2c0.9,1.1,1.5,2,1.9,2.6c0.4,0.6,0.6,0.8,0.6,0.4l0.2-0.6l0.3,0.2l-0.2,1.2
		l-0.1,0.4c0,0.3,0,0.5,0.2,0.5c0.1,0,0.2,0.2,0.4,0.6c0.1,0.2,0.4,0.6,1,1.3c0.6,0.7,1.2,1.2,1.9,1.7c0.7,0.4,1.2,0.8,1.6,1.1
		c0.4,0.3,0.6,0.6,0.6,0.8l0.6,0.1l-0.2-0.8l0.4-0.1c0.2,0.1,0.4,0.4,0.5,0.7c0.6,0.4,1,0.8,1.4,1L18.5,56.7z M8.3,46.5l0.2-0.2
		l0.9,1.5L9.3,48L8.3,46.5z M9.7,49.4l0.4-0.4l0.8,1.1l0.5,0.8l0.2,0.5c-0.3-0.2-0.6-0.4-0.8-0.7l-0.5-0.7L9.7,49.4z M20.6,56.3
		l-1.3-0.9c-0.6-0.6-0.9-1.1-1.2-1.4c-0.2-0.3-0.5-0.5-0.7-0.6c-0.3-0.2-0.6-0.2-0.8-0.2c-0.2,0-0.3,0.2-0.5,0.6L16,53.6
		c0.1-0.4,0.2-0.6,0.4-0.7c0.2-0.1,0.4-0.1,0.7,0.1l1.5,0.7l2.6,0.9c0.6,0.7,1,1.1,1.1,1.4C21.8,56.2,21.2,56.2,20.6,56.3z
		 M21.4,62.8c-0.9,0.9-1.9,1.7-3,2.4l-0.4-0.1c0.6-0.4,1.5-1,2.7-1.9l0.5-0.6l-0.3,0c-0.4,0.4-0.8,0.7-1.3,1.1
		c-0.5,0.4-1.1,0.7-1.8,1L17,65.1l0.2,0.2l0.7,0.1c0.4,0.2,0.6,0.5,0.5,0.8c-0.2,0.3-0.6,0.4-1,0.1l-0.8-0.4
		c-0.3-0.3-0.6-0.5-0.8-0.6L15.5,65l0.1-0.3l0.9,0.4h0.3l-0.2-0.6l1.1-0.7c0.3-0.1,0.4-0.3,0.4-0.6l0.1-0.6c0.5,0.1,1,0,1.5-0.2
		c0.6-0.3,1.1-0.4,1.6-0.4C21.8,62.3,21.8,62.5,21.4,62.8z M34.4,14.2l0.1-0.7l-0.6,0.1c-0.6,0.2-1.1,0-1.7-0.5
		c-0.4,0.1-0.5-0.1-0.5-0.4c0.2-0.3,0.1-0.5-0.1-0.5l-0.9,0.1c-0.6-0.1-0.9-0.2-1.1-0.5c-0.1-0.2,0-0.5,0.2-0.8
		c-0.6-0.2-0.9-0.4-1-0.7c-0.2-0.2,0-0.5,0.2-0.7c0.3-0.2,0.9-0.2,1.7-0.1c-0.2-0.2-0.2-0.5-0.2-0.7c0-0.2,0.6-0.1,1.6,0.4l0.6,0.4
		c0.2-0.3,0.4-0.4,0.8-0.3c0.5,0.2,0.9,0.5,1.3,0.8c0.4,0.3,0.9,0.8,1.4,1.4c0.4-0.3,0.8-0.2,0.9,0.2l0.1,0.8
		c-0.5-0.4-1-0.5-1.7-0.1l-0.4-0.2c-0.6-0.7-0.9-1.3-1.1-1.7C34,10,34,10,34,10.4c0,0.4,0.3,0.9,0.8,1.6c-0.9-0.3-1.6-0.7-2-1.1
		c-0.4-0.5-0.8-0.8-1-1.1c-0.2-0.4-0.3-0.4-0.3,0c0.2,0.5,0.6,0.9,1,1.3c-0.3-0.2-0.6-0.3-0.9-0.4c-0.7-0.3-1.3-0.5-1.8-0.5
		c-0.2,0-0.2,0,0,0.1c0.8,0.2,1.4,0.4,1.8,0.6c0.4,0.2,0.7,0.3,0.8,0.5c-0.6,0.2-1.2,0.4-1.8,0.4c-0.4,0-0.6,0-0.5,0
		c0,0,0.2,0.1,0.4,0.1c0.8,0.1,1.5,0,2.3-0.2c0.6,0.3,1.2,0.6,2,0.8c-0.5,0.1-0.9,0.3-1.3,0.6c-0.2,0.2-0.1,0.2,0.2,0
		c0.3-0.2,0.8-0.4,1.5-0.5l0.5,0.2c0,0.6,0.1,1.1,0.4,1.7l-0.4,0.1L34.4,14.2z M38,17.5c-1.1,0-1.4,0-1.5-0.2c0-0.2-0.1-0.3,0.4-0.5
		l0.2-0.4c-0.7-0.3-1.3-0.7-1.3-1.5l0.6-0.2c0.2-0.3,0.2-0.5,0-0.7c-0.2-0.2-0.4-0.5-0.4-1.1c0.2-0.5,0.8-0.5,1.7,0
		c0.4-0.8,0.9-1,1.4-0.7c-0.6,0-0.9,0.3-1.1,0.8c-0.1,0.3-0.1,0.8,0,1.2c-0.2-0.3-0.5-0.6-0.8-0.8c-0.6-0.3-0.7-0.3-0.3,0.1
		c0.4,0.4,0.7,0.7,0.9,1.1c-0.5,0.4-0.9,0.6-1.5,0.5c-0.2,0.1-0.2,0.1,0.1,0.2c0.2,0.1,0.6,0,0.9-0.1c0,0.3,0.1,0.9,0.2,1.2
		c0.2,0.3,0.5,0.6,0.8,0.8C38.2,17.3,38.1,17.4,38,17.5z M38.7,18.1c0-0.2,0.2-0.4,0.7-0.4c0.5,0,0.5-0.2,0.2-0.4
		c-0.6-0.2-1.1-0.6-1.5-1.1c-0.3-0.4-0.3-0.6,0-0.8l0.5-0.1l0.2-0.3l-0.3-1.1c-0.1-0.6,0.1-0.9,0.5-1.2c0.6-0.1,1.1,0.1,1.7,0.5
		c0-0.3,0.2-0.4,0.6-0.3c0.4,0.1,0.7,0.9,1,2.3l0.5,0.2c0.2-0.4,0.3-0.6,0.4-0.6c0.2,0,0.3,0.4,0.5,1c0.4,0.4,0.6,1,0.6,1.9
		c-0.3,0.4-0.4,0.8-0.4,1.3l-0.2-0.6c-0.2-0.6-0.2-1.3-0.2-2c0-0.3,0-0.3-0.1,0c-0.1,0.6-0.1,1.1,0,1.5c-0.6-0.7-1.1-1.4-1.8-2
		c-0.1-0.5-0.2-1-0.1-1.5c-0.1-0.5-0.1-0.6-0.2-0.4c0,0.6,0,1.2,0.1,1.7c-0.5-0.5-1-1.2-1.7-2.1c-0.2-0.3-0.2-0.4-0.2-0.2
		c0.4,0.8,0.8,1.4,1.3,1.9c0.4,0.5,0.8,0.9,1.1,1.2c-0.6-0.2-1-0.3-1.4-0.3c-0.4,0-0.8-0.2-1.1-0.3c-0.3-0.1-0.3,0,0,0.2
		c0.2,0.1,0.6,0.2,1.1,0.4c0.6,0.1,1.1,0.3,1.6,0.5c0.3,0.2,0.6,0.6,1.1,1.3l0.4,0.8c-0.6-0.3-1.2-0.5-1.9-0.7
		c-0.7-0.1-1.1-0.2-1.3-0.4c-0.6-0.2-0.6-0.2-0.2,0.1c0.1,0.1,0.6,0.3,1.3,0.4c0.8,0.2,1.5,0.4,2.2,0.9l0.1,0.2
		c-0.2,0.2-0.2,0.4-0.2,0.7l0.2,0.6c-0.2-0.2-0.4-0.1-0.8,0.3c0.1-0.3,0.1-0.5-0.1-0.8c-0.3-0.4-1-0.9-2.1-1.4l-0.2,0.4
		C39.5,19.4,38.9,18.9,38.7,18.1z M46.3,33.7c-0.2-0.3-0.5-0.8-0.9-1.5c-0.4-0.7-0.7-1.2-0.9-1.6c-0.2-0.4-0.2-0.8-0.1-1.3
		c0.1-0.4,0.2-0.8,0.3-1c0.1-0.2,0.1-0.3,0-0.1c-0.2,0.4-0.4,0.9-0.5,1.3l-0.6-1.8c0.1-0.7,0.4-1.6,1.1-2.7c0.2-0.4,0.2-0.4-0.1-0.1
		c-0.6,0.8-1,1.7-1.2,2.5l-0.9-2.1c0-0.4,0.2-1.1,0.8-2.3c0.3-0.6,0.2-0.6-0.2,0.1c-0.3,0.6-0.6,1.2-0.7,1.7c-0.3-1.2-0.6-2.2-0.8-3
		l-0.2-0.1l0.1,0.4c0.2,1,0.4,1.9,0.7,2.7c-0.4-0.4-0.8-0.6-1.3-0.9c-0.3-0.2-0.3-0.1,0,0.1c0.6,0.4,1.1,0.7,1.4,1.1
		c0.2,0.6,0.5,1.1,0.7,1.6c-0.4-0.3-1-0.6-1.9-0.9c-0.3-0.1-0.3,0,0,0.1c1.1,0.5,1.8,0.9,2.1,1.3l0.6,1.7c-0.2,0-0.5-0.4-0.9-1
		c-0.3-0.6-1.1-1.1-2.3-1.7c-0.2-0.1-0.4-0.3-0.4-0.7c0-0.2,0.3-0.3,0.7-0.3c-0.1-0.4-0.3-0.6-0.4-0.8l-0.2-0.4
		c-0.3-0.7-0.1-1,0.6-1c-0.3-0.4-0.4-0.8-0.3-0.9c0-0.4,0.1-0.8,0.3-1.1c0.1-0.2,0.2-0.5,0.3-0.8c0.4,0.2,0.8,0.4,1.1,0.6
		c0.3,0.2,0.5,0.4,0.5,0.9l-0.2,0.9c0.1,0.2,0.2,0.1,0.5-0.2c0.3-0.4,0.5-0.6,0.7-0.7c0.2,0.1,0.4,0.3,0.7,0.6
		c0.2,0.4,0.1,1.1-0.2,2.2l-0.4,0.9c0.7-0.9,1.3-1.4,1.7-1.3c0.2,0.1,0.2,0.3,0.2,0.6c0,0.3,0,0.7,0,1c0,0.4-0.1,0.7-0.4,0.9
		c-0.3,0.2-0.5,0.7-0.6,1.2c0.7-0.5,0.9-0.4,0.8,0.3l-0.4,1.3c-0.1,0.6,0,0.9,0.3,0.9c0.3,0,0.5,0,0.6,0.1s0.1,0.4,0,0.7
		c-0.2,0.4-0.3,0.7-0.2,0.9c0,0.1,0.1,0.2,0.2,0.4c0.1,0.1,0.3,0.1,0.6-0.1c0.3-0.1,0.5,0,0.5,0.3c0,0.3,0,0.6,0,0.9
		s0.1,0.6,0.3,0.9c0.2,0.2,0.3,0.4,0.6,0.4l0.3-0.4c-0.4,0-0.6-0.2-0.6-0.8c0-0.6,0-1,0-1.3c-0.2-0.4-0.3-0.6-0.5-0.7
		c-0.2,0-0.6-1.1-1.1-3.1l0.7,0c0.5,1.7,0.9,2.7,1.1,2.8s0.4,0.3,0.4,0.5c0,0.2,0,0.6,0.2,1.1c0.4-0.1,0.6-0.4,0.7-1
		c0.1-0.6,0-0.9-0.5-1.3c-0.4-0.2-0.7-0.5-0.8-0.7c-0.1-0.4,0-0.6,0.4-0.7c0.2-0.1-0.3-0.6-1.7-1.5c-0.7-0.5-0.9-0.9-0.6-1.3
		c0.1-0.2,0.3-0.2,0.6,0c0.3,0.2,0.5,0.2,0.6,0.2c0.2-0.3,0-0.5-0.4-0.6c-0.4-0.1-0.6-0.2-0.5-0.4c0-0.6,0-1.1,0-1.3s0-0.5-0.1-0.8
		c-0.2-0.3-0.7-0.3-1.3,0.1c0.2-0.4,0.2-0.7,0.1-1c-0.1-0.3-0.2-0.7-0.5-0.9l-0.3-0.9c-0.1-0.3,0.1-0.6,0.6-0.7
		c-0.2-0.6-0.2-1.1,0-1.4c0.2-0.3,0.2-0.5,0.3-0.7c0.1-0.2,0.2-0.2,0.6-0.1c0.3,0.2,0.8,0.7,1.5,1.7c0.3-0.4,0.7-0.2,0.9,0.4
		c0.4,0.6,0.5,1.3,0.4,2.1c0.8-0.4,1-0.1,0.8,0.8c0.3,0.7,0.6,1.2,0.6,1.6c0.1,0.4,0,0.8-0.2,1.1c-0.2,0.3-0.3,0.6-0.3,0.8
		c0,0.2,0.1,0.2,0.2,0c0.1-0.2,0.4-0.4,0.8-0.5c0.3,0.6,0.4,0.9,0.4,1.1c0,0.2-0.2,0.5-0.4,0.8c-0.3,0.3-0.4,0.6-0.5,0.9
		c0,0.2,0.1,0.3,0.3,0.3l0.6-0.2c0.3,0,0.3,0.2,0,0.7c-0.3,0.6-0.5,1-0.6,1.4c-0.1,0.4-0.2,0.7-0.2,0.9c0,0.5-0.1,0.8-0.2,0.8
		c0-0.6,0-1.2,0-1.9c-0.1-0.7-0.2-1.4-0.4-2.2c0.2-0.2,0.4-0.6,0.7-1.5c0.2-0.4,0.1-0.5-0.1-0.2c-0.2,0.6-0.5,1-0.7,1.1
		c-0.2-0.8-0.5-1.7-0.8-2.8c0.3-0.5,0.5-1.2,0.6-2c0-0.7,0-0.7-0.1-0.2c-0.1,0.8-0.4,1.4-0.7,1.9c-0.3-0.9-0.6-1.7-0.9-2.4
		c0.1-0.4,0.2-0.9,0.1-1.5c0-0.6-0.1-0.6-0.2-0.1c0,0.4,0,0.8-0.2,1.1l-0.7-1.7l-0.4-1c-0.2-0.3-0.2-0.3-0.2,0l0.4,1.3
		c-0.3-0.4-0.6-0.6-0.9-0.8c-0.3-0.2-0.3-0.2-0.2,0c0.5,0.4,0.9,0.8,1.2,1.3c0.3,0.7,0.6,1.3,0.8,2.1c-0.8-0.7-1.3-1-1.7-1.1
		c-0.4-0.2-0.4-0.1,0,0.2c0.6,0.4,1.2,1,2,1.9c0.2,0.7,0.5,1.4,0.7,2.1c-0.4-0.2-0.9-0.7-1.4-1.4c-0.2-0.2-0.3-0.2,0,0.1
		c0.5,0.7,1,1.3,1.6,1.8l0.5,1.9c-0.5-0.5-1.1-0.9-1.9-1.5c-0.3-0.2-0.4-0.2-0.1,0.1c0.7,0.5,1.3,1.2,2.1,2.1
		c0.2,0.6,0.3,1.7,0.3,3.2c0,0.4-0.3,0.7-0.9,0.9l-0.1,1.5l-0.8,0C46.8,34.5,46.5,34,46.3,33.7z M47.3,35.1c0.1,0,0.4,0,0.7,0
		c-0.3,1.6-0.6,3.3-0.9,4.4l-0.4-0.2C47,37.8,47.2,36.1,47.3,35.1z M41.8,44c-0.1-0.1-0.5-0.4-1-0.9c-0.5-0.5-0.7-0.9-0.5-1.3
		c-0.2-0.2-0.3-0.4-0.4-0.7c-0.1-0.2-0.1-0.5,0.1-0.8c0.2-0.2,0.6-0.1,1.1,0.3c0.1-0.4,0.1-0.7,0-1c-0.1-0.3-0.2-0.6-0.4-0.9
		c-0.3-0.5-0.5-0.9-0.8-1.3c-0.2-0.5-0.3-0.8-0.2-0.8c0.1-0.1,0.3,0,0.6,0.2c0.5-0.6,0.9-0.7,1-0.5c0.2,0.2,0.3,0.6,0.4,1.2
		c0.1,0.6,0.1,1.1,0,1.7l-0.1,0.1l0.1,0.1c0,0.1,0,0.6-0.2,1.4c0,0.2,0,0.3,0.2,0.5c0-0.2,0-0.4,0-0.6c0-0.1,0.1-0.4,0.2-0.8
		c0.1-0.4,0.2-0.6,0.2-0.7c0,0,0-0.1-0.2-0.1c0.2-0.1,0.2-0.2,0.3-0.3s0.1-0.2,0-0.4c0-0.1,0-0.4-0.1-1c0-0.6-0.1-0.9-0.2-1.2
		s-0.2-0.5-0.2-0.7c0-0.2-0.2-0.2-0.4-0.3c-0.2,0-0.6,0.2-0.9,0.7c0.2-0.9,0.4-1.5,0.6-1.8c0.2-0.3,0.4-0.4,0.6-0.3
		c0.2,0.1,0.4,0.3,0.4,0.4c0.1,0.2,0.2,0.1,0.3-0.1c0.1-0.2,0.2-0.3,0.3-0.2c0.1,0.1,0.2,0.2,0.3,0.4c0.1,0.2,0.2,0.4,0.2,0.6
		s0.1,0.6,0.1,1.1c0,0.6,0,0.9-0.2,1.1c-0.2,0.2-0.2,0.4-0.2,0.7c0,1.1,0.1,1.6,0.2,1.6s0.3-0.1,0.4-0.2c0.2-0.2,0.3-0.2,0.5-0.2
		c0.2,0,0.2,0.4,0.2,0.9s0.1,0.6,0.2,0.2c0.1-0.4,0.2-0.7,0.5-0.7s0.3,0.6,0.1,1.8c-0.8,0.7-1.4,1.3-1.7,1.8c-0.1-0.5-0.1-0.9,0-1.1
		c0.1-0.2,0.2-0.4,0.3-0.7c0.1-0.3,0.2-0.5,0.2-0.7c0.2-0.5,0.1-0.6-0.1-0.1c-0.1,0.2-0.2,0.5-0.3,0.7c-0.1,0.2-0.2,0.4-0.3,0.6
		c0-0.3-0.2-0.9-0.4-1.8c-0.2-0.6-0.2-0.6-0.2,0c0.2,1,0.3,1.9,0.4,2.8c-0.4-0.4-0.7-0.7-1.1-0.9c-0.4-0.3-0.7-0.6-0.9-0.9
		c-0.2-0.2-0.3-0.1-0.1,0.1c0.2,0.3,0.6,0.7,1.1,1.2c0.5,0.4,0.8,0.8,0.9,0.9c0.1,0.2,0.2,0.3,0.2,0.4c-0.2,0.2-0.4,0.5-0.7,0.8
		c-0.2-0.1-0.2-0.2-0.2-0.4C41.9,44.3,41.9,44.1,41.8,44z M30.6,55.4c0.2-0.3,0.6-0.6,0.9-0.8c1.8-0.9,2.9-1.4,3.5-1.5
		c0.1,0,0.2,0,0.3,0.1l0.2,0.3l-0.4,0.2C35,53.9,34.7,54,34.4,54c-0.3,0-0.6,0.1-1.1,0.3c-0.5,0.2-0.7,0.5-0.8,0.8
		c-0.1,0.2-0.2,0.4-0.4,0.5c-0.5,0.2-0.9,0.5-1.3,0.7L30,56.1L30.6,55.4z M33.2,56.5h-0.2v-0.1c-0.1,0-0.2,0-0.4,0.1l-1-0.2l1.1-0.6
		l0.3,0.5c0,0,0.1,0,0.2-0.1l-0.2-0.5c-0.1-0.4,0-0.7,0.4-0.9c0.3-0.2,0.7-0.4,1.1-0.3c0.2,0,0.2,0.3,0,0.9
		c-0.1,0.2-0.6,0.6-1.3,0.9V56.5z M28.7,60.5L28.5,60L27.7,61L27,61.5c-0.3,0.3-0.6,0.4-0.9,0.3L25,61.3l0.6-0.3l0.2,0.1
		c-0.1,0.3,0,0.3,0.4-0.1l0.9-0.9c0.1-0.6-0.1-1.3-0.4-2.2c-0.3-0.9-0.6-1.4-0.8-1.7c0-0.2-0.5-0.2-1.4-0.1c0.6-0.3,1.2-0.3,1.9-0.1
		l0.8,0.3l0.4-0.2l0,0l-0.7-0.3l0.4,0l0.3,0.3l0.1,0h0l0.2,0.2c1.1,1.1,1.7,1.9,1.8,2.3c0.1,0.4,0.2,0.8,0,1.2
		C29.1,60.5,28.8,60.6,28.7,60.5z M36.1,65l0.4,0.1l-0.1,0.2l-0.8,0.2c-0.4,0.3-0.8,0.5-1.3,0.6L33.7,66l-0.1-0.4
		c0.1-0.2,0.3-0.3,0.5-0.4c0.2-0.1,0.4-0.2,0.8-0.2l0.8,0.1L36.1,65z M35,64.8c-0.6,0-0.9,0.4-1.1,0.4h-0.4c-0.6-0.8-1.1-1-1.4-1.3
		l-1.5-1.2c0.3-0.2,0.9,0,1.7,0.2L35,64.8z M39.4,58.3c0.6,0,1.1,0,1.4-0.1c0.6-0.2,1.7-1.1,3.5-2.6c1.7-1.3,3.1-2.1,4.3-2.6
		c0.4-0.2,0.4-0.4,0-0.4c-0.3-0.1-0.8-0.2-1.5-0.2c-0.2,0.2-0.2,0.3,0.1,0.4c0.3,0,0.5,0,0.6,0.1c-1.4,0.7-2.6,1.5-3.5,2.2
		c0.1-0.5,0.2-1.3,0.2-2.4c0-0.4-0.2-0.7-0.4-1c-0.2-0.2,0-0.4,0.6-0.6l0.4-0.1v0.7l-0.6-0.2l0.1,0.3c0.1,0.2,0.4,0.4,0.7,0.5
		l1.7,0.1l0.8,0c0.9,0,1.3,0.2,1.3,0.6c0,0.4,0,0.8,0.1,1.1c0.2,0.9,0.5,1.7,1.1,2.6c-0.1,0.4-0.4,0.8-0.8,1.3L47.9,59
		c-1.4,1-3.3,2.3-5.7,3.9c-1.7,0-3.8-0.1-6.2-0.4c-1.7-0.2-3.7-0.7-6-1.3l-0.5-0.1l0.2-0.2c0.4-0.5,0.6-0.8,0.6-0.9
		c0-0.2,0-0.5-0.2-1.1s-0.4-1.2-1.2-1.9v-0.2l0.5-0.1c1.3,0.1,2.4,0.2,3.4,0.5c1,0.2,2.2,0.5,3.6,0.7C37.8,58.1,38.8,58.2,39.4,58.3
		z M37.1,57.4c-0.6-0.1-1.4-0.2-2.6-0.5l1.1-0.4c0.6,0.1,0.9,0,1-0.4C36.6,56.7,36.8,57.1,37.1,57.4z M43.6,48.2
		c-0.4,0.5-0.6,0.9-0.4,1.4c-0.6,0.3-1.1,0.8-1.7,1.4c-0.6,0.6-0.9,1.1-1.2,1.5c-0.3,0.4-0.6,0.7-0.9,0.8c-0.4,0.2-0.8,0.1-1.2-0.2
		l-0.1,0.8L36,55.2l-1,0.4c0.1-0.2,0.1-0.6,0.2-1.1l0.4-0.3c1.4-0.8,2.3-1.4,2.5-2.1c0.3-0.5,0.6-0.9,0.9-1.3
		c0.3-0.4,0.6-0.8,0.7-1.3l0-0.8L39.6,48c0.3,0.4,0.6,0.5,0.9,0.2c0.4-0.8,0.9-1.6,1.4-2.3c0.5-0.7,1-1.3,1.6-1.9
		c0.6-0.6,1-1.1,1.4-1.5l0,0.8c-1.3,1.5-2,2.6-2.3,3.2c-1.1,1.6-1.8,2.9-2.1,3.8c-0.2,0.5-0.6,0.9-1,1.3c-0.3,0.2-0.6,0.4-0.8,0.5
		c-0.2,0.3-0.1,0.4,0.2,0.2c0.2-0.2,0.4-0.4,0.7-0.5c0.5-0.2,1.4-1.3,2.9-3.2l0-1.1l0.4-0.6c0,0.6,0,0.9,0.2,1
		c0.1,0.1,0.3-0.1,0.5-0.5c0.2-0.4,0.8-1.5,1.6-3.4c-0.2,0.6-0.2,1.1,0,1.5c-0.5,0.4-0.6,0.9-0.4,1.8L43.6,48.2z M50.6,41.3
		c-0.1,0.5-0.2,1-0.5,1.3c-0.9,1-1.2,1.5-1.1,1.7c0.2,0.4,0.2,0.8-0.1,1.3c-0.5,0.6-1.1,1.2-1.8,1.9c0.2,0.4,0,0.8-0.5,1.1
		c-0.6,0.3-1.3,0.6-2,0.9c1.3-1,2.2-2.1,2.5-3.3c0.4-0.4,0.8-0.7,1.1-0.8c0.3-0.2,0.4-0.3,0.2-0.2c-0.4,0.2-0.8,0.4-1.2,0.7
		c0.4-0.8,0.7-1.7,0.8-2.6c0.8-0.8,1.3-1.4,1.5-1.9c0.3-0.4,0.3-0.5,0-0.3c-0.3,0.5-0.8,1.1-1.4,1.7c0.3-0.9,0.6-1.9,0.8-3
		c0.1-0.6,0.1-0.8-0.1-0.4l-0.3,1.1c-0.2-0.4-0.3-0.8-0.5-1l0.4,1.3c-0.1,0.5-0.3,1.3-0.6,2.2c-0.3-0.8-0.7-1.6-1.1-2.3
		c-0.4-0.6-0.5-0.6-0.2,0c0.5,0.7,0.9,1.6,1.2,2.7c-0.2,1-0.6,1.8-0.9,2.5c-0.2-0.4-0.5-0.6-0.8-0.8c-0.2-0.1-0.2,0,0,0.2
		c0.3,0.3,0.5,0.6,0.7,0.8c-0.2,0.6-0.6,1.1-1,1.6c-0.4,0.5-0.8,0.8-1.2,1.1c0.5-0.8,0.7-1.6,0.5-2.6c0-0.2,0.1-0.3,0.4-0.4
		c0.3-0.1,0.4-0.2,0.3-0.4c-0.2-0.5-0.4-0.8-0.4-1.1c0.2-0.1,0.4-0.1,0.8,0c0.3-0.2,0.2-0.4-0.1-0.8c-0.3-0.4-0.5-0.8-0.6-1.5
		c0-0.4,0.2-0.5,0.8-0.4c0.2,0,0.2-0.3,0.1-0.8l-0.5-0.7c-0.4-0.8-0.2-1.1,0.5-0.9L47,40c0.6,0.2,0.8-0.2,0.8-1.1
		c0-0.2,0.2-0.2,0.5-0.2c0.3,0.1,0.6-0.1,0.9-0.8c0.3-0.3,0.5,0,0.6,0.8c-0.1,1.1,0.2,1.6,0.8,1.5C50.6,40.5,50.7,40.8,50.6,41.3z
		 M51.5,38.6c0,0.2,0,0.4-0.2,0.5c-0.1,0.1-0.4,0.2-0.7,0.4l-0.4-0.6c0-0.5-0.2-1-0.5-1.4c0.2-0.1,0.4-0.3,0.7-0.4
		c0.2-0.1,0.2,0-0.1,0c-0.3,0.1-0.6,0.4-0.8,0.4h-0.1c0.2-0.8,0.5-1.4,0.9-2c0.1-0.3,0-0.3-0.2,0c-0.4,0.5-0.7,1-0.9,1.5
		c-0.1-0.1-0.2-0.4-0.3-0.7c-0.1-0.4-0.2-0.4-0.2,0c0.1,0.5,0.2,0.8,0.3,1c-0.5,0.7-0.8,1-1.1,0.8c0.2-1,0.4-2.1,0.7-3.2
		c0.5-0.5,0.9-0.6,1.3-0.5c0.5-0.4,0.9-0.5,1.3-0.2c0.2,0.3,0.3,0.6,0.2,0.9c0,0.3-0.1,0.6-0.3,1c0.4,0,0.6,0.2,0.6,0.5
		c-0.2,0.7-0.5,1.2-1,1.5C51.3,38.3,51.5,38.4,51.5,38.6z"/>
	<path class="st0" d="M7.9,58.6c0,0.1,0.1,0.1,0.2,0.1c0.3,0.2,0.6,0.1,0.8-0.2c0.3-0.4,0.2-0.6-0.1-0.8c-0.2-0.1-0.2-0.1-0.3,0.1
		L7.9,58.6L7.9,58.6z M3.7,55.8c0.4,0.3,0.6,0.5,1,0c0.2-0.3,0.2-0.6,0-0.8c-0.1-0.1-0.2-0.1-0.2-0.1c-0.1,0-0.1,0.1-0.2,0.1
		L3.7,55.8L3.7,55.8z M9.7,58.7c0-0.3,0.1-0.5-0.1-0.7l0.1-0.1c0.2,0.1,0.3,0.2,0.4,0.3c0.2,0.1,0.3,0.2,0.5,0.2l-0.1,0.1
		c-0.1-0.1-0.3-0.1-0.4,0c-0.1,0.2-0.2,0.9-0.3,1.1l-0.2,1.2l0.9-0.8c0.1-0.2,0.7-0.7,0.8-0.8c0.1-0.2,0-0.3-0.1-0.4v-0.1
		c0.2,0.1,0.3,0.2,0.4,0.3c0.2,0.1,0.3,0.1,0.4,0.2v0.1c-0.3-0.2-0.6,0.2-0.8,0.4l-1.7,1.7l-0.2-0.1L9.7,58.7L9.7,58.7z M7.4,59.1
		c-0.1,0.2-0.2,0.4-0.2,0.6c-0.1,0.2,0.1,0.2,0.2,0.4l-0.1,0.1C7.1,60.1,7,60,6.8,59.9c-0.2,0-0.3-0.2-0.4-0.2v-0.2
		c0.2,0.1,0.3,0.2,0.4,0c0.1-0.1,0.4-0.4,0.4-0.5l0.6-1.1C7.8,57.7,8,57.4,8,57.4C8.1,57.2,8,57.1,7.8,57l0.1-0.1
		c0.2,0.1,0.4,0.2,0.5,0.3c0.2,0.1,0.3,0.2,0.4,0.3c0.4,0.2,0.7,0.6,0.4,1.1c-0.3,0.6-0.9,0.5-1.3,0.2c-0.1,0-0.2-0.1-0.2-0.1
		L7.4,59.1L7.4,59.1z M5.8,56.7c0.1-0.2,0.3-0.4,0.3-0.5c0.1-0.2-0.1-0.3-0.2-0.4L6,55.7l1.5,1l-0.4,0.6l-0.1-0.1
		c0.3-0.4,0.1-0.6-0.2-0.8l-0.2-0.1c-0.1-0.1-0.1-0.1-0.2,0.1l-0.6,0.9c0.4,0.3,0.6,0.1,0.8-0.1h0.1c-0.1,0.2-0.3,0.4-0.3,0.5
		c-0.1,0.2-0.2,0.4-0.3,0.5L6,58.1c0.3-0.4,0.1-0.6-0.2-0.8L5.4,58c-0.1,0.2-0.2,0.3-0.2,0.4c0,0.2,0.2,0.4,0.3,0.4
		c0.4,0.2,0.6,0.2,0.9-0.1h0.1l-0.4,0.6l-1.8-1.2l0.1-0.1c0.1,0.1,0.2,0.1,0.4,0c0.1-0.1,0.3-0.4,0.4-0.5L5.8,56.7L5.8,56.7z
		 M4.1,57.6c0,0.2,0,0.3,0.2,0.4l-0.1,0.1C4.1,58,4,58,3.9,57.9s-0.2,0-0.3-0.1l0-0.4v-1.1c0-0.2,0-0.2-0.2-0.4l-0.3,0.4
		C3.2,56.5,3,56.8,2.9,57c0,0.2,0.1,0.2,0.2,0.3l-0.1,0.1c-0.2-0.1-0.3-0.2-0.4-0.3c-0.2-0.1-0.3-0.3-0.5-0.3l0.1-0.1
		c0.2,0.1,0.2,0.1,0.4,0c0.2-0.1,0.4-0.4,0.4-0.5l0.7-1.1C3.7,55,3.9,54.7,4,54.6c0.1-0.2-0.1-0.2-0.2-0.3v-0.2
		c0.2,0.1,0.4,0.3,0.6,0.4c0.2,0.1,0.3,0.2,0.4,0.3c0.4,0.3,0.7,0.6,0.4,1.1c-0.3,0.4-0.7,0.5-1,0.3L4.1,57.6L4.1,57.6z M24.4,58.6
		l-0.6-1.1l-0.2,1.2L24.4,58.6L24.4,58.6z M15.3,60.6c0.1,0.1,0.1,0.4,0.2,0.5c0.1,0.1,0.2,0.1,0.4,0.1c0.3-0.1,0.4-0.4,0.3-0.7
		c0-0.3-0.2-0.4-0.3-0.6c-0.2-0.1-0.4,0-0.5,0h-0.1L15.3,60.6L15.3,60.6z M15.2,59.8L15.2,59.8c0.2-0.1,0.4-0.1,0.4-0.2
		c0.1-0.2,0.1-0.4,0.1-0.6c-0.1-0.4-0.2-0.5-0.5-0.5c-0.1,0.1-0.2,0.1-0.2,0.1s0,0.1,0,0.2L15.2,59.8L15.2,59.8z M13.1,60.9
		c0,0.1,0.1,0.4,0.2,0.6c0.1,0.1,0.2,0.1,0.4,0c0.4,0,0.5-0.3,0.4-0.7c-0.1-0.2-0.2-0.4-0.4-0.5c-0.2-0.1-0.4,0-0.6,0H13L13.1,60.9
		L13.1,60.9z M12.9,60.2l0.1-0.1c0.1,0,0.3,0,0.4-0.2c0.1-0.2,0.1-0.3,0.1-0.5c-0.1-0.4-0.2-0.6-0.6-0.5c0,0-0.1,0-0.2,0.1v0.1
		L12.9,60.2L12.9,60.2z M23.5,59c0,0.2-0.1,0.6,0,0.7c0,0.2,0.2,0.1,0.4,0.1v0.2c-0.2,0-0.3,0-0.4,0C23.3,60,23.1,60,23,60v-0.1
		c0.2-0.1,0.3-0.2,0.4-0.4c0-0.4,0-0.6,0.1-0.9l0.3-1.9h0.1l1.1,2.1c0.1,0.1,0.2,0.4,0.3,0.5c0.1,0.1,0.2,0.1,0.4,0.1v0.1
		c-0.1,0-0.4,0-0.5,0.1c-0.2,0-0.4,0.1-0.6,0.1v-0.1c0.1-0.1,0.3-0.1,0.2-0.3c0-0.1-0.1-0.2-0.1-0.3l-0.3-0.5l-0.9,0.2L23.5,59
		L23.5,59z M22.2,57.2L22.2,57.2l0.2,0.9h-0.1c-0.2-0.5-0.5-0.8-0.9-0.8c-0.7,0.1-0.8,0.9-0.7,1.6c0.2,0.7,0.4,1.4,1.1,1.3
		c0.5-0.2,0.6-0.6,0.6-1.1l0.1-0.1l0.2,1l-0.2-0.2c-0.2,0.3-0.5,0.4-0.8,0.4c-0.8,0.2-1.4-0.4-1.5-1.3c-0.1-0.9,0.3-1.7,1.1-1.7
		c0.4-0.1,0.6,0,0.8,0.1V57.2L22.2,57.2z M19.3,58.5c0-0.2-0.1-0.4-0.1-0.6c-0.2-0.1-0.3-0.1-0.4-0.1l-0.1-0.1
		c0.2-0.1,0.4-0.1,0.6-0.1c0.2,0,0.4-0.1,0.6-0.1v0.1c-0.1,0-0.2,0.1-0.3,0.2c0,0.2,0,0.4,0.1,0.6l0.2,1.3c0,0.1,0.1,0.5,0.2,0.6
		c0.1,0.1,0.2,0.1,0.4,0.1v0.2c-0.2,0-0.4,0-0.6,0c-0.1,0.1-0.4,0.1-0.6,0.1v-0.1c0.2,0,0.3,0,0.3-0.2c0.1-0.2,0-0.4,0-0.6
		L19.3,58.5L19.3,58.5z M16.9,59c0-0.2-0.1-0.5-0.1-0.6c-0.1-0.1-0.3-0.1-0.4,0l-0.1-0.1c0.2,0,0.4,0,0.6-0.1c0.2,0,0.4,0,0.6-0.1
		l0.1,0.1c-0.1,0-0.3,0-0.4,0.2c0,0.1,0.1,0.5,0.1,0.6l0.2,1.3c0.1,0.6,0.2,0.7,0.7,0.6c0.1-0.1,0.4-0.1,0.5-0.2
		c0.1-0.2,0.1-0.4,0.1-0.6l0.1-0.1l0.2,0.8c-0.1,0-0.1,0-0.2,0c-0.6,0.1-1.3,0.2-1.9,0.3V61c0.1-0.1,0.3-0.1,0.3-0.2
		c0.1-0.2,0-0.5,0-0.6L16.9,59L16.9,59z M14.7,59.4c0-0.2-0.1-0.5-0.2-0.6c-0.1-0.1-0.2-0.1-0.4-0.1v-0.1c0.2-0.1,0.4-0.1,0.6-0.1
		c0.1,0,0.3-0.1,0.4-0.1c0.4-0.1,0.9,0,1,0.5c0.1,0.4-0.2,0.6-0.5,0.8c0.2,0,0.4,0,0.6,0.1c0.2,0.1,0.4,0.3,0.4,0.6
		c0,0.4-0.1,0.6-0.3,0.7c-0.2,0.2-0.5,0.2-0.7,0.2c-0.1,0.1-0.3,0.1-0.4,0.1c-0.2,0-0.4,0.1-0.6,0.2v-0.1c0.1,0,0.3,0,0.3-0.2
		c0-0.1-0.1-0.4-0.1-0.6L14.7,59.4L14.7,59.4z M12.4,59.8c0-0.1-0.1-0.5-0.1-0.6c-0.1-0.1-0.2-0.1-0.4,0V59c0.1,0,0.4,0,0.5-0.1
		c0.2,0,0.4,0,0.5-0.1c0.4-0.1,0.9,0,1,0.6c0.1,0.4-0.1,0.6-0.4,0.8c0.2,0,0.4,0,0.6,0.1c0.2,0.1,0.4,0.3,0.4,0.6
		c0.1,0.3,0,0.5-0.3,0.7c-0.1,0.2-0.4,0.2-0.6,0.2c-0.2,0-0.4,0-0.5,0.1c-0.3,0-0.4,0.1-0.7,0.1v-0.1c0.1-0.1,0.3-0.1,0.4-0.2
		c0-0.1-0.1-0.5-0.1-0.6L12.4,59.8L12.4,59.8z M35.9,60.1l-0.2-1.3L35.2,60L35.9,60.1L35.9,60.1z M40.6,59.8c0-0.2-0.1-0.5-0.1-0.6
		c-0.1-0.2-0.2-0.2-0.4-0.2V59c0.1,0,0.4,0,0.6,0c0.2,0,0.4-0.1,0.6-0.1V59c-0.2,0-0.3,0-0.4,0.2c0,0.2,0,0.5,0,0.6l0.2,1.3
		c0,0.2,0,0.5,0.1,0.6c0.1,0.2,0.2,0.2,0.4,0.2V62c-0.2,0-0.4,0-0.6,0C40.8,62,40.6,62,40.4,62V62c0.1,0,0.3,0,0.3-0.2
		c0.1-0.2,0-0.4,0-0.6L40.6,59.8L40.6,59.8z M37.8,59.6c0-0.2,0.1-0.5,0.1-0.6c-0.1-0.2-0.2-0.2-0.4-0.2l0.1-0.1
		c0.1,0,0.4,0.1,0.5,0.1c0.2,0.1,0.4,0.1,0.6,0.1L38.7,59c-0.1,0-0.3-0.1-0.4,0.1c-0.1,0.2-0.1,0.5-0.2,0.6L38,61
		c-0.1,0.6,0,0.7,0.4,0.8c0.2,0,0.4,0.1,0.6,0c0.3-0.2,0.3-0.3,0.4-0.6h0.2l-0.2,0.8c0-0.1-0.2-0.1-0.2-0.1c-0.7-0.2-1.3-0.2-2-0.4
		v-0.1c0.1,0,0.3,0,0.4-0.2c0-0.1,0.1-0.4,0.2-0.6L37.8,59.6L37.8,59.6z M34.9,60.3c-0.1,0.2-0.2,0.5-0.3,0.6c0,0.2,0.2,0.2,0.3,0.3
		v0.1c-0.2,0-0.3-0.1-0.4-0.1c-0.2,0-0.3-0.1-0.4-0.1l0.1-0.1c0.2,0,0.3-0.1,0.4-0.3c0.2-0.3,0.3-0.6,0.4-0.8l0.8-1.7l0.2,0.1
		l0.4,2.4c0.1,0.2,0.1,0.4,0.2,0.6c0.1,0.2,0.2,0.2,0.3,0.2v0.1c-0.2,0-0.4-0.1-0.6-0.1c-0.2-0.1-0.4-0.1-0.6-0.1l0.1-0.2
		c0.1,0,0.3,0.1,0.3-0.1c0-0.2,0-0.3,0-0.4L36,60.3l-1-0.2L34.9,60.3L34.9,60.3z M34.6,58.9L34.6,58.9c0-0.5-0.2-0.6-0.5-0.7
		c-0.2,0-0.4-0.1-0.4,0.1l-0.4,2.2c0,0.4,0,0.4,0.4,0.6V61c-0.2,0-0.4-0.1-0.6-0.2c-0.2,0-0.4,0-0.6-0.1v-0.1c0.4,0,0.5-0.1,0.6-0.4
		l0.3-2.2C33.3,58,33.1,58,33,58c-0.4-0.1-0.6-0.1-0.6,0.5l-0.2-0.1l0.2-0.7l2.4,0.4L34.6,58.9L34.6,58.9z M31.1,58.4
		c0-0.2,0.1-0.4,0-0.6c0-0.2-0.2-0.2-0.3-0.2v-0.2c0.2,0.1,0.4,0.2,0.6,0.2c0.2,0,0.4,0.1,0.6,0.1l-0.1,0.1c-0.1,0-0.3,0-0.4,0.2
		c-0.1,0.2-0.1,0.4-0.2,0.6l-0.2,1.3c-0.1,0.2-0.1,0.5-0.1,0.6c0,0.2,0.2,0.2,0.3,0.2v0.2c-0.2-0.1-0.4-0.1-0.6-0.2
		c-0.2,0-0.4,0-0.6-0.1v-0.1c0.1,0,0.3,0,0.4-0.2c0.1-0.1,0.2-0.4,0.2-0.6L31.1,58.4L31.1,58.4z M48,56.3l-1.1-0.7l0.4,1.2L48,56.3
		L48,56.3z M43.3,59.7l-0.9-0.8l0.2,1.2L43.3,59.7L43.3,59.7z M47.4,57.1c0,0.2,0.2,0.6,0.2,0.7c0.2,0.2,0.3,0,0.4-0.1l0.1,0.2
		C48,57.9,47.9,58,47.7,58c-0.1,0.1-0.2,0.2-0.3,0.3l-0.1-0.2c0.2-0.2,0.2-0.2,0.2-0.4c-0.2-0.4-0.2-0.6-0.3-0.9L46.7,55l0.1-0.1
		l2.1,1.4c0.1,0.1,0.4,0.3,0.4,0.3c0.1,0.1,0.3,0,0.4-0.1v0.2c-0.2,0.1-0.3,0.2-0.4,0.3c-0.2,0.2-0.3,0.2-0.4,0.4l-0.1-0.1
		c0.1-0.1,0.2-0.2,0.1-0.4c-0.1-0.1-0.2-0.1-0.3-0.2l-0.4-0.3L47.3,57L47.4,57.1L47.4,57.1z M43.9,57.6c-0.2-0.1-0.4-0.1-0.5,0.1
		l-0.1-0.2c0.2-0.1,0.2-0.1,0.3-0.2c0.1,0,0.2-0.1,0.3-0.2l2.7,0.9L45.9,57c-0.2-0.1-0.3-0.4-0.4-0.6c-0.2-0.2-0.3-0.1-0.5,0
		l-0.1-0.1c0.2-0.1,0.3-0.2,0.4-0.2c0.1-0.2,0.1-0.2,0.3-0.3l0.1,0.1c-0.1,0.2-0.2,0.2-0.2,0.4c0.1,0.2,0.4,0.5,0.5,0.7l1.1,1.5
		L47,58.6c-0.2,0-0.3-0.1-0.4-0.2L44,57.6l0.9,1.3c0.1,0.2,0.3,0.4,0.4,0.5c0.2,0.1,0.3,0,0.4-0.1v0.1c-0.1,0.2-0.2,0.2-0.4,0.3
		s-0.2,0.2-0.4,0.3L45,59.9c0.2-0.2,0.2-0.2,0.2-0.4c-0.1-0.2-0.2-0.4-0.4-0.5L43.9,57.6L43.9,57.6z M42.7,60.4
		c0,0.2,0.1,0.5,0.1,0.7c0.1,0.2,0.3,0.1,0.4,0l0.1,0.1c-0.2,0.1-0.2,0.2-0.4,0.2c-0.2,0.1-0.3,0.1-0.4,0.2l-0.1-0.1
		c0.2-0.1,0.2-0.2,0.2-0.5c0-0.3-0.1-0.6-0.2-0.9l-0.4-1.9h0.2l1.8,1.6c0.1,0.1,0.3,0.3,0.4,0.4c0.1,0.1,0.3,0,0.4,0l0.1,0.1
		c-0.2,0.1-0.4,0.2-0.5,0.3c-0.2,0.1-0.4,0.2-0.5,0.3l-0.1-0.2c0.2,0,0.3-0.2,0.2-0.3c-0.1-0.1-0.2-0.2-0.3-0.3l-0.4-0.3l-0.8,0.4
		L42.7,60.4L42.7,60.4z"/>
	<g>
		<path class="st0" d="M6.9,40.4c-0.2-0.6-0.4-1.2-0.5-1.5l0-0.1L8,37.9c-0.2-0.8-0.3-1.6-0.4-2.3l-1.8-0.4v-0.2c0-0.4,0-2,0-2.4
			v-0.2l1.8-0.4C7.8,31.5,7.9,30.8,8,30l-0.9-0.5l0.6-0.1l0.7,0.4V30c-0.2,0.9-0.3,1.7-0.4,2.4v0.1l-1.8,0.4c0,0.5,0,1.6,0,2.1
			L8,35.3v0.1c0.1,0.8,0.2,1.5,0.4,2.5l0,0.1l-1.6,0.9c0.1,0.2,0.2,0.6,0.3,1L6.9,40.4z M10.1,45.6c0.2,0.2,0.3,0.4,0.4,0.6l1.7-0.8
			l0.1,0.1c0.5,0.6,1.1,1.1,1.8,1.8l0.1,0.1L13.4,49c0.4,0.3,1.3,0.9,1.7,1.2l1.3-1.2l0.1,0.1c0.7,0.4,1.5,0.8,2.3,1.1l0.1,0
			l-0.2,1.9c0.5,0.2,1.5,0.5,2,0.6l0.9-1.6l0.1,0c0.9,0.2,1.7,0.3,2.4,0.4h0.1l0.4,1.8c0.2,0,0.6,0,1,0s0.8,0,1,0l0.4-1.8h0.1
			c0.9-0.1,1.7-0.2,2.4-0.4l0.1,0l0.9,1.6c0.5-0.2,1.5-0.5,2-0.6l-0.2-1.8l0.1,0c0.8-0.4,1.5-0.7,2.2-1.1l0.1-0.1l1.3,1.2
			c0.4-0.3,1.3-0.9,1.7-1.2l-0.8-1.7l0.1-0.1c0.7-0.6,1.3-1.2,1.8-1.8l0.1-0.1l1.7,0.8c0.3-0.4,0.9-1.3,1.2-1.7l-1.2-1.3l0.1-0.1
			c0.4-0.7,0.8-1.5,1.1-2.2l0-0.1l1.8,0.2c0.2-0.5,0.5-1.5,0.6-1.9l-1.6-0.9l0-0.1c0.2-0.9,0.3-1.7,0.4-2.4v-0.1l1.8-0.4
			c0-0.5,0-1.6,0-2.1l-1.8-0.4v-0.1c-0.1-0.9-0.2-1.7-0.4-2.4l0-0.1l1.6-0.9c-0.1-0.5-0.5-1.5-0.6-2L42,27.3l0-0.1
			c-0.3-0.8-0.7-1.5-1.1-2.3l-0.1-0.1l1.2-1.3c-0.3-0.4-0.9-1.3-1.2-1.7l-1.7,0.8L39,22.4c-0.6-0.6-1.1-1.2-1.8-1.8l-0.1-0.1
			l0.8-1.7c-0.4-0.3-1.3-0.9-1.7-1.2l-1.3,1.2l-0.1-0.1c-0.7-0.4-1.5-0.8-2.3-1.1l-0.1,0l0.2-1.8c-0.4-0.2-1.5-0.5-2-0.6l-0.9,1.6
			l-0.1,0c-0.8-0.2-1.7-0.3-2.4-0.4H27l-0.4-1.8c-0.2,0-0.6,0-1,0s-0.8,0-1,0l-0.4,1.8h-0.1c-0.9,0.1-1.7,0.2-2.4,0.4l-0.1,0
			l-0.9-1.6c-0.4,0.1-1.5,0.5-1.9,0.6l0.2,1.8l-0.1,0c-0.8,0.3-1.5,0.7-2.2,1.1l-0.1,0.1l-1.3-1.2c-0.2,0.1-0.5,0.4-0.8,0.6l0-0.5
			c0.3-0.2,0.6-0.4,0.7-0.5l0.1-0.1l1.4,1.2c0.7-0.4,1.3-0.8,2-1l-0.3-1.9l0.1,0c0.4-0.2,1.9-0.6,2.3-0.8l0.1,0l0.9,1.6
			c0.7-0.2,1.5-0.3,2.3-0.4l0.4-1.8h0.1l0,0l0,0l0,0l0,0l0,0l0,0l0,0l0,0l0,0l0,0l0,0l0,0l0,0h0.1l0,0h0l0,0l0,0h0.1
			c0.2,0,0.6,0,0.9,0c0.4,0,1,0,1.2,0h0.1l0.4,1.8c0.8,0.1,1.5,0.2,2.3,0.4l0.9-1.6l0.1,0c0.4,0.1,1.9,0.6,2.3,0.8l0.1,0l-0.1,1.8
			c0.7,0.3,1.4,0.6,2.1,1l1.3-1.2l0.1,0.1c0.4,0.2,1.6,1.1,1.9,1.4l0.1,0.1l-0.8,1.7c0.6,0.5,1.1,1,1.6,1.6l1.7-0.8l0.1,0.1
			c0.3,0.3,1.2,1.6,1.4,1.9l0.1,0.1l-1.2,1.3c0.4,0.7,0.8,1.3,1,2.1l1.8-0.2l0,0.1c0.2,0.4,0.6,1.9,0.7,2.3l0,0.1L43.3,30
			c0.2,0.7,0.3,1.5,0.4,2.3l1.8,0.4v0.1c0,0.4,0,2,0,2.4v0.1l-1.8,0.4c-0.1,0.7-0.2,1.5-0.4,2.3l1.6,0.9l0,0.1
			c-0.1,0.4-0.6,1.9-0.7,2.3l0,0.1L42.3,41c-0.3,0.7-0.6,1.4-1,2l1.2,1.3l-0.1,0.3c-0.2,0.3-1.1,1.6-1.4,1.9l-0.1,0.1l-1.7-0.8
			c-0.5,0.6-1,1.1-1.6,1.6l0.8,1.7l-0.1,0.1c-0.3,0.2-1.6,1.2-1.9,1.4l-0.1,0.1l-1.4-1.2c-0.6,0.4-1.3,0.8-2,1l0.2,1.8l-0.1,0
			c-0.4,0.1-1.9,0.6-2.3,0.8l-0.1,0l-0.9-1.6c-0.7,0.2-1.4,0.3-2.3,0.4l-0.4,1.8h-0.2c-0.2,0-0.8,0-1.2,0s-0.9,0-1.2,0h-0.2L24,51.9
			c-0.7-0.1-1.5-0.2-2.3-0.4l-0.9,1.6l-0.1,0c-0.4-0.1-1.9-0.6-2.3-0.8l-0.1,0l0.2-1.9c-0.7-0.3-1.4-0.6-2.1-1l-1.3,1.2L15,50.6
			c-0.3-0.2-1.6-1.1-1.9-1.4L13,49.1l0.8-1.7c-0.6-0.6-1.1-1.1-1.6-1.6l-1.7,0.8l-0.1-0.1c-0.1-0.1-0.2-0.3-0.4-0.6L10.1,45.6z"/>
		<path class="st0" d="M25.6,48.5c-2.1,0-4.2-0.4-6.1-1.3l-0.3-0.1l6.4-8l6.2,8.1l-0.3,0.1C29.8,48.1,27.7,48.5,25.6,48.5z M20,46.9
			c1.8,0.8,3.7,1.2,5.6,1.2c1.9,0,3.8-0.4,5.5-1.1l-5.5-7.2L20,46.9z M36.2,44.1l-5.6-8.5l9.6-3.4l0,0.3c0.5,4.2-0.9,8.4-3.8,11.5
			L36.2,44.1z M31.2,35.8l5,7.6c2.6-2.9,3.9-6.8,3.5-10.6L31.2,35.8z M15,43.9l-0.2-0.2c-2.8-3.1-4.1-7.3-3.7-11.5l0-0.3l9.6,3.6
			L15,43.9z M11.6,32.6c-0.4,3.9,0.8,7.7,3.4,10.7l5.1-7.5L11.6,32.6z M28.7,29.8l-0.3-10.2l0.3,0c4.1,0.9,7.7,3.5,9.7,7.2l0.1,0.2
			L28.7,29.8z M28.8,20.2l0.3,9.1l8.8-2.4C35.9,23.5,32.6,21.1,28.8,20.2z M22.7,29.8l-9.8-2.9l0.2-0.2c2.1-3.7,5.7-6.2,9.8-7l0.3,0
			L22.7,29.8z M13.6,26.7l8.7,2.6l0.4-9.1C18.9,21,15.6,23.3,13.6,26.7z"/>
		<path class="st0" d="M25.7,20.7l-3.1,8.8l0,0.1h-0.2l-9.3,0.2l7.4,5.6l0.1,0.1l0,0.2l-2.6,8.9l7.7-5.3l0.1-0.1l0.1,0.1l7.7,5.3
			l-2.7-8.9l0-0.2l0.1-0.1l7.4-5.6L29,29.6h-0.2l0-0.1L25.7,20.7L25.7,20.7z M22.2,29.2l3.2-9.2l0.2-0.6l0.2,0.6l3.2,9.2l9.8,0.2
			h0.6L39,29.8l-7.8,5.9l2.8,9.4l0.2,0.6l-0.5-0.3l-8-5.6l-8,5.6l-0.5,0.4l0.2-0.6l2.8-9.4l-7.8-5.9l-0.5-0.4h0.6L22.2,29.2
			L22.2,29.2z"/>
		<g>
			<polygon class="st0" points="8.5,48.8 8.5,48.8 8.5,48.8 			"/>
			<polygon class="st0" points="7.6,47.1 8.5,48.8 8.5,48.8 			"/>
		</g>
	</g>
</g>
</svg>
