<?xml version="1.0" encoding="utf-8"?>
<!-- Generator: Adobe Illustrator 22.1.0, SVG Export Plug-In . SVG Version: 6.00 Build 0)  -->
<svg version="1.1" id="Livello_1" xmlns="http://www.w3.org/2000/svg" xmlns:xlink="http://www.w3.org/1999/xlink" x="0px" y="0px"
	 viewBox="0 0 203 31" style="enable-background:new 0 0 203 31;" xml:space="preserve">
<style type="text/css">
	.st0{fill:#5A6772;}
	.st1{fill:#5A6772;stroke:#FFFFFF;stroke-width:0.6548;}
	.st2{fill:#6F7072;}
</style>
<title>logo agid</title>
<g id="Group" transform="translate(126.000000, 2.000000)">
	<path id="Shape" class="st0" d="M0.2,9.5l2.5-9.1h2.2l2.5,9.1h-1L5.7,7.2H1.8L1.1,9.5H0.2z M3.4,1.3L2,6.3h3.4L4,1.3H3.4z"/>
	<path id="Shape_1_" class="st0" d="M11,12.6c-1,0-1.8-0.1-2.2-0.4c-0.4-0.3-0.6-0.8-0.6-1.6c0-0.4,0.1-0.6,0.2-0.9
		c0.1-0.3,0.4-0.5,0.8-0.8C9,8.7,8.8,8.4,8.8,8c0-0.1,0.1-0.4,0.3-0.8L9.2,7c-0.7-0.3-1-1-1-2c0-1.5,0.8-2.2,2.4-2.2
		c0.4,0,0.8,0,1.2,0.1H12L14,3v0.8h-1.2c0.3,0.3,0.4,0.7,0.4,1.3c0,0.8-0.2,1.4-0.6,1.7c-0.4,0.3-1,0.5-1.9,0.5
		c-0.2,0-0.4,0-0.6-0.1C9.9,7.6,9.9,7.8,9.9,7.9c0,0.3,0.1,0.4,0.2,0.5c0.2,0.1,0.7,0.1,1.5,0.1c0.8,0,1.4,0.1,1.8,0.4
		c0.4,0.3,0.5,0.8,0.5,1.5C13.9,11.9,13,12.6,11,12.6z M9.2,10.5c0,0.5,0.1,0.8,0.4,1c0.3,0.2,0.7,0.3,1.4,0.3s1.2-0.1,1.5-0.3
		s0.5-0.5,0.5-1s-0.1-0.7-0.3-0.9c-0.2-0.2-0.6-0.2-1.3-0.2L10,9.3C9.7,9.5,9.5,9.7,9.4,9.8C9.2,10.1,9.2,10.3,9.2,10.5z M9.3,5.1
		c0,0.5,0.1,0.9,0.3,1.1c0.2,0.2,0.6,0.3,1.1,0.3s0.9-0.1,1.1-0.3C12,6,12.1,5.6,12.1,5.1S12,4.2,11.8,4c-0.2-0.2-0.6-0.3-1.1-0.3
		S9.8,3.8,9.6,4C9.4,4.2,9.3,4.6,9.3,5.1z"/>
	<path id="Shape_2_" class="st0" d="M19.7,8.7h0.4v0.8c-1,0.1-1.8,0.2-2.6,0.2c-0.9,0-1.6-0.3-2-0.8s-0.6-1.4-0.6-2.5
		c0-2.3,0.9-3.4,2.7-3.4c0.9,0,1.5,0.2,2,0.7C20,4.2,20.3,5,20.3,6l-0.1,0.7h-4.3c0,0.7,0.1,1.3,0.4,1.6c0.3,0.3,0.7,0.5,1.4,0.5
		C18.4,8.8,19,8.8,19.7,8.7z M19.3,5.9c0-0.8-0.1-1.4-0.4-1.7c-0.3-0.3-0.7-0.5-1.3-0.5s-1,0.2-1.3,0.5c-0.3,0.3-0.4,0.9-0.5,1.7
		H19.3z"/>
	<path id="Shape_3_" class="st0" d="M22.8,9.5h-1V3h1v0.5c0.7-0.4,1.4-0.6,2-0.6c0.9,0,1.5,0.2,1.8,0.7c0.3,0.5,0.5,1.3,0.5,2.5v3.5
		h-1V6.1c0-0.9-0.1-1.5-0.3-1.9c-0.2-0.3-0.6-0.5-1.1-0.5c-0.3,0-0.6,0-0.9,0.1C23.5,3.9,23.3,4,23.1,4l-0.2,0.1v5.4H22.8z"/>
	<polygon id="Shape_4_" class="st0" points="28.5,3.9 28.5,3 33.4,3 33.4,3.9 29.7,8.7 33.4,8.7 33.4,9.6 28.5,9.6 28.5,8.7 
		32.2,3.9 	"/>
	<path id="Shape_5_" class="st0" d="M34.8,1.5V0.4h1v1.1H34.8z M34.8,9.5V3h1v6.5H34.8z"/>
	<path id="Shape_6_" class="st0" d="M42.3,5v3.4c0,0.3,0.3,0.5,0.8,0.6v0.8c-0.7,0-1.2-0.2-1.6-0.5c-0.8,0.3-1.6,0.5-2.4,0.5
		c-0.6,0-1.1-0.2-1.4-0.5s-0.5-0.8-0.5-1.5c0-0.6,0.2-1.1,0.5-1.4c0.3-0.3,0.8-0.5,1.5-0.6l2.1-0.2V5c0-0.4-0.1-0.8-0.3-1
		c-0.2-0.2-0.5-0.3-0.8-0.3c-0.7,0-1.4,0-2.2,0.1h-0.4V3.1c1-0.2,1.8-0.3,2.6-0.3s1.3,0.2,1.6,0.5C42.2,3.7,42.3,4.2,42.3,5z
		 M38.3,7.6c0,0.8,0.3,1.2,1,1.2c0.6,0,1.2-0.1,1.8-0.3l0.3-0.1V6.3l-1.9,0.2c-0.4,0-0.7,0.1-0.9,0.3C38.4,7,38.3,7.3,38.3,7.6z"/>
	<path id="Shape_7_" class="st0" d="M47.1,12.4V3h1v0.5c0.7-0.4,1.3-0.6,2-0.6c0.8,0,1.4,0.3,1.8,0.8c0.4,0.5,0.6,1.4,0.6,2.6
		s-0.2,2.1-0.7,2.6c-0.4,0.5-1.2,0.8-2.2,0.8c-0.5,0-1,0-1.5-0.1v2.9h-1V12.4z M49.9,3.7c-0.3,0-0.5,0-0.8,0.1
		c-0.3,0.1-0.5,0.2-0.7,0.3l-0.2,0.1v4.4c0.6,0.1,1.1,0.1,1.4,0.1c0.7,0,1.2-0.2,1.5-0.6c0.3-0.4,0.4-1.1,0.4-2s-0.1-1.6-0.4-1.9
		C50.8,3.9,50.4,3.7,49.9,3.7z"/>
	<path id="Shape_8_" class="st0" d="M58.5,8.7h0.4v0.8c-1,0.1-1.8,0.2-2.6,0.2c-0.9,0-1.6-0.3-2-0.8c-0.4-0.5-0.6-1.4-0.6-2.5
		c0-2.3,0.9-3.4,2.7-3.4c0.9,0,1.5,0.2,2,0.7C58.8,4.2,59.1,5,59.1,6L59,6.7h-4.3c0,0.7,0.1,1.3,0.4,1.6c0.3,0.3,0.7,0.5,1.4,0.5
		S57.8,8.8,58.5,8.7z M58.2,5.9c0-0.8-0.1-1.4-0.4-1.7c-0.3-0.3-0.7-0.5-1.3-0.5s-1,0.2-1.3,0.5c-0.3,0.3-0.4,0.9-0.5,1.7H58.2z"/>
	<path id="Shape_9_" class="st0" d="M60.7,9.5V3h1v0.9c0.8-0.5,1.6-0.9,2.4-1v1C63.7,4,63.4,4.1,63,4.2c-0.4,0.1-0.7,0.3-0.9,0.4
		l-0.3,0.2v4.8h-1.1V9.5z"/>
	<polygon id="Shape_10_" class="st0" points="0.9,25.2 0.9,15.8 1.9,15.8 1.9,25.2 	"/>
	<polygon id="Shape_11_" class="st0" points="3.6,18.8 4.2,15.9 5.2,15.9 4.4,18.8 	"/>
	<polygon id="Shape_12_" class="st0" points="6.8,25.2 6.8,16.1 7.8,16.1 7.8,25.2 	"/>
	<path id="Shape_13_" class="st0" d="M13.3,19.5h-2.1v3.1c0,0.8,0.1,1.2,0.2,1.5c0.1,0.2,0.4,0.4,0.8,0.4l1.2-0.1l0.1,0.8
		c-0.6,0.1-1,0.1-1.3,0.1c-0.7,0-1.2-0.2-1.4-0.5c-0.3-0.3-0.4-1-0.4-1.9v-3.4H9.5v-0.9h0.9v-2h1v2h2.1v0.9H13.3z"/>
	<path id="Shape_14_" class="st0" d="M19.1,20.7V24c0,0.3,0.3,0.5,0.8,0.6v0.8c-0.7,0-1.2-0.2-1.6-0.5c-0.8,0.3-1.6,0.5-2.4,0.5
		c-0.6,0-1.1-0.2-1.4-0.5c-0.3-0.3-0.5-0.8-0.5-1.5c0-0.6,0.2-1.1,0.5-1.4s0.8-0.5,1.5-0.6l2.1-0.2v-0.6c0-0.4-0.1-0.8-0.3-1
		c-0.2-0.2-0.5-0.3-0.8-0.3c-0.7,0-1.4,0-2.2,0.1h-0.4v-0.7c1-0.2,1.8-0.3,2.6-0.3s1.3,0.2,1.6,0.5C18.9,19.4,19.1,19.9,19.1,20.7z
		 M15.1,23.3c0,0.8,0.3,1.2,1,1.2c0.6,0,1.2-0.1,1.8-0.3l0.3-0.1V22l-1.9,0.2c-0.4,0-0.7,0.1-0.9,0.3C15.2,22.7,15.1,23,15.1,23.3z"
		/>
	<polygon id="Shape_15_" class="st0" points="21.1,25.2 21.1,15.8 22.1,15.8 22.1,25.2 	"/>
	<path id="Shape_16_" class="st0" d="M24.1,17.2v-1.1h1v1.1H24.1z M24.1,25.2v-6.5h1v6.5H24.1z"/>
	<path id="Shape_17_" class="st0" d="M31.6,20.7V24c0,0.3,0.3,0.5,0.8,0.6v0.8c-0.7,0-1.2-0.2-1.6-0.5c-0.8,0.3-1.6,0.5-2.4,0.5
		c-0.6,0-1.1-0.2-1.4-0.5c-0.3-0.3-0.5-0.8-0.5-1.5c0-0.6,0.2-1.1,0.5-1.4s0.8-0.5,1.5-0.6l2.1-0.2v-0.6c0-0.4-0.1-0.8-0.3-1
		c-0.2-0.2-0.5-0.3-0.8-0.3c-0.7,0-1.4,0-2.2,0.1h-0.4v-0.7c1-0.2,1.8-0.3,2.6-0.3s1.3,0.2,1.6,0.5C31.4,19.4,31.6,19.9,31.6,20.7z
		 M27.5,23.3c0,0.8,0.3,1.2,1,1.2c0.6,0,1.2-0.1,1.8-0.3l0.3-0.1V22l-1.9,0.2c-0.4,0-0.7,0.1-0.9,0.3C27.6,22.7,27.5,23,27.5,23.3z"
		/>
	<path id="Shape_18_" class="st0" d="M39.8,25.2h-3.2v-9.1h3.2c1.5,0,2.5,0.6,2.9,1.8c0.3,0.7,0.4,1.6,0.4,2.6
		c0,2.3-0.6,3.7-1.7,4.3C41,25.1,40.4,25.2,39.8,25.2z M42.1,20.6c0-1.7-0.4-2.8-1.2-3.2c-0.3-0.2-0.7-0.3-1.2-0.3h-2.2v7.3h2.2
		C41.3,24.3,42.1,23.1,42.1,20.6z"/>
	<path id="Shape_19_" class="st0" d="M44.8,17.2v-1.1h1v1.1H44.8z M44.8,25.2v-6.5h1v6.5H44.8z"/>
	<path id="Shape_20_" class="st0" d="M50.2,28.3c-1,0-1.8-0.1-2.2-0.4c-0.4-0.3-0.6-0.8-0.6-1.6c0-0.4,0.1-0.6,0.2-0.9
		c0.1-0.3,0.4-0.5,0.8-0.8c-0.2-0.2-0.4-0.5-0.4-0.9c0-0.1,0.1-0.4,0.3-0.8l0.1-0.2c-0.7-0.3-1-1-1-2c0-1.5,0.8-2.2,2.4-2.2
		c0.4,0,0.8,0,1.2,0.1h0.2l1.9-0.1v0.8h-1.2c0.3,0.3,0.4,0.7,0.4,1.3c0,0.8-0.2,1.4-0.6,1.7c-0.4,0.3-1,0.5-1.9,0.5
		c-0.2,0-0.4,0-0.6-0.1C49,23.1,49,23.3,49,23.4c0,0.3,0.1,0.4,0.2,0.5c0.2,0.1,0.7,0.1,1.5,0.1s1.4,0.1,1.8,0.4
		c0.4,0.3,0.5,0.8,0.5,1.5C53.1,27.6,52.2,28.3,50.2,28.3z M48.4,26.3c0,0.5,0.1,0.8,0.4,1c0.3,0.2,0.7,0.3,1.4,0.3s1.2-0.1,1.5-0.3
		c0.3-0.2,0.5-0.5,0.5-1s-0.1-0.7-0.3-0.9c-0.2-0.2-0.6-0.2-1.3-0.2l-1.4-0.1c-0.3,0.2-0.5,0.4-0.6,0.5C48.4,25.8,48.4,26,48.4,26.3
		z M48.5,20.8c0,0.5,0.1,0.9,0.3,1.1c0.2,0.2,0.6,0.3,1.1,0.3s0.9-0.1,1.1-0.3c0.2-0.2,0.3-0.6,0.3-1.1s-0.1-0.9-0.3-1.1
		c-0.2-0.2-0.6-0.3-1.1-0.3s-0.9,0.1-1.1,0.3C48.6,19.9,48.5,20.3,48.5,20.8z"/>
	<path id="Shape_21_" class="st0" d="M54.4,17.2v-1.1h1v1.1H54.4z M54.4,25.2v-6.5h1v6.5H54.4z"/>
	<path id="Shape_22_" class="st0" d="M60.7,19.5h-2.1v3.1c0,0.8,0.1,1.2,0.2,1.5c0.1,0.2,0.4,0.4,0.8,0.4l1.2-0.1l0.1,0.8
		c-0.6,0.1-1,0.1-1.3,0.1c-0.7,0-1.2-0.2-1.4-0.5c-0.3-0.3-0.4-1-0.4-1.9v-3.4h-0.9v-0.9h0.9v-2h1v2h2.1v0.9H60.7z"/>
	<path id="Shape_23_" class="st0" d="M66.5,20.7V24c0,0.3,0.3,0.5,0.8,0.6v0.8c-0.7,0-1.2-0.2-1.6-0.5c-0.8,0.3-1.6,0.5-2.4,0.5
		c-0.6,0-1.1-0.2-1.4-0.5c-0.3-0.3-0.5-0.8-0.5-1.5c0-0.6,0.2-1.1,0.5-1.4c0.3-0.3,0.8-0.5,1.5-0.6l2.1-0.2v-0.6
		c0-0.4-0.1-0.8-0.3-1c-0.2-0.2-0.5-0.3-0.8-0.3c-0.7,0-1.4,0-2.2,0.1h-0.4v-0.7c1-0.2,1.8-0.3,2.6-0.3c0.8,0,1.3,0.2,1.6,0.5
		C66.4,19.4,66.5,19.9,66.5,20.7z M62.5,23.3c0,0.8,0.3,1.2,1,1.2c0.6,0,1.2-0.1,1.8-0.3l0.3-0.1V22l-1.9,0.2
		c-0.4,0-0.7,0.1-0.9,0.3S62.5,23,62.5,23.3z"/>
	<polygon id="Shape_24_" class="st0" points="68.5,25.2 68.5,15.8 69.5,15.8 69.5,25.2 	"/>
	<path id="Shape_25_" class="st0" d="M75.9,24.4h0.4v0.8c-1,0.1-1.8,0.2-2.6,0.2c-0.9,0-1.6-0.3-2-0.8c-0.4-0.5-0.6-1.4-0.6-2.5
		c0-2.3,0.9-3.4,2.7-3.4c0.9,0,1.5,0.2,2,0.7c0.4,0.5,0.7,1.3,0.7,2.3l-0.1,0.7h-4.3c0,0.7,0.1,1.3,0.4,1.6s0.7,0.5,1.4,0.5
		C74.6,24.5,75.3,24.5,75.9,24.4z M75.6,21.6c0-0.8-0.1-1.4-0.4-1.7c-0.3-0.3-0.7-0.5-1.3-0.5s-1,0.2-1.3,0.5
		c-0.3,0.3-0.4,0.9-0.5,1.7H75.6z"/>
</g>
<g id="Group_2_" transform="translate(32.000000, 0.000000)">
	<path id="Shape_26_" class="st0" d="M0.5,27.4l6-26.5h10.2l6,26.5h-5.4l-1.1-4.8H6.9l-1.1,4.8H0.5z M10.6,5.3L7.9,17.9h7.3
		L12.5,5.3H10.6z"/>
	<path id="Shape_27_" class="st0" d="M36.8,17.9v-4.7h7.7V27c-3.7,0.6-6.7,0.9-9,0.9c-4.1,0-7-1.1-8.5-3.3s-2.3-5.7-2.3-10.5
		s0.8-8.3,2.4-10.4s4.4-3.2,8.2-3.2c2.4,0,5,0.3,7.8,0.8l1.4,0.3l-0.2,4.2c-3.1-0.3-5.7-0.5-7.7-0.5S33.2,5.5,32.4,6
		c-0.8,0.5-1.4,1.3-1.8,2.6S30,12,30,15.1s0.4,5.2,1.1,6.4c0.8,1.2,2.3,1.8,4.7,1.8l3.2-0.2V18h-2.2V17.9z"/>
	<polygon id="Shape_28_" class="st0" points="49.6,27.4 49.6,0.9 55,0.9 55,27.4 	"/>
	<path id="Shape_29_" class="st0" d="M69.7,27.4h-8.9V0.9h8.9c2.3,0,4.2,0.2,5.7,0.7S78,2.9,78.8,4c0.8,1.1,1.4,2.4,1.7,3.9
		s0.5,3.4,0.5,5.8s-0.1,4.4-0.4,5.9c-0.3,1.6-0.8,3-1.6,4.2c-0.8,1.2-1.9,2.1-3.4,2.7C73.9,27.1,72,27.4,69.7,27.4z M75.3,16.9
		c0.1-0.8,0.1-2,0.1-3.4c0-1.5-0.1-2.6-0.2-3.5c-0.1-0.9-0.4-1.7-0.7-2.4c-0.4-0.7-1-1.2-1.7-1.5C72,5.8,71,5.7,69.7,5.7h-3.5v17.2
		h3.5c1.9,0,3.4-0.5,4.2-1.5C74.7,20.4,75.1,19,75.3,16.9z"/>
</g>
<path id="Shape_30_" class="st1" d="M119.5,0v27.5"/>
<g>
	<path class="st2" d="M16,28.3c0,0.1,0,0.1,0.1,0.2c0.1,0.1,0.2,0.1,0.2,0L16,28.3L16,28.3z"/>
	<path class="st0" d="M26.1,13.9c0.1-0.6,0-0.9-0.2-1.1c-0.2-0.1-0.5-0.1-0.8,0.1c-0.2-0.1-0.4,0-0.7,0.3c0.1-0.1,0.1-0.3,0-0.4
		c0.3-0.1,0.5-0.3,0.5-0.4C25,12.3,25,12,25,11.7c0-0.2,0.2-0.6,0.6-1.1c0.2-0.5,0.1-0.7-0.5-0.5c0.3-0.3,0.5-0.5,0.5-0.7
		c0-0.2-0.1-0.4-0.2-0.7c-0.1-0.2-0.2-0.2-0.3-0.1c0.1-0.1,0.1-0.2,0.1-0.4S25,7.8,24.8,7.3c0-0.6-0.2-0.9-0.4-0.8
		c0-0.3-0.1-0.6-0.3-0.9c-0.3-0.4-0.5-0.5-0.6-0.3c-0.4-0.6-0.8-0.8-1.1-0.8c0-0.3-0.1-0.5-0.3-0.7c-0.1-0.4-0.2-0.7-0.3-0.8
		c-0.2-0.1-0.3,0-0.4,0.3c0-0.2-0.1-0.5-0.2-0.7c-0.1-0.3-0.3-0.4-0.6-0.4c-0.1,0-0.2,0-0.3,0c-0.2-0.1-0.3-0.2-0.4-0.2
		c-0.4-0.4-0.7-0.4-1-0.1l0-0.3c-0.1-0.4-0.3-0.5-0.6-0.3c-0.5-0.5-0.9-0.9-1.3-1c-0.3-0.1-0.5-0.1-0.6,0.1
		c-0.2-0.2-0.3-0.3-0.5-0.3c-0.2,0-0.3-0.1-0.5-0.1C15.1,0,15,0.1,15,0.4c-0.4,0-0.6,0.1-0.8,0.2c-0.1,0.1-0.2,0.3-0.1,0.5
		s0.2,0.4,0.5,0.5c-0.1,0.1-0.1,0.2-0.1,0.3c0,0.2,0.2,0.3,0.5,0.4c0.2,0.1,0.5,0.1,0.7,0c-0.1,0.2,0,0.4,0.3,0.5
		C16.3,3,16.7,3.1,17.1,3L17,3.4l0.6,0.3c0,0.3,0.2,0.5,0.4,0.6l0.2,0.1c-0.1,0-0.3,0.2-0.3,0.2C18,4.6,17.9,4.9,18.2,5
		c0.3,0,0.5,0.1,0.8,0c0,0.1,0.1,0.2,0.1,0.3c0,0.1,0.2,0.2,0.3,0.4c0.2,0.2,0.5,0.4,0.8,0.5c0,0-0.1,0.2-0.2,0.4
		c-0.1,0.2-0.1,0.6,0,0.8c0,0-0.2,0.1-0.2,0.2c-0.2,0.3,0.2,0.7,0.3,0.9c0,0-0.2,0.1-0.2,0.1c-0.1,0.1-0.1,0.6,0.3,0.7
		c0.1,0.1,0.6,0.3,0.8,0.6c0,0,0.2,0.3,0.4,0.6c0.1,0.1,0.2,0.4,0.5,0.4c0.2,0.7,0.6,1.4,1,2.1c0,0,0.4,0.5,0.6,0.8
		c-0.1,0.3,0,0.5,0,0.5c-0.1,0.5-0.1,1-0.3,1.4c-0.4-0.2-0.5,0.1-0.6,0.4c0,0-0.2,0-0.2,0.1c0-0.2-0.3-0.3-0.4-0.2
		c0,0-0.1,0.1-0.2,0.2c0,0-0.1-0.1-0.1-0.3c0-0.1,0-0.4,0-0.5c0,0,0.1-0.1,0.2-0.3c0.1-0.2,0-1-0.1-1.5c0-0.2-0.2-0.2-0.2-0.3
		c0,0-0.3,0-0.3,0.2c0-0.1-0.2-0.2-0.3-0.2c-0.3-0.1-0.7,0.6-0.7,1.2c-0.3-0.2-0.6-0.1-0.5,0.2c0.1,0.5,0.8,1.3,0.8,1.7
		c-0.2-0.2-0.7-0.2-0.7,0.3c0,0.1,0.1,0.4,0.2,0.5c-0.1,0.5,0.5,0.9,0.9,1.3c0,0.2,0.1,0.2,0.1,0.3c-0.1,0.1-0.6,0.9-0.6,1
		c0,0-0.4-0.2-0.5-0.1c-0.1,0.1-0.2,0.3-0.3,0.4l0.1,0.6c0,0.2-0.1,0.5-0.4,0.8c-0.3,0.3-0.5,0.6-0.6,0.8c-0.1,0.2-0.3,0.4-0.6,0.6
		c0-0.1-0.1-0.2-0.3-0.3c0,0-0.1-0.1-0.1,0c-0.4,0.1-1.1,0.5-2.1,1c-0.2,0.1-0.5,0.3-0.8,0.9h-0.6c-0.2-0.2-0.3-0.3-0.5-0.5
		c-0.1-0.1-0.4-0.1-0.7,0.1c-0.3-0.1-0.7,0-1,0.2c-0.2,0.1-0.3,0.1-0.4,0l-0.8-0.8c-1.6-0.7-2.5-1-2.6-0.9c-0.2,0.1-0.3,0.2-0.3,0.4
		c-0.2-0.1-0.4-0.3-0.7-0.6l-0.5-0.6c-0.4-0.4-0.5-0.8-0.4-1.1l0.1-0.5c0-0.1,0-0.1,0-0.2c-0.1-0.1-0.3-0.2-0.4-0.2
		c0,0-0.1,0-0.2,0.3c0,0.1-0.5-0.7-0.5-0.7c0.1-0.2,0.4-0.6,0.5-1.1c0.2-0.6,0.2-1.2,0.2-1.5c0,0,0-0.1,0.1-0.1
		c0.2-0.2,0.6-1.9,0.5-2.3c0-0.2-0.1-0.3-0.1-0.3s-0.1,0-0.1,0l0.1-0.2c0.1-0.1,0.1-0.2,0-0.3c0,0-0.3,0-0.6,0.1
		c0-0.3-0.2-0.7-0.2-0.8c0,0-0.1,0-0.1,0c-0.4,0.3-0.6,0.8-0.8,1.6l-0.1,0.1c-0.6,0.7-1,1.5-1.2,2.4c-0.1-0.1-0.1-0.4-0.2-0.6
		c-0.1-0.3-0.1-0.5-0.1-0.6C3,15.6,3,15.5,2.9,15.4c-0.1-0.1-0.2-0.6-0.4-1.4c0-0.2,0.1-0.6,0.3-1s0.5-1,0.8-1.6
		c0,0,0.2-0.2,0.2-0.2C4.3,11,6.7,7.9,6.4,6.4c0,0.2,1-1.7,1.1-2.1l0.1,0l0.2-0.1c0.5-0.2,1-0.4,1.4-0.6l0.6-0.3
		c0.4-0.2,0.8-0.4,1.2-0.8c0.4-0.4,0.6-0.8,0.7-1.1c-0.1-0.2-0.3-0.2-0.6-0.2c0.2-0.2,0.3-0.4,0.3-0.7c-0.1-0.2-0.5-0.2-1.2-0.1
		C9.5,0.6,8.9,0.9,8.4,1.2C7.8,1.6,7.3,2,6.9,2.5s-0.8,1-1,1.5l0.3-0.7C6.3,3,6.5,2.6,6.7,2.1c0.1-0.2,0.1-0.4,0-0.5
		c0-0.1-0.1-0.1-0.3-0.1S5.9,1.8,5.5,2.2C5,2.7,4.6,3.3,4.2,4C3.8,4.7,3.6,5.3,3.5,5.7c0.1-0.5,0.1-0.9,0-1.2
		C3.4,4.4,3.3,4.3,3.1,4.4C2.9,4.5,2.7,4.7,2.6,4.9C2.4,5.2,2.2,5.4,2.1,5.6C2,5.8,1.8,6.1,1.6,6.5C1.3,6.9,1.2,7.4,1,7.9
		c-0.2,0.5-0.3,1.3-0.4,2.2c-0.1,0.6,0,1.2,0.1,1.8c0.2,0.7,0.3,1.1,0.5,1.4c0.2,0.3,0.3,0.5,0.5,0.6c0.1,0.2,0.2,0.6,0.4,1.1
		c0.1,0.3,0.1,0.4,0.1,0.6c0,0.1,0,0.2,0.1,0.3c0.1,0.1,0.1,0.2,0.2,0.3c0.1,0.5,0.3,1,0.6,1.4C3,17.8,3,18,3,18.3
		c-0.5-1.4-0.9-2.5-1.2-3.3c-0.6-1.3-1.1-2-1.4-1.8c-0.2,0.1-0.3,0.2-0.3,0.5c0,0.1,0,0.3,0,0.7c0,0.4,0,0.8,0.1,1.2
		C0.4,16.9,1,18.1,1.7,19l1.1,1.3c0.2,0.2,0.5,0.4,0.7,0.5C3.7,21,3.9,21,4.1,20.9c0.3,0.4,0.6,0.8,1,1.3c0.3,0.4,0.5,0.6,0.8,0.6
		c0.1,0.3,0.3,0.4,0.5,0.4l0.2,0c0.3,0.3,0.6,0.6,0.9,0.8l-0.3,0.8c-0.5,0.1-1,0.1-1.4,0.1c-0.4-0.3-1-0.7-1.7-1.2l0-0.9
		c0-0.3,0-0.6,0.2-0.8c0-0.2-0.1-0.3-0.3-0.5c-0.3-0.2-0.5-0.2-0.6-0.2c-0.1,0,0,0.1,0,0.2v0.1c0,0,0-0.1,0.1,0
		c0.4,0.1,0.6,0.3,0.6,0.4c-0.1,0.2-0.2,0.5-0.2,0.8l0,0.8c-0.6-0.4-1.1-0.7-1.8-1c0.1,0,0.2,0,0.3,0s0.2,0,0.2-0.1
		c0-0.1,0-0.1-0.2-0.1c-0.3,0-0.5,0-0.6,0.1c-0.1,0.1-0.1,0.2,0,0.3c0.8,0.4,1.4,0.8,2,1.1c0.9,0.6,1.6,1,2.1,1.4
		c0.5,0,1.2-0.1,2.1-0.2l1.3-0.3c0.6-0.1,1.1-0.2,1.7-0.3c0.2,0,0.5-0.1,0.8-0.1c0.3,0,0.6,0,0.9-0.1c0.3,0.5,0.4,0.9,0.5,1.3
		c0,0.2,0,0.3-0.1,0.3c-1.2,0.5-2.1,0.8-2.7,0.9c-0.5,0.1-1,0.2-1.5,0.3c-1.1,0.2-2.2,0.4-3.2,0.5c-0.3-0.1-1-0.5-2.3-1.2
		c-0.9-0.6-1.6-1-1.9-1.3c-0.4-0.5-0.6-0.7-0.5-0.8c0.3-0.5,0.5-0.8,0.6-1.2c0-0.1,0.1-0.3,0-0.3c-0.1-0.4,0-0.5,0.3-0.6
		c0.7,0,1.2-0.1,1.4,0c0.1,0,0.2,0,0.2-0.1l0.2-0.5l-0.2-0.1l-0.2,0.3v-0.3v0.4l-1.6,0c-0.1,0-0.3,0.1-0.4,0.2
		c-0.1,0.1-0.1,0.3,0,0.6c0,0.1,0,0.2,0,0.3c-0.1,0.3-0.3,0.7-0.6,1.2c0,0.1,0,0.2,0.1,0.3c0.1,0.1,0.3,0.4,0.6,0.7
		c0.1,0.1,0.3,0.3,0.6,0.5c0.3,0.2,0.8,0.5,1.5,0.9c0.8,0.5,1.6,0.9,2.4,1.2c0.2,0,1.2-0.1,3.1-0.4l0,0.2c-0.6,0.4-0.9,0.6-1.1,0.5
		c-0.2,0-0.3,0.2-0.2,0.5c0.1,0.1,0.2,0.2,0.3,0.3l0.2,0.2l0.6,0.3c0.2,0.1,0.4,0.1,0.6,0c0.2-0.1,0.3-0.2,0.4-0.5L9.7,29l0.6-0.6
		l0.5-0.3c0.4-0.1,0.6-0.2,0.7-0.4c0-0.2,0.1-0.3,0.1-0.3l0.6-0.4c0-0.1,0.2,0,0.7,0.3c0.2,0.1,0.4,0,0.6,0l0.4-0.2
		c0.4,0.1,1,0.5,1.9,1.4c0,0.1,0,0.2,0.2,0.3c0.1,0.1,0.3,0.2,0.6,0.2l0.2,0.4l0.2,0.1c0.3,0,0.6-0.1,0.9-0.3l0.3-0.1
		c0.2-0.1,0.3-0.3,0.2-0.4l-0.1-0.1L18,28.3c-0.4-0.2-0.8-0.4-1.1-0.7l-0.3-0.2c1.1,0.2,2.5,0.4,4.2,0.5c0.2,0,0.5-0.1,0.8-0.3
		c0.4-0.3,1.4-1,3.2-2.3c0.3-0.3,0.5-0.6,0.6-1c-0.2-0.1-0.3-0.4-0.4-0.6c-0.1-0.3-0.2-0.5-0.2-0.7c0-0.2,0-0.3,0-0.5
		c0-0.1,0-0.3-0.1-0.4c-0.1-0.1-0.2-0.1-0.4-0.1c-0.3,0-0.7,0-1.1,0c-0.2,0-0.3-0.1-0.3-0.1l0-0.4c0-0.2,0-0.2-0.1-0.2
		c-0.5,0.1-0.7,0.2-0.8,0.3c-0.1,0.1-0.1,0.3,0,0.5c0.1,0.1,0.2,0.2,0.2,0.4c-0.1,0.7-0.1,1.1-0.2,1.4c-0.8,0.6-1.3,1-1.5,1.1
		c-0.2,0.1-0.7,0-1.5-0.1c-0.2-0.1-0.3-0.4-0.4-0.8c0.3-0.2,0.5-0.3,0.8-0.6c0.2,0,0.4-0.1,0.5-0.1c0.1,0,0.2-0.2,0.2-0.4
		c0.1-0.1,0.2-0.2,0.3-0.3l0.9-1.1c0.3-0.3,0.6-0.4,0.9-0.4c0.4,0,0.9-0.3,1.6-0.7c0.1-0.1,0.1-0.3,0-0.5c0.2-0.1,0.5-0.4,1-1
		c0.2-0.3,0.2-0.5,0.1-0.8c0.4-0.5,0.7-0.9,0.7-1.2c0-0.3,0-0.5,0-0.8c0.2-0.1,0.3-0.2,0.4-0.3c0.1-0.1,0.1-0.2,0.1-0.4
		c0-0.2-0.1-0.3-0.2-0.4C26.2,14.6,26.3,14.2,26.1,13.9z M11.5,1.4c0,0.2-0.1,0.4-0.3,0.7C10.8,2.4,10.4,2.7,9.8,3
		C9.3,3.3,8.6,3.6,7.8,4V3.9c1-0.8,2-1.4,2.9-1.9c0.2-0.1,0.1-0.2-0.1-0.1c-0.3,0.2-0.7,0.4-1,0.6C8.8,2.8,8.3,3.2,7.7,3.6l0-0.2
		c1.2-1,2.2-1.7,2.9-2C11,1.3,11.3,1.3,11.5,1.4z M8,1.8C8.6,1.3,9.2,1,10,0.7c0.4-0.1,0.7-0.2,1-0.1c0.1,0,0.2,0.1,0.1,0.2
		l-0.3,0.5c-0.3,0-0.7,0.2-1.2,0.5C9,2.1,8.5,2.5,7.8,3L7.6,3.1C7.5,3,7.3,3.1,7,3.2c0.9-0.8,1.8-1.4,2.5-1.8
		c0.5-0.2,0.7-0.4,0.8-0.5C10,1,9.7,1.1,9.3,1.4S8.2,2.1,7.2,2.8L6.3,3.6C6.9,2.8,7.4,2.3,8,1.8z M7,3.5c0.2-0.1,0.3-0.1,0.3-0.1
		c0,0.1,0.1,0.2,0,0.4S7.2,4.4,7,5L6.4,6.1C6,6.2,5.6,6.4,5.3,6.7C5.4,6.4,5.7,6,5.9,5.6c0.3-0.4,0.7-1,1.2-1.9
		c0.1-0.2,0.1-0.2,0-0.1C7.1,3.7,6.9,4,6.5,4.5C6.1,5,5.5,5.8,4.9,6.9c-0.2,0.3-0.6,0.9-1.3,2l0.1-0.2L4.6,7l0.9-1.7
		C6,4.5,6.5,4,7,3.5z M3.2,7.4c0.4-0.7,0.9-1.6,1.5-2.9c0.2-0.4,0.4-0.8,0.8-1.2c0.1-0.2,0-0.2-0.2,0c-0.5,0.6-1.1,1.6-1.8,3
		l0.3-0.8C3.9,5.4,4,5,4.3,4.4c0.3-0.6,0.6-1,0.8-1.4s0.5-0.6,0.6-0.7C6.1,2,6.3,1.9,6.3,1.9c0.1,0,0.1,0.1,0,0.2L5.6,4
		c-0.5,1-1.1,2-2,3C3.3,7.4,3.1,7.7,3,7.8C2.9,7.9,2.9,8,2.8,8.1l0.1-0.3L3.2,7.4z M3.6,9.1c-0.2,0.4-0.4,0.8-0.5,1.1l-0.1,0l0.3-1
		L3.6,9.1z M2.5,11.8l0.1-0.5l0.1-0.5l0.3,0l-0.3,0.8l-0.2,0.7L2.5,11.8z M2.4,10.1c0.1-0.5,0.2-0.9,0.3-1.3L2.8,9L2.4,10.1z
		 M1.8,13.2l-0.1-0.1c-0.1-0.1,0-0.7,0.3-1.8C2,12.1,1.9,12.7,1.8,13.2z M1.6,12.3c-0.1-0.4,0-1.3,0.2-2.7s0.4-2.4,0.7-2.9
		c0.1-0.3,0.1-0.4,0-0.1c-0.6,1.1-1,2.7-1.1,4.8c0,0.7,0,1.3,0.1,1.6c0.1,0.3,0.2,0.5,0.4,0.6c0.1,0,0.2,0,0.2,0c0,0-0.1,0.3,0,0.3
		c-0.3-0.1-0.5-0.3-0.6-0.6C1.2,12.9,1.1,12.5,1,12c-0.1-0.5-0.2-1-0.1-1.7C0.9,9.5,1,8.7,1.2,8c0.3-1,0.8-2,1.6-3
		C3,4.8,3.1,4.8,3.1,4.9c0,0.4,0,0.8,0,1.2c0,0.4-0.2,0.8-0.3,1.3c-0.4,1.3-0.7,2.3-0.7,2.7C1.9,10.7,1.8,11.4,1.6,12.3z M2,13.8
		v-0.3c0.4-0.4,0.4-0.8,0.5-1.2l0.6-1.4l0.6-1.5C4,8.8,4.5,8,5.2,7.2c0.4-0.4,0.7-0.7,1-0.7c0.1,0.1,0.1,0.3,0,0.6
		C6,7.4,5.9,7.7,5.7,8.1c0,0,0,0,0,0c-0.7,1.2-1.3,2.1-2,2.7l1.1-1.7l0.5-0.9c0.2-0.4,0.2-0.5,0.1-0.4c-1,1.6-1.7,2.6-1.9,3
		s-0.4,0.8-0.6,1.1c-0.2,0.4-0.4,0.6-0.5,0.8C2.4,12.9,2.4,13.3,2,13.8z M6.2,14.4c0,0.5-0.1,1-0.3,1.7c0-0.6,0-0.9-0.1-1.1L6,14.6
		c0-0.1,0-0.1-0.1,0l-0.1,0.2l0-0.3L6,14.2C6.2,14,6.2,14.1,6.2,14.4z M6,13.6c0.1,0,0.2,0,0.1,0.2l-0.3,0.4c0-0.2,0-0.3-0.1-0.5
		C5.8,13.7,5.9,13.6,6,13.6z M4.8,14.3C5,13.5,5.2,13,5.4,13c0.1,0.3,0.2,0.9,0.3,1.7c0.1,0.8,0.1,1.6,0,2.2
		c-0.1,0.8-0.2,1.4-0.4,1.7L5.1,19c0-0.7,0-1.2,0-1.6s0-0.9,0-1.6c0-0.7,0.1-1.4,0.1-2.3c0-0.2,0-0.3,0-0.1c-0.2,0.9-0.3,2-0.3,3.3
		l0,0.9l0,1.2l-0.2-0.2c-0.1-0.7-0.2-1.5-0.2-2.3C4.5,15.7,4.6,15,4.8,14.3z M3.4,16.9c0.2-0.8,0.6-1.6,1.2-2.4
		c-0.1,0.4-0.2,0.8-0.2,0.9c-0.5,0.8-0.8,1.6-1.1,2.4c-0.1,0.2-0.1,0.5-0.2,0.8C3.1,18.3,3.2,17.7,3.4,16.9z M4.4,18.2l-0.3-0.4
		l0.3-0.6C4.3,17.5,4.3,17.9,4.4,18.2z M7.5,24.7L7.8,24l0.7,0.5L7.5,24.7z M9.3,24.4l-1.2-0.7L7,23l-0.2-0.3
		c-0.1-0.1-0.2-0.1-0.3,0c-0.1,0-0.2,0-0.3-0.2c-0.3,0.2-0.6,0.1-0.8-0.2L5,21.7l-0.5-0.8l-0.2-0.1c-0.1,0.1-0.2,0.1-0.3,0.1
		c-0.2,0-0.4-0.2-0.7-0.4c-0.1-0.1-0.5-0.7-0.9-1.6c-0.6-1.2-1.1-2.1-1.3-2.7c-0.2-0.5-0.3-0.8-0.3-1c-0.1-0.1-0.1-0.1-0.1,0
		c0,0.1,0.1,0.4,0.2,0.9c0.1,0.5,0.4,1.1,0.8,2c0.3,0.7,0.7,1.3,1,1.9C2,19,1.4,18.3,1.1,17.5c-0.3-0.7-0.6-1.4-0.7-2
		c-0.1-0.2-0.1-0.6-0.1-1s0-0.7,0-0.8c0.1-0.2,0.1-0.2,0.2-0.2c0.1,0,0.2,0.2,0.4,0.4c0.2,0.3,0.5,1,0.9,2c0.4,1,0.6,1.7,0.7,2
		c0.1,0.3,0.2,0.6,0.3,0.8s0.2,0.5,0.3,0.7c0.2,0.4,0.4,0.6,0.6,0.8c0.2,0.2,0.4,0.2,0.6,0.1l-0.6-1c-0.1,0-0.1,0-0.2,0c0,0,0,0,0,0
		l0,0c0,0,0,0-0.1,0c0,0-0.1,0-0.1,0c0,0,0,0,0,0c0,0,0,0-0.1,0c0-0.1,0-0.1,0-0.1s0,0,0-0.1c0-0.1,0-0.1,0-0.2c0-0.2,0.1-0.5,0.2-1
		c0.2-0.8,0.6-1.5,1-2.3c-0.1,0.3-0.1,0.6-0.1,0.8c-0.4,0.9-0.7,1.6-0.8,2.1c-0.1,0.4-0.1,0.6,0,0.6l0.1-0.1L3.5,19l0.1-0.2l0.2,0.3
		L3.9,19L4,19.2l-0.1,0.1l0.7,1l0.2-0.1l0.1,0.1c-0.2,0.2-0.3,0.3-0.3,0.4c0.2,0.3,0.4,0.6,0.5,0.8C5.4,22,5.7,22.2,5.9,22
		c0.1-0.1,0.1,0,0.2,0c0.1,0.1,0.2,0.2,0.3,0.5l0-0.4l-0.6-0.6l-0.3-0.7C5.3,20.5,5.1,20.2,5,20c-0.1-0.2-0.3-0.5-0.4-0.8
		c-0.2-0.3-0.4-0.6-0.6-1l0-0.2l0.5,0.6c0.5,0.6,0.8,1,0.9,1.3c0.2,0.3,0.3,0.4,0.3,0.2l0.1-0.3L5.9,20l-0.1,0.6l0,0.2
		c0,0.1,0,0.2,0.1,0.3c0.1,0,0.1,0.1,0.2,0.3c0,0.1,0.2,0.3,0.5,0.7c0.3,0.3,0.6,0.6,0.9,0.8c0.3,0.2,0.6,0.4,0.8,0.6
		s0.3,0.3,0.3,0.4l0.3,0.1l-0.1-0.4l0.2,0c0.1,0.1,0.2,0.2,0.2,0.3c0.3,0.2,0.5,0.4,0.7,0.5L9.3,24.4z M4.1,19.3L4.1,19.3l0.5,0.6
		l0,0.1L4.1,19.3z M4.9,20.8l0.2-0.2l0.4,0.6l0.2,0.4l0.1,0.2c-0.1-0.1-0.3-0.2-0.4-0.3l-0.3-0.3L4.9,20.8z M10.3,24.2l-0.7-0.5
		C9.4,23.4,9.2,23.2,9,23c-0.1-0.1-0.2-0.3-0.4-0.3c-0.2-0.1-0.3-0.1-0.4-0.1c-0.1,0-0.2,0.1-0.2,0.3l0,0c0-0.2,0.1-0.3,0.2-0.3
		c0.1,0,0.2,0,0.3,0l0.8,0.4l1.3,0.5c0.3,0.3,0.5,0.6,0.6,0.7C10.9,24.1,10.6,24.2,10.3,24.2z M10.7,27.4c-0.4,0.4-0.9,0.8-1.5,1.2
		L9,28.6c0.3-0.2,0.8-0.5,1.4-1L10.7,27.4l-0.2-0.1c-0.2,0.2-0.4,0.4-0.7,0.5C9.6,28,9.3,28.2,9,28.4l-0.5,0.2l0.1,0.1l0.3,0
		c0.2,0.1,0.3,0.3,0.3,0.4c-0.1,0.2-0.3,0.2-0.5,0.1L8.3,29c-0.1-0.1-0.3-0.2-0.4-0.3l-0.2-0.1l0.1-0.1l0.5,0.2h0.1l-0.1-0.3L8.9,28
		c0.1-0.1,0.2-0.1,0.2-0.3l0-0.3c0.2,0.1,0.5,0,0.8-0.1c0.3-0.1,0.6-0.2,0.8-0.2C10.9,27.2,10.9,27.3,10.7,27.4z M17.2,3.1l0-0.4
		L17,2.8c-0.3,0.1-0.6,0-0.8-0.3c-0.2,0-0.3,0-0.2-0.2c0.1-0.2,0.1-0.2-0.1-0.3l-0.5,0c-0.3,0-0.5-0.1-0.6-0.3
		c-0.1-0.1,0-0.2,0.1-0.4c-0.3-0.1-0.4-0.2-0.5-0.3c-0.1-0.1,0-0.2,0.1-0.3c0.2-0.1,0.4-0.1,0.8,0c-0.1-0.1-0.1-0.2-0.1-0.4
		c0-0.1,0.3-0.1,0.8,0.2l0.3,0.2c0.1-0.2,0.2-0.2,0.4-0.1c0.2,0.1,0.5,0.3,0.7,0.4c0.2,0.2,0.4,0.4,0.7,0.7c0.2-0.1,0.4-0.1,0.5,0.1
		l0,0.4c-0.2-0.2-0.5-0.2-0.8,0l-0.2-0.1c-0.3-0.4-0.5-0.6-0.6-0.8C17,1,17,1,17,1.2c0,0.2,0.1,0.5,0.4,0.8c-0.5-0.1-0.8-0.3-1-0.6
		C16.1,1.2,16,1,15.9,0.9c-0.1-0.2-0.2-0.2-0.1,0c0.1,0.2,0.3,0.4,0.5,0.6c-0.2-0.1-0.3-0.1-0.5-0.2c-0.4-0.2-0.7-0.2-0.9-0.3
		c-0.1,0-0.1,0,0,0.1c0.4,0.1,0.7,0.2,0.9,0.3c0.2,0.1,0.3,0.2,0.4,0.2c-0.3,0.1-0.6,0.2-0.9,0.2c-0.2,0-0.3,0-0.3,0
		c0,0,0.1,0,0.2,0.1c0.4,0,0.8,0,1.1-0.1c0.3,0.1,0.6,0.3,1,0.4c-0.2,0.1-0.5,0.2-0.7,0.3c-0.1,0.1,0,0.1,0.1,0
		c0.2-0.1,0.4-0.2,0.8-0.2l0.3,0.1c0,0.3,0,0.6,0.2,0.8l-0.2,0.1L17.2,3.1z M19,4.8c-0.6,0-0.7,0-0.7-0.1c0-0.1,0-0.1,0.2-0.3
		l0.1-0.2c-0.3-0.2-0.7-0.3-0.7-0.8l0.3-0.1c0.1-0.1,0.1-0.3,0-0.3C18,3,18,2.8,18,2.5c0.1-0.3,0.4-0.3,0.8,0
		C19,2.1,19.2,2,19.5,2.2c-0.3,0-0.5,0.1-0.5,0.4c0,0.2,0,0.4,0,0.6c-0.1-0.1-0.2-0.3-0.4-0.4c-0.3-0.1-0.3-0.1-0.2,0
		c0.2,0.2,0.3,0.4,0.5,0.6c-0.2,0.2-0.5,0.3-0.8,0.3c-0.1,0-0.1,0.1,0,0.1c0.1,0,0.3,0,0.4,0c0,0.2,0,0.4,0.1,0.6
		c0.1,0.1,0.2,0.3,0.4,0.4C19.1,4.7,19,4.7,19,4.8z M19.3,5.1c0-0.1,0.1-0.2,0.3-0.2c0.2,0,0.3-0.1,0.1-0.2
		c-0.3-0.1-0.6-0.3-0.8-0.5c-0.1-0.2-0.1-0.3,0-0.4l0.2-0.1l0.1-0.1L19.3,3c0-0.3,0-0.5,0.2-0.6c0.3,0,0.6,0,0.8,0.3
		c0-0.1,0.1-0.2,0.3-0.1C20.8,2.6,21,3,21.1,3.7l0.3,0.1c0.1-0.2,0.2-0.3,0.2-0.3c0.1,0,0.2,0.2,0.3,0.5c0.2,0.2,0.3,0.5,0.3,0.9
		c-0.1,0.2-0.2,0.4-0.2,0.7l-0.1-0.3c-0.1-0.3-0.1-0.6-0.1-1c0-0.1,0-0.1,0,0c0,0.3,0,0.6,0,0.8c-0.3-0.4-0.6-0.7-0.9-1
		c-0.1-0.2-0.1-0.5-0.1-0.8c0-0.3-0.1-0.3-0.1-0.2c0,0.3,0,0.6,0,0.9c-0.2-0.2-0.5-0.6-0.8-1c-0.1-0.1-0.1-0.2-0.1-0.1
		c0.2,0.4,0.4,0.7,0.6,0.9c0.2,0.3,0.4,0.5,0.5,0.6c-0.3-0.1-0.5-0.1-0.7-0.2c-0.2,0-0.4-0.1-0.6-0.2c-0.2,0-0.2,0,0,0.1
		c0.1,0.1,0.3,0.1,0.6,0.2c0.3,0.1,0.6,0.1,0.8,0.3c0.1,0.1,0.3,0.3,0.6,0.6l0.2,0.4c-0.3-0.2-0.6-0.3-1-0.3
		c-0.4-0.1-0.6-0.1-0.6-0.2c-0.3-0.1-0.3-0.1-0.1,0c0.1,0.1,0.3,0.1,0.7,0.2c0.4,0.1,0.8,0.2,1.1,0.4l0,0.1
		c-0.1,0.1-0.1,0.2-0.1,0.3l0.1,0.3c-0.1-0.1-0.2-0.1-0.4,0.2c0.1-0.1,0-0.3,0-0.4c-0.1-0.2-0.5-0.5-1.1-0.7l-0.1,0.2
		C19.7,5.8,19.5,5.5,19.3,5.1z M23.1,12.9c-0.1-0.2-0.3-0.4-0.5-0.8c-0.2-0.3-0.4-0.6-0.5-0.8c-0.1-0.2-0.1-0.4,0-0.6
		c0.1-0.2,0.1-0.4,0.2-0.5c0-0.1,0-0.1,0-0.1c-0.1,0.2-0.2,0.4-0.3,0.6l-0.3-0.9c0-0.4,0.2-0.8,0.6-1.4c0.1-0.2,0.1-0.2,0,0
		c-0.3,0.4-0.5,0.8-0.6,1.3l-0.5-1.1c0-0.2,0.1-0.6,0.4-1.1c0.1-0.3,0.1-0.3-0.1,0c-0.2,0.3-0.3,0.6-0.4,0.9
		c-0.1-0.6-0.3-1.1-0.4-1.5l-0.1,0l0.1,0.2c0.1,0.5,0.2,1,0.3,1.4c-0.2-0.2-0.4-0.3-0.7-0.4c-0.1-0.1-0.1-0.1,0,0
		c0.3,0.2,0.5,0.4,0.7,0.5c0.1,0.3,0.2,0.6,0.3,0.8c-0.2-0.1-0.5-0.3-0.9-0.5c-0.2,0-0.2,0,0,0.1c0.6,0.2,0.9,0.5,1,0.7l0.3,0.8
		c-0.1,0-0.3-0.2-0.5-0.5c-0.2-0.3-0.6-0.6-1.2-0.8C20,9,19.9,8.9,19.9,8.8c0-0.1,0.1-0.2,0.4-0.1c-0.1-0.2-0.1-0.3-0.2-0.4L19.9,8
		c-0.2-0.3-0.1-0.5,0.3-0.5c-0.1-0.2-0.2-0.4-0.1-0.5c0-0.2,0-0.4,0.1-0.6c0.1-0.1,0.1-0.3,0.1-0.4c0.2,0.1,0.4,0.2,0.5,0.3
		s0.2,0.2,0.3,0.4l-0.1,0.5c0,0.1,0.1,0.1,0.3-0.1c0.1-0.2,0.2-0.3,0.3-0.3C21.8,6.9,21.9,7,22,7.1c0.1,0.2,0.1,0.6-0.1,1.1
		l-0.2,0.4C22.1,8.2,22.3,8,22.6,8c0.1,0.1,0.1,0.2,0.1,0.3s0,0.3,0,0.5c0,0.2,0,0.3-0.2,0.5c-0.1,0.1-0.2,0.3-0.3,0.6
		c0.3-0.3,0.5-0.2,0.4,0.1l-0.2,0.7c-0.1,0.3,0,0.5,0.2,0.5c0.2,0,0.3,0,0.3,0.1c0,0.1,0,0.2,0,0.3c-0.1,0.2-0.1,0.4-0.1,0.4
		c0,0.1,0,0.1,0.1,0.2c0,0,0.2,0,0.3,0c0.2-0.1,0.2,0,0.2,0.1c0,0.2,0,0.3,0,0.5c0,0.2,0.1,0.3,0.2,0.4c0.1,0.1,0.2,0.2,0.3,0.2
		l0.1-0.2c-0.2,0-0.3-0.1-0.3-0.4c0-0.3,0-0.5,0-0.7c-0.1-0.2-0.2-0.3-0.3-0.3c-0.1,0-0.3-0.5-0.6-1.6l0.3,0
		c0.2,0.9,0.4,1.3,0.6,1.4c0.1,0.1,0.2,0.1,0.2,0.2c0,0.1,0,0.3,0.1,0.6c0.2-0.1,0.3-0.2,0.3-0.5c0.1-0.3,0-0.5-0.2-0.6
		c-0.2-0.1-0.3-0.2-0.4-0.3c-0.1-0.2,0-0.3,0.2-0.3c0.1-0.1-0.2-0.3-0.8-0.8c-0.3-0.2-0.5-0.5-0.3-0.6c0.1-0.1,0.2-0.1,0.3,0
		s0.2,0.1,0.3,0.1c0.1-0.1,0-0.3-0.2-0.3C23,9,22.9,8.9,22.9,8.8c0-0.3,0-0.5,0-0.7c0-0.1,0-0.3,0-0.4c-0.1-0.2-0.3-0.2-0.7,0
		c0.1-0.2,0.1-0.4,0.1-0.5c0-0.2-0.1-0.3-0.2-0.5l-0.2-0.5c0-0.2,0.1-0.3,0.3-0.3c-0.1-0.3-0.1-0.6,0-0.7s0.1-0.3,0.2-0.4
		c0-0.1,0.1-0.1,0.3,0C22.8,5,23,5.3,23.4,5.8c0.2-0.2,0.3-0.1,0.5,0.2c0.2,0.3,0.3,0.6,0.2,1c0.4-0.2,0.5-0.1,0.4,0.4
		c0.2,0.3,0.3,0.6,0.3,0.8c0,0.2,0,0.4-0.1,0.5c-0.1,0.2-0.1,0.3-0.1,0.4s0,0.1,0.1,0C24.7,9,24.9,9,25.1,8.9
		c0.1,0.3,0.2,0.5,0.2,0.6c0,0.1-0.1,0.2-0.2,0.4c-0.1,0.1-0.2,0.3-0.2,0.5c0,0.1,0,0.1,0.1,0.1l0.3-0.1c0.1,0,0.2,0.1,0,0.3
		c-0.1,0.3-0.3,0.5-0.3,0.7c-0.1,0.2-0.1,0.3-0.1,0.5c0,0.2-0.1,0.4-0.1,0.4c0-0.3,0-0.6,0-0.9c0-0.3-0.1-0.7-0.2-1.1
		c0.1-0.1,0.2-0.3,0.3-0.7c0.1-0.2,0.1-0.2,0-0.1c-0.1,0.3-0.2,0.5-0.3,0.6c-0.1-0.4-0.2-0.8-0.4-1.4c0.2-0.3,0.3-0.6,0.3-1
		c0-0.3,0-0.4-0.1-0.1c-0.1,0.4-0.2,0.7-0.3,0.9c-0.1-0.4-0.3-0.8-0.4-1.2c0.1-0.2,0.1-0.5,0.1-0.8c0-0.3,0-0.3-0.1,0
		c0,0.2,0,0.4-0.1,0.6l-0.3-0.9l-0.2-0.5c-0.1-0.2-0.1-0.2-0.1,0L23,6.2c-0.2-0.2-0.3-0.3-0.4-0.4c-0.1-0.1-0.2-0.1-0.1,0
		c0.2,0.2,0.4,0.4,0.6,0.6c0.1,0.3,0.3,0.7,0.4,1C23.1,7.2,22.8,7,22.7,7c-0.2-0.1-0.2,0,0,0.1c0.3,0.2,0.6,0.5,1,0.9
		c0.1,0.4,0.2,0.7,0.4,1.1c-0.2-0.1-0.4-0.3-0.7-0.7c-0.1-0.1-0.1-0.1,0,0.1c0.2,0.3,0.5,0.7,0.8,0.9l0.2,0.9
		c-0.2-0.2-0.6-0.5-0.9-0.7c-0.2-0.1-0.2-0.1,0,0.1c0.3,0.2,0.7,0.6,1,1.1c0.1,0.3,0.2,0.8,0.1,1.6c0,0.2-0.2,0.3-0.4,0.4L24,13.5
		l-0.4,0C23.4,13.3,23.3,13,23.1,12.9z M23.6,13.6c0.1,0,0.2,0,0.3,0c-0.1,0.8-0.3,1.7-0.5,2.2l-0.2-0.1
		C23.5,14.9,23.6,14.1,23.6,13.6z M20.9,18.1c-0.1,0-0.2-0.2-0.5-0.4c-0.3-0.2-0.3-0.4-0.3-0.6c-0.1-0.1-0.1-0.2-0.2-0.3
		c-0.1-0.1,0-0.2,0-0.4c0.1-0.1,0.3-0.1,0.6,0.2c0.1-0.2,0.1-0.3,0-0.5c-0.1-0.2-0.1-0.3-0.2-0.5c-0.1-0.3-0.3-0.5-0.4-0.6
		c-0.1-0.2-0.1-0.4-0.1-0.4c0.1,0,0.2,0,0.3,0.1c0.3-0.3,0.4-0.4,0.5-0.2c0.1,0.1,0.2,0.3,0.2,0.6c0.1,0.3,0.1,0.6,0,0.9l-0.1,0.1
		l0.1,0.1c0,0.1,0,0.3-0.1,0.7c0,0.1,0,0.2,0.1,0.3c0-0.1,0-0.2,0-0.3c0-0.1,0-0.2,0.1-0.4c0.1-0.2,0.1-0.3,0.1-0.3c0,0,0,0-0.1-0.1
		c0.1,0,0.1-0.1,0.1-0.1c0-0.1,0-0.1,0-0.2c0-0.1,0-0.2,0-0.5c0-0.3,0-0.5-0.1-0.6c0-0.1-0.1-0.3-0.1-0.3c0-0.1-0.1-0.1-0.2-0.1
		c-0.1,0-0.3,0.1-0.5,0.3c0.1-0.5,0.2-0.8,0.3-0.9c0.1-0.2,0.2-0.2,0.3-0.1s0.2,0.1,0.2,0.2c0,0.1,0.1,0.1,0.1,0
		c0.1-0.1,0.1-0.1,0.2-0.1s0.1,0.1,0.1,0.2c0,0.1,0.1,0.2,0.1,0.3c0,0.1,0,0.3,0.1,0.6c0,0.3,0,0.5-0.1,0.6
		c-0.1,0.1-0.1,0.2-0.1,0.3c0,0.5,0.1,0.8,0.1,0.8s0.1,0,0.2-0.1c0.1-0.1,0.2-0.1,0.2-0.1c0.1,0,0.1,0.2,0.1,0.5s0,0.3,0.1,0.1
		c0-0.2,0.1-0.3,0.2-0.3c0.1,0,0.1,0.3,0.1,0.9c-0.4,0.4-0.7,0.7-0.9,0.9c-0.1-0.3-0.1-0.4,0-0.6c0.1-0.1,0.1-0.2,0.2-0.4
		s0.1-0.3,0.1-0.4c0.1-0.3,0.1-0.3,0-0.1c-0.1,0.1-0.1,0.2-0.2,0.3c0,0.1-0.1,0.2-0.2,0.3c0-0.2-0.1-0.5-0.2-0.9
		c-0.1-0.3-0.1-0.3-0.1,0c0.1,0.5,0.1,1,0.2,1.4c-0.2-0.2-0.4-0.4-0.5-0.5c-0.2-0.1-0.3-0.3-0.5-0.4c-0.1-0.1-0.1-0.1-0.1,0
		c0.1,0.2,0.3,0.4,0.6,0.6c0.2,0.2,0.4,0.4,0.5,0.4c0.1,0.1,0.1,0.1,0.1,0.2c-0.1,0.1-0.2,0.3-0.3,0.4c-0.1,0-0.1-0.1-0.1-0.2
		C21,18.2,20.9,18.1,20.9,18.1z M15.3,23.8c0.1-0.1,0.3-0.3,0.5-0.4c0.9-0.4,1.5-0.7,1.8-0.8c0.1,0,0.1,0,0.1,0l0.1,0.2l-0.2,0.1
		C17.5,23,17.4,23,17.2,23c-0.1,0-0.3,0-0.6,0.1s-0.4,0.2-0.4,0.4c0,0.1-0.1,0.2-0.2,0.2c-0.2,0.1-0.4,0.2-0.6,0.3l-0.5,0L15.3,23.8
		z M16.6,24.3L16.6,24.3L16.6,24.3c-0.1,0-0.2,0-0.3,0l-0.5-0.1l0.6-0.3L16.6,24.3c-0.1-0.1,0-0.1,0-0.1l-0.1-0.3
		c-0.1-0.2,0-0.3,0.2-0.5s0.4-0.2,0.6-0.2c0.1,0,0.1,0.2,0,0.4C17.2,23.9,17,24,16.6,24.3L16.6,24.3z M14.3,26.3L14.3,26l-0.4,0.5
		l-0.3,0.2C13.4,26.9,13.2,27,13,27l-0.6-0.3l0.3-0.1l0.1,0.1c-0.1,0.2,0,0.1,0.2-0.1l0.5-0.5c0-0.3,0-0.6-0.2-1.1
		c-0.2-0.5-0.3-0.7-0.4-0.8c0-0.1-0.3-0.1-0.7-0.1c0.3-0.1,0.6-0.1,0.9,0l0.4,0.2l0.2-0.1l0,0L13.4,24l0.2,0l0.2,0.2l0,0h0l0.1,0.1
		c0.5,0.6,0.8,1,0.9,1.2c0.1,0.2,0.1,0.4,0,0.6C14.6,26.3,14.4,26.4,14.3,26.3z M18.1,28.5l0.2,0l-0.1,0.1l-0.4,0.1
		c-0.2,0.2-0.4,0.3-0.6,0.3l-0.3,0l-0.1-0.2c0.1-0.1,0.1-0.2,0.2-0.2c0.1,0,0.2-0.1,0.4-0.1l0.4,0.1L18.1,28.5z M17.5,28.5
		c-0.3,0-0.5,0.2-0.5,0.2h-0.2c-0.3-0.4-0.5-0.5-0.7-0.7l-0.7-0.6c0.1-0.1,0.4,0,0.9,0.1L17.5,28.5z M19.7,25.2c0.3,0,0.5,0,0.7,0
		c0.3-0.1,0.8-0.5,1.7-1.3c0.8-0.6,1.6-1.1,2.1-1.3c0.2-0.1,0.2-0.2,0-0.2c-0.2,0-0.4-0.1-0.7-0.1c-0.1,0.1-0.1,0.2,0,0.2
		c0.1,0,0.3,0,0.3,0c-0.7,0.4-1.3,0.7-1.7,1.1c0-0.2,0.1-0.7,0.1-1.2c0-0.2-0.1-0.4-0.2-0.5c-0.1-0.1,0-0.2,0.3-0.3l0.2-0.1v0.3
		l-0.3-0.1l0,0.2c0.1,0.1,0.2,0.2,0.4,0.2l0.8,0l0.4,0c0.4,0,0.7,0.1,0.6,0.3c0,0.2,0,0.4,0,0.6c0.1,0.5,0.3,0.9,0.5,1.3
		c-0.1,0.2-0.2,0.4-0.4,0.7l-0.8,0.5c-0.7,0.5-1.6,1.1-2.8,2c-0.8,0-1.9,0-3.1-0.2c-0.9-0.1-1.9-0.3-3-0.7l-0.3-0.1l0.1-0.1
		c0.2-0.2,0.3-0.4,0.3-0.5c0-0.1,0-0.3-0.1-0.5c-0.1-0.3-0.2-0.6-0.6-1v-0.1l0.2,0c0.7,0,1.2,0.1,1.7,0.3c0.5,0.1,1.1,0.2,1.8,0.3
		C18.9,25.1,19.4,25.2,19.7,25.2z M18.5,24.8c-0.3,0-0.7-0.1-1.3-0.2l0.6-0.2c0.3,0.1,0.5,0,0.5-0.2C18.3,24.4,18.4,24.6,18.5,24.8z
		 M21.8,20.2c-0.2,0.2-0.3,0.5-0.2,0.7c-0.3,0.2-0.6,0.4-0.8,0.7c-0.3,0.3-0.5,0.6-0.6,0.8c-0.1,0.2-0.3,0.3-0.4,0.4
		c-0.2,0.1-0.4,0-0.6-0.1L19,23l-1,0.6l-0.5,0.2c0-0.1,0.1-0.3,0.1-0.5l0.2-0.2c0.7-0.4,1.1-0.7,1.2-1c0.1-0.3,0.3-0.5,0.5-0.7
		c0.2-0.2,0.3-0.4,0.4-0.6l0-0.4l0-0.4c0.2,0.2,0.3,0.2,0.5,0.1c0.2-0.4,0.5-0.8,0.7-1.1c0.3-0.4,0.5-0.7,0.8-1
		c0.3-0.3,0.5-0.6,0.7-0.8l0,0.4c-0.6,0.8-1,1.3-1.2,1.6c-0.5,0.8-0.9,1.4-1.1,1.9c-0.1,0.3-0.3,0.5-0.5,0.6
		c-0.2,0.1-0.3,0.2-0.4,0.3c-0.1,0.1,0,0.2,0.1,0.1c0.1-0.1,0.2-0.2,0.3-0.2c0.2-0.1,0.7-0.7,1.5-1.6l0-0.6l0.2-0.3
		c0,0.3,0,0.5,0.1,0.5c0.1,0,0.2-0.1,0.3-0.3c0.1-0.2,0.4-0.8,0.8-1.7c-0.1,0.3-0.1,0.5,0,0.7c-0.3,0.2-0.3,0.5-0.2,0.9L21.8,20.2z
		 M25.3,16.7c0,0.3-0.1,0.5-0.3,0.7c-0.4,0.5-0.6,0.8-0.5,0.9c0.1,0.2,0.1,0.4-0.1,0.7c-0.2,0.3-0.5,0.6-0.9,0.9
		c0.1,0.2,0,0.4-0.2,0.5c-0.3,0.2-0.6,0.3-1,0.4c0.7-0.5,1.1-1,1.2-1.6c0.2-0.2,0.4-0.3,0.6-0.4c0.1-0.1,0.2-0.1,0.1-0.1
		c-0.2,0.1-0.4,0.2-0.6,0.3c0.2-0.4,0.3-0.8,0.4-1.3c0.4-0.4,0.7-0.7,0.8-0.9c0.1-0.2,0.2-0.3,0-0.1c-0.2,0.3-0.4,0.5-0.7,0.8
		c0.1-0.5,0.3-0.9,0.4-1.5c0.1-0.3,0-0.4,0-0.2l-0.2,0.6c-0.1-0.2-0.2-0.4-0.3-0.5l0.2,0.7c0,0.3-0.1,0.6-0.3,1.1
		c-0.1-0.4-0.3-0.8-0.6-1.1c-0.2-0.3-0.3-0.3-0.1,0c0.2,0.3,0.4,0.8,0.6,1.4c-0.1,0.5-0.3,0.9-0.4,1.2c-0.1-0.2-0.3-0.3-0.4-0.4
		c-0.1-0.1-0.1,0,0,0.1c0.1,0.1,0.2,0.3,0.3,0.4c-0.1,0.3-0.3,0.6-0.5,0.8c-0.2,0.2-0.4,0.4-0.6,0.6c0.3-0.4,0.3-0.8,0.3-1.3
		c0-0.1,0.1-0.2,0.2-0.2c0.1,0,0.2-0.1,0.1-0.2c-0.1-0.2-0.2-0.4-0.2-0.6c0.1,0,0.2,0,0.4,0c0.1-0.1,0.1-0.2,0-0.4s-0.3-0.4-0.3-0.8
		c0-0.2,0.1-0.3,0.4-0.2c0.1,0,0.1-0.1,0-0.4l-0.3-0.4c-0.2-0.4-0.1-0.6,0.2-0.5l0.4,0.3c0.3,0.1,0.4-0.1,0.4-0.6
		c0-0.1,0.1-0.1,0.2-0.1c0.2,0.1,0.3-0.1,0.4-0.4c0.1-0.1,0.2,0,0.3,0.4c0,0.6,0.1,0.8,0.4,0.8C25.3,16.3,25.3,16.5,25.3,16.7z
		 M25.8,15.4c0,0.1,0,0.2-0.1,0.3c-0.1,0.1-0.2,0.1-0.4,0.2l-0.2-0.3c0-0.3-0.1-0.5-0.3-0.7c0.1-0.1,0.2-0.1,0.3-0.2
		c0.1-0.1,0.1,0-0.1,0c-0.2,0-0.3,0.2-0.4,0.2h0c0.1-0.4,0.2-0.7,0.5-1c0.1-0.1,0-0.2-0.1,0c-0.2,0.3-0.3,0.5-0.5,0.8
		c-0.1-0.1-0.1-0.2-0.1-0.4c0-0.2-0.1-0.2-0.1,0c0,0.2,0.1,0.4,0.1,0.5c-0.2,0.4-0.4,0.5-0.6,0.4c0.1-0.5,0.2-1,0.3-1.6
		c0.2-0.2,0.5-0.3,0.6-0.2c0.3-0.2,0.5-0.2,0.6-0.1c0.1,0.2,0.1,0.3,0.1,0.5c0,0.2-0.1,0.3-0.2,0.5c0.2,0,0.3,0.1,0.3,0.2
		c-0.1,0.4-0.3,0.6-0.5,0.8C25.6,15.2,25.8,15.3,25.8,15.4z"/>
	<path class="st0" d="M3.9,25.3C3.9,25.4,4,25.4,3.9,25.3c0.2,0.2,0.4,0.1,0.5-0.1c0.1-0.2,0.1-0.3-0.1-0.4c-0.1-0.1-0.1-0.1-0.1,0
		L3.9,25.3L3.9,25.3z M1.9,23.9c0.2,0.1,0.3,0.2,0.5,0c0.1-0.1,0.1-0.3,0-0.4c0,0-0.1-0.1-0.1-0.1c0,0,0,0-0.1,0L1.9,23.9L1.9,23.9z
		 M4.8,25.4c0-0.1,0.1-0.3-0.1-0.4l0,0c0.1,0,0.2,0.1,0.2,0.1c0.1,0,0.1,0.1,0.3,0.1l0,0c0,0-0.1-0.1-0.2,0c0,0.1-0.1,0.4-0.2,0.5
		l-0.1,0.6l0.4-0.4c0.1-0.1,0.3-0.3,0.4-0.4c0.1-0.1,0-0.1,0-0.2v-0.1c0.1,0.1,0.1,0.1,0.2,0.1c0.1,0,0.1,0.1,0.2,0.1v0
		c-0.1-0.1-0.3,0.1-0.4,0.2l-0.9,0.8l-0.1,0L4.8,25.4L4.8,25.4z M3.7,25.6c0,0.1-0.1,0.2-0.1,0.3c0,0.1,0,0.1,0.1,0.2l0,0
		C3.6,26.1,3.5,26,3.4,26c-0.1,0-0.1-0.1-0.2-0.1v-0.1c0.1,0,0.1,0.1,0.2,0c0.1,0,0.2-0.2,0.2-0.3L3.9,25c0-0.1,0.1-0.2,0.2-0.3
		c0-0.1,0-0.1-0.1-0.2l0,0c0.1,0.1,0.2,0.1,0.3,0.2c0.1,0,0.1,0.1,0.2,0.1c0.2,0.1,0.3,0.3,0.2,0.6c-0.2,0.3-0.5,0.2-0.6,0.1
		c0,0-0.1-0.1-0.1-0.1L3.7,25.6L3.7,25.6z M2.9,24.4c0-0.1,0.1-0.2,0.2-0.3c0-0.1,0-0.1-0.1-0.2l0.1,0l0.8,0.5l-0.2,0.3l0,0
		c0.1-0.2,0.1-0.3-0.1-0.4l-0.1-0.1c0,0,0,0-0.1,0l-0.3,0.5c0.2,0.2,0.3,0.1,0.4-0.1h0c-0.1,0.1-0.1,0.2-0.2,0.3
		C3.1,25,3.1,25.1,3,25.2l0,0c0.1-0.2,0.1-0.3-0.1-0.4l-0.2,0.3c0,0.1-0.1,0.1-0.1,0.2c0,0.1,0.1,0.2,0.2,0.2
		c0.2,0.1,0.3,0.1,0.5-0.1h0L3,25.7l-0.9-0.6l0,0c0,0,0.1,0.1,0.2,0c0,0,0.1-0.2,0.2-0.3L2.9,24.4L2.9,24.4z M2,24.9
		C2,25,2,25,2.1,25.1l0,0C2,25.1,2,25.1,2,25c0,0-0.1,0-0.1-0.1l0-0.2v-0.6c0-0.1,0-0.1-0.1-0.2l-0.2,0.2c0,0.1-0.1,0.2-0.2,0.3
		c0,0.1,0,0.1,0.1,0.1l0,0c-0.1,0-0.1-0.1-0.2-0.1c-0.1-0.1-0.2-0.1-0.3-0.2l0,0c0.1,0,0.1,0.1,0.2,0c0.1,0,0.2-0.2,0.2-0.3l0.4-0.6
		c0,0,0.1-0.2,0.2-0.3c0-0.1,0-0.1-0.1-0.1v-0.1c0.1,0.1,0.2,0.1,0.3,0.2c0.1,0,0.1,0.1,0.2,0.1c0.2,0.1,0.3,0.3,0.2,0.6
		c-0.2,0.2-0.3,0.2-0.5,0.1L2,24.9L2,24.9z M12.2,25.3l-0.3-0.6l-0.1,0.6L12.2,25.3L12.2,25.3z M7.7,26.4c0,0.1,0,0.2,0.1,0.2
		c0,0.1,0.1,0.1,0.2,0.1c0.1,0,0.2-0.2,0.2-0.4c0-0.1-0.1-0.2-0.1-0.3c-0.1,0-0.2,0-0.2,0H7.6L7.7,26.4L7.7,26.4z M7.6,25.9
		L7.6,25.9c0.1,0,0.2,0,0.2-0.1c0.1-0.1,0.1-0.2,0.1-0.3c0-0.2-0.1-0.2-0.3-0.2c0,0-0.1,0-0.1,0s0,0.1,0,0.1L7.6,25.9L7.6,25.9z
		 M6.5,26.5c0,0.1,0,0.2,0.1,0.3c0,0.1,0.1,0.1,0.2,0C7,26.8,7,26.7,7,26.5c0-0.1-0.1-0.2-0.2-0.2c-0.1,0-0.2,0-0.3,0h0L6.5,26.5
		L6.5,26.5z M6.5,26.1L6.5,26.1c0.1,0,0.2,0,0.2-0.1c0.1-0.1,0.1-0.1,0.1-0.2c0-0.2-0.1-0.3-0.3-0.2c0,0-0.1,0-0.1,0v0.1L6.5,26.1
		L6.5,26.1z M11.8,25.6c0,0.1-0.1,0.3,0,0.3c0,0.1,0.1,0.1,0.2,0.1V26c-0.1,0-0.1,0-0.2,0c-0.1,0-0.1,0-0.2,0v0
		c0.1,0,0.1-0.1,0.2-0.2c0-0.2,0-0.3,0.1-0.5l0.2-0.9h0.1l0.6,1c0,0.1,0.1,0.2,0.1,0.2c0,0,0.1,0,0.2,0v0.1c-0.1,0-0.2,0-0.2,0
		c-0.1,0-0.2,0-0.3,0v0c0,0,0.1,0,0.1-0.1c0,0,0-0.1,0-0.1l-0.1-0.2L11.8,25.6L11.8,25.6L11.8,25.6z M11.1,24.7L11.1,24.7l0.1,0.5h0
		c-0.1-0.2-0.3-0.4-0.5-0.4c-0.4,0-0.4,0.5-0.3,0.8c0.1,0.3,0.2,0.7,0.6,0.6c0.2-0.1,0.3-0.3,0.3-0.6l0,0l0.1,0.5L11.3,26
		c-0.1,0.1-0.2,0.2-0.4,0.2c-0.4,0.1-0.7-0.2-0.8-0.6c0-0.5,0.2-0.8,0.5-0.9c0.2,0,0.3,0,0.4,0.1V24.7L11.1,24.7z M9.7,25.3
		c0-0.1,0-0.2,0-0.3C9.6,25,9.5,25,9.5,25l0,0c0.1,0,0.2,0,0.3,0c0.1,0,0.2,0,0.3,0v0c0,0-0.1,0-0.1,0.1c0,0.1,0,0.2,0,0.3l0.1,0.7
		c0,0.1,0,0.2,0.1,0.3c0,0.1,0.1,0.1,0.2,0.1v0.1c-0.1,0-0.2,0-0.3,0c-0.1,0-0.2,0-0.3,0v0c0.1,0,0.1,0,0.1-0.1c0-0.1,0-0.2,0-0.3
		L9.7,25.3L9.7,25.3z M8.5,25.6c0-0.1,0-0.2,0-0.3c0-0.1-0.1-0.1-0.2,0l0-0.1c0.1,0,0.2,0,0.3,0c0.1,0,0.2,0,0.3,0l0,0.1
		c-0.1,0-0.1,0-0.2,0.1c0,0.1,0,0.2,0,0.3l0.1,0.7c0,0.3,0.1,0.3,0.4,0.3c0.1,0,0.2,0,0.2-0.1c0.1-0.1,0.1-0.2,0.1-0.3l0.1,0
		l0.1,0.4c0,0-0.1,0-0.1,0c-0.3,0-0.7,0.1-1,0.2v0c0.1,0,0.1,0,0.1-0.1c0-0.1,0-0.2,0-0.3L8.5,25.6L8.5,25.6z M7.4,25.7
		c0-0.1,0-0.2-0.1-0.3c0-0.1-0.1-0.1-0.2-0.1v0c0.1,0,0.2,0,0.3,0c0.1,0,0.1,0,0.2,0c0.2,0,0.5,0,0.5,0.3c0,0.2-0.1,0.3-0.2,0.4
		c0.1,0,0.2,0,0.3,0.1c0.1,0.1,0.2,0.2,0.2,0.3c0,0.2-0.1,0.3-0.1,0.4c-0.1,0.1-0.2,0.1-0.3,0.1c0,0-0.1,0-0.2,0
		c-0.1,0-0.2,0-0.3,0.1v-0.1c0,0,0.1,0,0.1-0.1c0-0.1,0-0.2,0-0.3L7.4,25.7L7.4,25.7z M6.2,25.9c0-0.1,0-0.2,0-0.3
		c0-0.1-0.1-0.1-0.2,0v-0.1c0.1,0,0.2,0,0.2,0c0.1,0,0.2,0,0.2,0c0.2,0,0.5,0,0.5,0.3c0,0.2-0.1,0.3-0.2,0.4c0.1,0,0.2,0,0.3,0
		c0.1,0.1,0.2,0.2,0.2,0.3c0,0.1,0,0.2-0.1,0.4c-0.1,0.1-0.2,0.1-0.3,0.1c-0.1,0-0.2,0-0.2,0c-0.1,0-0.2,0-0.4,0v0
		c0.1,0,0.1,0,0.2-0.1c0-0.1,0-0.2,0-0.3L6.2,25.9L6.2,25.9z M18,26.1l-0.1-0.6l-0.3,0.6L18,26.1L18,26.1z M20.3,26
		c0-0.1,0-0.2,0-0.3c0-0.1-0.1-0.1-0.2-0.1v-0.1c0.1,0,0.2,0,0.3,0c0.1,0,0.2,0,0.3,0v0.1c-0.1,0-0.1,0-0.2,0.1c0,0.1,0,0.2,0,0.3
		l0.1,0.6c0,0.1,0,0.2,0,0.3c0,0.1,0.1,0.1,0.2,0.1v0c-0.1,0-0.2,0-0.3,0c-0.1,0-0.2,0-0.3,0v0c0,0,0.1,0,0.1-0.1c0-0.1,0-0.2,0-0.3
		L20.3,26L20.3,26z M18.9,25.8c0-0.1,0-0.2,0-0.3c0-0.1-0.1-0.1-0.2-0.1l0,0c0.1,0,0.2,0,0.2,0c0.1,0,0.2,0,0.3,0l0,0.1
		c0,0-0.1,0-0.2,0s0,0.2-0.1,0.3L19,26.6c0,0.3,0,0.4,0.2,0.4c0.1,0,0.2,0,0.3,0c0.1-0.1,0.1-0.1,0.2-0.3h0.1l-0.1,0.4
		c0,0-0.1,0-0.1,0c-0.4-0.1-0.7-0.1-1-0.2v0c0.1,0,0.1,0,0.2-0.1c0,0,0-0.2,0.1-0.3L18.9,25.8L18.9,25.8z M17.5,26.2
		c0,0.1-0.1,0.2-0.1,0.3c0,0.1,0.1,0.1,0.1,0.1v0c-0.1,0-0.1,0-0.2,0s-0.1,0-0.2,0l0,0c0.1,0,0.1,0,0.2-0.1c0.1-0.1,0.1-0.3,0.2-0.4
		l0.4-0.8l0.1,0l0.2,1.2c0,0.1,0,0.2,0.1,0.3c0,0.1,0.1,0.1,0.1,0.1v0c-0.1,0-0.2,0-0.3,0c-0.1,0-0.2,0-0.3,0l0-0.1c0,0,0.1,0,0.1,0
		s0-0.1,0-0.2l0-0.2L17.5,26.2L17.5,26.2L17.5,26.2z M17.3,25.5L17.3,25.5c0-0.3-0.1-0.3-0.3-0.4c-0.1,0-0.2,0-0.2,0l-0.2,1.1
		c0,0.2,0,0.2,0.2,0.3v0c-0.1,0-0.2,0-0.3-0.1c-0.1,0-0.2,0-0.3,0v0c0.2,0,0.3,0,0.3-0.2l0.1-1.1c0,0-0.1-0.1-0.1-0.1
		c-0.2,0-0.3,0-0.3,0.2l-0.1,0l0.1-0.4l1.2,0.2L17.3,25.5L17.3,25.5z M15.5,25.3c0-0.1,0-0.2,0-0.3c0-0.1-0.1-0.1-0.1-0.1v-0.1
		c0.1,0,0.2,0.1,0.3,0.1c0.1,0,0.2,0,0.3,0l0,0c0,0-0.1,0-0.2,0.1c0,0.1,0,0.2-0.1,0.3L15.6,26c0,0.1,0,0.2,0,0.3
		c0,0.1,0.1,0.1,0.1,0.1v0.1c-0.1,0-0.2,0-0.3-0.1c-0.1,0-0.2,0-0.3,0v-0.1c0.1,0,0.1,0,0.2-0.1c0,0,0.1-0.2,0.1-0.3L15.5,25.3
		L15.5,25.3z M24,24.2l-0.5-0.4l0.2,0.6L24,24.2L24,24.2z M21.6,25.9l-0.5-0.4l0.1,0.6L21.6,25.9L21.6,25.9z M23.7,24.6
		c0,0.1,0.1,0.3,0.1,0.4c0.1,0.1,0.1,0,0.2,0l0,0.1c0,0-0.1,0.1-0.2,0.1c0,0-0.1,0.1-0.1,0.1l0-0.1c0.1-0.1,0.1-0.1,0.1-0.2
		c-0.1-0.2-0.1-0.3-0.1-0.5l-0.3-0.9l0,0l1,0.7c0,0,0.2,0.1,0.2,0.1c0.1,0,0.1,0,0.2,0v0.1c-0.1,0-0.1,0.1-0.2,0.1
		c-0.1,0.1-0.1,0.1-0.2,0.2l-0.1,0c0,0,0.1-0.1,0.1-0.2c0,0-0.1-0.1-0.1-0.1l-0.2-0.1L23.7,24.6L23.7,24.6L23.7,24.6z M22,24.8
		c-0.1,0-0.2,0-0.2,0l0-0.1c0.1,0,0.1,0,0.1-0.1c0,0,0.1,0,0.1-0.1l1.4,0.5l-0.4-0.5c-0.1-0.1-0.1-0.2-0.2-0.3c-0.1-0.1-0.1,0-0.2,0
		l0,0c0.1,0,0.1-0.1,0.2-0.1c0-0.1,0.1-0.1,0.1-0.1l0,0c0,0.1-0.1,0.1-0.1,0.2c0,0.1,0.2,0.2,0.2,0.4l0.6,0.8l0,0
		c-0.1,0-0.1,0-0.2-0.1L22,24.8l0.5,0.7c0,0.1,0.1,0.2,0.2,0.2c0.1,0,0.1,0,0.2,0v0c0,0.1-0.1,0.1-0.2,0.1c-0.1,0-0.1,0.1-0.2,0.1
		l0,0c0.1-0.1,0.1-0.1,0.1-0.2c0-0.1-0.1-0.2-0.2-0.3L22,24.8L22,24.8z M21.3,26.2c0,0.1,0,0.3,0.1,0.4c0,0.1,0.1,0,0.2,0l0,0
		c-0.1,0-0.1,0.1-0.2,0.1c-0.1,0-0.1,0.1-0.2,0.1l0,0c0.1-0.1,0.1-0.1,0.1-0.2c0-0.1,0-0.3-0.1-0.5L21,25.2h0.1L22,26
		c0,0,0.1,0.1,0.2,0.2c0.1,0,0.1,0,0.2,0l0,0c-0.1,0-0.2,0.1-0.2,0.1c-0.1,0-0.2,0.1-0.2,0.1l0-0.1c0.1,0,0.1-0.1,0.1-0.1
		c0,0-0.1-0.1-0.1-0.1L21.7,26L21.3,26.2L21.3,26.2L21.3,26.2z"/>
	<g>
		<path class="st0" d="M3.5,16.2c-0.1-0.3-0.2-0.6-0.2-0.7l0-0.1L4,15c-0.1-0.4-0.1-0.8-0.2-1.1l-0.9-0.2v-0.1c0-0.2,0-1,0-1.2v-0.1
			l0.9-0.2c0-0.4,0.1-0.7,0.2-1.1l-0.5-0.3l0.3,0l0.3,0.2V11C4.1,11.5,4,11.9,4,12.3v0.1l-0.9,0.2c0,0.2,0,0.8,0,1L4,13.7v0.1
			c0,0.4,0.1,0.8,0.2,1.2l0,0.1l-0.8,0.5c0,0.1,0.1,0.3,0.2,0.5L3.5,16.2z M5.1,18.9c0.1,0.1,0.2,0.2,0.2,0.3l0.8-0.4l0,0
			c0.3,0.3,0.6,0.6,0.9,0.9l0,0l-0.4,0.8c0.2,0.1,0.6,0.5,0.8,0.6l0.7-0.6l0.1,0C8.6,20.8,9,21,9.4,21.2l0.1,0l-0.1,0.9
			c0.2,0.1,0.8,0.3,1,0.3l0.5-0.8l0.1,0c0.4,0.1,0.8,0.2,1.2,0.2h0.1l0.2,0.9c0.1,0,0.3,0,0.5,0s0.4,0,0.5,0l0.2-0.9h0.1
			c0.5,0,0.8-0.1,1.2-0.2l0.1,0l0.5,0.8c0.2-0.1,0.8-0.2,1-0.3l-0.1-0.9l0.1,0c0.4-0.2,0.8-0.4,1.1-0.6l0.1,0l0.7,0.6
			c0.2-0.1,0.6-0.5,0.8-0.6l-0.4-0.8l0.1,0c0.3-0.3,0.6-0.6,0.9-0.9l0-0.1l0.9,0.4c0.1-0.2,0.5-0.6,0.6-0.8l-0.6-0.7l0-0.1
			c0.2-0.4,0.4-0.7,0.6-1.1l0-0.1l0.9,0.1c0.1-0.2,0.3-0.8,0.3-1l-0.8-0.5l0-0.1c0.1-0.4,0.2-0.8,0.2-1.2v-0.1l0.9-0.2
			c0-0.2,0-0.8,0-1l-0.9-0.2v-0.1c0-0.4-0.1-0.8-0.2-1.2l0-0.1l0.8-0.5c-0.1-0.2-0.2-0.8-0.3-1L21,9.7l0-0.1
			c-0.2-0.4-0.3-0.8-0.6-1.1l0-0.1L21,7.8c-0.1-0.2-0.5-0.7-0.6-0.8l-0.8,0.4l0-0.1c-0.3-0.3-0.6-0.6-0.9-0.9l-0.1,0l0.4-0.8
			c-0.2-0.1-0.6-0.5-0.8-0.6l-0.7,0.6l-0.1,0c-0.4-0.2-0.7-0.4-1.1-0.6l-0.1,0L16.3,4c-0.2-0.1-0.8-0.3-1-0.3l-0.5,0.8l-0.1,0
			c-0.4-0.1-0.8-0.2-1.2-0.2h-0.1l-0.2-0.9c-0.1,0-0.3,0-0.5,0s-0.4,0-0.5,0l-0.2,0.9h-0.1c-0.4,0-0.8,0.1-1.2,0.2l-0.1,0l-0.5-0.8
			c-0.2,0.1-0.8,0.2-1,0.3l0.1,0.9l-0.1,0C9,5.1,8.6,5.3,8.3,5.5l-0.1,0L7.6,4.9C7.5,5,7.3,5.1,7.2,5.2l0-0.2
			c0.1-0.1,0.3-0.2,0.3-0.2l0.1,0l0.7,0.6c0.3-0.2,0.7-0.4,1-0.5l-0.1-1l0.1,0c0.2-0.1,0.9-0.3,1.1-0.4l0.1,0l0.5,0.8
			C11.2,4.1,11.6,4.1,12,4l0.2-0.9h0.1l0,0l0,0l0,0l0,0l0,0l0,0l0,0l0,0l0,0l0,0l0,0l0,0l0,0h0.1l0,0h0l0,0l0,0h0.1
			c0.1,0,0.3,0,0.4,0c0.2,0,0.5,0,0.6,0h0.1L13.6,4c0.4,0,0.8,0.1,1.1,0.2l0.5-0.8l0.1,0c0.2,0.1,0.9,0.3,1.1,0.4l0.1,0l0,0.9
			c0.4,0.2,0.7,0.3,1,0.5l0.7-0.6l0.1,0c0.2,0.1,0.8,0.6,1,0.7l0.1,0l-0.4,0.8c0.3,0.3,0.6,0.5,0.8,0.8l0.8-0.4l0,0.1
			c0.1,0.2,0.6,0.8,0.7,1l0,0.1l-0.6,0.7c0.2,0.3,0.4,0.7,0.5,1l0.9-0.1l0,0.1c0.1,0.2,0.3,0.9,0.4,1.1l0,0.1L21.7,11
			c0.1,0.4,0.1,0.7,0.2,1.1l0.9,0.2v0.1c0,0.2,0,1,0,1.2v0.1l-0.9,0.2c0,0.4-0.1,0.7-0.2,1.1l0.8,0.5l0,0.1c0,0.2-0.3,0.9-0.4,1.1
			l0,0.1l-0.9-0.1c-0.2,0.4-0.3,0.7-0.5,1l0.6,0.7l0,0.1c-0.1,0.2-0.6,0.8-0.7,0.9l0,0.1L19.6,19c-0.2,0.3-0.5,0.5-0.8,0.8l0.4,0.8
			l-0.1,0c-0.2,0.1-0.8,0.6-0.9,0.7l-0.1,0l-0.7-0.6c-0.3,0.2-0.7,0.4-1,0.5l0.1,0.9l-0.1,0c-0.2,0.1-0.9,0.3-1.1,0.4l-0.1,0
			l-0.5-0.8c-0.4,0.1-0.7,0.1-1.1,0.2l-0.2,0.9h-0.1c-0.1,0-0.4,0-0.6,0s-0.5,0-0.6,0h-0.1L12,22c-0.4,0-0.7-0.1-1.1-0.2l-0.5,0.8
			l-0.1,0c-0.2-0.1-0.9-0.3-1.1-0.4l-0.1,0l0.1-0.9c-0.4-0.2-0.7-0.3-1-0.5l-0.7,0.6l-0.1,0c-0.2-0.1-0.8-0.6-0.9-0.7l-0.1,0
			l0.4-0.8c-0.3-0.3-0.6-0.5-0.8-0.8l-0.8,0.4l0-0.1C5.2,19.2,5.1,19.1,5.1,18.9L5.1,18.9z"/>
		<path class="st0" d="M12.8,20.3c-1.1,0-2.1-0.2-3-0.7l-0.1-0.1l3.2-4l3.1,4l-0.1,0.1C14.9,20.1,13.8,20.3,12.8,20.3z M10,19.5
			c0.9,0.4,1.8,0.6,2.8,0.6c0.9,0,1.9-0.2,2.8-0.6l-2.8-3.6L10,19.5z M18.1,18.1l-2.8-4.3l4.8-1.7l0,0.1c0.2,2.1-0.5,4.2-1.9,5.7
			L18.1,18.1z M15.6,13.9l2.5,3.8c1.3-1.5,1.9-3.4,1.8-5.3L15.6,13.9z M7.5,18L7.5,18c-1.5-1.7-2.2-3.8-1.9-5.8l0-0.1l4.8,1.8
			L7.5,18z M5.8,12.3c-0.2,1.9,0.4,3.9,1.7,5.3l2.6-3.8L5.8,12.3z M14.3,11l-0.1-5.1l0.1,0c2.1,0.4,3.9,1.7,4.9,3.6l0.1,0.1L14.3,11
			z M14.4,6.1l0.1,4.5l4.4-1.2C18,7.8,16.3,6.6,14.4,6.1z M11.3,11L6.4,9.5l0.1-0.1c1-1.8,2.8-3.1,4.9-3.5l0.1,0L11.3,11z M6.8,9.4
			l4.3,1.3l0.2-4.5C9.4,6.5,7.8,7.7,6.8,9.4z"/>
		<path class="st0" d="M12.8,6.4l-1.5,4.4l0,0.1h-0.1L6.5,11l3.7,2.8l0.1,0l0,0.1l-1.3,4.5l3.8-2.6l0.1,0l0.1,0l3.8,2.6l-1.3-4.5
			l0-0.1l0.1,0l3.7-2.8l-4.6-0.1h-0.1l0-0.1L12.8,6.4L12.8,6.4z M11.1,10.7L12.7,6l0.1-0.3L12.9,6l1.6,4.6l4.9,0.1h0.3l-0.2,0.2
			l-3.9,3l1.4,4.7l0.1,0.3l-0.2-0.2l-4-2.8l-4,2.8l-0.2,0.2l0.1-0.3l1.4-4.7l-3.9-3l-0.2-0.2h0.3L11.1,10.7L11.1,10.7z"/>
		<g>
			<polygon class="st0" points="4.2,20.4 4.2,20.4 4.2,20.5 			"/>
			<polygon class="st0" points="3.8,19.6 4.2,20.4 4.2,20.4 			"/>
		</g>
	</g>
</g>
</svg>
