<?xml version="1.0" encoding="utf-8"?>
<!-- Generator: Adobe Illustrator 20.1.0, SVG Export Plug-In . SVG Version: 6.00 Build 0)  -->
<svg version="1.1" id="Livello_1" xmlns="http://www.w3.org/2000/svg" xmlns:xlink="http://www.w3.org/1999/xlink" x="0px" y="0px"
	 viewBox="0 0 135 150" style="enable-background:new 0 0 135 150;" xml:space="preserve">
<style type="text/css">
	.st0{fill:#5A6772;}
</style>
<path class="st0" d="M102.5,100.4c0.7,0,1.6,0.3,1.4,0.9c-0.2,0.6-0.5,1.5-1,1.6c-0.5,0.1-1.6-0.7-1.6-1.4S101.9,100.4,102.5,100.4
	L102.5,100.4z M44.2,118.7c0.7,0.4,1.5,0.4,2.2,0l-0.6-0.9l-1.3-1.1c-0.7-0.4-1.2,0-1.7,1L44.2,118.7L44.2,118.7z"/>
<path class="st0" d="M82,144.3c-0.2,0.4-0.1,0.7,0.4,1.1c0.5,0.4,0.9,0.4,1.2,0.2L82,144.3L82,144.3z"/>
<path class="st0" d="M133,71.3c0.4-2.8,0.1-4.6-0.9-5.4c-1.1-0.7-2.3-0.5-3.9,0.7c-0.9-0.5-2.1,0-3.6,1.3c0.3-0.7,0.3-1.3,0.1-1.8
	c1.4-0.6,2.2-1.3,2.6-2.1c0.4-0.8,0.6-2,0.6-3.6c0.2-1,1.1-2.8,2.8-5.4c1.2-2.6,0.3-3.5-2.4-2.7c1.5-1.4,2.3-2.6,2.3-3.6
	c0.1-0.9-0.3-2.2-1.2-3.6c-0.4-0.8-0.9-1-1.7-0.5c0.3-0.5,0.4-1.2,0.4-1.9c0-0.7-0.5-2.3-1.5-4.7c-0.2-3.1-0.9-4.4-2.2-3.9
	c-0.2-1.6-0.8-3.2-1.6-4.7c-1.3-1.9-2.3-2.4-3-1.5c-2.1-3.1-4-4.3-5.8-3.8c-0.1-1.3-0.5-2.5-1.3-3.6c-0.5-2-1.1-3.4-1.7-4.2
	c-0.9-0.4-1.6,0.2-2,1.6c-0.2-1.2-0.5-2.4-1.1-3.6c-0.6-1.3-1.5-1.9-2.8-2c-0.5-0.1-0.9,0-1.3,0.2c-0.8-0.5-1.6-0.8-2.1-0.8
	c-1.8-1.9-3.4-2.1-4.9-0.5L96.6,10c-0.5-1.9-1.6-2.4-3.2-1.3c-2.6-2.7-4.8-4.4-6.6-5.3c-1.5-0.5-2.5-0.4-3,0.4
	c-0.8-0.8-1.6-1.3-2.5-1.5c-0.9-0.2-1.7-0.4-2.5-0.7c-1.2-0.1-1.7,0.6-1.6,2c-1.9,0.1-3.2,0.4-3.9,1c-0.7,0.6-0.9,1.3-0.6,2.3
	c0.3,1,1.1,1.8,2.3,2.4c-0.3,0.4-0.4,0.9-0.4,1.7c0.1,0.8,0.9,1.4,2.5,2c1.2,0.3,2.4,0.3,3.6,0.1c-0.3,1.2,0.2,2,1.3,2.3
	c1.5,1.6,3.4,2,5.7,1.2l-0.2,1.5l3.1,1.3c0.1,1.5,0.8,2.5,2.1,3.2l1.2,0.5c-0.3,0-1.4,1-1.4,1.1c-0.2,0.3-0.9,1.7,0.7,2.1
	c1.2,0.1,2.6,0.3,3.9,0.2c0,0.4,0.3,1,0.5,1.5c0.2,0.5,0.8,1.2,1.7,2.2c0.9,0.9,2.5,1.8,3.8,2.4c-0.1,0.1-0.5,1.1-0.8,2.1
	c-0.4,1.2-0.6,3,0.2,4c-0.2-0.1-0.9,0.4-1.2,0.9c-1,1.5,1.2,3.7,1.5,4.5c-0.2,0-0.8,0.3-1.1,0.5c-0.7,0.5-0.5,3.1,1.6,3.6
	c0.5,0.2,2.9,1.6,4.1,2.9c0.2,0.2,0.9,1.5,1.9,2.8c0.5,0.7,1.1,1.8,2.3,1.8c1.1,3.7,3,7.2,5.3,10.7c0,0.1,2.1,2.3,2.8,4.3
	c-0.2,1.3-0.2,2.4-0.2,2.5c-0.3,2.5-0.7,4.9-1.4,7c-2.2-1.1-2.6,0.4-2.9,1.8c0.1-0.1-1-0.2-1.2,0.3c0.1-0.9-1.3-1.6-2-1.2
	c0,0-0.7,0.5-1.2,0.8c-0.1,0.1-0.3-0.7-0.3-1.3c0-0.4-0.1-1.9,0.2-2.5c0-0.1,0.6-0.7,0.9-1.3c0.7-1.2,0.2-4.9-0.6-7.5
	c-0.2-0.8-0.8-1.2-1.2-1.3c-0.2-0.1-1.4,0-1.6,0.9c-0.1-0.5-0.9-0.8-1.5-1c-1.7-0.4-3.6,2.9-3.4,6c-1.3-1-2.9-0.7-2.7,1.1
	c0.3,2.4,3.9,6.7,4,8.6c-1.1-1-3.6-1-3.6,1.4c0,0.7,0.6,1.9,0.8,2.4c-0.5,2.5,2.4,4.4,4.8,6.7c0,1.1,0.3,1.1,0.7,1.6
	c-0.4,0.7-3.1,4.8-3.1,4.9c-0.1,0.1-2-1-2.6-0.4c-0.6,0.6-1.2,1.3-1.5,1.8l0.3,2.9c0.2,1.2-0.4,2.6-1.9,4.1c-1.5,1.5-2.5,2.9-3,4.1
	c-0.3,0.9-1.3,2-3.1,3.1c-0.1-0.3-0.5-0.8-1.3-1.5c-0.1-0.2-0.3-0.3-0.6-0.2c-1.8,0.5-5.4,2.5-10.8,5.2c-0.9,0.5-2.3,1.7-4,4.7h-3.1
	c-0.8-1-1.7-1.6-2.7-2.5c-0.7-0.5-1.9-0.6-3.6,0.3c-1.6-0.4-3.3-0.1-4.9,0.9c-1,0.4-1.7,0.4-2.2,0.2l-3.9-4.2
	c-8-3.4-12.4-4.9-13.1-4.5c-0.8,0.5-1.4,1.2-1.7,2c-0.8-0.4-2-1.4-3.6-3l-2.4-2.8c-1.8-2-2.5-3.9-2.2-5.7l0.4-2.4
	c0.1-0.4,0-0.7-0.2-0.9c-0.6-0.6-1.6-1-2.1-1.1c-0.1,0-0.5-0.2-0.8,1.3C29.7,102,27,98.2,27,98c0.7-0.8,2-3,2.7-5.6
	c0.8-3,1.2-6.2,1.2-7.5c0.1-0.2,0.2-0.3,0.3-0.4c1.2-0.9,2.8-9.7,2.4-11.8c-0.2-0.8-0.4-1.3-0.6-1.3s-0.5,0-0.7,0.2l0.5-0.9
	c0.3-0.7,0.3-1.1,0-1.3c-0.2-0.2-1.6-0.1-2.8,0.5c-0.1-1.4-0.8-3.4-1.1-4.1c-0.1-0.2-0.5,0-0.5,0c-2.2,1.3-3.2,4.3-4,7.9l-0.6,0.6
	c-2.8,3.6-5.1,7.7-6.1,12.3c-0.5-0.7-0.7-1.8-1.2-3.2c-0.4-1.4-0.6-2.3-0.4-2.8c0.4-0.7,0.3-1.4-0.4-2.1c-0.5-0.5-1.2-2.9-2.1-7.1
	c0.1-1.1,0.5-2.8,1.3-5c0.8-2.2,2.2-5,4.1-8.2c0.1-0.1,0.9-1,1.2-1.1c2.7-0.7,14.9-16.4,13.6-23.7c-0.2,0.9,5.2-8.6,5.7-10.6
	l0.7-0.2l0.8-0.3c2.6-1.1,4.9-2.2,6.9-3.1l3.2-1.7c2.2-0.9,4.3-2.2,6.3-3.9c2.1-1.8,3.2-3.8,3.4-5.8C60.4,7.3,59.4,7,57.6,7
	c0.9-1.1,1.4-2.2,1.5-3.3c-0.7-0.9-2.7-1.1-6.2-0.5c-3.6,0.9-6.7,2.3-9.4,4.2c-2.8,1.8-5.2,3.9-7.4,6.4c-2.2,2.5-3.9,5.1-5.2,7.8
	l1.6-3.6c0.8-1.7,1.6-3.8,2.5-6.1c0.3-1.1,0.3-1.9,0-2.4c-0.2-0.5-0.8-0.6-1.5-0.4c-0.8,0.2-2.4,1.3-4.6,3.3
	c-2.4,2.5-4.6,5.5-6.4,9.2c-1.9,3.6-3.1,6.5-3.8,8.6c0.4-2.4,0.3-4.4-0.2-6.1c-0.3-0.7-0.8-0.9-1.7-0.6c-0.8,0.6-1.7,1.5-2.5,2.6
	s-1.7,2.3-2.4,3.4C11,30.5,10,32,9,34c-1.1,2-2,4.4-2.8,7.1C5.3,43.9,4.7,47.5,4.3,52c-0.3,2.9-0.1,6,0.6,9.3
	c0.8,3.3,1.7,5.8,2.5,7.3c0.8,1.6,1.6,2.5,2.4,2.8c0.5,1.2,1.1,3.1,1.9,5.8c0.4,1.3,0.6,2.2,0.6,2.9c-0.1,0.7,0.1,1.1,0.5,1.4
	c0.4,0.3,0.7,0.8,1,1.6c0.7,2.5,1.6,4.9,2.8,7c-0.2,1.1-0.3,2.3-0.3,3.5C13.7,86.3,11.6,80.7,10,77c-3.1-6.8-5.4-9.9-7.2-9.3
	C2,68,1.5,68.8,1.3,70c-0.1,0.5-0.1,1.7,0,3.6c0,1.9,0.2,4,0.6,6.2c1.6,7,4.3,12.8,8.1,17.5l5.8,6.8c1.2,1.2,2.3,2,3.3,2.6
	c1.1,0.6,2,0.7,2.9,0.4c1.3,2.1,3,4.3,5,6.6c1.3,1.9,2.6,2.9,3.9,2.8c0.6,1.3,1.4,1.9,2.6,1.9l1.2-0.2c1.6,1.6,3.1,2.8,4.4,3.8
	l-1.5,4.3c-2.6,0.4-5.1,0.6-7.3,0.6c-2.1-1.5-4.9-3.5-8.7-6l-0.2-4.7c-0.1-1.6,0.2-3,0.9-4.1c0.2-0.9-0.3-1.7-1.5-2.4
	c-1.7-0.8-2.5-1.2-3.2-1c-0.3,0.1-0.1,0.4-0.1,0.9v0.3c0-0.2,0.1-0.3,0.4-0.2c2.2,0.6,3.2,1.3,3,2.2c-0.7,1.2-1,2.5-1,3.9l0.1,4.1
	c-2.9-1.9-5.9-3.5-9-4.9c0.4-0.1,0.8-0.1,1.3-0.1c0.5,0,0.8-0.2,0.9-0.5c0.2-0.3-0.1-0.5-0.9-0.6c-1.6,0-2.7,0.1-3.2,0.4
	c-0.4,0.4-0.3,0.9,0.2,1.3c3.8,1.9,7.1,3.8,10,5.7c4.6,2.9,8.1,5.3,10.7,7.1c2.5-0.1,5.9-0.4,10.4-1l6.8-1.3c2.8-0.5,5.7-1,8.7-1.3
	c1.1-0.2,2.5-0.3,4.2-0.3c1.6,0,3.1-0.2,4.7-0.4c1.4,2.6,2.2,4.8,2.5,6.8c0.2,1,0,1.6-0.4,1.7c-6.3,2.3-10.8,3.8-13.5,4.4
	c-2.7,0.6-5.2,1.1-7.4,1.6c-5.4,1-10.9,1.8-16.3,2.4c-1.4-0.4-5.3-2.4-11.8-6.1c-4.6-2.8-7.9-5.1-9.7-6.8c-2.1-2.3-2.9-3.6-2.5-4.1
	c1.4-2.3,2.3-4.3,2.8-6c0.2-0.7,0.3-1.3,0.2-1.7c-0.6-1.8-0.2-2.7,1.3-2.8c3.5-0.2,5.9-0.3,7.1-0.2c0.5,0.1,0.9-0.1,1-0.5l1.2-2.4
	l-0.7-0.3l-1,1.6l0-1.6v2.1l-8,0.2c-0.7,0-1.5,0.3-1.9,0.8c-0.4,0.5-0.6,1.6-0.2,3.2c0,0.5,0,1-0.1,1.5c-0.4,1.7-1.4,3.7-3,6.2
	c-0.2,0.4-0.1,0.9,0.3,1.7c0.4,0.7,1.4,1.9,3,3.5c0.7,0.7,1.7,1.5,3.1,2.5s3.9,2.5,7.4,4.6c4.2,2.5,8.1,4.5,11.9,6.2
	c0.8,0.1,6.1-0.7,15.8-2.1l0.1,0.9c-2.8,2.1-4.6,3-5.4,2.6c-1.1,0.1-1.4,0.9-1,2.4c0.3,0.7,0.9,1.2,1.7,1.4l1,1.2l2.9,1.7
	c1.1,0.3,2.2,0.3,3.2,0c0.9-0.4,1.6-1.2,1.9-2.4l0.3-0.3l3.2-3.2l2.3-1.7c1.8-0.3,2.9-0.9,3.5-1.9c0.1-0.8,0.3-1.4,0.7-1.6l2.8-1.9
	c0.1-0.3,1.2,0.2,3.4,1.3c1.1,0.3,2,0.2,2.8-0.2l2.1-1.2c1.8,0.4,5.1,2.7,9.7,6.9c-0.1,0.5,0.2,1,0.9,1.7c0.4,0.5,1.4,0.9,3,1.2
	l1.1,2.1l1.1,0.4c1.6,0.1,3.2-0.5,4.6-1.7l1.7-0.6c0.9-0.7,1.3-1.4,1.2-2.1l-0.7-0.7l-1.5-0.4c-1.9-0.9-3.8-2.1-5.8-3.6l-1.3-0.9
	c5.7,1,12.9,1.8,21.4,2.4c1.1,0.2,2.5-0.3,4.2-1.6c1.8-1.3,7.1-5.1,16-11.4c1.3-1.4,2.4-3.1,3.2-4.9c-0.8-0.7-1.5-1.8-2.1-3.2
	c-0.6-1.4-1-2.5-1.1-3.5c-0.2-0.9-0.2-1.7-0.1-2.4c0.2-0.7-0.1-1.4-0.7-2c-0.3-0.4-0.9-0.6-1.8-0.7c-1.7-0.2-3.6-0.1-5.7,0.1
	c-1-0.1-1.6-0.3-1.7-0.7l0.1-1.9c0.2-0.8-0.1-1.2-0.7-1.1c-2.3,0.6-3.7,1.2-4.2,1.7c-0.7,0.7-0.7,1.5,0.1,2.4
	c0.6,0.5,0.9,1.1,0.9,1.8c-0.3,3.5-0.6,5.8-0.9,7c-3.8,3.1-6.4,4.9-7.8,5.6c-1.1,0.4-3.6,0.2-7.4-0.5c-0.8-0.7-1.4-2-1.8-3.8
	c1.3-0.8,2.7-1.7,4.2-2.8c1-0.2,1.8-0.4,2.5-0.6c0.7-0.2,1-0.9,1-1.9c0.7-0.3,1.2-0.8,1.5-1.7l4.6-5.5c1.5-1.3,3.1-2,4.8-2.2
	c2.1-0.2,4.8-1.3,8.2-3.6c0.5-0.6,0.5-1.4,0-2.4c1-0.6,2.6-2.2,4.9-4.9c0.9-1.3,1.1-2.7,0.6-4.2c2.1-2.5,3.3-4.5,3.6-6
	c0.2-1.3,0.2-2.7-0.1-4.3c1-0.6,1.7-1.2,2.1-1.6c0.4-0.4,0.6-1.1,0.6-1.9c0-0.8-0.3-1.4-0.9-2C134,75,134.2,73.1,133,71.3L133,71.3z
	 M59.5,8.3c0,1-0.5,2.1-1.7,3.3c-1.8,1.7-4,3.2-6.8,4.7c-2.8,1.4-6.5,3.1-10.5,5.1v-0.5c5-4,10-7.3,14.6-9.8
	c1.2-0.7,0.7-0.9-0.7-0.6c-1.6,0.8-3.3,1.8-5.2,2.9c-3.1,2-6.2,4-9.2,6.1l0.1-0.9c6-5.3,10.9-8.7,14.8-10.2
	C56.8,7.9,58.4,7.9,59.5,8.3L59.5,8.3z M41.6,10.2c2.9-2.4,6.3-4.2,10.3-5.5c1.9-0.5,3.6-0.8,5.1-0.7c0.7,0.2,0.9,0.6,0.6,1.2
	l-1.7,2.3c-1.5,0.2-3.6,1.1-6.3,2.6c-2.7,1.5-5.5,3.6-8.6,6.1l-1.1,0.7c-0.6-0.4-1.6-0.2-3.2,0.6c4.8-4.1,9.1-7.1,12.6-9.2
	c2.3-1.2,3.7-2,4-2.4c-1.2,0.3-2.8,1-4.9,2.2C46.3,9,42.8,11.4,38,14.9l-4.7,4.2C36,15.5,38.7,12.6,41.6,10.2L41.6,10.2z M36.7,19
	c0.8-0.5,1.4-0.7,1.7-0.6c0.2,0.5,0.3,1.2,0.2,2.2s-0.8,2.9-2.1,5.8l-2.9,5.7c-2.1,0.3-4,1.2-5.8,2.8c0.9-1.6,2.1-3.5,3.4-5.6
	c1.3-2.1,3.4-5.3,6.3-9.5c0.5-0.8,0.5-1,0-0.6c-0.4,0.4-1.6,1.9-3.6,4.5c-1.9,2.6-4.6,6.7-7.8,12.2c-0.9,1.4-3,4.7-6.6,10.1l0.4-1.2
	l4.7-8.4l4.6-8.5C31.5,24.1,33.9,21.1,36.7,19L36.7,19z M17.4,38.3C19.5,34.9,22,30,25,23.8c0.9-1.8,2.2-3.9,3.9-6.2
	c0.5-1.2,0.2-1.2-0.9,0.1c-2.6,3.2-5.6,8.3-9,15.2l1.5-3.8c0.3-0.8,1.1-2.8,2.5-5.7c1.4-3,2.8-5.3,4.2-7.1c1.4-1.7,2.3-2.9,2.8-3.4
	c1.9-1.6,3-2.4,3.3-2.3c0.3,0.2,0.3,0.6,0.2,1l-3.9,9.9c-2.5,4.9-5.8,10-9.9,15.3c-1.7,1.9-2.8,3.1-3.2,3.6c-0.4,0.5-0.7,1-1,1.5
	l0.3-1.3L17.4,38.3L17.4,38.3z M19.5,47.3c-1.1,2.1-2,3.9-2.5,5.5l-0.6-0.1l1.7-5.1L19.5,47.3L19.5,47.3z M13.7,60.7l0.6-2.3
	l0.5-2.3l1.3-0.2l-1.6,4.3l-1.1,3.7L13.7,60.7L13.7,60.7z M13.3,52.1c0.4-2.4,0.9-4.5,1.5-6.5l0.6,0.8L13.3,52.1L13.3,52.1z
	 M10.3,67.8L10,67.2c-0.3-0.5,0.2-3.6,1.7-9.2C11.2,62.2,10.7,65.5,10.3,67.8L10.3,67.8z M9.2,63.3C8.7,61.2,9,56.6,9.9,49.7
	c0.9-6.9,2.1-11.9,3.5-14.8c0.7-1.5,0.7-1.8-0.1-0.7c-3.2,5.5-5.1,13.6-5.6,24.2c-0.1,3.7,0.1,6.4,0.6,8.1c0.5,1.7,1.1,2.6,1.8,2.9
	c0.4,0.2,0.8,0.2,1.2-0.1c0,0-0.3,1.4-0.2,1.7c-1.4-0.6-2.4-1.7-3.1-3.2c-0.6-1.5-1.2-3.5-1.8-5.9c-0.6-2.4-0.8-5.3-0.7-8.7
	c0.3-4,0.8-7.9,1.7-11.7c1.3-5.3,4-10.3,8.1-15c0.9-1,1.4-1.2,1.7-0.7c0.2,2.1,0.2,4.1,0,6.1s-0.8,4.2-1.5,6.6
	c-2.1,6.8-3.3,11.5-3.7,13.8C11,55.2,10.1,58.9,9.2,63.3L9.2,63.3z M11.5,70.9v-1.3c2-2.2,1.8-4.2,2.5-6.2l2.8-7.1l3.2-7.5
	c1.7-3.4,4.2-7.2,7.3-11.5c1.8-2.2,3.5-3.3,4.9-3.5c0.4,0.5,0.4,1.6,0,3.2c-0.4,1.6-1,3.3-1.9,5.1c-0.1,0-0.1,0.1-0.1,0.1
	c-3.4,6.3-6.7,10.8-9.9,13.6l5.4-8.8l2.6-4.7c1-1.8,1.2-2.4,0.5-1.9c-5.3,8-8.5,13-9.6,15.1c-1.1,2.1-2.1,4-3.1,5.8
	c-1,1.8-2,3.2-2.3,4.2S13.5,68.3,11.5,70.9L11.5,70.9z M32.7,74.2c-0.2,2.4-0.7,5.3-1.6,8.8c-0.1-2.9-0.2-4.8-0.4-5.8l0.7-2
	c0.1-0.7-0.1-0.7-0.4-0.1L30.6,76l-0.1-1.6l1.2-1.5C32.5,72.1,32.8,72.5,32.7,74.2L32.7,74.2z M31.5,69.9c0.7-0.2,0.8,0.2,0.4,0.9
	L30.4,73c-0.1-0.8-0.2-1.5-0.4-2.3C30.5,70.4,31,70.1,31.5,69.9L31.5,69.9z M25.3,73.6c1.1-4.4,2.2-6.7,3.2-6.9
	c0.6,1.5,1.1,4.4,1.4,8.5c0.4,4.1,0.4,7.9,0,11.2c-0.5,4.2-1.2,7.1-2.1,8.5l-1,2.2c0-3.3,0-5.9,0.1-8c0.1-2.1,0.2-4.8,0.2-8.2
	c0.1-3.4,0.3-7.3,0.7-11.6c0.2-1.1,0.2-1.3-0.2-0.7c-0.8,4.4-1.3,10-1.5,16.8L26,89.9l-0.2,6.2l-1-1.2c-0.7-3.7-1.1-7.6-0.9-11.6
	C24,80.3,24.5,77.1,25.3,73.6L25.3,73.6z M18.3,86.8c0.9-3.9,2.9-7.9,6-12c-0.5,2.2-0.8,3.8-0.9,4.8c-2.3,4-4.1,8-5.4,11.9
	c-0.3,1.2-0.6,2.7-0.8,4.3C17.1,93.7,17.4,90.7,18.3,86.8L18.3,86.8z M23.5,93.4l-1.7-2.2l1.3-3.2C22.9,89.9,23.1,91.7,23.5,93.4z
	 M39.4,126l1.1-3.2l3.6,2.4L39.4,126L39.4,126z M48.1,124.5l-5.9-3.6l-5.4-3.6l-1-1.3c-0.3-0.4-0.8-0.4-1.3-0.2s-1-0.1-1.3-0.9
	c-1.4,0.8-2.9,0.5-4.3-0.9l-2.6-3.2l-2.4-4.2l-0.9-0.6c-0.5,0.3-1.1,0.4-1.7,0.3c-1-0.1-2.2-0.8-3.4-2.1c-0.7-0.7-2.3-3.4-4.7-8.1
	c-3.2-6.1-5.4-10.7-6.6-13.8c-0.8-2.6-1.4-4.2-1.7-4.9c-0.3-0.7-0.4-0.7-0.3,0c0.1,0.7,0.4,2.1,1.2,4.4c0.7,2.3,2.1,5.6,4.1,10.1
	c1.7,3.6,3.4,6.8,5.1,9.8c-3.9-4.2-6.7-8.2-8.4-11.8C4.7,86,3.6,82.6,3,79.5c-0.3-1.1-0.4-2.8-0.5-5.1c-0.1-2.3,0-3.6,0.1-3.8
	c0.3-0.8,0.6-1.1,1.1-1c0.3,0,1,0.8,2.2,2.2c1.1,1.5,2.7,4.9,4.6,10.1c1.9,5.2,3.1,8.7,3.6,10.3c0.4,1.4,0.8,2.9,1.3,4.3
	c0.4,1.2,1,2.4,1.6,3.7c0.9,1.9,1.9,3.2,2.8,3.9c1.2,0.9,2.2,1,2.8,0.5l-2.9-5.2c-0.3-0.1-0.6-0.1-0.9,0c-0.1,0-0.1,0-0.1,0
	c0,0,0,0,0,0c-0.1,0-0.2,0-0.3-0.1c-0.1,0-0.3,0-0.4-0.1c-0.1,0-0.2-0.1-0.2-0.2c-0.1-0.1-0.2-0.1-0.3-0.2c-0.1-0.1-0.1-0.2-0.1-0.3
	c0-0.1-0.1-0.2-0.1-0.3c0-0.3,0-0.6,0-0.9c0.1-0.9,0.4-2.6,1-4.9c1.2-3.9,2.8-7.8,5-11.6C23.1,82.4,23,83.8,23,85
	c-1.9,4.4-3.4,7.9-4.3,10.6c-0.5,1.9-0.4,2.9,0.1,2.8l0.6-0.3L19,97l0.3-0.9l0.9,1.7l0.6-0.4l0.5,0.7l-0.5,0.7l3.6,5.1l0.9-0.7
	l0.6,0.7c-1.1,1.1-1.5,1.7-1.3,2.1c1,1.7,1.8,3.1,2.6,4.2c1.6,2.3,2.9,3,3.9,2c0.3-0.3,0.7-0.2,1.2,0.2s1,1.2,1.6,2.4l-0.1-1.8
	l-2.9-2.8l-1.7-3.3c-1.4-1.9-2.3-3.4-2.9-4.5c-0.7-1.3-1.4-2.5-2.2-3.8c-0.9-1.5-1.9-3.1-3.2-5l0.2-0.9l2.5,3.1
	c2.3,2.9,3.9,5.1,4.8,6.6c0.9,1.5,1.5,1.9,1.6,1.1l0.5-1.5l0.7,0.4l-0.5,3.1l-0.2,0.9c-0.1,0.7,0.1,1.2,0.4,1.3
	c0.3,0.1,0.6,0.6,0.9,1.5c0.2,0.5,1,1.6,2.5,3.3c1.5,1.7,3.1,3.1,4.7,4.2c1.4,0.9,2.7,1.9,4.1,2.8c1.1,0.7,1.6,1.4,1.5,2.1l1.5,0.3
	l-0.4-1.9l0.9-0.2c0.5,0.3,0.9,0.9,1.2,1.7c1.4,1.1,2.6,1.9,3.6,2.5L48.1,124.5L48.1,124.5z M22.2,98.8l0.5-0.5l2.2,3.7l-0.2,0.5
	L22.2,98.8L22.2,98.8z M25.9,106.2l0.9-1.1l2.1,2.9l1.2,2.1l0.4,1.2c-0.7-0.4-1.4-0.9-1.9-1.7l-1.3-1.7L25.9,106.2L25.9,106.2z
	 M53.4,123.5l-3.4-2.4c-1-1.2-2-2.4-3-3.6c-0.6-0.7-1.2-1.3-1.8-1.6c-0.8-0.5-1.5-0.6-2.1-0.5c-0.4,0.1-0.8,0.6-1.2,1.6l-0.2-0.2
	c0.2-0.9,0.5-1.4,1-1.7c0.4-0.2,1-0.2,1.7,0.2l3.8,1.8l6.5,2.4c1.6,1.7,2.6,2.8,2.9,3.5C56.2,123.4,54.8,123.5,53.4,123.5
	L53.4,123.5z M55.4,140c-2.2,2.2-4.7,4.2-7.5,6.2l-1-0.3c1.6-1,4-2.6,7-4.9l1.3-1.5l-0.7-0.1c-1.1,1-2.2,1.9-3.4,2.7
	c-1.3,0.9-2.8,1.8-4.5,2.6l-2.3,1.1l0.4,0.5l1.7,0.2c1,0.6,1.4,1.3,1.3,1.9c-0.5,0.8-1.4,0.9-2.5,0.3l-1.9-1
	c-0.7-0.7-1.4-1.2-2.1-1.4l-0.8-0.6l0.3-0.7l2.4,1h0.7l-0.4-1.5l2.8-1.8c0.7-0.3,1.1-0.7,0.9-1.4l0.2-1.4c1.2,0.3,2.5,0.1,3.9-0.6
	c1.4-0.7,2.8-1,4-1.1C56.3,138.7,56.3,139.3,55.4,140L55.4,140z M88.4,17l0.2-1.8l-1.5,0.3c-1.4,0.5-2.8,0.1-4.3-1.3
	c-0.9,0.2-1.3-0.2-1.2-1.1c0.4-0.8,0.3-1.2-0.3-1.3L79,12.1c-1.5-0.2-2.4-0.6-2.9-1.3c-0.3-0.5-0.1-1.2,0.6-2
	c-1.4-0.6-2.3-1.2-2.6-1.9S74,5.7,74.7,5.3c0.8-0.4,2.2-0.5,4.2-0.2c-0.5-0.6-0.6-1.2-0.4-1.8c0.1-0.6,1.4-0.3,4.1,1l1.6,0.9
	c0.4-0.8,1.1-1,2.1-0.7c1.2,0.6,2.3,1.3,3.4,2.1c1.1,0.8,2.2,2,3.6,3.5c1.1-0.7,1.9-0.6,2.4,0.5l0.2,1.9c-1.2-1.1-2.6-1.2-4.3-0.2
	l-1.1-0.5c-1.5-1.8-2.5-3.2-2.8-4.2c-0.3-1.2-0.5-1.3-0.5-0.3c0.1,1.1,0.7,2.4,1.9,4c-2.3-0.7-4-1.7-5.1-2.8
	c-1.1-1.2-1.9-2.1-2.5-2.9c-0.6-0.9-0.8-0.9-0.7,0c0.6,1.2,1.5,2.2,2.6,3.2c-0.8-0.4-1.6-0.7-2.4-1.1c-1.8-0.8-3.4-1.2-4.6-1.3
	c-0.6,0-0.6,0.1-0.1,0.3c2.1,0.5,3.5,1,4.5,1.5c0.9,0.4,1.5,0.9,1.9,1.2c-1.4,0.6-3,0.9-4.6,0.9c-1-0.1-1.4,0-1.3,0.1
	c0.1,0.1,0.4,0.2,0.9,0.3c1.9,0.2,3.8,0,5.8-0.6c1.4,0.7,3.1,1.4,5,2.1c-1.2,0.3-2.3,0.8-3.4,1.6c-0.4,0.5-0.2,0.6,0.6,0.1
	c0.8-0.6,2.1-1,3.8-1.2l1.3,0.6c-0.1,1.4,0.2,2.9,1,4.3l-0.9,0.3L88.4,17L88.4,17z M97.4,25.4c-2.9,0.1-3.5,0-3.7-0.5
	c-0.1-0.4-0.2-0.7,0.9-1.3l0.5-0.9c-1.7-0.8-3.3-1.7-3.4-3.8l1.4-0.6c0.6-0.7,0.6-1.3,0-1.7c-0.6-0.4-0.9-1.3-1-2.9
	c0.6-1.3,2-1.3,4.3,0c1-1.9,2.2-2.5,3.6-1.7c-1.5,0-2.4,0.7-2.7,2c-0.2,0.8-0.2,1.9,0,3.1c-0.5-0.7-1.2-1.4-1.9-1.9
	c-1.4-0.7-1.7-0.7-0.8,0.2c0.9,0.9,1.7,1.8,2.4,2.8c-1.2,0.9-2.4,1.4-3.8,1.3c-0.5,0.2-0.4,0.3,0.2,0.4c0.6,0.2,1.4,0.1,2.2-0.2
	c-0.1,0.8,0.2,2.2,0.5,3.1c0.5,0.7,1.2,1.4,1.9,1.9C97.9,24.9,97.6,25.1,97.4,25.4z M99.1,26.9c-0.1-0.6,0.5-1,1.7-1.1
	c1.2-0.1,1.3-0.4,0.6-1c-1.5-0.5-2.8-1.4-3.8-2.7c-0.7-0.9-0.7-1.5,0-1.9l1.2-0.3l0.6-0.7l-0.7-2.8c-0.2-1.4,0.2-2.4,1.2-3
	c1.4-0.2,2.8,0.2,4.2,1.3c0.1-0.7,0.5-1,1.5-0.7c0.9,0.3,1.8,2.2,2.6,5.9l1.3,0.5c0.4-1,0.8-1.5,1-1.5c0.4,0,0.8,0.9,1.3,2.6
	c1.1,0.9,1.6,2.5,1.5,4.7c-0.7,0.9-1.1,2-1.1,3.3l-0.6-1.4c-0.4-1.6-0.5-3.3-0.5-5c-0.1-0.7-0.1-0.7-0.2,0c-0.2,1.5-0.2,2.8-0.1,3.9
	c-1.4-1.8-2.9-3.5-4.6-5c-0.3-1.2-0.4-2.5-0.3-3.9c-0.2-1.3-0.3-1.6-0.4-0.9c-0.1,1.6-0.1,3.1,0.2,4.4c-1.2-1.2-2.6-3-4.3-5.3
	c-0.4-0.7-0.6-0.9-0.6-0.5c1,1.9,2.1,3.5,3.2,4.7c1.1,1.3,2,2.3,2.7,3c-1.4-0.4-2.6-0.7-3.6-0.8c-1-0.1-1.9-0.4-2.8-0.8
	c-0.8-0.2-0.8,0,0.1,0.6c0.5,0.3,1.4,0.6,2.9,0.9c1.4,0.3,2.8,0.7,4.1,1.3c0.7,0.4,1.6,1.5,2.8,3.2l0.9,2.1
	c-1.5-0.8-3.1-1.3-4.9-1.7c-1.8-0.3-2.8-0.6-3.2-0.9c-1.4-0.6-1.5-0.5-0.5,0.2c0.3,0.3,1.4,0.7,3.4,1.1c1.9,0.4,3.8,1.1,5.6,2.2
	l0.2,0.5c-0.4,0.4-0.5,1-0.4,1.7l0.6,1.6c-0.5-0.6-1.1-0.3-2,0.8c0.3-0.7,0.2-1.3-0.2-1.9c-0.7-1.1-2.5-2.3-5.4-3.6l-0.5,0.9
	C101.1,30.3,99.7,28.9,99.1,26.9L99.1,26.9z M118.3,66.3c-0.6-0.8-1.3-2.1-2.4-3.8s-1.8-3.1-2.2-4.1c-0.5-1-0.6-2.2-0.2-3.2
	c0.3-1.1,0.6-1.9,0.8-2.5c0.2-0.6,0.2-0.7-0.1-0.3c-0.6,1.1-1.1,2.2-1.3,3.2l-1.6-4.5c0.2-1.8,1.1-4.1,2.8-6.9
	c0.5-0.9,0.5-1-0.2-0.2c-1.6,2.1-2.6,4.2-3.1,6.4l-2.4-5.4c-0.1-1,0.6-2.9,1.9-5.7c0.7-1.5,0.5-1.4-0.5,0.2
	c-0.8,1.6-1.4,3.1-1.8,4.4c-0.7-3-1.4-5.6-2.1-7.7l-0.6-0.2l0.3,0.9c0.4,2.6,1,4.9,1.7,6.9c-1-0.9-2.1-1.6-3.4-2.2
	c-0.7-0.4-0.7-0.3,0,0.2c1.5,0.9,2.7,1.8,3.5,2.7c0.6,1.5,1.2,2.8,1.7,4c-0.9-0.7-2.6-1.5-4.8-2.4c-0.8-0.2-0.8-0.1,0,0.3
	c2.8,1.2,4.6,2.3,5.3,3.4l1.6,4.2c-0.6,0-1.3-0.9-2.3-2.6c-0.8-1.5-2.8-2.9-5.9-4.3c-0.6-0.3-0.9-0.8-0.9-1.7
	c0.1-0.6,0.7-0.8,1.8-0.7c-0.3-0.9-0.7-1.6-1.1-2.1l-0.6-0.9c-0.8-1.7-0.3-2.6,1.5-2.6c-0.7-1.1-0.9-1.9-0.7-2.4
	c-0.1-1,0.2-2,0.7-2.9c0.3-0.6,0.5-1.2,0.7-1.9c1,0.6,1.9,1.1,2.7,1.5c0.8,0.4,1.2,1.1,1.3,2.2l-0.4,2.5c0.2,0.5,0.6,0.3,1.3-0.5
	c0.7-0.9,1.2-1.5,1.7-1.7c0.6,0.3,1.1,0.7,1.7,1.4c0.5,1,0.3,2.8-0.6,5.5l-0.9,2.2c1.8-2.4,3.2-3.5,4.3-3.4c0.4,0.3,0.5,0.8,0.4,1.6
	c-0.1,0.9-0.1,1.7,0,2.6c0.1,0.9-0.2,1.7-0.9,2.3c-0.7,0.6-1.2,1.7-1.5,3.1c1.7-1.3,2.4-1,2.1,0.7l-0.9,3.4c-0.3,1.6,0,2.4,0.8,2.3
	s1.3,0,1.5,0.3c0.2,0.3,0.2,0.9,0.1,1.7c-0.5,1.1-0.7,1.8-0.6,2.2c0.1,0.3,0.2,0.6,0.4,0.9c0.2,0.2,0.8,0.2,1.5-0.2
	c0.8-0.3,1.2-0.1,1.2,0.7c0,0.8,0,1.6,0,2.4c0,0.8,0.3,1.5,0.8,2.2c0.4,0.5,0.8,0.9,1.4,1l0.7-0.9c-1.1,0.1-1.5-0.6-1.5-2.1
	c0.1-1.4,0.1-2.5,0-3.3c-0.4-1-0.8-1.6-1.3-1.7c-0.4-0.1-1.4-2.7-2.9-7.9l1.7,0.1c1.2,4.4,2.2,6.8,2.9,7.1c0.7,0.3,1.1,0.7,1,1.2
	c-0.1,0.4,0.1,1.4,0.4,2.9c0.9-0.3,1.5-1.1,1.7-2.6c0.3-1.4-0.1-2.4-1.2-3.2c-1.1-0.6-1.7-1.2-1.9-1.7c-0.3-0.9,0-1.4,1-1.7
	c0.6-0.3-0.8-1.6-4.2-3.8c-1.7-1.2-2.3-2.3-1.6-3.2c0.3-0.5,0.8-0.5,1.5,0s1.2,0.6,1.4,0.4c0.4-0.7,0.1-1.2-0.9-1.5
	c-0.9-0.3-1.4-0.6-1.3-1c-0.1-1.6,0-2.7,0.1-3.3s0.1-1.3-0.2-2.1c-0.6-0.8-1.7-0.8-3.3,0.2c0.4-0.9,0.5-1.8,0.3-2.6
	c-0.2-0.8-0.6-1.7-1.2-2.4l-0.8-2.4c-0.2-0.8,0.3-1.4,1.4-1.7c-0.4-1.6-0.4-2.8,0-3.5c0.4-0.7,0.6-1.3,0.8-1.8
	c0.2-0.5,0.6-0.5,1.4-0.2s2.1,1.8,3.8,4.2c0.8-0.9,1.7-0.6,2.4,1c0.9,1.5,1.3,3.2,1.1,5.3c1.9-1.1,2.6-0.3,2.1,2.1
	c0.8,1.7,1.4,3.1,1.5,4.1c0.2,0.9,0,1.9-0.5,2.7c-0.5,0.8-0.7,1.5-0.7,1.9c0,0.4,0.2,0.4,0.6,0c0.3-0.5,1-0.9,2.1-1.2
	c0.7,1.5,1,2.4,0.9,2.9c0,0.6-0.4,1.2-1.1,1.9c-0.7,0.7-1.1,1.5-1.2,2.4c0,0.5,0.2,0.7,0.7,0.7l1.4-0.4c0.7-0.1,0.8,0.5,0.1,1.7
	c-0.7,1.4-1.3,2.5-1.6,3.5s-0.5,1.7-0.5,2.3c-0.1,1.2-0.3,1.9-0.6,2.1c0.1-1.6,0.1-3.2-0.1-4.8c-0.2-1.7-0.5-3.5-1-5.6
	c0.4-0.4,1-1.6,1.7-3.7c0.4-1.1,0.3-1.2-0.2-0.4c-0.6,1.6-1.2,2.6-1.7,2.9c-0.6-1.9-1.2-4.3-1.9-7.1c0.8-1.3,1.3-3,1.5-5
	c0.1-1.7-0.1-1.8-0.3-0.4c-0.3,2-0.9,3.6-1.7,4.7c-0.6-2.1-1.4-4.2-2.2-6.2c0.3-1.1,0.4-2.4,0.3-3.9c-0.1-1.5-0.2-1.5-0.4-0.2
	c0,1.1-0.1,2.1-0.4,2.8l-1.7-4.4l-1.1-2.5c-0.4-0.8-0.5-0.8-0.4,0l1,3.3c-0.8-0.9-1.5-1.6-2.2-2c-0.7-0.4-0.8-0.4-0.4,0.1
	c1.2,1,2.2,2.1,3,3.2c0.7,1.7,1.4,3.5,2.1,5.2c-2-1.7-3.4-2.6-4.2-2.8c-1-0.4-1-0.2,0,0.6c1.4,0.9,3.1,2.5,5.1,4.7
	c0.6,1.8,1.2,3.6,1.8,5.4c-1-0.6-2.2-1.7-3.6-3.5c-0.6-0.6-0.7-0.5-0.1,0.3c1.1,1.7,2.5,3.2,4,4.6l1.2,4.8c-1.2-1.2-2.8-2.4-4.7-3.7
	c-0.8-0.5-0.9-0.4-0.2,0.3c1.7,1.2,3.4,3,5.3,5.4c0.5,1.5,0.8,4.2,0.7,8.1c-0.1,1-0.8,1.7-2.2,2.2l-0.3,3.8l-2,0.1
	C119.9,68.6,119.1,67.4,118.3,66.3L118.3,66.3z M120.9,70c0.3-0.1,1,0,1.7,0c-0.7,4-1.6,8.4-2.3,11.1l-1.1-0.6
	C120.2,76.7,120.7,72.4,120.9,70L120.9,70z M106.9,92.5c-0.3-0.2-1.2-1-2.6-2.2c-1.3-1.2-1.7-2.2-1.3-3.2c-0.4-0.5-0.7-1.1-1-1.7
	c-0.3-0.6-0.2-1.2,0.2-1.9c0.4-0.6,1.4-0.3,2.9,0.8c0.3-0.9,0.3-1.7,0-2.5s-0.6-1.6-0.9-2.4c-0.7-1.3-1.3-2.3-2-3.2
	c-0.6-1.2-0.7-1.9-0.4-2.1c0.3-0.2,0.8,0.1,1.5,0.6c1.3-1.4,2.2-1.8,2.6-1.2c0.4,0.6,0.8,1.6,1,3c0.3,1.4,0.3,2.9,0.1,4.4l-0.3,0.3
	l0.3,0.3c0.1,0.3,0,1.5-0.4,3.6c0,0.4,0.1,0.8,0.4,1.3c-0.1-0.6-0.1-1.1-0.1-1.4c0.1-0.3,0.2-0.9,0.5-1.9s0.4-1.5,0.4-1.7
	c0-0.1,0-0.2-0.4-0.3c0.5-0.2,0.6-0.4,0.7-0.7c0.1-0.3,0.2-0.6,0.1-0.9c-0.1-0.3-0.1-1.1-0.2-2.5c0-1.4-0.2-2.4-0.4-3.1
	c-0.2-0.7-0.4-1.3-0.4-1.7c-0.1-0.4-0.4-0.6-0.9-0.7c-0.6-0.1-1.4,0.5-2.4,1.7c0.5-2.3,1-3.8,1.5-4.5c0.5-0.8,1-1,1.5-0.7
	c0.5,0.3,0.9,0.7,1,1c0.2,0.4,0.4,0.3,0.7-0.2c0.3-0.5,0.6-0.7,0.8-0.5c0.2,0.2,0.4,0.5,0.7,0.9c0.2,0.5,0.4,1,0.5,1.5
	c0.1,0.5,0.2,1.5,0.3,2.9c0.1,1.4-0.1,2.3-0.5,2.8c-0.4,0.5-0.6,1.1-0.6,1.7c0.1,2.7,0.3,4.1,0.6,4.1c0.3,0,0.7-0.2,1.1-0.6
	c0.4-0.4,0.8-0.5,1.2-0.4s0.5,0.9,0.6,2.3s0.2,1.6,0.4,0.4c0.2-1.1,0.6-1.7,1.2-1.7c0.6,0,0.7,1.5,0.3,4.6c-2.1,1.8-3.5,3.4-4.4,4.6
	c-0.3-1.3-0.3-2.2,0-2.8s0.6-1.1,0.8-1.8c0.2-0.7,0.4-1.3,0.6-1.8c0.4-1.3,0.3-1.4-0.2-0.3c-0.3,0.6-0.6,1.2-0.8,1.7
	c-0.2,0.5-0.5,0.9-0.8,1.4c-0.1-0.8-0.4-2.3-1-4.5c-0.5-1.5-0.6-1.4-0.4,0.1c0.4,2.5,0.7,4.9,0.9,7.2c-0.8-0.9-1.7-1.7-2.7-2.4
	c-0.9-0.6-1.7-1.4-2.4-2.2c-0.6-0.4-0.7-0.3-0.3,0.2c0.6,0.8,1.6,1.8,2.8,3c1.2,1.1,2,1.9,2.3,2.2c0.3,0.4,0.4,0.7,0.5,0.9
	c-0.5,0.6-1,1.3-1.7,2c-0.4-0.2-0.6-0.6-0.6-1.1C107.3,93.1,107.2,92.8,106.9,92.5L106.9,92.5z M78.6,121.4c0.6-0.7,1.4-1.4,2.4-2
	c4.5-2.2,7.4-3.5,8.9-3.9c0.3-0.1,0.5,0,0.7,0.2l0.6,0.8l-0.9,0.6c-0.5,0.4-1.2,0.6-2,0.6c-0.7-0.1-1.6,0.2-2.8,0.7
	c-1.2,0.5-1.8,1.2-1.9,2.1c-0.2,0.6-0.5,1-0.9,1.2c-1,0.6-2.1,1.1-3.2,1.7l-2.4-0.2L78.6,121.4L78.6,121.4z M85.3,124h-0.4l0-0.2
	c-0.3,0.1-0.6,0.1-0.9,0.3l-2.6-0.4l2.8-1.4l0.7,1.3c0.1-0.1,0.2-0.1,0.4-0.2l-0.3-1.3c-0.3-0.9,0.1-1.7,0.9-2.2
	c0.8-0.6,1.8-1,2.8-0.8c0.4,0.1,0.4,0.8,0.1,2.2c-0.3,0.6-1.4,1.5-3.4,2.4L85.3,124L85.3,124z M73.8,134.2l-0.4-1.3l-2.1,2.7
	l-1.7,1.1c-0.8,0.7-1.6,0.9-2.4,0.8l-2.8-1.3l1.4-0.7l0.4,0.3c-0.3,0.8,0.1,0.7,0.9-0.3l2.4-2.4c0.2-1.4-0.2-3.2-1-5.5
	s-1.5-3.6-1.9-4.2c-0.1-0.5-1.3-0.6-3.6-0.3c1.4-0.7,3-0.7,4.8-0.2l1.9,0.8l1-0.4l-0.1-0.1l-1.8-0.8l0.9,0.1l0.8,0.8l0.2,0.1l-0.1,0
	l0.6,0.5c2.7,2.9,4.2,4.9,4.5,5.9c0.3,1.1,0.4,2.1,0.1,3.1C74.9,134.1,74.2,134.5,73.8,134.2L73.8,134.2z M92.6,145.5l0.9,0.2
	l-0.3,0.4l-2.1,0.6c-0.9,0.8-2,1.3-3.2,1.6l-1.3-0.2l-0.3-0.9c0.3-0.5,0.7-0.8,1.2-1c0.5-0.2,1.1-0.4,1.9-0.6l1.9,0.3L92.6,145.5
	L92.6,145.5z M89.7,145.1c-1.4,0-2.3,0.9-2.7,0.9h-1.1c-1.5-2-2.7-2.5-3.6-3.4l-3.7-3.1c0.7-0.4,2.2-0.1,4.4,0.5L89.7,145.1
	L89.7,145.1z M101,128.6c1.5,0.1,2.7,0.1,3.5-0.2c1.4-0.6,4.3-2.7,8.8-6.5c4.3-3.2,7.9-5.4,10.8-6.7c0.9-0.5,0.9-0.9,0.1-1.1
	c-0.8-0.2-2-0.4-3.7-0.4c-0.5,0.4-0.5,0.8,0.2,1c0.7-0.1,1.3,0,1.6,0.2c-3.5,1.8-6.5,3.7-8.8,5.5c0.2-1.2,0.4-3.3,0.6-6.2
	c0-0.9-0.4-1.8-0.9-2.5c-0.4-0.5,0.1-1,1.4-1.4l1.1-0.3v1.7l-1.4-0.4l0.2,0.8c0.3,0.6,0.9,1,1.8,1.2l4.3,0.2l1.9-0.1
	c2.2,0.1,3.3,0.6,3.2,1.6c-0.1,1,0,1.9,0.2,2.9c0.4,2.3,1.3,4.4,2.7,6.5c-0.3,0.9-1,2.1-2.1,3.3l-4.1,2.7c-3.5,2.5-8.3,5.8-14.4,9.9
	c-4.3,0.1-9.5-0.2-15.6-1c-4.4-0.6-9.4-1.7-15.1-3.3l-1.3-0.3l0.6-0.6c0.9-1.2,1.4-1.9,1.5-2.3c0.1-0.4-0.1-1.3-0.4-2.7
	c-0.3-1.4-1-3-3-4.9v-0.5l1.2-0.2c3.3,0.2,6.2,0.6,8.7,1.3c2.6,0.6,5.6,1.2,9.1,1.7C97,128.1,99.5,128.5,101,128.6L101,128.6z
	 M95.1,126.5c-1.4-0.2-3.6-0.6-6.6-1.2l2.8-0.9c1.5,0.3,2.3,0,2.5-0.9C93.9,124.5,94.4,125.6,95.1,126.5L95.1,126.5z M111.6,103.2
	c-1.1,1.2-1.4,2.4-1,3.6c-1.5,0.8-2.9,1.9-4.3,3.5c-1.4,1.5-2.4,2.8-3.1,3.9c-0.7,1.1-1.5,1.7-2.2,1.9c-0.9,0.4-1.9,0.2-3.1-0.6
	l-0.3,2l-5.3,3.2l-2.6,1.1c0.2-0.5,0.3-1.4,0.4-2.7l0.9-0.8c3.6-1.9,5.7-3.6,6.3-5.2c0.7-1.3,1.5-2.4,2.4-3.3
	c0.8-0.9,1.4-1.9,1.8-3.2l0.1-1.9l-0.2-2c0.8,0.9,1.6,1.2,2.3,0.6c1.1-2,2.2-3.9,3.6-5.7c1.2-1.7,2.6-3.4,4-4.9
	c1.4-1.5,2.6-2.8,3.6-3.9l-0.1,2c-3.2,3.9-5.1,6.6-5.9,8c-2.7,4.1-4.5,7.3-5.4,9.6c-0.6,1.3-1.4,2.4-2.5,3.2
	c-0.8,0.4-1.5,0.9-1.9,1.3c-0.4,0.7-0.2,0.9,0.6,0.6c0.5-0.5,1.1-0.9,1.7-1.2c1.2-0.6,3.6-3.3,7.4-8.2l-0.1-2.8l0.9-1.5
	c-0.1,1.5,0.1,2.4,0.4,2.5c0.3,0.2,0.8-0.3,1.3-1.3c0.6-1,1.9-3.9,4.1-8.5c-0.5,1.4-0.5,2.7-0.1,3.7c-1.3,0.9-1.6,2.4-1,4.6
	L111.6,103.2L111.6,103.2z M129.3,85.7c-0.2,1.3-0.6,2.4-1.3,3.4c-2.2,2.5-3.1,3.9-2.7,4.4c0.6,1,0.5,2.1-0.3,3.4
	c-1.2,1.4-2.7,3-4.6,4.7c0.5,1.1,0.1,1.9-1.2,2.7c-1.5,0.8-3.2,1.6-5.1,2.2c3.4-2.6,5.5-5.3,6.3-8.3c1.1-1,2.1-1.7,2.9-2
	c0.7-0.5,0.9-0.7,0.4-0.6c-0.9,0.4-1.9,0.9-3,1.7c1-2,1.7-4.2,2.1-6.5c2.1-2,3.3-3.6,3.9-4.7c0.7-1.1,0.8-1.3,0.1-0.7
	c-0.8,1.3-2,2.7-3.6,4.2c0.7-2.3,1.4-4.8,2-7.6c0.3-1.6,0.2-1.9-0.2-0.9l-0.8,2.8c-0.4-1.1-0.8-1.9-1.3-2.5l1,3.3
	c-0.2,1.3-0.7,3.2-1.5,5.6c-0.7-2.1-1.7-4-2.9-5.7c-1.1-1.4-1.3-1.4-0.6-0.1c1.2,1.7,2.2,4,3,6.9c-0.6,2.5-1.4,4.6-2.2,6.3
	c-0.6-0.9-1.3-1.6-2-2c-0.5-0.3-0.5-0.1,0,0.5c0.7,0.7,1.2,1.4,1.7,2.1c-0.6,1.5-1.5,2.9-2.5,4c-1,1.2-2,2.1-3,2.9
	c1.3-1.9,1.7-4.1,1.3-6.5c0-0.4,0.3-0.8,1-1s0.9-0.6,0.7-0.9c-0.6-1.2-0.9-2.1-0.9-2.8c0.4-0.2,1.1-0.2,1.9,0c0.7-0.5,0.6-1.1-0.2-2
	c-0.8-0.9-1.3-2.1-1.5-3.8c0-0.9,0.6-1.3,1.9-1c0.6-0.1,0.6-0.7,0.2-2.1l-1.3-1.8c-0.9-2.1-0.6-2.9,1.2-2.3l2.1,1.3
	c1.4,0.5,2-0.4,2-2.8c0-0.5,0.4-0.6,1.2-0.4c0.8,0.3,1.6-0.3,2.2-1.9c0.7-0.7,1.2-0.1,1.6,2.1c-0.2,2.8,0.5,4.1,2.1,3.9
	C129.4,83.6,129.5,84.4,129.3,85.7L129.3,85.7z M131.7,78.9c0.1,0.5,0,1-0.4,1.3c-0.3,0.3-0.9,0.6-1.8,0.9l-0.9-1.6
	c0.1-1.3-0.4-2.5-1.3-3.6c0.4-0.3,0.9-0.7,1.7-1c0.6-0.3,0.5,0-0.3,0.1c-0.8,0.2-1.5,1-2,1h-0.2c0.5-2,1.2-3.6,2.3-5.1
	c0.3-0.7,0.1-0.8-0.5-0.1c-0.9,1.3-1.7,2.5-2.4,3.9c-0.3-0.3-0.6-0.9-0.7-1.8c-0.2-1-0.4-1.1-0.5-0.1c0.2,1.2,0.4,2.1,0.7,2.6
	c-1.2,1.8-2.1,2.5-2.8,2.1c0.4-2.5,1-5.2,1.7-8c1.2-1.2,2.3-1.6,3.2-1.2c1.3-1,2.3-1.2,3.2-0.6c0.5,0.8,0.7,1.6,0.6,2.3
	c-0.1,0.8-0.3,1.6-0.8,2.6c1,0,1.5,0.4,1.6,1.2c-0.4,1.8-1.3,3.1-2.5,3.9C131,78,131.6,78.4,131.7,78.9L131.7,78.9z"/>
<path class="st0" d="M21.1,129.3c0,0.2,0.2,0.2,0.4,0.3c0.7,0.5,1.4,0.3,1.9-0.6c0.7-0.9,0.4-1.6-0.3-2.1c-0.4-0.3-0.4-0.3-0.7,0.2
	L21.1,129.3L21.1,129.3z M10.7,122.3c0.9,0.7,1.5,1.2,2.5-0.1c0.5-0.7,0.4-1.6-0.1-2c-0.2-0.2-0.6-0.3-0.6-0.3
	c-0.2,0-0.2,0.2-0.4,0.2L10.7,122.3L10.7,122.3z M25.6,129.7c0.1-0.7,0.3-1.3-0.3-1.8l0.2-0.2c0.4,0.2,0.8,0.5,1.1,0.7
	c0.4,0.2,0.7,0.5,1.3,0.6l-0.2,0.2c-0.2-0.2-0.7-0.3-0.9,0.1c-0.2,0.4-0.6,2.2-0.8,2.7l-0.5,3.1l2.2-1.9c0.3-0.4,1.7-1.7,1.9-2.1
	c0.3-0.6,0-0.7-0.2-0.9l0-0.3c0.4,0.3,0.7,0.5,0.9,0.7c0.4,0.2,0.7,0.3,0.9,0.5l0,0.2c-0.7-0.5-1.4,0.4-2.1,1l-4.4,4.2l-0.4-0.2
	L25.6,129.7L25.6,129.7z M19.9,130.8c-0.2,0.4-0.6,1.1-0.6,1.5c-0.2,0.4,0.2,0.5,0.6,0.9l-0.2,0.2c-0.4-0.3-0.7-0.5-1.3-0.8
	c-0.4-0.1-0.7-0.5-1.1-0.6l0-0.4c0.4,0.2,0.7,0.5,0.9,0.1c0.3-0.2,0.9-0.9,1-1.3l1.6-2.8c0.2-0.4,0.7-1.1,0.8-1.3
	c0.2-0.5-0.2-0.7-0.6-0.9l0.2-0.2c0.4,0.3,0.9,0.5,1.3,0.8c0.4,0.2,0.7,0.5,1.1,0.7c0.9,0.5,1.7,1.5,0.9,2.8
	c-0.8,1.5-2.3,1.2-3.2,0.5c-0.2,0-0.6-0.3-0.6-0.3L19.9,130.8L19.9,130.8z M15.9,124.5c0.2-0.4,0.7-1.1,0.8-1.3
	c0.1-0.5-0.2-0.7-0.6-0.9l0.3-0.2l3.9,2.5l-1,1.5l-0.2-0.2c0.7-1.1,0.3-1.4-0.6-2.1l-0.6-0.3c-0.2-0.2-0.2-0.2-0.5,0.2l-1.5,2.4
	c1.1,0.8,1.6,0.3,2.1-0.3l0.2,0c-0.3,0.6-0.7,0.9-0.8,1.3c-0.3,0.6-0.5,0.9-0.8,1.3l-0.2-0.2c0.7-1.1,0.3-1.4-0.6-1.9l-1,1.7
	c-0.2,0.4-0.5,0.7-0.5,1.1c0,0.5,0.4,0.9,0.8,1c0.9,0.5,1.5,0.6,2.3-0.3l0.2,0l-1,1.6l-4.5-3l0.2-0.2c0.2,0.2,0.6,0.3,0.9,0.1
	c0.2-0.2,0.7-0.9,1-1.3L15.9,124.5L15.9,124.5z M11.6,126.9c0,0.5,0,0.7,0.4,1.1l-0.2,0.2c-0.2-0.2-0.4-0.3-0.6-0.5
	c-0.2-0.2-0.6-0.1-0.7-0.3l0.1-0.9l0-2.8c0-0.5,0-0.5-0.4-0.9l-0.8,1.1c-0.2,0.4-0.7,1.1-0.8,1.5c0,0.4,0.2,0.5,0.6,0.7l-0.2,0.2
	c-0.4-0.2-0.7-0.5-1.1-0.7c-0.4-0.3-0.8-0.7-1.3-0.8l0.2-0.2c0.4,0.2,0.6,0.3,0.9,0.1c0.4-0.2,0.9-0.9,1-1.3l1.8-2.8
	c0.2-0.2,0.7-0.9,0.8-1.3c0.2-0.4-0.2-0.5-0.4-0.7l0-0.4c0.6,0.3,0.9,0.7,1.5,1c0.4,0.2,0.7,0.5,0.9,0.7c0.9,0.7,1.7,1.5,0.9,2.8
	c-0.8,1.1-1.7,1.2-2.6,0.7L11.6,126.9L11.6,126.9z M62.9,129.3l-1.5-2.8l-0.5,3L62.9,129.3L62.9,129.3z M40,134.5
	c0.2,0.3,0.2,0.9,0.4,1.2c0.2,0.3,0.5,0.3,0.9,0.3c0.7-0.2,1-0.9,0.8-1.8c0-0.7-0.4-1-0.7-1.4c-0.5-0.2-0.9,0-1.2,0l-0.3,0L40,134.5
	L40,134.5z M39.8,132.4l0.2,0c0.3-0.2,0.7-0.2,0.9-0.4c0.3-0.4,0.3-0.9,0.3-1.4c-0.2-0.9-0.6-1.2-1.2-1.2c-0.2,0.2-0.5,0.2-0.5,0.2
	l0,0.5L39.8,132.4L39.8,132.4z M34.3,135.3c0,0.3,0.2,1,0.4,1.4c0.2,0.3,0.5,0.3,0.9,0.1c0.9,0,1.2-0.7,1-1.8
	c-0.2-0.5-0.4-1-0.9-1.2c-0.3-0.2-0.9-0.1-1.4,0l-0.2,0C34.1,134,34.3,135.3,34.3,135.3z M33.9,133.4l0.3-0.2c0.3,0,0.7,0,0.9-0.4
	c0.3-0.4,0.3-0.7,0.3-1.2c-0.2-0.9-0.6-1.4-1.4-1.2c0,0-0.3,0-0.5,0.2l0,0.3L33.9,133.4L33.9,133.4z M60.7,130.4
	c0,0.5-0.3,1.4-0.1,1.7c0,0.5,0.5,0.3,0.9,0.3l0,0.4c-0.4,0-0.7,0-1.1,0c-0.3,0.2-0.7,0.2-1,0.2l0-0.2c0.5-0.2,0.7-0.4,0.9-0.9
	c0.2-0.9,0.1-1.6,0.3-2.3l0.8-4.7l0.3,0l2.8,5.3c0.2,0.3,0.5,0.9,0.7,1.2c0.2,0.2,0.5,0.2,0.9,0.2l0,0.3c-0.3,0-0.9,0-1.2,0.2
	c-0.5,0-1,0.2-1.4,0.2l0-0.2c0.2-0.2,0.7-0.2,0.5-0.7c0-0.2-0.2-0.5-0.2-0.7l-0.7-1.2l-2.3,0.4L60.7,130.4L60.7,130.4z M57.4,125.9
	l0.2,0l0.4,2.3l-0.2,0c-0.4-1.2-1.3-2.1-2.3-1.9c-1.8,0.2-1.9,2.3-1.7,4.1c0.4,1.7,1.1,3.5,2.9,3.2c1.2-0.4,1.5-1.4,1.5-2.8l0.2-0.2
	l0.4,2.6l-0.4-0.5c-0.5,0.7-1.2,0.9-1.9,1.1c-1.9,0.4-3.5-0.9-3.9-3.2c-0.2-2.3,0.8-4.2,2.7-4.4c0.9-0.2,1.4,0,2.1,0.3
	C57.4,126.4,57.4,125.9,57.4,125.9z M50.2,129.2c0-0.4-0.2-1-0.2-1.4c-0.4-0.3-0.7-0.3-0.9-0.3l-0.2-0.2c0.5-0.2,1.1-0.2,1.4-0.2
	c0.5,0,1-0.2,1.4-0.2l0,0.2c-0.2,0-0.5,0.2-0.7,0.5c0,0.4,0,1,0.2,1.4l0.4,3.3c0,0.3,0.2,1.2,0.4,1.4c0.2,0.3,0.5,0.3,0.9,0.3l0,0.4
	c-0.5,0-0.9,0-1.4,0c-0.3,0.2-0.9,0.2-1.4,0.2l0-0.2c0.4,0,0.7,0,0.7-0.5c0.2-0.4,0-1,0-1.4L50.2,129.2L50.2,129.2z M44.1,130.4
	c0-0.4-0.2-1.2-0.2-1.6c-0.2-0.3-0.7-0.3-0.9-0.1l-0.2-0.3c0.5,0,1.1,0,1.4-0.2c0.5,0,1.1,0,1.4-0.2l0.2,0.3c-0.3,0-0.7,0-0.9,0.4
	c0,0.3,0.2,1.2,0.2,1.6l0.4,3.3c0.2,1.4,0.6,1.7,1.8,1.5c0.3-0.2,0.9-0.2,1.2-0.6c0.3-0.4,0.3-0.9,0.3-1.4l0.3-0.2l0.2,2.1l-0.5,0
	c-1.6,0.2-3.3,0.6-4.9,0.8l0-0.2c0.3-0.2,0.7-0.2,0.7-0.5c0.2-0.4,0-1.2,0-1.6L44.1,130.4L44.1,130.4z M38.5,131.4
	c0-0.4-0.2-1.2-0.4-1.4c-0.2-0.3-0.5-0.3-0.9-0.3l0-0.2c0.5-0.2,0.9-0.2,1.4-0.2c0.3,0,0.7-0.2,1-0.2c1-0.2,2.3-0.1,2.5,1.3
	c0.2,1-0.5,1.6-1.2,2c0.5,0,1.1,0,1.4,0.3c0.5,0.3,0.9,0.8,1.1,1.4c0,0.9-0.3,1.4-0.7,1.8c-0.5,0.5-1.2,0.6-1.7,0.6
	c-0.2,0.2-0.7,0.2-1,0.2c-0.5,0-1.1,0.2-1.6,0.4l0-0.3c0.2,0,0.7,0,0.7-0.5c0-0.3-0.2-1-0.2-1.4L38.5,131.4L38.5,131.4z M32.6,132.4
	c0-0.3-0.2-1.2-0.2-1.6c-0.2-0.3-0.5-0.3-0.9-0.1l0-0.4c0.3,0,0.9,0,1.2-0.2c0.5,0,0.9,0,1.2-0.2c0.9-0.2,2.3-0.1,2.5,1.5
	c0.2,1-0.3,1.6-1,1.9c0.5,0,1,0,1.4,0.1c0.5,0.3,0.9,0.8,0.9,1.5c0.2,0.7-0.1,1.2-0.7,1.8c-0.3,0.4-1,0.5-1.6,0.6
	c-0.5,0-0.9,0-1.2,0.2c-0.7,0-1,0.2-1.8,0.2l0-0.2c0.3-0.2,0.7-0.2,0.9-0.6c0-0.3-0.2-1.2-0.2-1.6L32.6,132.4L32.6,132.4z
	 M92.1,133.3l-0.5-3.2l-1.4,2.9L92.1,133.3L92.1,133.3z M104,132.5c0-0.4-0.2-1.2-0.2-1.4c-0.2-0.5-0.5-0.4-0.9-0.4v-0.4h1.4
	c0.3,0,0.9-0.2,1.4-0.2v0.4c-0.3,0-0.7,0-0.9,0.4v1.6l0.3,3.2c0,0.4,0,1.2,0.2,1.6c0.2,0.4,0.5,0.4,0.9,0.4v0.2h-1.4
	c-0.5,0.2-0.9,0.2-1.4,0.2v-0.2c0.2,0,0.7,0,0.7-0.5c0.2-0.4,0-1.1,0-1.4L104,132.5L104,132.5z M97,131.9c0-0.4,0.2-1.2,0.2-1.6
	c-0.2-0.3-0.5-0.5-0.9-0.5l0.2-0.2c0.3,0,0.9,0.2,1.2,0.2c0.5,0.2,1.1,0.2,1.6,0.2l-0.2,0.4c-0.2,0-0.7-0.2-0.9,0.2
	c-0.2,0.4-0.2,1.2-0.4,1.6l-0.5,3.4c-0.2,1.4,0,1.8,1.1,2c0.5,0,1.1,0.2,1.4,0c0.7-0.4,0.7-0.7,0.9-1.4h0.4l-0.5,2.1
	c0-0.2-0.4-0.2-0.4-0.2c-1.8-0.4-3.4-0.5-5.1-0.9v-0.2c0.3,0,0.7,0,1.1-0.4c0-0.2,0.2-1.1,0.4-1.4L97,131.9L97,131.9z M89.6,133.7
	c-0.2,0.4-0.5,1.2-0.7,1.6c0,0.5,0.5,0.5,0.7,0.7v0.2c-0.4,0-0.7-0.2-1.1-0.2c-0.4,0-0.7-0.2-1.1-0.2l0.2-0.2c0.5,0,0.7-0.2,1.1-0.7
	c0.4-0.7,0.7-1.4,1.1-2.1l2.1-4.3l0.3,0.2l1.1,6.1c0.2,0.4,0.2,1.1,0.4,1.4c0.2,0.4,0.3,0.4,0.7,0.5v0.2c-0.3,0-0.9-0.2-1.4-0.2
	c-0.4-0.2-0.9-0.2-1.4-0.2l0.2-0.4c0.2,0,0.7,0.2,0.7-0.2v-1.1l-0.2-1.2l-2.5-0.4L89.6,133.7L89.6,133.7z M88.9,130.1l-0.2-0.2
	c0.2-1.1-0.2-1.4-1.1-1.6c-0.5,0-1.1-0.2-1.1,0.2l-0.9,5.5c0,0.9,0,1.1,0.9,1.4v0.2c-0.5,0-1.1-0.2-1.6-0.4c-0.5,0-1.1,0-1.6-0.2
	v-0.2c1.1,0,1.3-0.2,1.4-1.1l0.7-5.5c0.2-0.2-0.4-0.4-0.7-0.4c-1.1-0.2-1.4-0.2-1.6,1.2l-0.4-0.2l0.4-1.8l6,1.1L88.9,130.1
	L88.9,130.1z M79.9,128.9c0-0.4,0.2-1.1,0-1.4c0-0.4-0.3-0.5-0.7-0.5v-0.3c0.5,0.2,1.1,0.3,1.4,0.3c0.5,0,1.1,0.2,1.6,0.2l-0.2,0.2
	c-0.2,0-0.7,0-0.9,0.4c-0.2,0.4-0.2,1.1-0.4,1.4l-0.4,3.4c-0.2,0.4-0.2,1.2-0.2,1.4c0,0.5,0.4,0.5,0.7,0.5v0.4
	c-0.5-0.2-0.9-0.2-1.4-0.4c-0.5,0-0.9,0-1.4-0.2V134c0.3,0,0.7,0,0.9-0.4c0.2-0.2,0.4-1.1,0.4-1.4C79.4,132.2,79.9,128.9,79.9,128.9
	z M122.7,123.5l-2.7-1.8l1.1,3L122.7,123.5L122.7,123.5z M110.7,132.1l-2.3-2.1l0.5,3L110.7,132.1L110.7,132.1z M121.3,125.5
	c0,0.5,0.4,1.4,0.5,1.8c0.4,0.4,0.7,0,0.9-0.2l0.2,0.4c-0.2,0.2-0.5,0.4-0.9,0.5c-0.2,0.2-0.5,0.4-0.7,0.7l-0.2-0.4
	c0.4-0.4,0.4-0.5,0.4-1.1c-0.3-0.9-0.5-1.6-0.7-2.3l-1.4-4.6l0.2-0.2l5.2,3.6c0.2,0.2,0.9,0.7,1.1,0.7c0.3,0.2,0.7,0,1.1-0.2v0.4
	c-0.4,0.2-0.7,0.4-1.1,0.7c-0.3,0.4-0.7,0.5-1.1,0.9l-0.2-0.2c0.2-0.2,0.5-0.5,0.3-0.9c-0.2-0.2-0.5-0.3-0.7-0.5l-1.1-0.7l-2,1.4
	L121.3,125.5L121.3,125.5z M112.4,126.8c-0.5-0.2-0.9-0.2-1.2,0.2l-0.2-0.4c0.4-0.2,0.5-0.2,0.7-0.5c0.2,0,0.5-0.2,0.7-0.4l6.9,2.3
	l-2-2.7c-0.4-0.3-0.7-1.1-1.1-1.4c-0.5-0.4-0.7-0.2-1.2,0l-0.2-0.2c0.4-0.2,0.7-0.4,1.1-0.5c0.2-0.4,0.3-0.5,0.7-0.7l0.2,0.2
	c-0.2,0.4-0.5,0.4-0.4,0.9c0.2,0.4,0.9,1.2,1.2,1.8l2.8,3.9l-0.2,0.2c-0.4,0-0.7-0.2-1.1-0.4l-6.4-2.1l2.3,3.2
	c0.2,0.4,0.7,0.9,1.1,1.2c0.4,0.2,0.7,0,1.1-0.2v0.2c-0.2,0.4-0.5,0.5-0.9,0.7c-0.4,0.2-0.5,0.4-0.9,0.7l-0.2-0.2
	c0.4-0.4,0.5-0.5,0.4-1.1c-0.2-0.5-0.5-0.9-0.9-1.3L112.4,126.8L112.4,126.8z M109.1,133.9c0,0.4,0.2,1.3,0.3,1.8
	c0.2,0.4,0.7,0.2,0.9,0l0.2,0.2c-0.4,0.2-0.5,0.4-0.9,0.5c-0.4,0.2-0.7,0.3-0.9,0.5l-0.2-0.2c0.4-0.3,0.5-0.5,0.4-1.2
	c0-0.7-0.2-1.6-0.4-2.3l-0.9-4.8h0.4l4.6,4.1c0.2,0.2,0.7,0.7,1.1,0.9c0.3,0.2,0.7,0,0.9,0l0.2,0.2c-0.4,0.2-0.9,0.4-1.2,0.7
	c-0.3,0.2-0.9,0.4-1.2,0.7l-0.2-0.4c0.4,0,0.7-0.4,0.5-0.7c-0.2-0.2-0.4-0.5-0.7-0.7l-0.9-0.7l-2.1,1.1L109.1,133.9L109.1,133.9z"/>
<g>
	<path class="st0" d="M18.8,83.3c-0.5-1.4-1-3.1-1.2-3.7l-0.1-0.3l4.1-2.3c-0.4-2.1-0.7-4-0.9-5.7l-4.6-0.9l0-0.4c0-1,0-5,0-6l0-0.4
		l4.6-0.9c0.2-1.9,0.5-3.8,0.9-5.7l-2.3-1.3l1.5-0.2l1.7,1l-0.1,0.3c-0.5,2.2-0.8,4.3-1,6.2l0,0.3L17,64.4c0,1.2,0,4,0,5.2l4.5,0.9
		l0,0.3c0.2,1.9,0.5,3.9,1,6.3l0.1,0.3l-4,2.3c0.2,0.6,0.5,1.6,0.8,2.6L18.8,83.3L18.8,83.3z M26.9,96.6c0.4,0.6,0.8,1.1,1,1.4
		l4.2-1.9l0.2,0.2c1.3,1.5,2.8,2.9,4.5,4.5l0.2,0.2l-1.9,4.2c0.9,0.7,3.2,2.4,4.2,3l3.4-3.1l0.3,0.2c1.8,1.1,3.7,2,5.7,2.9l0.3,0.1
		l-0.5,4.6c1.2,0.4,3.8,1.3,5,1.6l2.3-4l0.3,0.1c2.2,0.5,4.3,0.8,6.2,1l0.3,0l0.9,4.5c0.6,0,1.5,0,2.6,0c1.1,0,2,0,2.6,0l0.9-4.5
		l0.3,0c2.3-0.2,4.3-0.6,6.2-1l0.3-0.1l2.3,4c1.2-0.4,3.8-1.2,5-1.6l-0.5-4.6l0.3-0.1c1.9-0.8,3.8-1.8,5.6-2.9l0.3-0.2l3.4,3.1
		c1-0.7,3.2-2.3,4.2-3.1l-1.9-4.2l0.3-0.2c1.7-1.5,3.2-3,4.5-4.5l0.2-0.3l4.2,1.9c0.7-0.9,2.4-3.2,3-4.2l-3.1-3.4l0.2-0.3
		c1.1-1.8,2-3.7,2.9-5.6l0.1-0.3l4.6,0.5c0.4-1.2,1.3-3.8,1.6-4.9l-4-2.3l0.1-0.3c0.5-2.2,0.8-4.3,1-6.2l0-0.3l4.6-0.9
		c0-1.7,0-3.5,0-5.2l-4.6-0.9l0-0.3c-0.2-2.2-0.5-4.3-1-6.2l-0.1-0.3l4-2.3c-0.3-1.2-1.2-3.8-1.6-5l-4.6,0.6l-0.1-0.3
		c-0.8-2-1.8-3.8-2.9-5.7l-0.2-0.3l3.1-3.4c-0.7-1-2.3-3.3-3.1-4.2l-4.2,1.9l-0.2-0.3c-1.4-1.6-2.9-3.1-4.5-4.5l-0.3-0.2l1.9-4.2
		C96.3,28,94,26.3,93,25.6l-3.4,3.1l-0.3-0.2c-1.8-1.1-3.7-2-5.7-2.9l-0.3-0.1l0.5-4.6c-1.1-0.4-3.8-1.3-5-1.6l-2.3,4l-0.3-0.1
		c-2.1-0.5-4.1-0.8-6.2-1l-0.3,0l-0.9-4.5c-0.6,0-1.5,0-2.6,0c-0.9,0-1.7,0-2.6,0l-0.9,4.5l-0.3,0c-2.2,0.2-4.3,0.5-6.2,1l-0.3,0.1
		l-2.3-4c-1.2,0.3-3.8,1.2-4.9,1.6l0.5,4.6l-0.3,0.1c-1.9,0.8-3.8,1.8-5.6,2.9l-0.3,0.2l-3.4-3.1c-0.5,0.3-1.3,0.9-2,1.5l0.1-1.2
		c0.7-0.5,1.4-1,1.7-1.2l0.3-0.2l3.5,3.1c1.7-1,3.4-1.9,5.1-2.6l-0.5-4.6l0.3-0.1c1-0.4,4.8-1.6,5.7-1.9l0.3-0.1l2.3,4
		c1.9-0.4,3.8-0.7,5.7-0.9l0.9-4.5l0.3,0h0l0,0h0l0.3,0h0l0.1,0H64c0.6,0,1.5,0,2.2,0c1.1,0,2.5,0,3,0.1l0.3,0l0.9,4.5
		c1.9,0.2,3.8,0.5,5.7,0.9l2.3-4l0.3,0.1c1,0.2,4.8,1.5,5.8,1.9l0.3,0.1L84.3,25c1.8,0.8,3.5,1.6,5.2,2.6l3.4-3.1l0.3,0.2
		c0.9,0.5,4.1,2.9,4.9,3.6l0.3,0.2l-1.9,4.2c1.4,1.3,2.8,2.6,4.1,4.1l4.2-2l0.2,0.3c0.7,0.8,3,4,3.6,4.9l0.2,0.3l-3.1,3.4
		c1,1.7,1.9,3.4,2.6,5.2l4.6-0.6l0.1,0.3c0.3,0.9,1.6,4.7,1.8,5.7l0.1,0.3l-4,2.3c0.4,1.8,0.7,3.7,0.9,5.7l4.6,0.9l0,0.3
		c0.1,1,0.1,5,0,6l0,0.3l-4.6,0.9c-0.2,1.9-0.5,3.8-0.9,5.7l4,2.3l-0.1,0.3c-0.2,1-1.5,4.8-1.8,5.7l-0.1,0.3l-4.7-0.5
		c-0.8,1.8-1.6,3.5-2.6,5.1l3.1,3.4l-0.2,0.3c-0.6,0.8-2.9,4.1-3.5,4.8l-0.2,0.3l-4.3-1.9c-1.2,1.4-2.5,2.7-4.1,4.1l2,4.2l-0.3,0.2
		c-0.8,0.6-4,3-4.8,3.5l-0.3,0.2l-3.5-3.1c-1.7,1-3.4,1.9-5.1,2.6l0.5,4.6l-0.3,0.1c-0.9,0.3-4.7,1.6-5.7,1.9l-0.3,0.1l-2.3-4.1
		c-1.8,0.4-3.6,0.7-5.7,0.9l-0.9,4.6l-0.4,0c-0.5,0-1.9,0-3,0c-1.1,0-2.4,0-3,0l-0.4,0l-0.9-4.6c-1.9-0.2-3.8-0.5-5.7-0.9l-2.3,4.1
		l-0.3-0.1c-0.9-0.3-4.8-1.5-5.7-1.9l-0.3-0.1l0.5-4.7c-1.8-0.8-3.5-1.6-5.2-2.6l-3.4,3.1l-0.3-0.2c-0.8-0.6-4.1-2.9-4.8-3.5
		l-0.3-0.2l1.9-4.3c-1.4-1.3-2.8-2.6-4.1-4.1l-4.2,1.9l-0.2-0.3c-0.2-0.3-0.6-0.8-1.1-1.5L26.9,96.6L26.9,96.6z"/>
	<path class="st0" d="M66.1,103.9c-5.3,0-10.6-1.1-15.4-3.4l-0.7-0.3l16.1-20.3l15.8,20.4l-0.7,0.3
		C76.5,102.8,71.4,103.9,66.1,103.9z M51.8,99.8c4.5,2,9.4,3,14.3,3c4.8,0,9.6-1,14-2.8l-14-18.2L51.8,99.8L51.8,99.8z M92.8,92.6
		L78.4,71l24.3-8.7l0.1,0.7c1.2,10.6-2.3,21.2-9.6,29L92.8,92.6L92.8,92.6z M80.2,71.6l12.7,19.2c6.5-7.4,9.8-17.1,8.9-26.9
		L80.2,71.6L80.2,71.6z M39.3,92.3l-0.5-0.5c-7.1-7.9-10.5-18.5-9.3-29.1l0.1-0.7l24.3,9L39.3,92.3L39.3,92.3z M30.6,63.5
		c-1,9.8,2.2,19.6,8.6,27l13-19L30.6,63.5L30.6,63.5z M73.8,56.6l-0.7-25.8l0.7,0.1c10.5,2.2,19.5,8.8,24.6,18.1l0.3,0.6L73.8,56.6
		L73.8,56.6z M74.2,32.2l0.7,23L97.1,49C92.1,40.5,83.8,34.4,74.2,32.2L74.2,32.2z M58.6,56.6l-24.8-7.3l0.4-0.6
		c5.3-9.3,14.4-15.8,24.8-17.8l0.7-0.1L58.6,56.6z M35.5,48.6l22,6.5l1-23C49,34.2,40.6,40.1,35.5,48.6L35.5,48.6z"/>
	<path class="st0" d="M66.2,33.5l-7.8,22.2l-0.1,0.3l-0.4,0l-23.6,0.6l18.7,14.3l0.3,0.2l-0.1,0.4l-6.8,22.6l19.4-13.4l0.3-0.2
		l0.3,0.2l19.4,13.4l-6.8-22.6L79,71.2l0.3-0.2l18.7-14.3l-23.5-0.5l-0.4,0L74,55.7C74,55.7,66.2,33.5,66.2,33.5z M57.5,55l8.2-23.3
		l0.5-1.4l0.5,1.4L74.9,55l24.7,0.6l1.5,0l-1.2,0.9l-19.7,15l7.1,23.7l0.4,1.5l-1.2-0.9L66.2,81.8L45.8,95.9l-1.2,0.9l0.4-1.5
		l7.1-23.7l-19.7-15l-1.2-0.9l1.5,0L57.5,55L57.5,55z"/>
	<g>
		<path class="st0" d="M22.7,104.6L22.7,104.6L22.7,104.6z M20.5,100.2l2.1,4.3L20.5,100.2z"/>
	</g>
</g>
</svg>
