<?xml version="1.0" encoding="utf-8"?>
<!-- Generator: Adobe Illustrator 20.1.0, SVG Export Plug-In . SVG Version: 6.00 Build 0)  -->
<svg version="1.1" id="Layer_1" xmlns="http://www.w3.org/2000/svg" xmlns:xlink="http://www.w3.org/1999/xlink" x="0px" y="0px"
	 viewBox="0 0 381.7 149.8" style="enable-background:new 0 0 381.7 149.8;" xml:space="preserve">
<style type="text/css">
	.st0{fill:#0066CC;}
	.st1{fill:#6F7072;}
	.st2{fill:#FFFFFF;}
	.st3{enable-background:new    ;}
</style>
<g>
	<path class="st0" d="M101.3,99.3c0.7,0,1.6,0.3,1.4,0.9s-0.5,1.5-1,1.6s-1.6-0.7-1.6-1.4S100.7,99.3,101.3,99.3L101.3,99.3z"/>
	<path class="st0" d="M43,117.6c0.7,0.4,1.5,0.4,2.2,0l-0.6-0.9l-1.3-1.1c-0.7-0.4-1.2,0-1.7,1L43,117.6L43,117.6z"/>
	<path class="st1" d="M80.8,143.2c-0.2,0.4-0.1,0.7,0.4,1.1c0.5,0.4,0.9,0.4,1.2,0.2L80.8,143.2L80.8,143.2z"/>
	<path class="st2" d="M131.9,70.2c0.4-2.8,0.1-4.6-0.9-5.4c-1.1-0.7-2.3-0.5-3.9,0.7c-0.9-0.5-2.1,0-3.6,1.3
		c0.3-0.7,0.3-1.3,0.1-1.8c1.4-0.6,2.3-1.3,2.6-2.1c0.4-0.8,0.6-2,0.6-3.6c0.2-1,1.1-2.8,2.8-5.4c1.2-2.6,0.3-3.5-2.4-2.7
		c1.5-1.4,2.3-2.6,2.3-3.6c0.1-0.9-0.3-2.2-1.2-3.6c-0.4-0.8-0.9-1-1.7-0.5c0.3-0.5,0.4-1.2,0.4-1.9s-0.5-2.3-1.5-4.7
		c-0.2-3.1-0.9-4.4-2.2-3.9c-0.2-1.6-0.7-3.2-1.6-4.7c-1.3-1.9-2.3-2.4-3-1.5c-2.1-3.1-4-4.3-5.8-3.8c-0.1-1.3-0.5-2.5-1.3-3.6
		c-0.5-2-1.1-3.4-1.7-4.2c-0.9-0.4-1.6,0.2-2,1.6c-0.2-1.2-0.5-2.4-1.1-3.6c-0.6-1.3-1.5-1.9-2.8-2c-0.5-0.1-0.9,0-1.3,0.2
		c-0.8-0.5-1.6-0.8-2.1-0.8c-1.8-1.9-3.4-2.1-4.9-0.5l-0.2-1.7C95,6.5,93.9,6,92.3,7.1c-2.6-2.7-4.8-4.4-6.6-5.3
		c-1.5-0.5-2.5-0.4-3,0.4c-0.8-0.8-1.6-1.3-2.5-1.5S78.5,0.3,77.7,0c-1.2-0.1-1.7,0.6-1.6,2c-1.9,0.1-3.2,0.4-3.9,1
		c-0.7,0.6-0.9,1.3-0.6,2.3s1.1,1.8,2.3,2.4c-0.3,0.4-0.4,0.9-0.4,1.7c0.1,0.8,0.9,1.4,2.5,2c1.2,0.3,2.4,0.3,3.6,0.1
		c-0.3,1.2,0.2,2,1.3,2.3c1.5,1.6,3.4,2,5.7,1.2l-0.3,2l3.1,1.3c0.1,1.5,0.8,2.5,2.1,3.2l1.2,0.5c-0.3,0-1.4,1-1.4,1.1
		c-0.3,0.3-0.9,1.7,0.7,2.1c1.3,0.1,2.6,0.3,3.9,0.2c0,0.4,0.3,1,0.5,1.5s0.8,1.2,1.7,2.2c0.9,0.9,2.5,1.8,3.8,2.4
		c-0.1,0.1-0.5,1.1-0.8,2.1c-0.4,1.2-0.6,3,0.2,4c-0.2-0.1-0.9,0.4-1.2,0.9c-1,1.5,1.1,3.7,1.5,4.5c-0.2,0-0.8,0.3-1.1,0.5
		c-0.7,0.5-0.5,3.1,1.6,3.6c0.5,0.3,2.9,1.6,4.1,2.9c0.2,0.2,0.9,1.5,1.9,2.8c0.5,0.7,1,1.8,2.3,1.8c1.1,3.7,3,7.2,5.3,10.7
		c0,0.1,2.1,2.3,2.8,4.3c-0.3,1.3-0.2,2.4-0.2,2.5c-0.3,2.5-0.7,4.9-1.4,7c-2.2-1.1-2.6,0.4-2.9,1.8c0.1-0.1-1-0.2-1.2,0.3
		c0.1-0.9-1.3-1.6-2-1.2c0,0-0.7,0.5-1.2,0.8c-0.1,0.1-0.3-0.7-0.3-1.3c0-0.4-0.1-1.9,0.2-2.5c0-0.1,0.6-0.7,0.9-1.3
		c0.7-1.2,0.2-4.9-0.6-7.5c-0.2-0.8-0.8-1.2-1.2-1.3c-0.2-0.1-1.4,0-1.6,0.9c-0.1-0.5-0.9-0.8-1.5-1c-1.7-0.4-3.6,2.9-3.4,6
		c-1.3-1-2.9-0.7-2.7,1c0.3,2.4,3.9,6.7,4,8.6c-1.1-1-3.6-1-3.6,1.4c0,0.7,0.6,1.9,0.8,2.4c-0.5,2.5,2.4,4.4,4.8,6.7
		c0,1.1,0.3,1.1,0.7,1.6c-0.4,0.7-3.1,4.8-3.1,4.9c-0.1,0.1-2-1-2.6-0.4s-1.2,1.3-1.5,1.8l0.3,2.9c0.2,1.2-0.4,2.6-1.9,4.1
		s-2.5,2.9-3,4.1c-0.3,0.9-1.3,2-3.1,3.1c-0.1-0.3-0.5-0.8-1.3-1.5c-0.1-0.2-0.3-0.3-0.6-0.2c-1.8,0.5-5.4,2.5-10.8,5.2
		c-0.9,0.5-2.3,1.7-4,4.7h-3.1c-0.8-1-1.7-1.6-2.7-2.5c-0.7-0.5-1.9-0.6-3.6,0.3c-1.6-0.4-3.3-0.1-4.9,0.9c-1,0.4-1.7,0.4-2.2,0.2
		l-3.9-4.2c-8-3.4-12.4-4.9-13.1-4.5c-0.8,0.5-1.4,1.1-1.7,2c-0.8-0.4-2-1.4-3.6-3l-2.4-2.8c-1.8-2-2.5-3.9-2.2-5.7l0.4-2.4
		c0.1-0.4,0-0.7-0.2-0.9c-0.6-0.6-1.6-1-2.1-1.1c-0.1,0-0.5-0.2-0.8,1.3c0.1,0.3-2.5-3.5-2.6-3.6c0.7-0.8,2-3,2.7-5.6
		c0.8-3,1.2-6.2,1.2-7.5c0.1-0.2,0.2-0.3,0.3-0.4c1.2-0.9,2.8-9.7,2.4-11.8c-0.2-0.8-0.4-1.3-0.6-1.3s-0.5,0-0.7,0.2l0.5-0.9
		c0.3-0.7,0.3-1.1,0-1.3c-0.2-0.2-1.6-0.1-2.8,0.5c-0.2-1.4-0.8-3.4-1.1-4.1c-0.1-0.2-0.5,0-0.5,0c-2.2,1.3-3.2,4.3-4,7.9l-0.6,0.6
		c-2.8,3.6-5.1,7.7-6.1,12.3c-0.5-0.7-0.7-1.8-1.2-3.2c-0.4-1.4-0.6-2.3-0.4-2.8c0.4-0.7,0.3-1.4-0.4-2.1c-0.5-0.5-1.2-2.9-2.1-7.1
		c0.1-1.1,0.5-2.8,1.3-5s2.3-5,4.1-8.2c0.1-0.1,0.9-1,1.2-1.1c2.7-0.7,14.9-16.4,13.6-23.7c-0.2,0.9,5.2-8.6,5.7-10.6l0.7-0.2
		l0.8-0.3c2.6-1.1,4.9-2.2,6.9-3.1l3.2-1.7c2.2-0.9,4.3-2.2,6.3-3.9C58.3,11,59.4,9,59.6,7c-0.4-0.8-1.4-1.1-3.2-1.1
		c0.9-1.1,1.4-2.2,1.5-3.3c-0.7-0.9-2.7-1.1-6.2-0.5C48.1,3,45,4.4,42.3,6.3c-2.7,1.7-5.2,3.9-7.4,6.4s-3.9,5.1-5.2,7.8l1.6-3.6
		c0.8-1.7,1.6-3.8,2.5-6.1c0.3-1.1,0.3-1.9,0-2.4c-0.2-0.6-0.7-0.7-1.5-0.5c-0.8,0.2-2.4,1.3-4.6,3.3c-2.4,2.5-4.6,5.5-6.4,9.2
		c-1.9,3.6-3.1,6.5-3.8,8.6c0.4-2.4,0.3-4.4-0.2-6.1c-0.3-0.7-0.8-0.9-1.7-0.6c-0.8,0.6-1.7,1.4-2.5,2.6s-1.7,2.3-2.4,3.4
		c-0.8,1.1-1.7,2.6-2.8,4.6c-1.1,2-2,4.4-2.8,7.1c-0.8,2.7-1.4,6.4-1.9,10.9c-0.3,2.9-0.1,6,0.6,9.3c0.8,3.3,1.7,5.8,2.5,7.3
		c0.8,1.6,1.6,2.5,2.4,2.8c0.5,1.2,1.1,3.1,1.9,5.8c0.4,1.3,0.6,2.2,0.6,2.9c-0.1,0.7,0.1,1.1,0.5,1.4s0.7,0.8,1,1.6
		c0.7,2.5,1.6,4.9,2.8,7c-0.2,1.2-0.3,2.3-0.3,3.5c-2.5-7.3-4.6-12.8-6.2-16.6c-3.1-6.8-5.4-9.9-7.2-9.3c-1,0.3-1.5,1.1-1.7,2.3
		c-0.1,0.5-0.1,1.7,0,3.6s0.2,4,0.6,6.2c1.6,7,4.3,12.8,8.1,17.5l5.8,6.8c1.2,1.2,2.3,2,3.3,2.6c1.1,0.6,2,0.7,2.9,0.4
		c1.3,2.1,3,4.3,5,6.6c1.3,1.9,2.6,2.9,3.9,2.8c0.6,1.3,1.4,1.9,2.6,1.9l1.2-0.2c1.6,1.6,3.1,2.8,4.4,3.8l-1.5,4.3
		c-2.6,0.4-5.1,0.6-7.3,0.6c-2.1-1.5-4.9-3.5-8.7-6l-0.2-4.7c-0.1-1.6,0.2-3,0.9-4.1c0.2-0.9-0.3-1.7-1.5-2.4
		c-1.7-0.8-2.5-1.2-3.2-1c-0.3,0.1-0.1,0.4-0.1,0.9v0.3c0-0.2,0.1-0.3,0.4-0.2c2.2,0.6,3.2,1.3,3,2.2c-0.7,1.2-1,2.5-1,3.9l0.1,4.1
		c-2.8-1.8-5.8-3.5-9-4.9c0.4-0.1,0.8-0.1,1.3-0.1s0.8-0.2,0.9-0.5c0.2-0.3-0.1-0.5-0.9-0.6c-1.6,0-2.7,0.1-3.2,0.4
		c-0.4,0.4-0.3,0.9,0.2,1.3c3.8,1.9,7.1,3.8,10,5.7c4.6,2.9,8.1,5.3,10.7,7.1c2.5-0.1,5.9-0.4,10.4-1l6.8-1.3c2.8-0.5,5.7-1,8.7-1.3
		c1.1-0.2,2.5-0.3,4.2-0.3c1.7-0.1,3.2-0.2,4.7-0.4c1.4,2.6,2.2,4.8,2.5,6.8c0.2,1,0,1.6-0.4,1.7c-6.3,2.3-10.8,3.8-13.5,4.4
		c-2.7,0.6-5.2,1.1-7.4,1.6c-5.5,1-11,1.8-16.3,2.4c-1.4-0.4-5.3-2.4-11.8-6.1c-4.6-2.8-7.9-5.1-9.7-6.8c-2.1-2.3-2.9-3.6-2.5-4.1
		c1.4-2.3,2.3-4.3,2.8-6c0.2-0.7,0.3-1.3,0.2-1.7c-0.6-1.8-0.2-2.7,1.3-2.8c3.5-0.2,5.9-0.3,7.1-0.2c0.5,0.1,0.9-0.1,1-0.5l1.2-2.4
		l-0.8-0.3l-1,1.6v-1.6v2.1l-8,0.2c-0.7,0-1.5,0.3-1.9,0.8s-0.6,1.6-0.2,3.2c0.1,0.6,0,1.1-0.1,1.5c-0.4,1.7-1.4,3.7-3,6.2
		c-0.2,0.4-0.1,0.9,0.3,1.7c0.4,0.7,1.4,1.9,3,3.5c0.7,0.7,1.7,1.5,3.1,2.5s3.9,2.5,7.4,4.6c4.2,2.5,8.1,4.5,11.9,6.2
		c0.8,0.1,6.1-0.7,15.8-2.1l0.1,0.9c-2.8,2.1-4.6,3-5.4,2.6c-1.1,0.1-1.4,0.9-1,2.5c0.3,0.7,0.9,1.2,1.7,1.4l1,1.2l2.9,1.7
		c1.1,0.3,2.2,0.3,3.2,0c0.9-0.4,1.6-1.2,1.9-2.4l0.3-0.3l3.2-3.2l2.3-1.7c1.8-0.3,2.9-0.9,3.5-1.9c0.1-0.8,0.3-1.4,0.7-1.6l2.8-1.9
		c0.1-0.3,1.2,0.2,3.4,1.3c1.1,0.3,2,0.2,2.8-0.2l2.1-1.2c1.8,0.4,5.1,2.7,9.7,6.9c-0.1,0.5,0.2,1,0.9,1.7c0.4,0.5,1.4,0.9,3,1.2
		l1.1,2.1l1.1,0.4c1.6,0.1,3.2-0.5,4.6-1.7l1.7-0.6c0.9-0.7,1.3-1.4,1.2-2.1l-0.7-0.7l-1.5-0.4c-1.9-0.9-3.8-2.1-5.8-3.6l-1.3-0.9
		c5.7,1,12.9,1.8,21.4,2.4c1.1,0.2,2.5-0.3,4.2-1.6c1.8-1.3,7.1-5.1,16-11.4c1.3-1.4,2.4-3.1,3.2-4.9c-0.8-0.7-1.5-1.8-2.1-3.2
		c-0.6-1.4-1-2.5-1.1-3.5c-0.2-0.9-0.2-1.7-0.1-2.4c0.2-0.7-0.1-1.4-0.7-2c-0.3-0.4-0.9-0.6-1.8-0.7c-1.7-0.2-3.6-0.1-5.7,0.1
		c-1-0.1-1.6-0.3-1.7-0.7l0.1-1.9c0.2-0.8-0.1-1.2-0.7-1.1c-2.3,0.6-3.7,1.2-4.2,1.7c-0.7,0.7-0.7,1.5,0.1,2.4
		c0.6,0.5,0.9,1.1,0.9,1.8c-0.3,3.5-0.6,5.8-0.9,7c-3.8,3.1-6.4,4.9-7.8,5.6c-1.1,0.4-3.6,0.2-7.4-0.5c-0.8-0.7-1.4-2-1.8-3.8
		c1.3-0.8,2.7-1.7,4.2-2.8c1-0.2,1.8-0.4,2.5-0.6s1-0.9,1-1.9c0.7-0.3,1.2-0.8,1.5-1.7l4.6-5.5c1.5-1.3,3.1-2,4.8-2.2
		c2.1-0.2,4.8-1.3,8.2-3.6c0.5-0.6,0.5-1.4,0-2.4c1-0.6,2.6-2.2,4.9-4.9c0.9-1.3,1.1-2.7,0.6-4.2c2.1-2.5,3.3-4.5,3.6-6
		c0.2-1.3,0.2-2.7-0.1-4.3c1-0.6,1.7-1.2,2.1-1.6c0.4-0.4,0.6-1.1,0.6-1.9s-0.3-1.4-0.9-2C132.8,73.9,133,71.9,131.9,70.2z
		 M58.3,7.2c0,1-0.5,2.1-1.7,3.3c-1.8,1.7-4,3.2-6.8,4.7c-2.8,1.4-6.5,3.1-10.5,5.1v-0.5c5-4,10-7.3,14.6-9.8
		c1.2-0.7,0.7-0.9-0.7-0.6c-1.6,0.8-3.3,1.8-5.2,2.9c-3.2,2.1-6.2,4.1-9.2,6.1l0.1-0.9c6-5.3,10.9-8.7,14.8-10.2
		C55.6,6.8,57.2,6.8,58.3,7.2z M40.4,9.1c2.9-2.4,6.3-4.2,10.3-5.5c1.9-0.6,3.6-0.8,5-0.7c0.7,0.2,0.9,0.6,0.6,1.2l-1.7,2.3
		c-1.6,0.1-3.7,1-6.3,2.5c-2.7,1.5-5.5,3.6-8.6,6.1l-1.1,0.7c-0.6-0.4-1.6-0.2-3.2,0.6c4.8-4.1,9.1-7.1,12.6-9.2
		c2.3-1.2,3.7-2,4-2.4c-1.2,0.3-2.8,1-4.9,2.2s-5.6,3.5-10.4,7.1L32,18.2C34.8,14.4,37.5,11.5,40.4,9.1z M35.5,17.9
		c0.8-0.5,1.4-0.7,1.7-0.6c0.2,0.5,0.3,1.2,0.2,2.2s-0.8,2.9-2.1,5.8L32.4,31c-2.1,0.3-4,1.2-5.8,2.8c0.9-1.6,2.1-3.5,3.4-5.6
		c1.3-2.1,3.4-5.3,6.3-9.5c0.5-0.8,0.5-1,0-0.6c-0.4,0.4-1.6,1.9-3.6,4.5c-1.9,2.6-4.6,6.7-7.8,12.2c-0.9,1.4-3,4.7-6.6,10.1
		l0.4-1.2l4.7-8.4l4.6-8.5C30.3,23,32.7,20,35.5,17.9z M16.2,37.2c2.1-3.4,4.6-8.3,7.6-14.5c0.9-1.8,2.2-3.9,3.9-6.2
		c0.5-1.2,0.2-1.2-0.9,0.1c-2.6,3.2-5.6,8.3-9,15.2l1.5-3.8c0.3-0.8,1.1-2.8,2.5-5.7c1.4-3,2.8-5.3,4.2-7.1s2.3-2.9,2.8-3.4
		c1.9-1.6,3-2.4,3.3-2.3c0.3,0.2,0.3,0.6,0.2,1l-3.9,9.9c-2.5,4.9-5.8,10-9.9,15.3c-1.7,1.9-2.8,3.1-3.2,3.6c-0.4,0.5-0.8,1-1,1.5
		l0.3-1.3L16.2,37.2z M18.3,46.2c-1.1,2.1-1.9,3.9-2.5,5.5l-0.6-0.1l1.7-5.1L18.3,46.2z M12.5,59.6l0.6-2.3l0.5-2.3l1.3-0.2
		l-1.6,4.3l-1.1,3.7L12.5,59.6z M12.1,51c0.4-2.4,0.9-4.5,1.5-6.5l0.6,0.8L12.1,51z M9.1,66.7l-0.3-0.6c-0.3-0.5,0.2-3.6,1.7-9.2
		C10,61.1,9.5,64.4,9.1,66.7z M8,62.2C7.6,60,7.8,55.5,8.8,48.6s2.1-11.9,3.5-14.8c0.7-1.5,0.7-1.8-0.1-0.7
		C9,38.6,7.1,46.7,6.6,57.3c-0.1,3.7,0.1,6.4,0.6,8.1C7.7,67.1,8.3,68,9,68.3c0.4,0.2,0.8,0.2,1.2-0.1c0,0-0.3,1.4-0.2,1.7
		c-1.4-0.6-2.4-1.7-3.1-3.2c-0.6-1.5-1.2-3.5-1.8-5.9s-0.8-5.3-0.7-8.7c0.3-4,0.8-7.9,1.7-11.7c1.3-5.3,4-10.3,8.1-15
		c0.9-1,1.4-1.2,1.7-0.7c0.2,2.1,0.2,4.1,0,6.1s-0.8,4.2-1.5,6.6c-2.1,6.8-3.3,11.4-3.7,13.8C9.8,54.1,8.9,57.8,8,62.2z M10.3,69.8
		v-1.3c2-2.2,1.8-4.2,2.5-6.2l2.8-7.1l3.2-7.5c1.7-3.4,4.2-7.2,7.3-11.5c1.8-2.2,3.5-3.3,4.9-3.5c0.4,0.5,0.4,1.6,0,3.2
		c-0.4,1.6-1,3.3-1.9,5.1C29,41,29,41.1,29,41.1c-3.4,6.3-6.7,10.8-9.9,13.6l5.4-8.8l2.6-4.7c1-1.8,1.2-2.4,0.5-1.9
		c-5.3,8-8.5,13-9.6,15.1s-2.1,4-3.1,5.8s-2,3.2-2.3,4.2S12.3,67.2,10.3,69.8z M31.5,73.1c-0.2,2.4-0.7,5.3-1.6,8.8
		c-0.1-2.9-0.2-4.8-0.4-5.8l0.7-2c0.1-0.7-0.1-0.7-0.4-0.1l-0.4,0.9l-0.1-1.6l1.2-1.5C31.3,71,31.6,71.4,31.5,73.1z M30.3,68.8
		c0.7-0.2,0.8,0.2,0.4,0.9l-1.5,2.2c-0.1-0.9-0.2-1.7-0.4-2.3C29.3,69.3,29.8,69,30.3,68.8z M24.1,72.5c1.1-4.4,2.2-6.7,3.2-6.9
		c0.6,1.5,1.1,4.4,1.4,8.5c0.4,4.1,0.4,7.9,0,11.2c-0.5,4.2-1.2,7.1-2.1,8.5l-1,2.2c0-3.3,0-5.9,0.1-8s0.2-4.8,0.2-8.2
		c0.1-3.4,0.3-7.3,0.7-11.6c0.2-1.1,0.2-1.3-0.2-0.7c-0.8,4.4-1.3,10-1.5,16.8l-0.1,4.5L24.6,95l-1-1.2c-0.7-3.7-1.1-7.6-0.9-11.6
		C22.8,79.2,23.3,76,24.1,72.5z M17.1,85.7c0.9-3.9,2.9-7.9,6-12c-0.5,2.2-0.8,3.8-0.9,4.8c-2.3,4-4.1,8-5.4,11.9
		c-0.3,1.2-0.6,2.7-0.8,4.3C15.9,92.6,16.2,89.6,17.1,85.7z M22.3,92.3l-1.7-2.2l1.3-3.2C21.7,88.7,21.9,90.5,22.3,92.3z
		 M38.2,124.9l1.1-3.2l3.6,2.4L38.2,124.9z M46.9,123.4l-5.9-3.6l-5.4-3.6l-1-1.3c-0.3-0.4-0.8-0.4-1.3-0.2c-0.6,0.2-1-0.1-1.3-0.9
		c-1.4,0.8-2.9,0.5-4.3-0.9l-2.6-3.2l-2.4-4.2l-0.9-0.6c-0.5,0.3-1.1,0.4-1.7,0.3c-1-0.1-2.2-0.8-3.4-2.1c-0.7-0.7-2.3-3.4-4.7-8.1
		c-3.2-6.1-5.4-10.7-6.6-13.8C4.6,78.6,4,77,3.7,76.3c-0.3-0.7-0.4-0.7-0.3,0c0.1,0.7,0.4,2.1,1.2,4.4c0.7,2.3,2.1,5.6,4.1,10.1
		c1.7,3.6,3.4,6.8,5.1,9.8c-3.9-4.2-6.7-8.2-8.4-11.8c-1.7-3.6-2.9-7-3.5-10.1c-0.3-1.1-0.4-2.8-0.5-5.1c-0.1-2.3,0-3.6,0.1-3.8
		c0.3-0.8,0.6-1.1,1.1-1c0.3,0,1,0.8,2.2,2.2c1.1,1.5,2.7,4.9,4.6,10.1s3.1,8.7,3.6,10.3c0.4,1.6,0.9,3.1,1.3,4.3
		c0.4,1.2,1,2.4,1.6,3.7c0.9,1.9,1.9,3.2,2.8,3.9c1.2,0.9,2.2,1,2.8,0.5l-2.9-5.2c-0.3-0.1-0.6-0.1-0.9,0c-0.1,0-0.1,0-0.1,0l0,0
		c-0.1,0-0.2,0-0.3-0.1c-0.1,0-0.3,0-0.4-0.1c-0.1,0-0.2-0.1-0.2-0.2c-0.1-0.1-0.2-0.1-0.3-0.2c-0.1-0.4-0.1-0.5-0.1-0.6
		s-0.1-0.2-0.1-0.3c0-0.3,0-0.6,0-0.9c0.1-0.9,0.4-2.6,1-4.9c1.2-3.9,2.8-7.8,5-11.6c-0.3,1.7-0.4,3.1-0.4,4.3
		c-1.9,4.4-3.4,7.9-4.3,10.6c-0.5,1.9-0.4,2.9,0.1,2.8l0.6-0.3l-0.4-1.2l0.3-0.9l0.9,1.7l0.6-0.4l0.5,0.7l-0.5,0.7l3.6,5.1l0.9-0.7
		l0.6,0.7c-1.1,1.1-1.5,1.7-1.3,2.1c0.9,1.7,1.8,3.1,2.6,4.2c1.6,2.3,2.9,3,3.9,2c0.3-0.3,0.7-0.2,1.2,0.2c0.5,0.4,1,1.2,1.6,2.4
		l-0.1-1.8l-2.9-2.8l-1.7-3.3c-1.4-1.9-2.3-3.4-2.9-4.5c-0.6-1.1-1.3-2.3-2.2-3.8c-0.9-1.5-1.9-3.1-3.2-5l0.2-0.9l2.5,3.1
		c2.3,2.9,3.9,5.1,4.8,6.6c0.9,1.5,1.5,1.9,1.6,1.1l0.5-1.5l0.7,0.4l-0.5,3.1l-0.2,0.9c-0.1,0.7,0.1,1.2,0.4,1.3
		c0.3,0.1,0.6,0.6,0.9,1.5c0.2,0.5,1,1.6,2.5,3.3c1.5,1.7,3.1,3.1,4.7,4.2c1.7,1.1,3,2.1,4.1,2.8c1.1,0.7,1.6,1.4,1.5,2.1l1.5,0.3
		l-0.4-1.9l0.9-0.2c0.5,0.3,0.9,0.9,1.2,1.7c1.4,1.1,2.6,1.9,3.6,2.5L46.9,123.4z M21,97.7l0.5-0.5l2.2,3.7l-0.2,0.5L21,97.7z
		 M24.7,105.1l0.9-1.1l2.1,2.9l1.2,2.1l0.4,1.2c-0.7-0.4-1.4-0.9-1.9-1.7l-1.3-1.7L24.7,105.1z M52.2,122.4l-3.4-2.4
		c-1.4-1.6-2.4-2.8-3-3.6c-0.6-0.7-1.2-1.3-1.8-1.6c-0.8-0.5-1.5-0.6-2.1-0.5c-0.4,0.1-0.8,0.6-1.2,1.6l-0.2-0.2
		c0.2-0.9,0.5-1.4,1-1.7c0.4-0.2,1-0.2,1.7,0.2L47,116l6.5,2.4c1.6,1.7,2.6,2.8,2.9,3.5C55.1,122.2,53.7,122.3,52.2,122.4z
		 M54.2,138.9c-2.2,2.2-4.7,4.2-7.5,6.2l-0.9-0.3c1.6-1,3.9-2.6,6.9-4.9l1.3-1.5l-0.7-0.1c-1,0.9-2.1,1.8-3.4,2.7
		c-1.3,0.9-2.8,1.8-4.5,2.6l-2.3,1.1l0.4,0.5l1.7,0.2c1,0.6,1.4,1.3,1.3,1.9c-0.5,0.8-1.4,0.9-2.5,0.3l-1.9-1
		c-0.7-0.7-1.4-1.2-2.1-1.4l-0.8-0.6l0.3-0.7l2.4,1h0.7l-0.4-1.5l2.8-1.8c0.7-0.3,1.1-0.7,0.9-1.4l0.2-1.4c1.2,0.3,2.5,0.1,3.9-0.6
		c1.4-0.7,2.8-1,4-1.1C55.1,137.6,55.1,138.2,54.2,138.9z M87.2,15.9l0.2-1.8l-1.5,0.3c-1.4,0.5-2.8,0.1-4.3-1.3
		c-0.9,0.2-1.3-0.2-1.2-1.1c0.4-0.8,0.3-1.2-0.3-1.3l-2.3,0.2c-1.5-0.2-2.4-0.6-2.9-1.3c-0.3-0.5-0.1-1.2,0.6-2
		c-1.4-0.4-2.2-1.1-2.6-1.7s-0.1-1.2,0.6-1.7c0.8-0.4,2.2-0.5,4.2-0.2c-0.5-0.6-0.6-1.2-0.4-1.8c0.1-0.6,1.4-0.3,4.1,1L83,4.1
		c0.4-0.8,1.1-1,2.1-0.7c1.2,0.6,2.3,1.3,3.4,2.1s2.2,2,3.6,3.5c1.1-0.7,1.9-0.6,2.4,0.5l0.2,1.9c-1.2-1.1-2.6-1.2-4.3-0.2l-1.1-0.5
		c-1.5-1.8-2.4-3.2-2.8-4.2C86.2,5.3,86,5.2,86,6.2c0.1,1.1,0.7,2.4,1.9,4c-2.3-0.7-4-1.7-5.1-2.8c-1.1-1.2-1.9-2.1-2.5-2.9
		c-0.6-0.9-0.8-0.9-0.7,0c0.6,1.2,1.5,2.2,2.6,3.2c-0.8-0.4-1.6-0.7-2.4-1.1c-1.8-0.8-3.4-1.2-4.6-1.3c-0.6,0-0.6,0.1-0.1,0.3
		c2.1,0.5,3.5,1,4.5,1.5c1.1,0.4,1.7,0.8,2,1.2c-1.5,0.6-3,0.9-4.6,0.9c-1-0.1-1.4,0-1.3,0.1s0.4,0.2,0.9,0.3c1.9,0.2,3.8,0,5.8-0.6
		c1.4,0.7,3.1,1.4,5,2.1c-1.2,0.3-2.3,0.8-3.4,1.6c-0.4,0.5-0.2,0.6,0.6,0.1c0.8-0.6,2.1-1,3.8-1.2l1.3,0.6c-0.1,1.4,0.2,2.9,1,4.3
		l-0.9,0.3L87.2,15.9z M96.2,24.3c-2.9,0.1-3.5,0-3.7-0.5c-0.1-0.4-0.2-0.7,0.9-1.3l0.5-0.9c-1.7-0.8-3.3-1.7-3.4-3.8l1.4-0.6
		c0.6-0.7,0.6-1.3,0-1.7c-0.6-0.4-0.9-1.3-1-2.9c0.6-1.3,2-1.3,4.3,0c1-1.9,2.2-2.5,3.6-1.7c-1.5,0-2.4,0.7-2.7,2
		c-0.2,0.8-0.2,1.9,0,3.1c-0.5-0.7-1.2-1.4-1.9-1.9c-1.4-0.7-1.7-0.7-0.8,0.2c0.9,0.9,1.7,1.8,2.4,2.8c-1.2,0.9-2.4,1.4-3.8,1.3
		c-0.5,0.2-0.4,0.3,0.2,0.4c0.6,0.2,1.4,0.1,2.2-0.2c-0.1,0.8,0.2,2.2,0.5,3.1c0.5,0.7,1.2,1.4,1.9,1.9C96.7,23.8,96.4,24,96.2,24.3
		z M97.9,25.8c-0.1-0.6,0.5-1,1.7-1.1s1.3-0.4,0.6-1c-1.5-0.5-2.8-1.4-3.8-2.7c-0.7-0.9-0.7-1.5,0-1.9l1.2-0.3l0.6-0.7l-0.7-2.8
		c-0.2-1.4,0.2-2.4,1.2-3c1.4-0.2,2.8,0.2,4.2,1.3c0.1-0.7,0.5-1,1.5-0.7c0.9,0.3,1.8,2.2,2.6,5.9l1.3,0.5c0.4-1,0.8-1.5,1-1.5
		c0.4,0,0.8,0.9,1.3,2.6c1.1,0.9,1.6,2.5,1.5,4.7c-0.7,0.9-1.1,2-1.1,3.3l-0.6-1.4c-0.4-1.6-0.5-3.2-0.5-5c-0.1-0.7-0.1-0.7-0.2,0
		c-0.2,1.5-0.2,2.8-0.1,3.9c-1.4-1.8-2.9-3.5-4.6-5c-0.3-1.2-0.4-2.5-0.3-3.9c-0.2-1.3-0.3-1.6-0.4-0.9c-0.1,1.6-0.1,3.1,0.2,4.4
		c-1.2-1.2-2.6-3-4.3-5.3c-0.4-0.7-0.6-0.9-0.6-0.5c1,1.9,2.1,3.5,3.2,4.7c1.1,1.3,2,2.3,2.7,3c-1.4-0.4-2.6-0.7-3.6-0.8
		c-1-0.1-1.9-0.4-2.8-0.8c-0.8-0.2-0.8,0,0.1,0.6c0.5,0.3,1.4,0.6,2.9,0.9c1.4,0.3,2.8,0.7,4.1,1.3c0.7,0.4,1.6,1.5,2.8,3.2l0.9,2.1
		c-1.5-0.8-3.1-1.3-4.9-1.7c-1.8-0.3-2.8-0.6-3.2-0.9c-1.4-0.6-1.5-0.5-0.5,0.2c0.3,0.3,1.4,0.7,3.4,1.1c1.9,0.4,3.8,1.1,5.6,2.2
		l0.2,0.5c-0.4,0.4-0.5,1-0.4,1.7l0.6,1.6c-0.5-0.6-1.1-0.3-2,0.8c0.3-0.7,0.2-1.3-0.2-1.9c-0.7-1.1-2.5-2.3-5.4-3.6l-0.5,0.9
		C99.9,29.2,98.5,27.8,97.9,25.8z M117.1,65.2c-0.6-0.8-1.3-2.1-2.4-3.8c-1-1.7-1.8-3.1-2.3-4.1c-0.5-1.1-0.6-2.1-0.2-3.2
		c0.3-1.1,0.6-1.9,0.8-2.5c0.2-0.6,0.2-0.7-0.1-0.3c-0.6,1.1-1.1,2.2-1.3,3.2L110,50c0.2-1.8,1.1-4.1,2.8-6.9c0.5-0.9,0.5-1-0.2-0.2
		c-1.6,2.1-2.6,4.2-3.1,6.4l-2.4-5.4c-0.1-1,0.6-2.9,1.9-5.7c0.7-1.5,0.5-1.4-0.5,0.2c-0.8,1.6-1.4,3.1-1.8,4.4
		c-0.7-3-1.4-5.6-2.1-7.7l-0.6-0.2l0.3,0.9c0.4,2.6,1,4.9,1.7,6.9c-1-0.9-2.1-1.6-3.4-2.2c-0.7-0.4-0.7-0.3,0,0.2
		c1.5,0.9,2.7,1.8,3.5,2.7c0.6,1.5,1.2,2.8,1.7,4c-0.9-0.7-2.6-1.5-4.8-2.4c-0.8-0.2-0.8-0.1,0,0.3c2.8,1.2,4.6,2.3,5.3,3.4l1.6,4.2
		c-0.6,0-1.3-0.9-2.3-2.6c-0.8-1.5-2.8-2.9-5.9-4.3c-0.6-0.3-0.9-0.8-0.9-1.7c0.1-0.6,0.7-0.8,1.8-0.7c-0.3-0.9-0.7-1.6-1.1-2.1
		l-0.6-0.9c-0.8-1.7-0.3-2.6,1.5-2.6c-0.7-1.1-0.9-1.9-0.7-2.4c-0.1-1,0.2-2,0.7-2.9c0.3-0.6,0.6-1.3,0.7-1.9c1,0.6,1.9,1.1,2.7,1.5
		c0.8,0.4,1.2,1.1,1.3,2.2l-0.4,2.4c0.2,0.5,0.6,0.3,1.3-0.5c0.7-0.9,1.2-1.5,1.7-1.7c0.6,0.3,1.1,0.7,1.7,1.4
		c0.5,1,0.3,2.8-0.6,5.5l-0.9,2.2c1.8-2.4,3.2-3.5,4.3-3.4c0.4,0.3,0.5,0.8,0.4,1.6s-0.1,1.7,0,2.6c0.1,0.9-0.2,1.7-0.9,2.3
		c-0.7,0.6-1.2,1.7-1.5,3.1c1.7-1.3,2.4-1,2.1,0.7l-0.9,3.4c-0.3,1.6,0,2.4,0.8,2.3c0.8-0.1,1.3,0,1.5,0.3s0.2,0.9,0.1,1.7
		c-0.5,1.1-0.7,1.8-0.6,2.2c0.1,0.3,0.2,0.6,0.4,0.9c0.2,0.2,0.8,0.2,1.5-0.2c0.8-0.3,1.2-0.1,1.2,0.7s0,1.6,0,2.4
		c0,0.8,0.3,1.5,0.8,2.2c0.4,0.5,0.8,0.9,1.4,1l0.7-0.9c-1.1,0.1-1.5-0.6-1.5-2.1c0.1-1.4,0.1-2.5,0-3.3c-0.4-1-0.8-1.6-1.3-1.7
		c-0.4-0.1-1.4-2.7-2.9-7.9l1.7,0.1c1.2,4.4,2.2,6.8,2.9,7.1s1.1,0.7,1,1.2c-0.1,0.4,0.1,1.4,0.4,2.9c0.9-0.3,1.5-1.1,1.7-2.6
		c0.3-1.4-0.1-2.4-1.2-3.2c-1.1-0.6-1.7-1.2-1.9-1.7c-0.3-0.9,0-1.4,1-1.7c0.6-0.3-0.8-1.6-4.2-3.8c-1.7-1.2-2.3-2.3-1.6-3.2
		c0.3-0.5,0.8-0.5,1.5,0s1.2,0.6,1.4,0.4c0.4-0.7,0.1-1.3-0.9-1.5c-0.9-0.3-1.4-0.6-1.3-1c-0.1-1.6,0-2.7,0.1-3.3s0.1-1.3-0.2-2.1
		c-0.6-0.8-1.7-0.8-3.3,0.2c0.4-0.9,0.5-1.8,0.3-2.6s-0.6-1.7-1.2-2.4l-0.8-2.4c-0.2-0.8,0.3-1.4,1.4-1.7c-0.4-1.6-0.4-2.8,0-3.5
		s0.6-1.3,0.8-1.8c0.2-0.5,0.6-0.5,1.4-0.2c0.8,0.4,2.1,1.8,3.8,4.2c0.8-0.9,1.7-0.6,2.4,1c0.9,1.5,1.3,3.2,1.1,5.3
		c1.9-1.1,2.6-0.3,2.1,2.1c0.8,1.7,1.4,3.1,1.5,4.1c0.2,1,0,1.9-0.5,2.7s-0.7,1.5-0.7,1.9s0.2,0.4,0.6,0c0.3-0.5,1-0.9,2.1-1.2
		c0.7,1.5,1,2.4,0.9,2.9c0,0.6-0.4,1.2-1.1,1.9c-0.7,0.7-1.1,1.5-1.2,2.4c0,0.5,0.2,0.7,0.7,0.7l1.4-0.4c0.7-0.1,0.8,0.5,0.1,1.7
		c-0.7,1.4-1.3,2.5-1.6,3.5s-0.5,1.7-0.5,2.3c-0.1,1.2-0.3,1.9-0.6,2.1c0.1-1.5,0.1-3.1-0.1-4.8c-0.2-1.7-0.5-3.5-1-5.6
		c0.4-0.4,1-1.6,1.7-3.7c0.4-1.1,0.3-1.2-0.2-0.4c-0.6,1.6-1.2,2.6-1.7,2.9c-0.6-1.9-1.2-4.3-1.9-7.1c0.8-1.3,1.3-3,1.5-5
		c0.1-1.7-0.1-1.8-0.3-0.4c-0.3,2-0.9,3.6-1.7,4.7c-0.7-2.2-1.4-4.3-2.2-6.2c0.3-1.1,0.4-2.4,0.3-3.9c-0.1-1.5-0.2-1.5-0.4-0.2
		c0,1.1-0.1,2.1-0.4,2.8l-1.7-4.4l-1.1-2.5c-0.4-0.8-0.5-0.8-0.4,0l1,3.3c-0.8-0.9-1.5-1.6-2.2-2s-0.8-0.4-0.4,0.1
		c1.2,1,2.2,2.1,3,3.2c0.7,1.7,1.4,3.4,2.1,5.2c-2-1.7-3.4-2.6-4.2-2.8c-1-0.4-1-0.2,0,0.6c1.4,0.9,3.1,2.5,5.1,4.7
		c0.6,1.8,1.2,3.6,1.8,5.4c-1-0.6-2.2-1.7-3.6-3.5c-0.6-0.6-0.7-0.5-0.1,0.3c1.2,1.7,2.5,3.3,4,4.6l1.2,4.8
		c-1.2-1.2-2.8-2.4-4.7-3.7c-0.8-0.5-0.9-0.4-0.2,0.3c1.7,1.2,3.4,3,5.3,5.4c0.5,1.5,0.8,4.2,0.7,8.1c-0.1,1-0.8,1.7-2.2,2.2
		l-0.3,3.8l-2,0.1C118.5,67.2,117.7,66,117.1,65.2z M119.7,68.9c0.3-0.1,1,0,1.7,0c-0.7,4-1.6,8.4-2.3,11.1l-1.1-0.6
		C119,75.6,119.5,71.3,119.7,68.9z M105.7,91.4c-0.3-0.2-1.2-1-2.6-2.2c-1.3-1.2-1.7-2.2-1.3-3.2c-0.4-0.5-0.7-1-1-1.7
		c-0.3-0.6-0.2-1.2,0.2-1.9c0.4-0.6,1.4-0.3,2.9,0.8c0.3-0.9,0.3-1.7,0-2.5s-0.6-1.6-0.9-2.4c-0.7-1.3-1.3-2.3-2-3.2
		c-0.6-1.2-0.7-1.9-0.4-2.1c0.3-0.2,0.8,0.1,1.5,0.6c1.3-1.4,2.2-1.8,2.6-1.2c0.4,0.6,0.8,1.6,1,3c0.3,1.4,0.3,2.9,0.1,4.4l-0.3,0.3
		l0.3,0.3c0.1,0.3,0,1.5-0.4,3.6c0,0.4,0.1,0.8,0.4,1.3c-0.1-0.6-0.1-1.1-0.1-1.4c0.1-0.3,0.2-0.9,0.5-1.9s0.4-1.5,0.4-1.7
		c0-0.1,0-0.2-0.4-0.3c0.5-0.2,0.6-0.4,0.7-0.7c0.1-0.3,0.2-0.6,0.1-0.9s-0.1-1.1-0.2-2.5c0-1.4-0.2-2.4-0.4-3.1
		c-0.2-0.7-0.4-1.3-0.4-1.7c-0.1-0.4-0.4-0.6-0.9-0.7c-0.6-0.1-1.4,0.5-2.4,1.7c0.5-2.3,1-3.8,1.5-4.5c0.5-0.8,1-1,1.5-0.7
		s0.9,0.7,1,1c0.2,0.4,0.4,0.3,0.7-0.2c0.3-0.5,0.6-0.7,0.8-0.5c0.2,0.2,0.4,0.5,0.7,0.9c0.2,0.5,0.4,1,0.5,1.5s0.2,1.5,0.3,2.9
		c0.1,1.4-0.1,2.3-0.5,2.8s-0.6,1.1-0.6,1.7c0.1,2.7,0.3,4.1,0.6,4.1c0.3,0,0.7-0.2,1.1-0.6s0.8-0.5,1.2-0.4s0.5,0.9,0.6,2.3
		s0.2,1.6,0.4,0.4c0.2-1.1,0.6-1.7,1.2-1.7s0.7,1.5,0.3,4.6c-2.1,1.8-3.5,3.4-4.4,4.6c-0.3-1.3-0.3-2.2,0-2.8s0.6-1.1,0.8-1.8
		c0.2-0.7,0.4-1.3,0.6-1.8c0.4-1.3,0.3-1.4-0.2-0.3c-0.3,0.6-0.6,1.2-0.8,1.7c-0.2,0.5-0.5,0.9-0.8,1.4c-0.1-0.8-0.4-2.3-1-4.5
		c-0.5-1.5-0.6-1.4-0.4,0.1c0.4,2.5,0.7,4.9,0.9,7.2c-0.9-0.9-1.8-1.8-2.7-2.4c-0.9-0.7-1.7-1.4-2.4-2.2c-0.6-0.4-0.7-0.3-0.3,0.2
		c0.6,0.8,1.6,1.8,2.8,3c1.2,1.1,2,1.9,2.3,2.2c0.3,0.4,0.4,0.7,0.5,0.9c-0.5,0.6-1,1.3-1.7,2c-0.4-0.2-0.6-0.6-0.6-1.1
		C106.1,92,106,91.6,105.7,91.4z M77.4,120.3c0.6-0.7,1.4-1.4,2.4-2c4.5-2.2,7.4-3.5,8.9-3.9c0.3-0.1,0.5,0,0.7,0.2l0.6,0.8
		l-0.9,0.6c-0.5,0.4-1.2,0.6-2,0.6c-0.7-0.1-1.6,0.2-2.8,0.7c-1.2,0.5-1.8,1.2-1.9,2.1c-0.2,0.6-0.5,1-0.9,1.2
		c-1.2,0.6-2.2,1.2-3.2,1.7l-2.4-0.2L77.4,120.3z M84.1,122.9h-0.4v-0.2c-0.3,0.1-0.6,0.1-0.9,0.3l-2.6-0.4l2.8-1.4l0.7,1.3
		c0.1-0.1,0.2-0.1,0.4-0.2l-0.4-1.3c-0.3-0.9,0.1-1.7,0.9-2.3c0.8-0.6,1.8-1,2.8-0.8c0.4,0.1,0.4,0.8,0.1,2.2
		c-0.3,0.6-1.4,1.5-3.4,2.4V122.9z M72.6,133.1l-0.4-1.3l-2.1,2.7l-1.7,1.1c-0.8,0.7-1.6,0.9-2.4,0.8l-2.8-1.3l1.4-0.7l0.4,0.3
		c-0.3,0.8,0.1,0.7,0.9-0.3l2.4-2.4c0.2-1.4-0.2-3.2-1-5.5c-0.8-2.3-1.5-3.6-1.9-4.2c-0.1-0.5-1.3-0.6-3.6-0.3
		c1.4-0.7,3-0.7,4.8-0.2l1.9,0.8l1-0.4l-0.1-0.1l-1.8-0.8l0.9,0.1l0.8,0.8l0.2,0.1h-0.1l0.5,0.5c2.7,2.9,4.2,4.9,4.5,5.9
		c0.3,1.1,0.4,2.1,0.1,3.1C73.7,133,73,133.4,72.6,133.1z M91.4,144.4l0.9,0.2L92,145l-2.1,0.6c-0.9,0.8-1.9,1.3-3.2,1.6l-1.3-0.2
		l-0.3-0.9c0.3-0.5,0.7-0.8,1.2-1s1.1-0.4,1.9-0.6l1.9,0.3L91.4,144.4z M88.5,144c-1.4,0-2.3,0.9-2.7,0.9h-1.1
		c-1.5-2-2.7-2.5-3.6-3.4l-3.7-3.1c0.7-0.4,2.2-0.1,4.4,0.5L88.5,144z M99.8,127.5c1.5,0.1,2.7,0.1,3.5-0.2c1.4-0.6,4.3-2.7,8.8-6.5
		c4.3-3.2,7.9-5.4,10.8-6.7c0.9-0.5,0.9-0.9,0.1-1.1c-0.8-0.2-2-0.4-3.7-0.4c-0.5,0.4-0.5,0.8,0.2,1c0.7-0.1,1.3,0,1.6,0.2
		c-3.5,1.8-6.5,3.7-8.8,5.5c0.2-1.2,0.4-3.3,0.6-6.2c-0.1-0.9-0.4-1.8-0.9-2.5c-0.4-0.5,0.1-1,1.5-1.4l1.1-0.3v1.7l-1.5-0.4l0.2,0.8
		c0.3,0.6,0.9,1,1.8,1.2l4.3,0.2l1.9-0.1c2.2,0.1,3.3,0.6,3.2,1.6s0,2,0.2,2.9c0.4,2.3,1.3,4.4,2.7,6.5c-0.3,0.9-1,2.1-2.1,3.3
		l-4.1,2.7c-3.5,2.5-8.3,5.8-14.4,9.9c-4.3,0.1-9.5-0.2-15.6-1c-4.4-0.6-9.4-1.7-15.1-3.3l-1.3-0.3l0.6-0.6c0.9-1.2,1.4-1.9,1.5-2.3
		c0.1-0.4-0.1-1.3-0.4-2.7c-0.3-1.4-1-3-3-4.9v-0.5l1.2-0.2c3.3,0.2,6.2,0.6,8.7,1.3c2.6,0.6,5.6,1.2,9.1,1.7
		C95.8,127,98.3,127.4,99.8,127.5z M93.9,125.4c-1.4-0.2-3.6-0.6-6.6-1.2l2.8-0.9c1.5,0.3,2.3,0,2.5-0.9
		C92.7,123.4,93.2,124.5,93.9,125.4z M110.4,102.1c-1.1,1.2-1.4,2.4-1,3.6c-1.5,0.8-2.9,1.9-4.3,3.5c-1.4,1.5-2.4,2.8-3.1,3.9
		s-1.5,1.7-2.2,1.9c-0.9,0.4-1.9,0.2-3.1-0.6l-0.3,2l-5.3,3.2l-2.6,1.1c0.2-0.5,0.3-1.4,0.4-2.7l0.9-0.8c3.6-1.9,5.7-3.6,6.3-5.2
		c0.7-1.3,1.5-2.4,2.4-3.3c0.8-0.9,1.4-1.9,1.8-3.2l0.1-1.9l-0.2-2c0.8,0.9,1.6,1.2,2.3,0.6c1.1-2.1,2.3-4,3.6-5.7
		c1.3-1.8,2.6-3.4,4-4.9s2.6-2.8,3.6-3.9l-0.1,2c-3.2,3.9-5.1,6.6-5.9,8c-2.7,4.1-4.5,7.3-5.4,9.6c-0.6,1.3-1.4,2.4-2.5,3.2
		c-0.8,0.4-1.5,0.9-1.9,1.3c-0.4,0.7-0.2,0.9,0.6,0.6c0.5-0.5,1.1-0.9,1.7-1.2c1.2-0.6,3.6-3.3,7.4-8.2l-0.1-2.8l0.9-1.5
		c-0.1,1.5,0.1,2.4,0.4,2.5c0.3,0.2,0.8-0.3,1.3-1.3c0.6-1,1.9-3.9,4.1-8.5c-0.5,1.4-0.5,2.7-0.1,3.7c-1.3,0.9-1.6,2.4-1,4.6
		L110.4,102.1z M128.1,84.6c-0.2,1.3-0.6,2.5-1.3,3.4c-2.2,2.5-3.1,3.9-2.7,4.4c0.6,1,0.5,2.1-0.3,3.4c-1.2,1.4-2.7,3-4.6,4.7
		c0.5,1.1,0.1,1.9-1.2,2.7c-1.5,0.8-3.2,1.6-5.1,2.2c3.4-2.6,5.5-5.3,6.3-8.3c1.1-1,2.1-1.7,2.9-2c0.7-0.5,0.9-0.7,0.4-0.6
		c-0.9,0.4-1.9,0.9-3,1.7c1-2,1.7-4.2,2.1-6.5c2.1-2,3.3-3.6,3.9-4.7c0.7-1.1,0.8-1.3,0.1-0.7c-0.8,1.3-2,2.7-3.6,4.2
		c0.7-2.3,1.4-4.8,2-7.6c0.3-1.6,0.2-1.9-0.2-0.9l-0.8,2.8c-0.4-1.1-0.8-1.9-1.3-2.5l1,3.3c-0.2,1.3-0.7,3.2-1.5,5.6
		c-0.7-2.1-1.7-4-2.9-5.7c-1.1-1.4-1.3-1.4-0.6-0.1c1.2,1.7,2.2,4,3,6.9c-0.6,2.5-1.4,4.6-2.2,6.3c-0.6-0.9-1.3-1.6-2-2
		c-0.5-0.3-0.5-0.1,0,0.5c0.7,0.7,1.2,1.4,1.7,2.1c-0.6,1.5-1.5,2.9-2.5,4c-1,1.2-2,2.1-3,2.9c1.3-1.9,1.7-4.1,1.3-6.5
		c0-0.4,0.3-0.8,1-1s0.9-0.6,0.7-0.9c-0.6-1.2-0.9-2.1-0.9-2.8c0.4-0.2,1.1-0.2,1.9,0c0.7-0.5,0.6-1.1-0.2-2
		c-0.8-0.9-1.3-2.1-1.5-3.8c0-0.9,0.6-1.3,1.9-1c0.6-0.1,0.6-0.7,0.2-2.1l-1.3-1.8c-0.9-2.1-0.6-2.9,1.2-2.3l2.1,1.3
		c1.4,0.5,2-0.4,2-2.8c0-0.5,0.4-0.6,1.2-0.4c0.8,0.3,1.6-0.3,2.2-1.9c0.7-0.7,1.2-0.1,1.6,2.1c-0.2,2.8,0.5,4.1,2.1,3.9
		C128.2,82.5,128.3,83.3,128.1,84.6z M130.5,77.8c0.1,0.5,0,1-0.4,1.3c-0.3,0.3-0.9,0.6-1.8,0.9l-0.9-1.6c0.1-1.3-0.4-2.5-1.3-3.6
		c0.4-0.3,0.9-0.7,1.7-1c0.6-0.3,0.5,0-0.3,0.1c-0.8,0.2-1.5,1-2,1h-0.2c0.5-2,1.2-3.6,2.3-5.1c0.3-0.7,0.1-0.8-0.5-0.1
		c-0.9,1.3-1.7,2.5-2.4,3.9c-0.3-0.3-0.6-0.9-0.7-1.8c-0.2-1-0.4-1.1-0.5-0.1c0.2,1.2,0.4,2.1,0.7,2.6c-1.2,1.8-2.1,2.5-2.8,2.1
		c0.4-2.5,1-5.2,1.7-8c1.2-1.2,2.3-1.6,3.2-1.2c1.3-1,2.3-1.2,3.2-0.6c0.5,0.8,0.7,1.6,0.6,2.3c-0.1,0.8-0.3,1.6-0.8,2.6
		c1,0,1.5,0.4,1.6,1.2c-0.4,1.8-1.3,3.1-2.5,3.9C129.8,76.9,130.4,77.3,130.5,77.8z"/>
	<path class="st2" d="M19.9,128.2c0,0.2,0.2,0.2,0.4,0.3c0.7,0.5,1.4,0.3,1.9-0.6c0.7-0.9,0.4-1.6-0.3-2.1c-0.4-0.3-0.4-0.3-0.7,0.2
		L19.9,128.2L19.9,128.2z M9.5,121.2c0.9,0.7,1.5,1.2,2.5-0.1c0.5-0.7,0.5-1.6-0.1-2c-0.2-0.2-0.6-0.3-0.6-0.3
		c-0.2,0-0.2,0.2-0.4,0.2L9.5,121.2L9.5,121.2z M24.5,128.6c0.1-0.7,0.3-1.3-0.3-1.8l0.2-0.2c0.4,0.2,0.8,0.5,1.1,0.7
		c0.4,0.2,0.7,0.5,1.3,0.6l-0.2,0.2c-0.2-0.2-0.7-0.3-0.9,0c-0.2,0.4-0.6,2.2-0.8,2.7l-0.5,3.1l2.2-1.9c0.3-0.4,1.7-1.7,1.9-2.1
		c0.3-0.6,0-0.7-0.2-0.9v-0.3c0.4,0.3,0.7,0.5,0.9,0.7c0.4,0.2,0.7,0.3,0.9,0.5v0.2c-0.7-0.5-1.4,0.4-2.1,1l-4.4,4.2l-0.4-0.2
		L24.5,128.6L24.5,128.6z M18.7,129.7c-0.2,0.4-0.6,1.1-0.6,1.5c-0.2,0.4,0.2,0.5,0.6,0.9l-0.2,0.2c-0.4-0.3-0.7-0.5-1.3-0.8
		c-0.4-0.1-0.7-0.5-1.1-0.6v-0.4c0.4,0.2,0.7,0.5,0.9,0.1c0.3-0.2,0.9-0.9,1-1.3l1.6-2.8c0.2-0.4,0.7-1.1,0.8-1.3
		c0.2-0.5-0.2-0.7-0.6-0.9l0.2-0.2c0.4,0.3,0.9,0.5,1.3,0.8c0.4,0.2,0.7,0.5,1.1,0.7c0.9,0.5,1.7,1.5,0.9,2.8
		c-0.8,1.5-2.3,1.2-3.2,0.5c-0.2,0-0.6-0.3-0.6-0.3L18.7,129.7L18.7,129.7z M14.7,123.4c0.2-0.4,0.7-1.1,0.8-1.3
		c0.2-0.5-0.2-0.7-0.6-0.9l0.3-0.2l3.9,2.5l-1,1.5l-0.2-0.2c0.7-1.1,0.3-1.4-0.6-2.1l-0.6-0.3c-0.2-0.2-0.2-0.2-0.5,0.2l-1.5,2.4
		c1.1,0.8,1.6,0.3,2.1-0.3H17c-0.3,0.6-0.7,0.9-0.8,1.3c-0.3,0.6-0.5,0.9-0.8,1.3l-0.2-0.2c0.7-1.1,0.3-1.4-0.6-1.9l-1,1.7
		c-0.2,0.4-0.5,0.7-0.5,1.1c0,0.5,0.4,0.9,0.8,1c0.9,0.5,1.5,0.6,2.3-0.3h0.2l-1,1.6l-4.5-3l0.2-0.2c0.2,0.2,0.6,0.3,0.9,0.1
		c0.2-0.2,0.7-0.9,1-1.3L14.7,123.4L14.7,123.4z M10.4,125.8c0,0.5,0,0.7,0.4,1.1l-0.2,0.2c-0.2-0.2-0.4-0.3-0.6-0.5
		s-0.6-0.1-0.7-0.3l0.1-0.9v-2.9c0-0.5,0-0.5-0.4-0.9l-0.8,1.1c-0.2,0.4-0.7,1.1-0.8,1.5c0,0.4,0.2,0.5,0.6,0.7l-0.2,0.2
		c-0.4-0.2-0.7-0.5-1.1-0.7c-0.4-0.3-0.8-0.7-1.3-0.8l0.2-0.2c0.4,0.2,0.6,0.3,0.9,0.1c0.4-0.2,0.9-0.9,1-1.3l1.8-2.8
		c0.2-0.2,0.7-0.9,0.8-1.3c0.2-0.4-0.2-0.5-0.4-0.7V117c0.6,0.3,0.9,0.7,1.5,1c0.4,0.2,0.7,0.5,0.9,0.7c0.9,0.7,1.7,1.5,0.9,2.8
		c-0.8,1.1-1.7,1.2-2.6,0.7L10.4,125.8L10.4,125.8z M61.7,128.2l-1.5-2.8l-0.5,3L61.7,128.2L61.7,128.2z M38.8,133.4
		c0.2,0.3,0.2,0.9,0.4,1.2s0.5,0.3,0.9,0.3c0.7-0.2,1-0.9,0.8-1.8c0-0.7-0.4-1-0.7-1.4c-0.5-0.2-0.9,0-1.2,0h-0.3L38.8,133.4
		L38.8,133.4z M38.6,131.3h0.2c0.3-0.2,0.7-0.2,0.9-0.4c0.3-0.4,0.3-0.9,0.3-1.4c-0.2-0.9-0.6-1.2-1.3-1.2c-0.2,0.2-0.5,0.2-0.5,0.2
		s0,0.3,0,0.5L38.6,131.3L38.6,131.3z M33.1,134.2c0,0.3,0.2,1,0.4,1.4c0.2,0.3,0.5,0.3,0.9,0.1c0.9,0,1.2-0.7,1-1.8
		c-0.2-0.5-0.4-1-0.9-1.2c-0.4-0.2-0.9-0.1-1.4,0h-0.2L33.1,134.2L33.1,134.2z M32.7,132.3l0.3-0.2c0.3,0,0.7,0,0.9-0.4
		c0.3-0.4,0.3-0.7,0.3-1.2c-0.2-0.9-0.6-1.4-1.4-1.2c0,0-0.3,0-0.5,0.2v0.3L32.7,132.3L32.7,132.3z M59.5,129.3
		c0,0.5-0.3,1.4-0.1,1.7c0,0.5,0.5,0.3,0.9,0.3v0.4c-0.4,0-0.7,0-1.1,0c-0.3,0.2-0.7,0.2-1,0.2v-0.2c0.5-0.2,0.7-0.4,0.9-0.9
		c0.1-0.9,0.1-1.6,0.3-2.3l0.8-4.7h0.3l2.8,5.3c0.2,0.3,0.5,0.9,0.7,1.2c0.2,0.2,0.5,0.2,0.9,0.2v0.3c-0.3,0-0.9,0-1.2,0.2
		c-0.5,0-1,0.2-1.4,0.2V131c0.2-0.2,0.7-0.2,0.5-0.7c0-0.2-0.2-0.5-0.2-0.7l-0.7-1.2l-2.3,0.4L59.5,129.3L59.5,129.3z M56.2,124.8
		h0.2l0.4,2.3h-0.2c-0.4-1.2-1.3-2.1-2.3-1.9c-1.8,0.2-1.9,2.3-1.7,4.1c0.4,1.7,1.1,3.5,2.9,3.2c1.2-0.4,1.5-1.4,1.5-2.8l0.2-0.2
		l0.4,2.6l-0.4-0.5c-0.5,0.7-1.2,0.9-1.9,1.1c-1.9,0.4-3.5-0.9-3.9-3.2c-0.2-2.3,0.8-4.2,2.7-4.4c0.9-0.2,1.4,0,2.1,0.3V124.8
		L56.2,124.8z M49,128.1c0-0.4-0.2-1-0.2-1.4c-0.4-0.3-0.7-0.3-0.9-0.3l-0.2-0.2c0.5-0.2,1.1-0.2,1.4-0.2c0.5,0,1-0.2,1.4-0.2v0.2
		c-0.2,0-0.5,0.2-0.7,0.5c0,0.4,0,1,0.2,1.4l0.4,3.3c0,0.3,0.2,1.2,0.4,1.4c0.2,0.3,0.5,0.3,0.9,0.3v0.4c-0.5,0-0.9,0-1.4,0
		c-0.3,0.2-0.9,0.2-1.4,0.2v-0.2c0.4,0,0.7,0,0.7-0.5c0.2-0.4,0-1,0-1.4L49,128.1L49,128.1z M42.9,129.3c0-0.4-0.2-1.2-0.2-1.6
		c-0.2-0.3-0.7-0.3-0.9-0.1l-0.2-0.3c0.5,0,1.1,0,1.4-0.2c0.5,0,1.1,0,1.4-0.2l0.2,0.3c-0.3,0-0.7,0-0.9,0.4c0,0.3,0.2,1.2,0.2,1.6
		l0.4,3.3c0.2,1.4,0.6,1.7,1.8,1.5c0.3-0.2,0.9-0.2,1.2-0.6c0.3-0.4,0.3-0.9,0.3-1.4l0.3-0.2l0.4,2.1c-0.2,0-0.3,0-0.5,0
		c-1.6,0.2-3.3,0.6-4.9,0.8v-0.2c0.3-0.2,0.7-0.2,0.7-0.5c0.2-0.4,0-1.2,0-1.6L42.9,129.3L42.9,129.3z M37.3,130.3
		c0-0.4-0.2-1.2-0.4-1.4c-0.2-0.3-0.5-0.3-0.9-0.3v-0.2c0.5-0.2,0.9-0.2,1.4-0.2c0.3,0,0.7-0.2,1-0.2c1-0.2,2.3-0.1,2.5,1.3
		c0.2,1-0.5,1.6-1.2,2c0.5,0,1.1,0,1.4,0.3c0.5,0.3,0.9,0.8,1.1,1.4c0,0.9-0.3,1.4-0.7,1.8c-0.5,0.5-1.2,0.6-1.7,0.6
		c-0.2,0.2-0.7,0.2-1,0.2c-0.5,0-1.1,0.2-1.6,0.4v-0.3c0.2,0,0.7,0,0.7-0.5c0-0.3-0.2-1-0.2-1.4L37.3,130.3L37.3,130.3z M31.4,131.3
		c0-0.3-0.2-1.2-0.2-1.6c-0.2-0.3-0.5-0.3-0.9-0.1v-0.4c0.3,0,0.9,0,1.2-0.2c0.5,0,0.9,0,1.2-0.2c0.9-0.2,2.3-0.1,2.5,1.5
		c0.2,1-0.3,1.6-1,1.9c0.5,0,1,0,1.4,0.2c0.5,0.3,0.9,0.8,0.9,1.5c0.2,0.7-0.1,1.2-0.7,1.8c-0.3,0.4-1,0.5-1.6,0.6
		c-0.5,0-0.9,0-1.2,0.2c-0.7,0-1,0.2-1.8,0.2v-0.2c0.3-0.2,0.7-0.2,0.9-0.5c0-0.3-0.2-1.2-0.2-1.6L31.4,131.3L31.4,131.3z
		 M90.9,132.2l-0.5-3.2l-1.4,2.9L90.9,132.2L90.9,132.2z M102.8,131.4c0-0.4-0.2-1.2-0.2-1.4c-0.2-0.5-0.5-0.4-0.9-0.4v-0.4
		c0.3,0,0.9,0,1.4,0c0.4,0,0.9-0.2,1.4-0.2v0.4c-0.4,0-0.7,0-0.9,0.4c0,0.4,0,1.2,0,1.6l0.4,3.2c0,0.4,0,1.2,0.2,1.6
		c0.2,0.4,0.5,0.4,0.9,0.4v0.2c-0.5,0-0.9,0-1.4,0c-0.5,0.2-0.9,0.2-1.4,0.2v-0.2c0.2,0,0.7,0,0.7-0.5c0.2-0.4,0-1.1,0-1.4
		L102.8,131.4L102.8,131.4z M95.8,130.8c0-0.4,0.2-1.2,0.2-1.6c-0.2-0.4-0.5-0.5-0.9-0.5l0.2-0.2c0.3,0,0.9,0.2,1.2,0.2
		c0.5,0.2,1.1,0.2,1.6,0.2l-0.2,0.4c-0.2,0-0.7-0.2-0.9,0.2c-0.2,0.4-0.2,1.2-0.4,1.6l-0.5,3.4c-0.2,1.4,0,1.8,1.1,2
		c0.5,0,1.1,0.2,1.4,0c0.7-0.4,0.7-0.7,0.9-1.4h0.4l-0.5,2.1c0-0.2-0.4-0.2-0.4-0.2c-1.8-0.4-3.4-0.5-5.1-0.9v-0.2
		c0.3,0,0.7,0,1.1-0.4c0-0.2,0.2-1.1,0.4-1.4L95.8,130.8L95.8,130.8z M88.4,132.6c-0.2,0.4-0.5,1.2-0.7,1.6c0,0.5,0.5,0.5,0.7,0.7
		v0.2c-0.4,0-0.7-0.2-1.1-0.2s-0.7-0.2-1.1-0.2l0.2-0.2c0.5,0,0.7-0.2,1.1-0.7c0.4-0.7,0.7-1.4,1.1-2.1l2.1-4.3l0.4,0.2l1.1,6.1
		c0.2,0.4,0.2,1.1,0.4,1.4c0.2,0.4,0.4,0.4,0.7,0.5v0.2c-0.4,0-0.9-0.2-1.4-0.2c-0.4-0.2-0.9-0.2-1.4-0.2l0.2-0.4
		c0.2,0,0.7,0.2,0.7-0.2s0-0.7,0-1.1l-0.2-1.2l-2.5-0.4L88.4,132.6L88.4,132.6z M87.7,129l-0.2-0.2c0.2-1.1-0.2-1.4-1.1-1.6
		c-0.5,0-1.1-0.2-1.1,0.2l-0.9,5.5c0,0.9,0,1.1,0.9,1.4v0.2c-0.5,0-1.1-0.2-1.6-0.4c-0.5,0-1.1,0-1.6-0.2v-0.2
		c1.1,0,1.3-0.2,1.4-1.1l0.7-5.5c0.2-0.2-0.4-0.4-0.7-0.4c-1.1-0.2-1.4-0.2-1.6,1.2l-0.4-0.2l0.4-1.8l6,1.1L87.7,129L87.7,129z
		 M78.7,127.8c0-0.4,0.2-1.1,0-1.4c0-0.4-0.4-0.5-0.7-0.5v-0.4c0.5,0.2,1.1,0.4,1.4,0.4c0.5,0,1.1,0.2,1.6,0.2l-0.2,0.2
		c-0.2,0-0.7,0-0.9,0.4c-0.2,0.4-0.2,1.1-0.4,1.4l-0.4,3.4c-0.2,0.4-0.2,1.2-0.2,1.4c0,0.5,0.4,0.5,0.7,0.5v0.4
		c-0.5-0.2-0.9-0.2-1.4-0.4c-0.5,0-0.9,0-1.4-0.2v-0.3c0.3,0,0.7,0,0.9-0.4c0.2-0.2,0.4-1.1,0.4-1.4L78.7,127.8L78.7,127.8z
		 M121.5,122.4l-2.7-1.8l1.1,3L121.5,122.4L121.5,122.4z M109.5,131l-2.3-2.1l0.5,3L109.5,131L109.5,131z M120.1,124.4
		c0,0.5,0.4,1.4,0.5,1.8c0.4,0.4,0.7,0,0.9-0.2l0.2,0.4c-0.2,0.2-0.5,0.4-0.9,0.5c-0.2,0.2-0.5,0.4-0.7,0.7l-0.2-0.4
		c0.4-0.4,0.4-0.5,0.4-1.1c-0.4-0.9-0.5-1.6-0.7-2.3l-1.4-4.6l0.2-0.2l5.2,3.6c0.2,0.2,0.9,0.7,1.1,0.7c0.3,0.2,0.7,0,1.1-0.2v0.4
		c-0.4,0.2-0.7,0.4-1.1,0.7c-0.4,0.4-0.7,0.5-1.1,0.9l-0.3-0.2c0.2-0.2,0.5-0.5,0.3-0.9c-0.2-0.2-0.5-0.3-0.7-0.5l-1.1-0.7l-2,1.4
		L120.1,124.4L120.1,124.4z M111.2,125.7c-0.5-0.2-0.9-0.2-1.2,0.2l-0.2-0.4c0.4-0.2,0.5-0.2,0.7-0.5c0.2,0,0.5-0.2,0.7-0.4l6.9,2.3
		l-2-2.7c-0.4-0.3-0.7-1.1-1.1-1.4c-0.5-0.4-0.7-0.2-1.2,0l-0.2-0.2c0.4-0.2,0.7-0.4,1.1-0.5c0.2-0.4,0.3-0.5,0.7-0.7l0.2,0.2
		c-0.2,0.4-0.5,0.4-0.4,0.9c0.2,0.4,0.9,1.2,1.2,1.8l2.8,3.9l-0.2,0.2c-0.4,0-0.7-0.2-1.1-0.4l-6.4-2.1l2.3,3.2
		c0.2,0.4,0.7,0.9,1.1,1.2c0.4,0.2,0.7,0,1.1-0.2v0.2c-0.2,0.4-0.5,0.5-0.9,0.7s-0.5,0.4-0.9,0.7l-0.2-0.2c0.4-0.4,0.5-0.5,0.4-1.1
		c-0.2-0.4-0.5-0.9-0.9-1.3L111.2,125.7L111.2,125.7z M108,132.8c0,0.4,0.2,1.3,0.3,1.8c0.2,0.4,0.7,0.2,0.9,0l0.2,0.2
		c-0.4,0.2-0.5,0.4-0.9,0.5c-0.4,0.2-0.7,0.3-0.9,0.5l-0.2-0.2c0.4-0.3,0.5-0.5,0.4-1.2c0-0.7-0.2-1.6-0.4-2.3l-0.9-4.8h0.4l4.6,4.1
		c0.2,0.2,0.7,0.7,1.1,0.9c0.3,0.2,0.7,0,0.9,0l0.2,0.2c-0.4,0.2-0.9,0.4-1.2,0.7c-0.4,0.2-0.9,0.4-1.2,0.7l-0.2-0.4
		c0.4,0,0.7-0.4,0.5-0.7c-0.2-0.2-0.4-0.5-0.7-0.7l-0.9-0.7l-2.1,1.1L108,132.8L108,132.8z"/>
	<g>
		<path class="st2" d="M17.6,82.2c-0.5-1.4-1-3.1-1.2-3.7l-0.1-0.3l4.1-2.3c-0.4-2.1-0.7-4-0.9-5.7l-4.6-0.9v-0.4c0-1,0-5,0-6v-0.4
			l4.6-0.9c0.2-1.8,0.5-3.7,0.9-5.7l-2.3-1.3l1.5-0.2l1.7,1v0.4c-0.5,2.2-0.8,4.3-1,6.2v0.3l-4.5,0.9c0,1.2,0,4,0,5.2l4.5,0.9v0.3
			c0.2,1.9,0.5,3.9,1,6.3l0.1,0.3l-4,2.3c0.2,0.6,0.5,1.6,0.8,2.6L17.6,82.2z M25.7,95.5c0.4,0.6,0.8,1.1,1,1.4l4.2-1.9l0.2,0.2
			c1.3,1.5,2.8,2.9,4.5,4.5l0.2,0.2l-1.9,4.2c0.9,0.7,3.2,2.4,4.2,3l3.4-3.1l0.3,0.2c1.8,1.1,3.7,2.1,5.7,2.9l0.3,0.1l-0.5,4.7
			c1.2,0.4,3.8,1.3,5,1.6l2.3-4l0.3,0.1c2.2,0.5,4.3,0.8,6.2,1h0.3l0.9,4.5c0.6,0,1.5,0,2.6,0s2,0,2.6,0l0.9-4.5h0.3
			c2.3-0.2,4.3-0.6,6.2-1l0.3-0.1l2.3,4c1.2-0.4,3.8-1.2,5-1.6l-0.5-4.6l0.3-0.1c2-0.9,3.9-1.8,5.6-2.9l0.3-0.2l3.4,3.1
			c1-0.7,3.2-2.3,4.2-3.1l-1.9-4.2l0.3-0.2c1.7-1.5,3.2-3,4.5-4.5l0.2-0.3l4.4,2c0.7-0.9,2.4-3.2,3-4.2l-3.1-3.4l0.2-0.3
			c1.1-1.8,2-3.7,2.9-5.6l0.1-0.3l4.6,0.5c0.4-1.2,1.3-3.8,1.6-4.9l-4-2.3l0.1-0.3c0.5-2.2,0.8-4.3,1-6.2v-0.3l4.6-0.9
			c0-1.2,0-4,0-5.2l-4.6-0.9v-0.3c-0.2-2.2-0.5-4.3-1-6.2l-0.1-0.3l4-2.3c-0.3-1.2-1.2-3.8-1.6-5l-4.6,0.6l-0.1-0.3
			c-0.8-1.9-1.7-3.8-2.9-5.7l-0.2-0.3l3.1-3.4c-0.7-1-2.3-3.3-3.1-4.2L99,37.1l-0.2-0.3c-1.4-1.6-2.9-3.1-4.5-4.5L94,32.1l1.9-4.2
			c-0.9-0.7-3.2-2.4-4.2-3.1l-3.4,3.1L88,27.7c-1.8-1.1-3.7-2.1-5.7-2.9L82,24.7l0.5-4.6c-1.1-0.4-3.8-1.3-5-1.6l-2.3,4l-0.3-0.1
			c-2.1-0.5-4.2-0.8-6.2-1h-0.3l-0.9-4.5c-0.6,0-1.5,0-2.6,0s-2,0-2.6,0l-0.9,4.5h-0.3c-2.2,0.2-4.3,0.5-6.2,1l-0.3,0.1l-2.3-4
			c-1.1,0.3-3.8,1.2-4.9,1.6l0.5,4.6l-0.3,0.1c-1.9,0.8-3.8,1.8-5.6,2.9l-0.3,0.2l-3.4-3.1c-0.5,0.3-1.3,0.9-2,1.5l0.1-1.2
			c0.7-0.5,1.4-1,1.7-1.2l0.3-0.2l3.5,3.1c1.7-1,3.4-1.9,5.1-2.6l-0.7-4.9l0.3-0.1c0.9-0.4,4.7-1.6,5.7-1.9l0.3-0.1l2.3,4
			c1.8-0.4,3.7-0.7,5.7-0.9l0.9-4.5h0.3l0,0l0,0l0,0l0,0l0,0l0,0l0,0l0,0l0,0l0,0l0,0l0,0l0,0h0.3l0,0h0.1l0,0l0,0h0.3
			c0.6,0,1.5,0,2.2,0c1.1,0,2.5,0,3,0.1H68l0.9,4.5c1.9,0.2,3.8,0.5,5.7,0.9l2.3-4l0.3,0.1c1,0.3,4.8,1.5,5.8,1.9l0.3,0.1l-0.2,4.5
			c1.8,0.8,3.5,1.6,5.2,2.6l3.4-3.1l0.3,0.2c0.9,0.5,4.1,2.9,4.9,3.6l0.3,0.2l-1.9,4.2c1.5,1.3,2.8,2.6,4.1,4.1l4.2-2l0.2,0.3
			c0.7,0.8,3,4,3.6,4.9l0.2,0.3l-3.1,3.4c1,1.7,1.9,3.4,2.6,5.2l4.6-0.6l0.1,0.3c0.4,0.9,1.6,4.7,1.8,5.7l0.1,0.3l-4,2.3
			c0.4,1.8,0.7,3.7,0.9,5.7l4.6,0.9v0.3c0.1,1,0.1,5,0,6V69l-4.6,0.9c-0.2,1.8-0.5,3.7-0.9,5.7l4,2.3l-0.1,0.3
			c-0.2,1-1.5,4.8-1.8,5.7l-0.1,0.3l-4.7-0.5c-0.8,1.8-1.6,3.5-2.6,5.1l3.1,3.4l-0.2,0.7c-0.6,0.8-2.9,4.1-3.5,4.8l-0.2,0.3
			l-4.3-1.9c-1.2,1.4-2.5,2.7-4.1,4.1l2,4.2l-0.3,0.2c-0.8,0.6-4,3-4.8,3.5l-0.3,0.2l-3.5-3.1c-1.6,1-3.3,1.9-5.1,2.6l0.5,4.6
			l-0.3,0.1c-0.9,0.3-4.7,1.6-5.7,1.9l-0.3,0.1l-2.3-4.1c-1.8,0.4-3.6,0.7-5.7,0.9l-0.9,4.6h-0.4c-0.5,0-1.9,0-3,0s-2.4,0-3,0h-0.4
			l-0.9-4.6c-1.8-0.2-3.7-0.5-5.7-0.9l-2.3,4.1l-0.3-0.1c-0.9-0.3-4.7-1.5-5.7-1.9l-0.3-0.1l0.5-4.7c-1.8-0.8-3.5-1.6-5.2-2.6
			l-3.4,3.1l-0.3-0.2c-0.8-0.6-4.1-2.9-4.8-3.5l-0.3-0.2l1.9-4.3c-1.5-1.4-2.9-2.7-4.1-4.1l-4.2,1.9l-0.2-0.3
			c-0.2-0.3-0.6-0.8-1.1-1.5L25.7,95.5z"/>
		<path class="st2" d="M64.9,102.8c-5.4,0-10.6-1.1-15.4-3.4l-0.7-0.3l16.1-20.3l15.8,20.4L80,99.5
			C75.4,101.7,70.1,102.8,64.9,102.8z M50.6,98.7c4.5,2,9.3,3,14.3,3c4.8,0,9.6-1,14-2.9l-14-18.2L50.6,98.7z M91.6,91.5L77.3,69.9
			l24.3-8.7l0.1,0.7c1.2,10.6-2.3,21.2-9.6,29L91.6,91.5z M79,70.5l12.7,19.2c6.5-7.4,9.8-17.1,8.9-26.9L79,70.5z M38.1,91.2
			l-0.5-0.5c-7.1-7.9-10.5-18.6-9.3-29.1l0.1-0.7l24.3,9L38.1,91.2z M29.4,62.4c-1,9.8,2.1,19.5,8.6,27l13-19L29.4,62.4z M72.6,55.5
			l-0.7-25.8l0.7,0.1c10.5,2.2,19.5,8.8,24.6,18.1l0.3,0.6L72.6,55.5z M73,31.1l0.7,23l22.2-6.2C90.9,39.4,82.6,33.3,73,31.1z
			 M57.4,55.5l-24.8-7.3l0.4-0.6c5.3-9.3,14.4-15.8,24.8-17.8l0.7-0.1L57.4,55.5z M34.4,47.5l22,6.5l1-23
			C47.8,33.1,39.4,39,34.4,47.5z"/>
		<path class="st2" d="M65,32.4l-7.8,22.2l-0.1,0.3h-0.4l-23.6,0.6l18.7,14.3l0.3,0.2L52,70.4L45.3,93l19.4-13.4l0.3-0.2l0.3,0.2
			L84.7,93l-6.8-22.6L77.8,70l0.3-0.2l18.7-14.3L73.3,55h-0.4l-0.1-0.3L65,32.4L65,32.4z M56.3,53.9l8.2-23.3l0.5-1.4l0.5,1.4
			l8.2,23.3l24.7,0.6h1.5l-1.2,0.9L79,70.4l7.1,23.7l0.4,1.5l-1.2-0.8L65,80.7L44.7,94.8l-1.2,0.9l0.4-1.5L51,70.5l-19.7-15
			l-1.2-0.9h1.5L56.3,53.9L56.3,53.9z"/>
		<g>
			<polygon class="st2" points="21.5,103.4 21.5,103.4 21.5,103.5 			"/>
			<polygon class="st2" points="19.3,99.1 21.5,103.4 21.5,103.4 			"/>
		</g>
	</g>
</g>
<g class="st3">
	<path class="st2" d="M155.6,106.3l19.5-79.2h25.6l19.7,79.2h-13l-4.3-17h-30.4l-4.3,17H155.6z M185.1,37.8l-9.8,40.1h25.3
		l-9.7-40.1H185.1z"/>
	<path class="st2" d="M279.8,114.1c0,12.6-9.1,19-27.4,19c-8.8,0-15.3-1.2-19.5-3.6c-4.2-2.4-6.4-6.7-6.4-13.1
		c0-2.9,0.7-5.3,2.1-7.3c1.4-2,3.6-4.3,6.7-6.7c-2.5-1.7-3.8-4.5-3.8-8.4c0-1.5,1-4,3.1-7.5l1-1.7c-5.6-3.3-8.3-9.1-8.3-17.3
		c0-6.9,2.1-12,6.2-15.3c4.2-3.2,9.8-4.9,16.9-4.9c3.4,0,6.7,0.4,10.1,1.2l1.7,0.3l17.9-0.5v10.2l-9.6-0.6c2.1,2.7,3.1,5.9,3.1,9.5
		c0,7.6-1.9,12.8-5.7,15.7c-3.8,2.9-9.8,4.3-17.9,4.3c-2,0-3.7-0.2-5.1-0.5c-1.1,2.6-1.6,4.6-1.6,6.1c0,1.4,0.7,2.4,2.1,2.9
		c1.4,0.5,4.9,0.8,10.4,0.9c9.2,0.1,15.5,1.3,18.9,3.7C278.1,103,279.8,107.5,279.8,114.1z M238.9,115.3c0,2.7,1.1,4.6,3.2,5.8
		c2.2,1.2,5.9,1.7,11.1,1.7c9.3,0,14-2.7,14-8c0-3-0.8-4.9-2.5-5.7c-1.7-0.8-5-1.3-9.9-1.3l-11.3-0.7c-1.7,1.4-2.9,2.7-3.6,3.9
		C239.2,112.2,238.9,113.6,238.9,115.3z M242.4,75.2c1.7,1.7,4.4,2.5,8.2,2.5c3.8,0,6.5-0.8,8.2-2.5s2.5-4.3,2.5-7.8
		s-0.8-6.1-2.5-7.8s-4.4-2.5-8.2-2.5c-7.1,0-10.6,3.4-10.6,10.3C239.8,71,240.7,73.6,242.4,75.2z"/>
	<path class="st2" d="M291.5,106.3V27.1h12.8v79.2C304.3,106.3,291.5,106.3,291.5,106.3z"/>
	<path class="st2" d="M350,106.3h-27.4V27.1H350c12.2,0,20.5,3.1,25,9.3s6.7,15.8,6.7,29c0,6.7-0.4,12.4-1.3,17.1s-2.4,8.9-4.7,12.7
		C371.3,102.5,362.7,106.3,350,106.3z M368.4,65.3c0-9.6-1.2-16.5-3.6-20.7s-7.3-6.4-14.8-6.4h-14.6v56.7H350
		c7.6,0,12.7-2.8,15.3-8.4c1.2-2.9,2.1-5.9,2.5-9.1C368.2,74.1,368.4,70.1,368.4,65.3z"/>
</g>
</svg>
