<svg width="162" height="163" viewBox="0 0 162 163" fill="none" xmlns="http://www.w3.org/2000/svg">
<g clip-path="url(#clip0_1099_76637)">
<path d="M162 0.519531V162.52H0V0.519531H162ZM96.36 42.9195H68.88V124.52H96.36C103.56 124.52 109.48 123.66 114.12 121.94C118.76 120.22 122.3 117.46 124.74 113.66C127.18 109.86 128.84 105.54 129.72 100.7C130.6 95.8595 131.04 89.7595 131.04 82.3995C131.04 75.0395 130.56 69.0595 129.6 64.4595C128.64 59.8595 126.9 55.8595 124.38 52.4595C121.86 49.0595 118.32 46.6195 113.76 45.1395C109.363 43.7124 103.813 42.9733 97.1095 42.9224L96.36 42.9195ZM96.36 57.3195C100.36 57.3195 103.54 57.7395 105.9 58.5795C108.26 59.4195 110.04 60.9595 111.24 63.1995C112.44 65.4395 113.2 67.9195 113.52 70.6395C113.84 73.3595 114 76.9795 114 81.4995C114 86.0195 113.92 89.5595 113.76 92.1195C113.2 98.5995 111.76 103.08 109.44 105.56C106.72 108.6 102.36 110.12 96.36 110.12H85.44V57.3195H96.36ZM40.0735 63.5195C37.1364 63.5195 34.7173 64.4592 32.8318 66.3505C30.9464 68.248 30 70.6147 30 73.4669C30 76.3202 30.9589 78.7082 32.8579 80.6329C34.7527 82.5556 37.1676 83.5195 40.0985 83.5195C43.0231 83.5195 45.4036 82.5738 47.2443 80.6885C49.0734 78.7941 50 76.4345 50 73.5903C50 70.7502 49.0734 68.3592 47.2443 66.4274C45.4036 64.4865 43.0127 63.5195 40.0735 63.5195Z" fill="white"/>
</g>
<defs>
<clipPath id="clip0_1099_76637">
<rect width="162" height="163" fill="white"/>
</clipPath>
</defs>
</svg>
