<?xml version="1.0" encoding="utf-8"?>
<!-- Generator: Adobe Illustrator 20.1.0, SVG Export Plug-In . SVG Version: 6.00 Build 0)  -->
<svg version="1.1" id="Layer_1" xmlns="http://www.w3.org/2000/svg" xmlns:xlink="http://www.w3.org/1999/xlink" x="0px" y="0px"
	 viewBox="0 0 393 150" style="enable-background:new 0 0 393 150;" xml:space="preserve">
<style type="text/css">
	.st0{fill:#6F7072;}
	.st1{fill:#5A6772;}
	.st2{enable-background:new    ;}
</style>
<g>
	<path class="st0" d="M89.5,144.3c-0.2,0.4-0.1,0.7,0.4,1.1c0.5,0.4,0.9,0.4,1.2,0.2L89.5,144.3L89.5,144.3z"/>
	<path class="st1" d="M140.6,71.3c0.4-2.8,0.1-4.6-0.9-5.4c-1.1-0.7-2.3-0.5-3.9,0.7c-0.9-0.5-2.1,0-3.6,1.3
		c0.3-0.7,0.3-1.3,0.1-1.8c1.4-0.6,2.3-1.3,2.6-2.1c0.4-0.8,0.6-2,0.6-3.6c0.2-1,1.1-2.8,2.8-5.4c1.2-2.6,0.3-3.5-2.4-2.7
		c1.5-1.4,2.3-2.6,2.3-3.6c0.1-0.9-0.3-2.2-1.2-3.6c-0.4-0.8-0.9-1-1.7-0.5c0.3-0.5,0.4-1.2,0.4-1.9s-0.5-2.3-1.5-4.7
		c-0.2-3.1-0.9-4.4-2.2-3.9c-0.2-1.6-0.7-3.2-1.6-4.7c-1.3-1.9-2.3-2.4-3-1.5c-2.1-3.1-4-4.3-5.8-3.8c-0.1-1.3-0.5-2.5-1.3-3.6
		c-0.5-2-1.1-3.4-1.7-4.2c-0.9-0.4-1.6,0.2-2,1.6c-0.2-1.2-0.5-2.4-1.1-3.6c-0.6-1.3-1.5-1.9-2.8-2c-0.5-0.1-0.9,0-1.3,0.2
		c-0.8-0.5-1.6-0.8-2.1-0.8c-1.8-1.9-3.4-2.1-4.9-0.5l-0.2-1.7c-0.5-1.9-1.6-2.4-3.2-1.3c-2.6-2.7-4.8-4.4-6.6-5.3
		c-1.5-0.5-2.5-0.4-3,0.4c-0.8-0.8-1.6-1.3-2.5-1.5s-1.7-0.4-2.5-0.7c-1.2-0.1-1.7,0.6-1.6,2c-1.9,0.1-3.2,0.4-3.9,1
		c-0.7,0.6-0.9,1.3-0.6,2.3s1.1,1.8,2.3,2.4c-0.3,0.4-0.4,0.9-0.4,1.7c0.1,0.8,0.9,1.4,2.5,2c1.2,0.3,2.4,0.3,3.6,0.1
		c-0.3,1.2,0.2,2,1.3,2.3c1.5,1.6,3.4,2,5.7,1.2l-0.3,2l3.1,1.3c0.1,1.5,0.8,2.5,2.1,3.2l1.2,0.5c-0.3,0-1.4,1-1.4,1.1
		c-0.3,0.3-0.9,1.7,0.7,2.1c1.3,0.1,2.6,0.3,3.9,0.2c0,0.4,0.3,1,0.5,1.5s0.8,1.2,1.7,2.2c0.9,0.9,2.5,1.8,3.8,2.4
		c-0.1,0.1-0.5,1.1-0.8,2.1c-0.4,1.2-0.6,3,0.2,4c-0.2-0.1-0.9,0.4-1.2,0.9c-1,1.5,1.1,3.7,1.5,4.5c-0.2,0-0.8,0.3-1.1,0.5
		c-0.7,0.5-0.5,3.1,1.6,3.6c0.5,0.3,2.9,1.6,4.1,2.9c0.2,0.2,0.9,1.5,1.9,2.8c0.5,0.7,1,1.8,2.3,1.8c1.1,3.7,3,7.2,5.3,10.7
		c0,0.1,2.1,2.3,2.8,4.3c-0.3,1.3-0.2,2.4-0.2,2.5c-0.3,2.5-0.7,4.9-1.4,7c-2.2-1.1-2.6,0.4-2.9,1.8c0.1-0.1-1-0.2-1.2,0.3
		c0.1-0.9-1.3-1.6-2-1.2c0,0-0.7,0.5-1.2,0.8c-0.1,0.1-0.3-0.7-0.3-1.3c0-0.4-0.1-1.9,0.2-2.5c0-0.1,0.6-0.7,0.9-1.3
		c0.7-1.2,0.2-4.9-0.6-7.5c-0.2-0.8-0.8-1.2-1.2-1.3c-0.2-0.1-1.4,0-1.6,0.9c-0.1-0.5-0.9-0.8-1.5-1c-1.7-0.4-3.6,2.9-3.4,6
		c-1.3-1-2.9-0.7-2.7,1c0.3,2.4,3.9,6.7,4,8.6c-1.1-1-3.6-1-3.6,1.4c0,0.7,0.6,1.9,0.8,2.4c-0.5,2.5,2.4,4.4,4.8,6.7
		c0,1.1,0.3,1.1,0.7,1.6c-0.4,0.7-3.1,4.8-3.1,4.9c-0.1,0.1-2-1-2.6-0.4s-1.2,1.3-1.5,1.8l0.3,2.9c0.2,1.2-0.4,2.6-1.9,4.1
		s-2.5,2.9-3,4.1c-0.3,0.9-1.3,2-3.1,3.1c-0.1-0.3-0.5-0.8-1.3-1.5c-0.1-0.2-0.3-0.3-0.6-0.2c-1.8,0.5-5.4,2.5-10.8,5.2
		c-0.9,0.5-2.3,1.7-4,4.7h-3.1c-0.8-1-1.7-1.6-2.7-2.5c-0.7-0.5-1.9-0.6-3.6,0.3c-1.6-0.4-3.3-0.1-4.9,0.9c-1,0.4-1.7,0.4-2.2,0.2
		l-3.9-4.2c-8-3.4-12.4-4.9-13.1-4.5c-0.8,0.5-1.4,1.1-1.7,2c-0.8-0.4-2-1.4-3.6-3l-2.4-2.8c-1.8-2-2.5-3.9-2.2-5.7l0.4-2.4
		c0.1-0.4,0-0.7-0.2-0.9c-0.6-0.6-1.6-1-2.1-1.1c-0.1,0-0.5-0.2-0.8,1.3c0.1,0.3-2.5-3.5-2.6-3.6c0.7-0.8,2-3,2.7-5.6
		c0.8-3,1.2-6.2,1.2-7.5c0.1-0.2,0.2-0.3,0.3-0.4c1.2-0.9,2.8-9.7,2.4-11.8c-0.2-0.8-0.4-1.3-0.6-1.3s-0.5,0-0.7,0.2l0.5-0.9
		c0.3-0.7,0.3-1.1,0-1.3c-0.2-0.2-1.6-0.1-2.8,0.5c-0.2-1.4-0.8-3.4-1.1-4.1c-0.1-0.2-0.5,0-0.5,0c-2.2,1.3-3.2,4.3-4,7.9l-0.6,0.6
		c-2.8,3.6-5.1,7.7-6.1,12.3c-0.5-0.7-0.7-1.8-1.2-3.2c-0.4-1.4-0.6-2.3-0.4-2.8c0.4-0.7,0.3-1.4-0.4-2.1c-0.5-0.5-1.2-2.9-2.1-7.1
		c0.1-1.1,0.5-2.8,1.3-5s2.3-5,4.1-8.2c0.1-0.1,0.9-1,1.2-1.1c2.7-0.7,14.9-16.4,13.6-23.7c-0.2,0.9,5.2-8.6,5.7-10.6l0.7-0.2
		l0.8-0.3c2.6-1.1,4.9-2.2,6.9-3.1l3.2-1.7c2.2-0.9,4.3-2.2,6.3-3.9c2.1-1.8,3.2-3.8,3.4-5.8C67.9,7.3,66.9,7,65.1,7
		c0.9-1.1,1.4-2.2,1.5-3.3c-0.7-0.9-2.7-1.1-6.2-0.5c-3.6,0.9-6.7,2.3-9.4,4.2c-2.7,1.7-5.2,3.9-7.4,6.4s-3.9,5.1-5.2,7.8L40,18
		c0.8-1.7,1.6-3.8,2.5-6.1c0.3-1.1,0.3-1.9,0-2.4C42.3,8.9,41.8,8.8,41,9s-2.4,1.3-4.6,3.3c-2.4,2.5-4.6,5.5-6.4,9.2
		c-1.9,3.6-3.1,6.5-3.8,8.6c0.4-2.4,0.3-4.4-0.2-6.1c-0.3-0.7-0.8-0.9-1.7-0.6c-0.8,0.6-1.7,1.4-2.5,2.6s-1.7,2.3-2.4,3.4
		c-0.8,1.1-1.7,2.6-2.8,4.6c-1.1,2-2,4.4-2.8,7.1c-0.8,2.7-1.4,6.4-1.9,10.9c-0.3,2.9-0.1,6,0.6,9.3c0.8,3.3,1.7,5.8,2.5,7.3
		c0.8,1.6,1.6,2.5,2.4,2.8c0.5,1.2,1.1,3.1,1.9,5.8c0.4,1.3,0.6,2.2,0.6,2.9c-0.1,0.7,0.1,1.1,0.5,1.4s0.7,0.8,1,1.6
		c0.7,2.5,1.6,4.9,2.8,7c-0.2,1.2-0.3,2.3-0.3,3.5c-2.5-7.3-4.6-12.8-6.2-16.6c-3.1-6.8-5.4-9.9-7.2-9.3C9.5,68,9,68.8,8.8,70
		c-0.1,0.5-0.1,1.7,0,3.6s0.2,4,0.6,6.2c1.6,7,4.3,12.8,8.1,17.5l5.8,6.8c1.2,1.2,2.3,2,3.3,2.6c1.1,0.6,2,0.7,2.9,0.4
		c1.3,2.1,3,4.3,5,6.6c1.3,1.9,2.6,2.9,3.9,2.8c0.6,1.3,1.4,1.9,2.6,1.9l1.2-0.2c1.6,1.6,3.1,2.8,4.4,3.8l-1.5,4.3
		c-2.6,0.4-5.1,0.6-7.3,0.6c-2.1-1.5-4.9-3.5-8.7-6l-0.2-4.7c-0.1-1.6,0.2-3,0.9-4.1c0.2-0.9-0.3-1.7-1.5-2.4
		c-1.7-0.8-2.5-1.2-3.2-1c-0.3,0.1-0.1,0.4-0.1,0.9v0.3c0-0.2,0.1-0.3,0.4-0.2c2.2,0.6,3.2,1.3,3,2.2c-0.7,1.2-1,2.5-1,3.9l0.1,4.1
		c-2.8-1.8-5.8-3.5-9-4.9c0.4-0.1,0.8-0.1,1.3-0.1s0.8-0.2,0.9-0.5c0.2-0.3-0.1-0.5-0.9-0.6c-1.6,0-2.7,0.1-3.2,0.4
		c-0.4,0.4-0.3,0.9,0.2,1.3c3.8,1.9,7.1,3.8,10,5.7c4.6,2.9,8.1,5.3,10.7,7.1c2.5-0.1,5.9-0.4,10.4-1l6.8-1.3c2.8-0.5,5.7-1,8.7-1.3
		c1.1-0.2,2.5-0.3,4.2-0.3c1.7-0.1,3.2-0.2,4.7-0.4c1.4,2.6,2.2,4.8,2.5,6.8c0.2,1,0,1.6-0.4,1.7c-6.3,2.3-10.8,3.8-13.5,4.4
		c-2.7,0.6-5.2,1.1-7.4,1.6c-5.5,1-11,1.8-16.3,2.4c-1.4-0.4-5.3-2.4-11.8-6.1c-4.6-2.8-7.9-5.1-9.7-6.8c-2.1-2.3-2.9-3.6-2.5-4.1
		c1.4-2.3,2.3-4.3,2.8-6c0.2-0.7,0.3-1.3,0.2-1.7c-0.6-1.8-0.2-2.7,1.3-2.8c3.5-0.2,5.9-0.3,7.1-0.2c0.5,0.1,0.9-0.1,1-0.5l1.2-2.4
		L26,110l-1,1.6V110v2.1l-8,0.2c-0.7,0-1.5,0.3-1.9,0.8s-0.6,1.6-0.2,3.2c0.1,0.6,0,1.1-0.1,1.5c-0.4,1.7-1.4,3.7-3,6.2
		c-0.2,0.4-0.1,0.9,0.3,1.7c0.4,0.7,1.4,1.9,3,3.5c0.7,0.7,1.7,1.5,3.1,2.5s3.9,2.5,7.4,4.6c4.2,2.5,8.1,4.5,11.9,6.2
		c0.8,0.1,6.1-0.7,15.8-2.1l0.1,0.9c-2.8,2.1-4.6,3-5.4,2.6c-1.1,0.1-1.4,0.9-1,2.5c0.3,0.7,0.9,1.2,1.7,1.4l1,1.2l2.9,1.7
		c1.1,0.3,2.2,0.3,3.2,0c0.9-0.4,1.6-1.2,1.9-2.4L58,148l3.2-3.2l2.3-1.7c1.8-0.3,2.9-0.9,3.5-1.9c0.1-0.8,0.3-1.4,0.7-1.6l2.8-1.9
		c0.1-0.3,1.2,0.2,3.4,1.3c1.1,0.3,2,0.2,2.8-0.2l2.1-1.2c1.8,0.4,5.1,2.7,9.7,6.9c-0.1,0.5,0.2,1,0.9,1.7c0.4,0.5,1.4,0.9,3,1.2
		l1.1,2.1l1.1,0.4c1.6,0.1,3.2-0.5,4.6-1.7l1.7-0.6c0.9-0.7,1.3-1.4,1.2-2.1l-0.7-0.7l-1.5-0.4c-1.9-0.9-3.8-2.1-5.8-3.6l-1.3-0.9
		c5.7,1,12.9,1.8,21.4,2.4c1.1,0.2,2.5-0.3,4.2-1.6c1.8-1.3,7.1-5.1,16-11.4c1.3-1.4,2.4-3.1,3.2-4.9c-0.8-0.7-1.5-1.8-2.1-3.2
		c-0.6-1.4-1-2.5-1.1-3.5c-0.2-0.9-0.2-1.7-0.1-2.4c0.2-0.7-0.1-1.4-0.7-2c-0.3-0.4-0.9-0.6-1.8-0.7c-1.7-0.2-3.6-0.1-5.7,0.1
		c-1-0.1-1.6-0.3-1.7-0.7l0.1-1.9c0.2-0.8-0.1-1.2-0.7-1.1c-2.3,0.6-3.7,1.2-4.2,1.7c-0.7,0.7-0.7,1.5,0.1,2.4
		c0.6,0.5,0.9,1.1,0.9,1.8c-0.3,3.5-0.6,5.8-0.9,7c-3.8,3.1-6.4,4.9-7.8,5.6c-1.1,0.4-3.6,0.2-7.4-0.5c-0.8-0.7-1.4-2-1.8-3.8
		c1.3-0.8,2.7-1.7,4.2-2.8c1-0.2,1.8-0.4,2.5-0.6s1-0.9,1-1.9c0.7-0.3,1.2-0.8,1.5-1.7l4.6-5.5c1.5-1.3,3.1-2,4.8-2.2
		c2.1-0.2,4.8-1.3,8.2-3.6c0.5-0.6,0.5-1.4,0-2.4c1-0.6,2.6-2.2,4.9-4.9c0.9-1.3,1.1-2.7,0.6-4.2c2.1-2.5,3.3-4.5,3.6-6
		c0.2-1.3,0.2-2.7-0.1-4.3c1-0.6,1.7-1.2,2.1-1.6c0.4-0.4,0.6-1.1,0.6-1.9s-0.3-1.4-0.9-2C141.5,75,141.7,73,140.6,71.3z M67,8.3
		c0,1-0.5,2.1-1.7,3.3c-1.8,1.7-4,3.2-6.8,4.7c-2.8,1.4-6.5,3.1-10.5,5.1v-0.5c5-4,10-7.3,14.6-9.8c1.2-0.7,0.7-0.9-0.7-0.6
		c-1.6,0.8-3.3,1.8-5.2,2.9c-3.2,2.1-6.2,4.1-9.2,6.1l0.1-0.9c6-5.3,10.9-8.7,14.8-10.2C64.3,7.9,65.9,7.9,67,8.3z M49.1,10.2
		C52,7.8,55.4,6,59.4,4.7c1.9-0.6,3.6-0.8,5-0.7c0.7,0.2,0.9,0.6,0.6,1.2l-1.7,2.3c-1.6,0.1-3.7,1-6.3,2.5c-2.7,1.5-5.5,3.6-8.6,6.1
		l-1.1,0.7c-0.6-0.4-1.6-0.2-3.2,0.6c4.8-4.1,9.1-7.1,12.6-9.2c2.3-1.2,3.7-2,4-2.4c-1.2,0.3-2.8,1-4.9,2.2s-5.6,3.5-10.4,7.1
		l-4.7,4.2C43.5,15.5,46.2,12.6,49.1,10.2z M44.2,19c0.8-0.5,1.4-0.7,1.7-0.6c0.2,0.5,0.3,1.2,0.2,2.2s-0.8,2.9-2.1,5.8l-2.9,5.7
		c-2.1,0.3-4,1.2-5.8,2.8c0.9-1.6,2.1-3.5,3.4-5.6c1.3-2.1,3.4-5.3,6.3-9.5c0.5-0.8,0.5-1,0-0.6c-0.4,0.4-1.6,1.9-3.6,4.5
		c-1.9,2.6-4.6,6.7-7.8,12.2c-0.9,1.4-3,4.7-6.6,10.1l0.4-1.2l4.7-8.4l4.6-8.5C39,24.1,41.4,21.1,44.2,19z M24.9,38.3
		c2.1-3.4,4.6-8.3,7.6-14.5c0.9-1.8,2.2-3.9,3.9-6.2c0.5-1.2,0.2-1.2-0.9,0.1c-2.6,3.2-5.6,8.3-9,15.2l1.5-3.8
		c0.3-0.8,1.1-2.8,2.5-5.7c1.4-3,2.8-5.3,4.2-7.1s2.3-2.9,2.8-3.4c1.9-1.6,3-2.4,3.3-2.3c0.3,0.2,0.3,0.6,0.2,1l-3.9,9.9
		c-2.5,4.9-5.8,10-9.9,15.3c-1.7,1.9-2.8,3.1-3.2,3.6c-0.4,0.5-0.8,1-1,1.5l0.3-1.3L24.9,38.3z M27,47.3c-1.1,2.1-1.9,3.9-2.5,5.5
		l-0.6-0.1l1.7-5.1L27,47.3z M21.2,60.7l0.6-2.3l0.5-2.3l1.3-0.2L22,60.2l-1.1,3.7L21.2,60.7z M20.8,52.1c0.4-2.4,0.9-4.5,1.5-6.5
		l0.6,0.8L20.8,52.1z M17.8,67.8l-0.3-0.6c-0.3-0.5,0.2-3.6,1.7-9.2C18.7,62.2,18.2,65.5,17.8,67.8z M16.7,63.3
		c-0.4-2.2-0.2-6.7,0.8-13.6s2.1-11.9,3.5-14.8c0.7-1.5,0.7-1.8-0.1-0.7c-3.2,5.5-5.1,13.6-5.6,24.2c-0.1,3.7,0.1,6.4,0.6,8.1
		c0.5,1.7,1.1,2.6,1.8,2.9c0.4,0.2,0.8,0.2,1.2-0.1c0,0-0.3,1.4-0.2,1.7c-1.4-0.6-2.4-1.7-3.1-3.2c-0.6-1.5-1.2-3.5-1.8-5.9
		s-0.8-5.3-0.7-8.7c0.3-4,0.8-7.9,1.7-11.7c1.3-5.3,4-10.3,8.1-15c0.9-1,1.4-1.2,1.7-0.7c0.2,2.1,0.2,4.1,0,6.1s-0.8,4.2-1.5,6.6
		c-2.1,6.8-3.3,11.4-3.7,13.8C18.5,55.2,17.6,58.9,16.7,63.3z M19,70.9v-1.3c2-2.2,1.8-4.2,2.5-6.2l2.8-7.1l3.2-7.5
		c1.7-3.4,4.2-7.2,7.3-11.5c1.8-2.2,3.5-3.3,4.9-3.5c0.4,0.5,0.4,1.6,0,3.2c-0.4,1.6-1,3.3-1.9,5.1c-0.1,0-0.1,0.1-0.1,0.1
		C34.3,48.5,31,53,27.8,55.8l5.4-8.8l2.6-4.7c1-1.8,1.2-2.4,0.5-1.9c-5.3,8-8.5,13-9.6,15.1s-2.1,4-3.1,5.8s-2,3.2-2.3,4.2
		S21,68.3,19,70.9z M40.2,74.2c-0.2,2.4-0.7,5.3-1.6,8.8c-0.1-2.9-0.2-4.8-0.4-5.8l0.7-2c0.1-0.7-0.1-0.7-0.4-0.1L38.1,76L38,74.4
		l1.2-1.5C40,72.1,40.3,72.5,40.2,74.2z M39,69.9c0.7-0.2,0.8,0.2,0.4,0.9L37.9,73c-0.1-0.9-0.2-1.7-0.4-2.3
		C38,70.4,38.5,70.1,39,69.9z M32.8,73.6c1.1-4.4,2.2-6.7,3.2-6.9c0.6,1.5,1.1,4.4,1.4,8.5c0.4,4.1,0.4,7.9,0,11.2
		c-0.5,4.2-1.2,7.1-2.1,8.5l-1,2.2c0-3.3,0-5.9,0.1-8s0.2-4.8,0.2-8.2c0.1-3.4,0.3-7.3,0.7-11.6c0.2-1.1,0.2-1.3-0.2-0.7
		c-0.8,4.4-1.3,10-1.5,16.8l-0.1,4.5l-0.2,6.2l-1-1.2c-0.7-3.7-1.1-7.6-0.9-11.6C31.5,80.3,32,77.1,32.8,73.6z M25.8,86.8
		c0.9-3.9,2.9-7.9,6-12c-0.5,2.2-0.8,3.8-0.9,4.8c-2.3,4-4.1,8-5.4,11.9c-0.3,1.2-0.6,2.7-0.8,4.3C24.6,93.7,24.9,90.7,25.8,86.8z
		 M31,93.4l-1.7-2.2l1.3-3.2C30.4,89.8,30.6,91.6,31,93.4z M46.9,126l1.1-3.2l3.6,2.4L46.9,126z M55.6,124.5l-5.9-3.6l-5.4-3.6
		l-1-1.3c-0.3-0.4-0.8-0.4-1.3-0.2c-0.6,0.2-1-0.1-1.3-0.9c-1.4,0.8-2.9,0.5-4.3-0.9l-2.6-3.2l-2.4-4.2l-0.9-0.6
		c-0.5,0.3-1.1,0.4-1.7,0.3c-1-0.1-2.2-0.8-3.4-2.1c-0.7-0.7-2.3-3.4-4.7-8.1c-3.2-6.1-5.4-10.7-6.6-13.8c-0.8-2.6-1.4-4.2-1.7-4.9
		c-0.3-0.7-0.4-0.7-0.3,0c0.1,0.7,0.4,2.1,1.2,4.4c0.7,2.3,2.1,5.6,4.1,10.1c1.7,3.6,3.4,6.8,5.1,9.8c-3.9-4.2-6.7-8.2-8.4-11.8
		c-1.7-3.6-2.9-7-3.5-10.1c-0.3-1.1-0.4-2.8-0.5-5.1c-0.1-2.3,0-3.6,0.1-3.8c0.3-0.8,0.6-1.1,1.1-1c0.3,0,1,0.8,2.2,2.2
		c1.1,1.5,2.7,4.9,4.6,10.1s3.1,8.7,3.6,10.3c0.4,1.6,0.9,3.1,1.3,4.3c0.4,1.2,1,2.4,1.6,3.7c0.9,1.9,1.9,3.2,2.8,3.9
		c1.2,0.9,2.2,1,2.8,0.5l-2.9-5.2c-0.3-0.1-0.6-0.1-0.9,0c-0.1,0-0.1,0-0.1,0l0,0c-0.1,0-0.2,0-0.3-0.1c-0.1,0-0.3,0-0.4-0.1
		c-0.1,0-0.2-0.1-0.2-0.2c-0.1-0.1-0.2-0.1-0.3-0.2C25,98.7,25,98.6,25,98.5s-0.1-0.2-0.1-0.3c0-0.3,0-0.6,0-0.9
		c0.1-0.9,0.4-2.6,1-4.9c1.2-3.9,2.8-7.8,5-11.6c-0.3,1.7-0.4,3.1-0.4,4.3c-1.9,4.4-3.4,7.9-4.3,10.6c-0.5,1.9-0.4,2.9,0.1,2.8
		l0.6-0.3L26.5,97l0.3-0.9l0.9,1.7l0.6-0.4l0.5,0.7l-0.5,0.7l3.6,5.1l0.9-0.7l0.6,0.7c-1.1,1.1-1.5,1.7-1.3,2.1
		c0.9,1.7,1.8,3.1,2.6,4.2c1.6,2.3,2.9,3,3.9,2c0.3-0.3,0.7-0.2,1.2,0.2c0.5,0.4,1,1.2,1.6,2.4l-0.1-1.8l-2.9-2.8l-1.7-3.3
		c-1.4-1.9-2.3-3.4-2.9-4.5c-0.6-1.1-1.3-2.3-2.2-3.8c-0.9-1.5-1.9-3.1-3.2-5l0.2-0.9l2.5,3.1c2.3,2.9,3.9,5.1,4.8,6.6
		c0.9,1.5,1.5,1.9,1.6,1.1L38,102l0.7,0.4l-0.5,3.1l-0.2,0.9c-0.1,0.7,0.1,1.2,0.4,1.3c0.3,0.1,0.6,0.6,0.9,1.5
		c0.2,0.5,1,1.6,2.5,3.3c1.5,1.7,3.1,3.1,4.7,4.2c1.7,1.1,3,2.1,4.1,2.8c1.1,0.7,1.6,1.4,1.5,2.1l1.5,0.3l-0.4-1.9l0.9-0.2
		c0.5,0.3,0.9,0.9,1.2,1.7c1.4,1.1,2.6,1.9,3.6,2.5L55.6,124.5z M29.7,98.8l0.5-0.5l2.2,3.7l-0.2,0.5L29.7,98.8z M33.4,106.2
		l0.9-1.1l2.1,2.9l1.2,2.1l0.4,1.2c-0.7-0.4-1.4-0.9-1.9-1.7l-1.3-1.7L33.4,106.2z M60.9,123.5l-3.4-2.4c-1.4-1.6-2.4-2.8-3-3.6
		c-0.6-0.7-1.2-1.3-1.8-1.6c-0.8-0.5-1.5-0.6-2.1-0.5c-0.4,0.1-0.8,0.6-1.2,1.6l-0.2-0.2c0.2-0.9,0.5-1.4,1-1.7
		c0.4-0.2,1-0.2,1.7,0.2l3.8,1.8l6.5,2.4c1.6,1.7,2.6,2.8,2.9,3.5C63.8,123.3,62.4,123.4,60.9,123.5z M62.9,140
		c-2.2,2.2-4.7,4.2-7.5,6.2l-0.9-0.3c1.6-1,3.9-2.6,6.9-4.9l1.3-1.5l-0.7-0.1c-1,0.9-2.1,1.8-3.4,2.7c-1.3,0.9-2.8,1.8-4.5,2.6
		l-2.3,1.1l0.4,0.5l1.7,0.2c1,0.6,1.4,1.3,1.3,1.9c-0.5,0.8-1.4,0.9-2.5,0.3l-1.9-1c-0.7-0.7-1.4-1.2-2.1-1.4l-0.8-0.6l0.3-0.7
		l2.4,1h0.7l-0.4-1.5l2.8-1.8c0.7-0.3,1.1-0.7,0.9-1.4l0.2-1.4c1.2,0.3,2.5,0.1,3.9-0.6c1.4-0.7,2.8-1,4-1.1
		C63.8,138.7,63.8,139.3,62.9,140z M95.9,17l0.2-1.8l-1.5,0.3c-1.4,0.5-2.8,0.1-4.3-1.3c-0.9,0.2-1.3-0.2-1.2-1.1
		c0.4-0.8,0.3-1.2-0.3-1.3L86.5,12c-1.5-0.2-2.4-0.6-2.9-1.3c-0.3-0.5-0.1-1.2,0.6-2C82.8,8.3,82,7.6,81.6,7s-0.1-1.2,0.6-1.7
		c0.8-0.4,2.2-0.5,4.2-0.2c-0.5-0.6-0.6-1.2-0.4-1.8c0.1-0.6,1.4-0.3,4.1,1l1.6,0.9c0.4-0.8,1.1-1,2.1-0.7c1.2,0.6,2.3,1.3,3.4,2.1
		s2.2,2,3.6,3.5c1.1-0.7,1.9-0.6,2.4,0.5l0.2,1.9c-1.2-1.1-2.6-1.2-4.3-0.2L98,11.8c-1.5-1.8-2.4-3.2-2.8-4.2
		c-0.3-1.2-0.5-1.3-0.5-0.3c0.1,1.1,0.7,2.4,1.9,4c-2.3-0.7-4-1.7-5.1-2.8c-1.1-1.2-1.9-2.1-2.5-2.9c-0.6-0.9-0.8-0.9-0.7,0
		c0.6,1.2,1.5,2.2,2.6,3.2c-0.8-0.4-1.6-0.7-2.4-1.1c-1.8-0.8-3.4-1.2-4.6-1.3c-0.6,0-0.6,0.1-0.1,0.3c2.1,0.5,3.5,1,4.5,1.5
		c1.1,0.4,1.7,0.8,2,1.2c-1.5,0.6-3,0.9-4.6,0.9c-1-0.1-1.4,0-1.3,0.1s0.4,0.2,0.9,0.3c1.9,0.2,3.8,0,5.8-0.6c1.4,0.7,3.1,1.4,5,2.1
		c-1.2,0.3-2.3,0.8-3.4,1.6c-0.4,0.5-0.2,0.6,0.6,0.1c0.8-0.6,2.1-1,3.8-1.2l1.3,0.6c-0.1,1.4,0.2,2.9,1,4.3l-0.9,0.3L95.9,17z
		 M104.9,25.4c-2.9,0.1-3.5,0-3.7-0.5c-0.1-0.4-0.2-0.7,0.9-1.3l0.5-0.9c-1.7-0.8-3.3-1.7-3.4-3.8l1.4-0.6c0.6-0.7,0.6-1.3,0-1.7
		c-0.6-0.4-0.9-1.3-1-2.9c0.6-1.3,2-1.3,4.3,0c1-1.9,2.2-2.5,3.6-1.7c-1.5,0-2.4,0.7-2.7,2c-0.2,0.8-0.2,1.9,0,3.1
		c-0.5-0.7-1.2-1.4-1.9-1.9c-1.4-0.7-1.7-0.7-0.8,0.2c0.9,0.9,1.7,1.8,2.4,2.8c-1.2,0.9-2.4,1.4-3.8,1.3c-0.5,0.2-0.4,0.3,0.2,0.4
		c0.6,0.2,1.4,0.1,2.2-0.2c-0.1,0.8,0.2,2.2,0.5,3.1c0.5,0.7,1.2,1.4,1.9,1.9C105.4,24.9,105.1,25.1,104.9,25.4z M106.6,26.9
		c-0.1-0.6,0.5-1,1.7-1.1s1.3-0.4,0.6-1c-1.5-0.5-2.8-1.4-3.8-2.7c-0.7-0.9-0.7-1.5,0-1.9l1.2-0.3l0.6-0.7l-0.7-2.8
		c-0.2-1.4,0.2-2.4,1.2-3c1.4-0.2,2.8,0.2,4.2,1.3c0.1-0.7,0.5-1,1.5-0.7c0.9,0.3,1.8,2.2,2.6,5.9l1.3,0.5c0.4-1,0.8-1.5,1-1.5
		c0.4,0,0.8,0.9,1.3,2.6c1.1,0.9,1.6,2.5,1.5,4.7c-0.7,0.9-1.1,2-1.1,3.3l-0.6-1.4c-0.4-1.6-0.5-3.2-0.5-5c-0.1-0.7-0.1-0.7-0.2,0
		c-0.2,1.5-0.2,2.8-0.1,3.9c-1.4-1.8-2.9-3.5-4.6-5c-0.3-1.2-0.4-2.5-0.3-3.9c-0.2-1.3-0.3-1.6-0.4-0.9c-0.1,1.6-0.1,3.1,0.2,4.4
		c-1.2-1.2-2.6-3-4.3-5.3c-0.4-0.7-0.6-0.9-0.6-0.5c1,1.9,2.1,3.5,3.2,4.7c1.1,1.3,2,2.3,2.7,3c-1.4-0.4-2.6-0.7-3.6-0.8
		c-1-0.1-1.9-0.4-2.8-0.8c-0.8-0.2-0.8,0,0.1,0.6c0.5,0.3,1.4,0.6,2.9,0.9c1.4,0.3,2.8,0.7,4.1,1.3c0.7,0.4,1.6,1.5,2.8,3.2l0.9,2.1
		c-1.5-0.8-3.1-1.3-4.9-1.7c-1.8-0.3-2.8-0.6-3.2-0.9c-1.4-0.6-1.5-0.5-0.5,0.2c0.3,0.3,1.4,0.7,3.4,1.1c1.9,0.4,3.8,1.1,5.6,2.2
		l0.2,0.5c-0.4,0.4-0.5,1-0.4,1.7l0.6,1.6c-0.5-0.6-1.1-0.3-2,0.8c0.3-0.7,0.2-1.3-0.2-1.9c-0.7-1.1-2.5-2.3-5.4-3.6l-0.5,0.9
		C108.6,30.3,107.2,28.9,106.6,26.9z M125.8,66.3c-0.6-0.8-1.3-2.1-2.4-3.8c-1-1.7-1.8-3.1-2.3-4.1c-0.5-1.1-0.6-2.1-0.2-3.2
		c0.3-1.1,0.6-1.9,0.8-2.5c0.2-0.6,0.2-0.7-0.1-0.3c-0.6,1.1-1.1,2.2-1.3,3.2l-1.6-4.5c0.2-1.8,1.1-4.1,2.8-6.9
		c0.5-0.9,0.5-1-0.2-0.2c-1.6,2.1-2.6,4.2-3.1,6.4l-2.4-5.4c-0.1-1,0.6-2.9,1.9-5.7c0.7-1.5,0.5-1.4-0.5,0.2
		c-0.8,1.6-1.4,3.1-1.8,4.4c-0.7-3-1.4-5.6-2.1-7.7l-0.6-0.2l0.3,0.9c0.4,2.6,1,4.9,1.7,6.9c-1-0.9-2.1-1.6-3.4-2.2
		c-0.7-0.4-0.7-0.3,0,0.2c1.5,0.9,2.7,1.8,3.5,2.7c0.6,1.5,1.2,2.8,1.7,4c-0.9-0.7-2.6-1.5-4.8-2.4c-0.8-0.2-0.8-0.1,0,0.3
		c2.8,1.2,4.6,2.3,5.3,3.4l1.6,4.2c-0.6,0-1.3-0.9-2.3-2.6c-0.8-1.5-2.8-2.9-5.9-4.3c-0.6-0.3-0.9-0.8-0.9-1.7
		c0.1-0.6,0.7-0.8,1.8-0.7c-0.3-0.9-0.7-1.6-1.1-2.1l-0.6-0.9c-0.8-1.7-0.3-2.6,1.5-2.6c-0.7-1.1-0.9-1.9-0.7-2.4
		c-0.1-1,0.2-2,0.7-2.9c0.3-0.6,0.6-1.3,0.7-1.9c1,0.6,1.9,1.1,2.7,1.5c0.8,0.4,1.2,1.1,1.3,2.2l-0.4,2.4c0.2,0.5,0.6,0.3,1.3-0.5
		c0.7-0.9,1.2-1.5,1.7-1.7c0.6,0.3,1.1,0.7,1.7,1.4c0.5,1,0.3,2.8-0.6,5.5l-0.9,2.2c1.8-2.4,3.2-3.5,4.3-3.4
		c0.4,0.3,0.5,0.8,0.4,1.6s-0.1,1.7,0,2.6c0.1,0.9-0.2,1.7-0.9,2.3c-0.7,0.6-1.2,1.7-1.5,3.1c1.7-1.3,2.4-1,2.1,0.7l-0.9,3.4
		c-0.3,1.6,0,2.4,0.8,2.3c0.8-0.1,1.3,0,1.5,0.3s0.2,0.9,0.1,1.7c-0.5,1.1-0.7,1.8-0.6,2.2c0.1,0.3,0.2,0.6,0.4,0.9
		c0.2,0.2,0.8,0.2,1.5-0.2c0.8-0.3,1.2-0.1,1.2,0.7s0,1.6,0,2.4c0,0.8,0.3,1.5,0.8,2.2c0.4,0.5,0.8,0.9,1.4,1l0.7-0.9
		c-1.1,0.1-1.5-0.6-1.5-2.1c0.1-1.4,0.1-2.5,0-3.3c-0.4-1-0.8-1.6-1.3-1.7c-0.4-0.1-1.4-2.7-2.9-7.9l1.7,0.1
		c1.2,4.4,2.2,6.8,2.9,7.1s1.1,0.7,1,1.2c-0.1,0.4,0.1,1.4,0.4,2.9c0.9-0.3,1.5-1.1,1.7-2.6c0.3-1.4-0.1-2.4-1.2-3.2
		c-1.1-0.6-1.7-1.2-1.9-1.7c-0.3-0.9,0-1.4,1-1.7c0.6-0.3-0.8-1.6-4.2-3.8c-1.7-1.2-2.3-2.3-1.6-3.2c0.3-0.5,0.8-0.5,1.5,0
		s1.2,0.6,1.4,0.4c0.4-0.7,0.1-1.3-0.9-1.5c-0.9-0.3-1.4-0.6-1.3-1c-0.1-1.6,0-2.7,0.1-3.3s0.1-1.3-0.2-2.1
		c-0.6-0.8-1.7-0.8-3.3,0.2c0.4-0.9,0.5-1.8,0.3-2.6s-0.6-1.7-1.2-2.4l-0.8-2.4c-0.2-0.8,0.3-1.4,1.4-1.7c-0.4-1.6-0.4-2.8,0-3.5
		s0.6-1.3,0.8-1.8c0.2-0.5,0.6-0.5,1.4-0.2c0.8,0.4,2.1,1.8,3.8,4.2c0.8-0.9,1.7-0.6,2.4,1c0.9,1.5,1.3,3.2,1.1,5.3
		c1.9-1.1,2.6-0.3,2.1,2.1c0.8,1.7,1.4,3.1,1.5,4.1c0.2,1,0,1.9-0.5,2.7s-0.7,1.5-0.7,1.9s0.2,0.4,0.6,0c0.3-0.5,1-0.9,2.1-1.2
		c0.7,1.5,1,2.4,0.9,2.9c0,0.6-0.4,1.2-1.1,1.9c-0.7,0.7-1.1,1.5-1.2,2.4c0,0.5,0.2,0.7,0.7,0.7l1.4-0.4c0.7-0.1,0.8,0.5,0.1,1.7
		c-0.7,1.4-1.3,2.5-1.6,3.5s-0.5,1.7-0.5,2.3c-0.1,1.2-0.3,1.9-0.6,2.1c0.1-1.5,0.1-3.1-0.1-4.8c-0.2-1.7-0.5-3.5-1-5.6
		c0.4-0.4,1-1.6,1.7-3.7c0.4-1.1,0.3-1.2-0.2-0.4c-0.6,1.6-1.2,2.6-1.7,2.9c-0.6-1.9-1.2-4.3-1.9-7.1c0.8-1.3,1.3-3,1.5-5
		c0.1-1.7-0.1-1.8-0.3-0.4c-0.3,2-0.9,3.6-1.7,4.7c-0.7-2.2-1.4-4.3-2.2-6.2c0.3-1.1,0.4-2.4,0.3-3.9c-0.1-1.5-0.2-1.5-0.4-0.2
		c0,1.1-0.1,2.1-0.4,2.8l-1.7-4.4l-1.1-2.5c-0.4-0.8-0.5-0.8-0.4,0l1,3.3c-0.8-0.9-1.5-1.6-2.2-2s-0.8-0.4-0.4,0.1
		c1.2,1,2.2,2.1,3,3.2c0.7,1.7,1.4,3.4,2.1,5.2c-2-1.7-3.4-2.6-4.2-2.8c-1-0.4-1-0.2,0,0.6c1.4,0.9,3.1,2.5,5.1,4.7
		c0.6,1.8,1.2,3.6,1.8,5.4c-1-0.6-2.2-1.7-3.6-3.5c-0.6-0.6-0.7-0.5-0.1,0.3c1.2,1.7,2.5,3.3,4,4.6l1.2,4.8
		c-1.2-1.2-2.8-2.4-4.7-3.7c-0.8-0.5-0.9-0.4-0.2,0.3c1.7,1.2,3.4,3,5.3,5.4c0.5,1.5,0.8,4.2,0.7,8.1c-0.1,1-0.8,1.7-2.2,2.2
		l-0.3,3.8l-2,0.1C127.2,68.3,126.4,67.1,125.8,66.3z M128.4,70c0.3-0.1,1,0,1.7,0c-0.7,4-1.6,8.4-2.3,11.1l-1.1-0.6
		C127.7,76.7,128.2,72.4,128.4,70z M114.4,92.5c-0.3-0.2-1.2-1-2.6-2.2c-1.3-1.2-1.7-2.2-1.3-3.2c-0.4-0.5-0.7-1-1-1.7
		c-0.3-0.6-0.2-1.2,0.2-1.9c0.4-0.6,1.4-0.3,2.9,0.8c0.3-0.9,0.3-1.7,0-2.5s-0.6-1.6-0.9-2.4c-0.7-1.3-1.3-2.3-2-3.2
		c-0.6-1.2-0.7-1.9-0.4-2.1c0.3-0.2,0.8,0.1,1.5,0.6c1.3-1.4,2.2-1.8,2.6-1.2c0.4,0.6,0.8,1.6,1,3c0.3,1.4,0.3,2.9,0.1,4.4l-0.3,0.3
		l0.3,0.3c0.1,0.3,0,1.5-0.4,3.6c0,0.4,0.1,0.8,0.4,1.3c-0.1-0.6-0.1-1.1-0.1-1.4c0.1-0.3,0.2-0.9,0.5-1.9s0.4-1.5,0.4-1.7
		c0-0.1,0-0.2-0.4-0.3c0.5-0.2,0.6-0.4,0.7-0.7c0.1-0.3,0.2-0.6,0.1-0.9s-0.1-1.1-0.2-2.5c0-1.4-0.2-2.4-0.4-3.1
		c-0.2-0.7-0.4-1.3-0.4-1.7c-0.1-0.4-0.4-0.6-0.9-0.7c-0.6-0.1-1.4,0.5-2.4,1.7c0.5-2.3,1-3.8,1.5-4.5c0.5-0.8,1-1,1.5-0.7
		s0.9,0.7,1,1c0.2,0.4,0.4,0.3,0.7-0.2c0.3-0.5,0.6-0.7,0.8-0.5c0.2,0.2,0.4,0.5,0.7,0.9c0.2,0.5,0.4,1,0.5,1.5s0.2,1.5,0.3,2.9
		c0.1,1.4-0.1,2.3-0.5,2.8s-0.6,1.1-0.6,1.7c0.1,2.7,0.3,4.1,0.6,4.1c0.3,0,0.7-0.2,1.1-0.6s0.8-0.5,1.2-0.4s0.5,0.9,0.6,2.3
		s0.2,1.6,0.4,0.4c0.2-1.1,0.6-1.7,1.2-1.7s0.7,1.5,0.3,4.6c-2.1,1.8-3.5,3.4-4.4,4.6c-0.3-1.3-0.3-2.2,0-2.8s0.6-1.1,0.8-1.8
		c0.2-0.7,0.4-1.3,0.6-1.8c0.4-1.3,0.3-1.4-0.2-0.3c-0.3,0.6-0.6,1.2-0.8,1.7c-0.2,0.5-0.5,0.9-0.8,1.4c-0.1-0.8-0.4-2.3-1-4.5
		c-0.5-1.5-0.6-1.4-0.4,0.1c0.4,2.5,0.7,4.9,0.9,7.2c-0.9-0.9-1.8-1.8-2.7-2.4c-0.9-0.7-1.7-1.4-2.4-2.2c-0.6-0.4-0.7-0.3-0.3,0.2
		c0.6,0.8,1.6,1.8,2.8,3c1.2,1.1,2,1.9,2.3,2.2c0.3,0.4,0.4,0.7,0.5,0.9c-0.5,0.6-1,1.3-1.7,2c-0.4-0.2-0.6-0.6-0.6-1.1
		C114.8,93.1,114.7,92.7,114.4,92.5z M86.1,121.4c0.6-0.7,1.4-1.4,2.4-2c4.5-2.2,7.4-3.5,8.9-3.9c0.3-0.1,0.5,0,0.7,0.2l0.6,0.8
		l-0.9,0.6c-0.5,0.4-1.2,0.6-2,0.6c-0.7-0.1-1.6,0.2-2.8,0.7c-1.2,0.5-1.8,1.2-1.9,2.1c-0.2,0.6-0.5,1-0.9,1.2
		c-1.2,0.6-2.2,1.2-3.2,1.7l-2.4-0.2L86.1,121.4z M92.8,124h-0.4v-0.2c-0.3,0.1-0.6,0.1-0.9,0.3l-2.6-0.4l2.8-1.4l0.7,1.3
		c0.1-0.1,0.2-0.1,0.4-0.2l-0.4-1.3c-0.3-0.9,0.1-1.7,0.9-2.3c0.8-0.6,1.8-1,2.8-0.8c0.4,0.1,0.4,0.8,0.1,2.2
		c-0.3,0.6-1.4,1.5-3.4,2.4V124z M81.3,134.2l-0.4-1.3l-2.1,2.7l-1.7,1.1c-0.8,0.7-1.6,0.9-2.4,0.8l-2.8-1.3l1.4-0.7l0.4,0.3
		c-0.3,0.8,0.1,0.7,0.9-0.3l2.4-2.4c0.2-1.4-0.2-3.2-1-5.5s-1.5-3.6-1.9-4.2c-0.1-0.5-1.3-0.6-3.6-0.3c1.4-0.7,3-0.7,4.8-0.2
		l1.9,0.8l1-0.4l-0.1-0.1l-1.8-0.8l0.9,0.1l0.8,0.8l0.2,0.1h-0.1l0.5,0.5c2.7,2.9,4.2,4.9,4.5,5.9c0.3,1.1,0.4,2.1,0.1,3.1
		C82.4,134.1,81.7,134.5,81.3,134.2z M100.1,145.5l0.9,0.2l-0.3,0.4l-2.1,0.6c-0.9,0.8-1.9,1.3-3.2,1.6l-1.3-0.2l-0.3-0.9
		c0.3-0.5,0.7-0.8,1.2-1s1.1-0.4,1.9-0.6l1.9,0.3L100.1,145.5z M97.2,145.1c-1.4,0-2.3,0.9-2.7,0.9h-1.1c-1.5-2-2.7-2.5-3.6-3.4
		l-3.7-3.1c0.7-0.4,2.2-0.1,4.4,0.5L97.2,145.1z M108.5,128.6c1.5,0.1,2.7,0.1,3.5-0.2c1.4-0.6,4.3-2.7,8.8-6.5
		c4.3-3.2,7.9-5.4,10.8-6.7c0.9-0.5,0.9-0.9,0.1-1.1c-0.8-0.2-2-0.4-3.7-0.4c-0.5,0.4-0.5,0.8,0.2,1c0.7-0.1,1.3,0,1.6,0.2
		c-3.5,1.8-6.5,3.7-8.8,5.5c0.2-1.2,0.4-3.3,0.6-6.2c-0.1-0.9-0.4-1.8-0.9-2.5c-0.4-0.5,0.1-1,1.5-1.4l1.1-0.3v1.7l-1.5-0.4l0.2,0.8
		c0.3,0.6,0.9,1,1.8,1.2l4.3,0.2l1.9-0.1c2.2,0.1,3.3,0.6,3.2,1.6s0,2,0.2,2.9c0.4,2.3,1.3,4.4,2.7,6.5c-0.3,0.9-1,2.1-2.1,3.3
		l-4.1,2.7c-3.5,2.5-8.3,5.8-14.4,9.9c-4.3,0.1-9.5-0.2-15.6-1c-4.4-0.6-9.4-1.7-15.1-3.3l-1.3-0.3l0.6-0.6c0.9-1.2,1.4-1.9,1.5-2.3
		c0.1-0.4-0.1-1.3-0.4-2.7s-1-3-3-4.9v-0.5l1.2-0.2c3.3,0.2,6.2,0.6,8.7,1.3c2.6,0.6,5.6,1.2,9.1,1.7
		C104.5,128.1,107,128.5,108.5,128.6z M102.6,126.5c-1.4-0.2-3.6-0.6-6.6-1.2l2.8-0.9c1.5,0.3,2.3,0,2.5-0.9
		C101.4,124.5,101.9,125.6,102.6,126.5z M119.1,103.2c-1.1,1.2-1.4,2.4-1,3.6c-1.5,0.8-2.9,1.9-4.3,3.5c-1.4,1.5-2.4,2.8-3.1,3.9
		s-1.5,1.7-2.2,1.9c-0.9,0.4-1.9,0.2-3.1-0.6l-0.3,2l-5.3,3.2l-2.6,1.1c0.2-0.5,0.3-1.4,0.4-2.7l0.9-0.8c3.6-1.9,5.7-3.6,6.3-5.2
		c0.7-1.3,1.5-2.4,2.4-3.3c0.8-0.9,1.4-1.9,1.8-3.2l0.1-1.9l-0.2-2c0.8,0.9,1.6,1.2,2.3,0.6c1.1-2.1,2.3-4,3.6-5.7
		c1.3-1.8,2.6-3.4,4-4.9s2.6-2.8,3.6-3.9l-0.1,2c-3.2,3.9-5.1,6.6-5.9,8c-2.7,4.1-4.5,7.3-5.4,9.6c-0.6,1.3-1.4,2.4-2.5,3.2
		c-0.8,0.4-1.5,0.9-1.9,1.3c-0.4,0.7-0.2,0.9,0.6,0.6c0.5-0.5,1.1-0.9,1.7-1.2c1.2-0.6,3.6-3.3,7.4-8.2l-0.1-2.8l0.9-1.5
		c-0.1,1.5,0.1,2.4,0.4,2.5c0.3,0.2,0.8-0.3,1.3-1.3c0.6-1,1.9-3.9,4.1-8.5c-0.5,1.4-0.5,2.7-0.1,3.7c-1.3,0.9-1.6,2.4-1,4.6
		L119.1,103.2z M136.8,85.7c-0.2,1.3-0.6,2.5-1.3,3.4c-2.2,2.5-3.1,3.9-2.7,4.4c0.6,1,0.5,2.1-0.3,3.4c-1.2,1.4-2.7,3-4.6,4.7
		c0.5,1.1,0.1,1.9-1.2,2.7c-1.5,0.8-3.2,1.6-5.1,2.2c3.4-2.6,5.5-5.3,6.3-8.3c1.1-1,2.1-1.7,2.9-2c0.7-0.5,0.9-0.7,0.4-0.6
		c-0.9,0.4-1.9,0.9-3,1.7c1-2,1.7-4.2,2.1-6.5c2.1-2,3.3-3.6,3.9-4.7c0.7-1.1,0.8-1.3,0.1-0.7c-0.8,1.3-2,2.7-3.6,4.2
		c0.7-2.3,1.4-4.8,2-7.6c0.3-1.6,0.2-1.9-0.2-0.9l-0.8,2.8c-0.4-1.1-0.8-1.9-1.3-2.5l1,3.3c-0.2,1.3-0.7,3.2-1.5,5.6
		c-0.7-2.1-1.7-4-2.9-5.7c-1.1-1.4-1.3-1.4-0.6-0.1c1.2,1.7,2.2,4,3,6.9c-0.6,2.5-1.4,4.6-2.2,6.3c-0.6-0.9-1.3-1.6-2-2
		c-0.5-0.3-0.5-0.1,0,0.5c0.7,0.7,1.2,1.4,1.7,2.1c-0.6,1.5-1.5,2.9-2.5,4c-1,1.2-2,2.1-3,2.9c1.3-1.9,1.7-4.1,1.3-6.5
		c0-0.4,0.3-0.8,1-1s0.9-0.6,0.7-0.9c-0.6-1.2-0.9-2.1-0.9-2.8c0.4-0.2,1.1-0.2,1.9,0c0.7-0.5,0.6-1.1-0.2-2
		c-0.8-0.9-1.3-2.1-1.5-3.8c0-0.9,0.6-1.3,1.9-1c0.6-0.1,0.6-0.7,0.2-2.1l-1.3-1.8c-0.9-2.1-0.6-2.9,1.2-2.3l2.1,1.3
		c1.4,0.5,2-0.4,2-2.8c0-0.5,0.4-0.6,1.2-0.4c0.8,0.3,1.6-0.3,2.2-1.9c0.7-0.7,1.2-0.1,1.6,2.1c-0.2,2.8,0.5,4.1,2.1,3.9
		C136.9,83.6,137,84.4,136.8,85.7z M139.2,78.9c0.1,0.5,0,1-0.4,1.3c-0.3,0.3-0.9,0.6-1.8,0.9l-0.9-1.6c0.1-1.3-0.4-2.5-1.3-3.6
		c0.4-0.3,0.9-0.7,1.7-1c0.6-0.3,0.5,0-0.3,0.1c-0.8,0.2-1.5,1-2,1H134c0.5-2,1.2-3.6,2.3-5.1c0.3-0.7,0.1-0.8-0.5-0.1
		c-0.9,1.3-1.7,2.5-2.4,3.9c-0.3-0.3-0.6-0.9-0.7-1.8c-0.2-1-0.4-1.1-0.5-0.1c0.2,1.2,0.4,2.1,0.7,2.6c-1.2,1.8-2.1,2.5-2.8,2.1
		c0.4-2.5,1-5.2,1.7-8c1.2-1.2,2.3-1.6,3.2-1.2c1.3-1,2.3-1.2,3.2-0.6c0.5,0.8,0.7,1.6,0.6,2.3c-0.1,0.8-0.3,1.6-0.8,2.6
		c1,0,1.5,0.4,1.6,1.2c-0.4,1.8-1.3,3.1-2.5,3.9C138.5,78,139.1,78.4,139.2,78.9z"/>
	<path class="st1" d="M28.6,129.3c0,0.2,0.2,0.2,0.4,0.3c0.7,0.5,1.4,0.3,1.9-0.6c0.7-0.9,0.4-1.6-0.3-2.1c-0.4-0.3-0.4-0.3-0.7,0.2
		L28.6,129.3L28.6,129.3z M18.2,122.3c0.9,0.7,1.5,1.2,2.5-0.1c0.5-0.7,0.5-1.6-0.1-2c-0.2-0.2-0.6-0.3-0.6-0.3
		c-0.2,0-0.2,0.2-0.4,0.2L18.2,122.3L18.2,122.3z M33.2,129.7c0.1-0.7,0.3-1.3-0.3-1.8l0.2-0.2c0.4,0.2,0.8,0.5,1.1,0.7
		c0.4,0.2,0.7,0.5,1.3,0.6l-0.2,0.2c-0.2-0.2-0.7-0.3-0.9,0c-0.2,0.4-0.6,2.2-0.8,2.7l-0.5,3.1l2.2-1.9c0.3-0.4,1.7-1.7,1.9-2.1
		c0.3-0.6,0-0.7-0.2-0.9v-0.3c0.4,0.3,0.7,0.5,0.9,0.7c0.4,0.2,0.7,0.3,0.9,0.5v0.2c-0.7-0.5-1.4,0.4-2.1,1l-4.4,4.2l-0.4-0.2
		L33.2,129.7L33.2,129.7z M27.4,130.8c-0.2,0.4-0.6,1.1-0.6,1.5c-0.2,0.4,0.2,0.5,0.6,0.9l-0.2,0.2c-0.4-0.3-0.7-0.5-1.3-0.8
		c-0.4-0.1-0.7-0.5-1.1-0.6v-0.4c0.4,0.2,0.7,0.5,0.9,0.1c0.3-0.2,0.9-0.9,1-1.3l1.6-2.8c0.2-0.4,0.7-1.1,0.8-1.3
		c0.2-0.5-0.2-0.7-0.6-0.9l0.2-0.2c0.4,0.3,0.9,0.5,1.3,0.8c0.4,0.2,0.7,0.5,1.1,0.7c0.9,0.5,1.7,1.5,0.9,2.8
		c-0.8,1.5-2.3,1.2-3.2,0.5c-0.2,0-0.6-0.3-0.6-0.3L27.4,130.8L27.4,130.8z M23.4,124.5c0.2-0.4,0.7-1.1,0.8-1.3
		c0.2-0.5-0.2-0.7-0.6-0.9l0.3-0.2l3.9,2.5l-1,1.5l-0.2-0.2c0.7-1.1,0.3-1.4-0.6-2.1l-0.6-0.3c-0.2-0.2-0.2-0.2-0.5,0.2l-1.5,2.4
		c1.1,0.8,1.6,0.3,2.1-0.3h0.2c-0.3,0.6-0.7,0.9-0.8,1.3c-0.3,0.6-0.5,0.9-0.8,1.3l-0.2-0.2c0.7-1.1,0.3-1.4-0.6-1.9l-1,1.7
		c-0.2,0.4-0.5,0.7-0.5,1.1c0,0.5,0.4,0.9,0.8,1c0.9,0.5,1.5,0.6,2.3-0.3h0.2l-1,1.6l-4.5-3l0.2-0.2c0.2,0.2,0.6,0.3,0.9,0.1
		c0.2-0.2,0.7-0.9,1-1.3L23.4,124.5L23.4,124.5z M19.1,126.9c0,0.5,0,0.7,0.4,1.1l-0.2,0.2c-0.2-0.2-0.4-0.3-0.6-0.5
		s-0.6-0.1-0.7-0.3l0.1-0.9v-2.9c0-0.5,0-0.5-0.4-0.9l-0.8,1.1c-0.2,0.4-0.7,1.1-0.8,1.5c0,0.4,0.2,0.5,0.6,0.7l-0.2,0.2
		c-0.4-0.2-0.7-0.5-1.1-0.7c-0.4-0.3-0.8-0.7-1.3-0.8l0.2-0.2c0.4,0.2,0.6,0.3,0.9,0.1c0.4-0.2,0.9-0.9,1-1.3l1.8-2.8
		c0.2-0.2,0.7-0.9,0.8-1.3c0.2-0.4-0.2-0.5-0.4-0.7v-0.4c0.6,0.3,0.9,0.7,1.5,1c0.4,0.2,0.7,0.5,0.9,0.7c0.9,0.7,1.7,1.5,0.9,2.8
		c-0.8,1.1-1.7,1.2-2.6,0.7L19.1,126.9L19.1,126.9z M70.4,129.3l-1.5-2.8l-0.5,3L70.4,129.3L70.4,129.3z M47.5,134.5
		c0.2,0.3,0.2,0.9,0.4,1.2s0.5,0.3,0.9,0.3c0.7-0.2,1-0.9,0.8-1.8c0-0.7-0.4-1-0.7-1.4c-0.5-0.2-0.9,0-1.2,0h-0.3L47.5,134.5
		L47.5,134.5z M47.3,132.4h0.2c0.3-0.2,0.7-0.2,0.9-0.4c0.3-0.4,0.3-0.9,0.3-1.4c-0.2-0.9-0.6-1.2-1.3-1.2c-0.2,0.2-0.5,0.2-0.5,0.2
		s0,0.3,0,0.5L47.3,132.4L47.3,132.4z M41.8,135.3c0,0.3,0.2,1,0.4,1.4c0.2,0.3,0.5,0.3,0.9,0.1c0.9,0,1.2-0.7,1-1.8
		c-0.2-0.5-0.4-1-0.9-1.2c-0.4-0.2-0.9-0.1-1.4,0h-0.2L41.8,135.3L41.8,135.3z M41.4,133.4l0.3-0.2c0.3,0,0.7,0,0.9-0.4
		c0.3-0.4,0.3-0.7,0.3-1.2c-0.2-0.9-0.6-1.4-1.4-1.2c0,0-0.3,0-0.5,0.2v0.3L41.4,133.4L41.4,133.4z M68.2,130.4
		c0,0.5-0.3,1.4-0.1,1.7c0,0.5,0.5,0.3,0.9,0.3v0.4c-0.4,0-0.7,0-1.1,0c-0.3,0.2-0.7,0.2-1,0.2v-0.2c0.5-0.2,0.7-0.4,0.9-0.9
		c0.1-0.9,0.1-1.6,0.3-2.3l0.8-4.7h0.3l2.8,5.3c0.2,0.3,0.5,0.9,0.7,1.2c0.2,0.2,0.5,0.2,0.9,0.2v0.3c-0.3,0-0.9,0-1.2,0.2
		c-0.5,0-1,0.2-1.4,0.2v-0.2c0.2-0.2,0.7-0.2,0.5-0.7c0-0.2-0.2-0.5-0.2-0.7l-0.7-1.2l-2.3,0.4L68.2,130.4L68.2,130.4z M64.9,125.9
		h0.2l0.4,2.3h-0.2c-0.4-1.2-1.3-2.1-2.3-1.9c-1.8,0.2-1.9,2.3-1.7,4.1c0.4,1.7,1.1,3.5,2.9,3.2c1.2-0.4,1.5-1.4,1.5-2.8l0.2-0.2
		l0.4,2.6l-0.4-0.5c-0.5,0.7-1.2,0.9-1.9,1.1c-1.9,0.4-3.5-0.9-3.9-3.2c-0.2-2.3,0.8-4.2,2.7-4.4c0.9-0.2,1.4,0,2.1,0.3V125.9
		L64.9,125.9z M57.7,129.2c0-0.4-0.2-1-0.2-1.4c-0.4-0.3-0.7-0.3-0.9-0.3l-0.2-0.2c0.5-0.2,1.1-0.2,1.4-0.2c0.5,0,1-0.2,1.4-0.2v0.2
		c-0.2,0-0.5,0.2-0.7,0.5c0,0.4,0,1,0.2,1.4l0.4,3.3c0,0.3,0.2,1.2,0.4,1.4c0.2,0.3,0.5,0.3,0.9,0.3v0.4c-0.5,0-0.9,0-1.4,0
		c-0.3,0.2-0.9,0.2-1.4,0.2v-0.2c0.4,0,0.7,0,0.7-0.5c0.2-0.4,0-1,0-1.4L57.7,129.2L57.7,129.2z M51.6,130.4c0-0.4-0.2-1.2-0.2-1.6
		c-0.2-0.3-0.7-0.3-0.9-0.1l-0.2-0.3c0.5,0,1.1,0,1.4-0.2c0.5,0,1.1,0,1.4-0.2l0.2,0.3c-0.3,0-0.7,0-0.9,0.4c0,0.3,0.2,1.2,0.2,1.6
		l0.4,3.3c0.2,1.4,0.6,1.7,1.8,1.5c0.3-0.2,0.9-0.2,1.2-0.6c0.3-0.4,0.3-0.9,0.3-1.4l0.3-0.2L57,135c-0.2,0-0.3,0-0.5,0
		c-1.6,0.2-3.3,0.6-4.9,0.8v-0.2c0.3-0.2,0.7-0.2,0.7-0.5c0.2-0.4,0-1.2,0-1.6L51.6,130.4L51.6,130.4z M46,131.4
		c0-0.4-0.2-1.2-0.4-1.4c-0.2-0.3-0.5-0.3-0.9-0.3v-0.2c0.5-0.2,0.9-0.2,1.4-0.2c0.3,0,0.7-0.2,1-0.2c1-0.2,2.3-0.1,2.5,1.3
		c0.2,1-0.5,1.6-1.2,2c0.5,0,1.1,0,1.4,0.3c0.5,0.3,0.9,0.8,1.1,1.4c0,0.9-0.3,1.4-0.7,1.8c-0.5,0.5-1.2,0.6-1.7,0.6
		c-0.2,0.2-0.7,0.2-1,0.2c-0.5,0-1.1,0.2-1.6,0.4v-0.3c0.2,0,0.7,0,0.7-0.5c0-0.3-0.2-1-0.2-1.4L46,131.4L46,131.4z M40.1,132.4
		c0-0.3-0.2-1.2-0.2-1.6c-0.2-0.3-0.5-0.3-0.9-0.1v-0.4c0.3,0,0.9,0,1.2-0.2c0.5,0,0.9,0,1.2-0.2c0.9-0.2,2.3-0.1,2.5,1.5
		c0.2,1-0.3,1.6-1,1.9c0.5,0,1,0,1.4,0.2c0.5,0.3,0.9,0.8,0.9,1.5c0.2,0.7-0.1,1.2-0.7,1.8c-0.3,0.4-1,0.5-1.6,0.6
		c-0.5,0-0.9,0-1.2,0.2c-0.7,0-1,0.2-1.8,0.2v-0.2c0.3-0.2,0.7-0.2,0.9-0.5c0-0.3-0.2-1.2-0.2-1.6L40.1,132.4L40.1,132.4z
		 M99.6,133.3l-0.5-3.2l-1.4,2.9L99.6,133.3L99.6,133.3z M111.5,132.5c0-0.4-0.2-1.2-0.2-1.4c-0.2-0.5-0.5-0.4-0.9-0.4v-0.4
		c0.3,0,0.9,0,1.4,0c0.4,0,0.9-0.2,1.4-0.2v0.4c-0.4,0-0.7,0-0.9,0.4c0,0.4,0,1.2,0,1.6l0.4,3.2c0,0.4,0,1.2,0.2,1.6
		c0.2,0.4,0.5,0.4,0.9,0.4v0.2c-0.5,0-0.9,0-1.4,0c-0.5,0.2-0.9,0.2-1.4,0.2v-0.2c0.2,0,0.7,0,0.7-0.5c0.2-0.4,0-1.1,0-1.4
		L111.5,132.5L111.5,132.5z M104.5,131.9c0-0.4,0.2-1.2,0.2-1.6c-0.2-0.4-0.5-0.5-0.9-0.5l0.2-0.2c0.3,0,0.9,0.2,1.2,0.2
		c0.5,0.2,1.1,0.2,1.6,0.2l-0.2,0.4c-0.2,0-0.7-0.2-0.9,0.2c-0.2,0.4-0.2,1.2-0.4,1.6l-0.5,3.4c-0.2,1.4,0,1.8,1.1,2
		c0.5,0,1.1,0.2,1.4,0c0.7-0.4,0.7-0.7,0.9-1.4h0.4l-0.5,2.1c0-0.2-0.4-0.2-0.4-0.2c-1.8-0.4-3.4-0.5-5.1-0.9V137
		c0.3,0,0.7,0,1.1-0.4c0-0.2,0.2-1.1,0.4-1.4L104.5,131.9L104.5,131.9z M97.1,133.7c-0.2,0.4-0.5,1.2-0.7,1.6c0,0.5,0.5,0.5,0.7,0.7
		v0.2c-0.4,0-0.7-0.2-1.1-0.2s-0.7-0.2-1.1-0.2l0.2-0.2c0.5,0,0.7-0.2,1.1-0.7c0.4-0.7,0.7-1.4,1.1-2.1l2.1-4.3l0.4,0.2l1.1,6.1
		c0.2,0.4,0.2,1.1,0.4,1.4c0.2,0.4,0.4,0.4,0.7,0.5v0.2c-0.4,0-0.9-0.2-1.4-0.2c-0.4-0.2-0.9-0.2-1.4-0.2l0.2-0.4
		c0.2,0,0.7,0.2,0.7-0.2s0-0.7,0-1.1l-0.2-1.2l-2.5-0.4L97.1,133.7L97.1,133.7z M96.4,130.1l-0.2-0.2c0.2-1.1-0.2-1.4-1.1-1.6
		c-0.5,0-1.1-0.2-1.1,0.2l-0.9,5.5c0,0.9,0,1.1,0.9,1.4v0.2c-0.5,0-1.1-0.2-1.6-0.4c-0.5,0-1.1,0-1.6-0.2v-0.2
		c1.1,0,1.3-0.2,1.4-1.1l0.7-5.5c0.2-0.2-0.4-0.4-0.7-0.4c-1.1-0.2-1.4-0.2-1.6,1.2l-0.4-0.2l0.4-1.8l6,1.1L96.4,130.1L96.4,130.1z
		 M87.4,128.9c0-0.4,0.2-1.1,0-1.4c0-0.4-0.4-0.5-0.7-0.5v-0.4c0.5,0.2,1.1,0.4,1.4,0.4c0.5,0,1.1,0.2,1.6,0.2l-0.2,0.2
		c-0.2,0-0.7,0-0.9,0.4c-0.2,0.4-0.2,1.1-0.4,1.4l-0.4,3.4c-0.2,0.4-0.2,1.2-0.2,1.4c0,0.5,0.4,0.5,0.7,0.5v0.4
		c-0.5-0.2-0.9-0.2-1.4-0.4c-0.5,0-0.9,0-1.4-0.2V134c0.3,0,0.7,0,0.9-0.4c0.2-0.2,0.4-1.1,0.4-1.4L87.4,128.9L87.4,128.9z
		 M130.2,123.5l-2.7-1.8l1.1,3L130.2,123.5L130.2,123.5z M118.2,132.1l-2.3-2.1l0.5,3L118.2,132.1L118.2,132.1z M128.8,125.5
		c0,0.5,0.4,1.4,0.5,1.8c0.4,0.4,0.7,0,0.9-0.2l0.2,0.4c-0.2,0.2-0.5,0.4-0.9,0.5c-0.2,0.2-0.5,0.4-0.7,0.7l-0.2-0.4
		c0.4-0.4,0.4-0.5,0.4-1.1c-0.4-0.9-0.5-1.6-0.7-2.3l-1.4-4.6l0.2-0.2l5.2,3.6c0.2,0.2,0.9,0.7,1.1,0.7c0.3,0.2,0.7,0,1.1-0.2v0.4
		c-0.4,0.2-0.7,0.4-1.1,0.7c-0.4,0.4-0.7,0.5-1.1,0.9L132,126c0.2-0.2,0.5-0.5,0.3-0.9c-0.2-0.2-0.5-0.3-0.7-0.5l-1.1-0.7l-2,1.4
		L128.8,125.5L128.8,125.5z M119.9,126.8c-0.5-0.2-0.9-0.2-1.2,0.2l-0.2-0.4c0.4-0.2,0.5-0.2,0.7-0.5c0.2,0,0.5-0.2,0.7-0.4l6.9,2.3
		l-2-2.7c-0.4-0.3-0.7-1.1-1.1-1.4c-0.5-0.4-0.7-0.2-1.2,0l-0.2-0.2c0.4-0.2,0.7-0.4,1.1-0.5c0.2-0.4,0.3-0.5,0.7-0.7l0.2,0.2
		c-0.2,0.4-0.5,0.4-0.4,0.9c0.2,0.4,0.9,1.2,1.2,1.8l2.8,3.9l-0.2,0.2c-0.4,0-0.7-0.2-1.1-0.4l-6.4-2.1l2.3,3.2
		c0.2,0.4,0.7,0.9,1.1,1.2c0.4,0.2,0.7,0,1.1-0.2v0.2c-0.2,0.4-0.5,0.5-0.9,0.7s-0.5,0.4-0.9,0.7l-0.2-0.2c0.4-0.4,0.5-0.5,0.4-1.1
		c-0.2-0.4-0.5-0.9-0.9-1.3L119.9,126.8L119.9,126.8z M116.7,133.9c0,0.4,0.2,1.3,0.3,1.8c0.2,0.4,0.7,0.2,0.9,0l0.2,0.2
		c-0.4,0.2-0.5,0.4-0.9,0.5c-0.4,0.2-0.7,0.3-0.9,0.5l-0.2-0.2c0.4-0.3,0.5-0.5,0.4-1.2c0-0.7-0.2-1.6-0.4-2.3l-0.9-4.8h0.4l4.6,4.1
		c0.2,0.2,0.7,0.7,1.1,0.9c0.3,0.2,0.7,0,0.9,0l0.2,0.2c-0.4,0.2-0.9,0.4-1.2,0.7c-0.4,0.2-0.9,0.4-1.2,0.7l-0.2-0.4
		c0.4,0,0.7-0.4,0.5-0.7c-0.2-0.2-0.4-0.5-0.7-0.7l-0.9-0.7l-2.1,1.1L116.7,133.9L116.7,133.9z"/>
	<g>
		<path class="st1" d="M26.3,83.3c-0.5-1.4-1-3.1-1.2-3.7L25,79.3l4.1-2.3c-0.4-2.1-0.7-4-0.9-5.7l-4.6-0.9V70c0-1,0-5,0-6v-0.4
			l4.6-0.9c0.2-1.8,0.5-3.7,0.9-5.7l-2.3-1.3l1.5-0.2l1.7,1v0.4c-0.5,2.2-0.8,4.3-1,6.2v0.3l-4.5,0.9c0,1.2,0,4,0,5.2l4.5,0.9v0.3
			c0.2,1.9,0.5,3.9,1,6.3l0.1,0.3l-4,2.3c0.2,0.6,0.5,1.6,0.8,2.6L26.3,83.3z M34.4,96.6c0.4,0.6,0.8,1.1,1,1.4l4.2-1.9l0.2,0.2
			c1.3,1.5,2.8,2.9,4.5,4.5l0.2,0.2l-1.9,4.2c0.9,0.7,3.2,2.4,4.2,3l3.4-3.1l0.3,0.2c1.8,1.1,3.7,2.1,5.7,2.9l0.3,0.1L56,113
			c1.2,0.4,3.8,1.3,5,1.6l2.3-4l0.3,0.1c2.2,0.5,4.3,0.8,6.2,1h0.3l0.9,4.5c0.6,0,1.5,0,2.6,0s2,0,2.6,0l0.9-4.5h0.3
			c2.3-0.2,4.3-0.6,6.2-1l0.3-0.1l2.3,4c1.2-0.4,3.8-1.2,5-1.6l-0.5-4.6l0.3-0.1c2-0.9,3.9-1.8,5.6-2.9l0.3-0.2l3.4,3.1
			c1-0.7,3.2-2.3,4.2-3.1l-1.9-4.2l0.3-0.2c1.7-1.5,3.2-3,4.5-4.5l0.2-0.3l4.4,2c0.7-0.9,2.4-3.2,3-4.2l-3.1-3.4l0.2-0.3
			c1.1-1.8,2-3.7,2.9-5.6l0.1-0.3l4.6,0.5c0.4-1.2,1.3-3.8,1.6-4.9l-4-2.3l0.1-0.3c0.5-2.2,0.8-4.3,1-6.2v-0.3l4.6-0.9
			c0-1.2,0-4,0-5.2l-4.6-0.9v-0.3c-0.2-2.2-0.5-4.3-1-6.2l-0.1-0.3l4-2.3c-0.3-1.2-1.2-3.8-1.6-5l-4.6,0.6l-0.1-0.3
			c-0.8-1.9-1.7-3.8-2.9-5.7l-0.2-0.3l3.1-3.4c-0.7-1-2.3-3.3-3.1-4.2l-4.2,1.9l-0.2-0.3c-1.4-1.6-2.9-3.1-4.5-4.5l-0.3-0.2l1.9-4.2
			c-0.9-0.7-3.2-2.4-4.2-3.1L97,29l-0.3-0.2c-1.8-1.1-3.7-2.1-5.7-2.9l-0.3-0.1l0.5-4.6c-1.1-0.4-3.8-1.3-5-1.6l-2.3,4l-0.3-0.1
			c-2.1-0.5-4.2-0.8-6.2-1h-0.3L76.2,18c-0.6,0-1.5,0-2.6,0s-2,0-2.6,0l-0.9,4.5h-0.3c-2.2,0.2-4.3,0.5-6.2,1l-0.3,0.1l-2.3-4
			c-1.1,0.3-3.8,1.2-4.9,1.6l0.5,4.6l-0.3,0.1c-1.9,0.8-3.8,1.8-5.6,2.9L50.4,29L47,25.9c-0.5,0.3-1.3,0.9-2,1.5l0.1-1.2
			c0.7-0.5,1.4-1,1.7-1.2l0.3-0.2l3.5,3.1c1.7-1,3.4-1.9,5.1-2.6L55,20.4l0.3-0.1c0.9-0.4,4.7-1.6,5.7-1.9l0.3-0.1l2.3,4
			c1.8-0.4,3.7-0.7,5.7-0.9l0.9-4.5h0.3l0,0l0,0l0,0l0,0l0,0l0,0l0,0l0,0l0,0l0,0l0,0l0,0l0,0h0.3l0,0h0.1l0,0l0,0h0.3
			c0.6,0,1.5,0,2.2,0c1.1,0,2.5,0,3,0.1h0.3l0.9,4.5c1.9,0.2,3.8,0.5,5.7,0.9l2.3-4l0.3,0.1c1,0.3,4.8,1.5,5.8,1.9l0.3,0.1L91.8,25
			c1.8,0.8,3.5,1.6,5.2,2.6l3.4-3.1l0.3,0.2c0.9,0.5,4.1,2.9,4.9,3.6l0.3,0.2l-1.9,4.2c1.5,1.3,2.8,2.6,4.1,4.1l4.2-2l0.2,0.3
			c0.7,0.8,3,4,3.6,4.9l0.2,0.3l-3.1,3.4c1,1.7,1.9,3.4,2.6,5.2l4.6-0.6l0.1,0.3c0.4,0.9,1.6,4.7,1.8,5.7l0.1,0.3l-4,2.3
			c0.4,1.8,0.7,3.7,0.9,5.7l4.6,0.9v0.3c0.1,1,0.1,5,0,6v0.3l-4.6,0.9c-0.2,1.8-0.5,3.7-0.9,5.7l4,2.3l-0.1,0.3
			c-0.2,1-1.5,4.8-1.8,5.7l-0.1,0.3l-4.7-0.5c-0.8,1.8-1.6,3.5-2.6,5.1l3.1,3.4L116,94c-0.6,0.8-2.9,4.1-3.5,4.8l-0.2,0.3l-4.3-1.9
			c-1.2,1.4-2.5,2.7-4.1,4.1l2,4.2l-0.3,0.2c-0.8,0.6-4,3-4.8,3.5l-0.3,0.2l-3.5-3.1c-1.6,1-3.3,1.9-5.1,2.6l0.5,4.6l-0.3,0.1
			c-0.9,0.3-4.7,1.6-5.7,1.9l-0.3,0.1l-2.3-4.1c-1.8,0.4-3.6,0.7-5.7,0.9l-0.9,4.6h-0.4c-0.5,0-1.9,0-3,0s-2.4,0-3,0h-0.4l-0.9-4.6
			c-1.8-0.2-3.7-0.5-5.7-0.9l-2.3,4.1l-0.3-0.1c-0.9-0.3-4.7-1.5-5.7-1.9l-0.3-0.1l0.5-4.7c-1.8-0.8-3.5-1.6-5.2-2.6l-3.4,3.1
			l-0.3-0.2c-0.8-0.6-4.1-2.9-4.8-3.5l-0.3-0.2l1.9-4.3c-1.5-1.4-2.9-2.7-4.1-4.1l-4.2,1.9l-0.2-0.3c-0.2-0.3-0.6-0.8-1.1-1.5
			L34.4,96.6z"/>
		<path class="st1" d="M73.6,103.9c-5.4,0-10.6-1.1-15.4-3.4l-0.7-0.3l16.1-20.3l15.8,20.4l-0.7,0.3
			C84.1,102.8,78.8,103.9,73.6,103.9z M59.3,99.8c4.5,2,9.3,3,14.3,3c4.8,0,9.6-1,14-2.9l-14-18.2L59.3,99.8z M100.3,92.6L86,71
			l24.3-8.7l0.1,0.7c1.2,10.6-2.3,21.2-9.6,29L100.3,92.6z M87.7,71.6l12.7,19.2c6.5-7.4,9.8-17.1,8.9-26.9L87.7,71.6z M46.8,92.3
			l-0.5-0.5c-7.1-7.9-10.5-18.6-9.3-29.1l0.1-0.7l24.3,9L46.8,92.3z M38.1,63.5c-1,9.8,2.1,19.5,8.6,27l13-19L38.1,63.5z M81.3,56.6
			l-0.7-25.8l0.7,0.1c10.5,2.2,19.5,8.8,24.6,18.1l0.3,0.6L81.3,56.6z M81.7,32.2l0.7,23l22.2-6.2C99.6,40.5,91.3,34.4,81.7,32.2z
			 M66.1,56.6l-24.8-7.3l0.4-0.6c5.3-9.3,14.4-15.8,24.8-17.8l0.7-0.1L66.1,56.6z M43.1,48.6l22,6.5l1-23
			C56.5,34.2,48.1,40.1,43.1,48.6z"/>
		<path class="st1" d="M73.7,33.5l-7.8,22.2L65.8,56h-0.4l-23.6,0.6l18.7,14.3l0.3,0.2l-0.1,0.4L54,94.1l19.4-13.4l0.3-0.2l0.3,0.2
			l19.4,13.4l-6.8-22.6l-0.1-0.4l0.3-0.2l18.7-14.3L82,56.1h-0.4l-0.1-0.3L73.7,33.5L73.7,33.5z M65,55l8.2-23.3l0.5-1.4l0.5,1.4
			L82.4,55l24.7,0.6h1.5l-1.2,0.9l-19.7,15l7.1,23.7l0.4,1.5L94,95.9L73.7,81.8L53.4,95.9l-1.2,0.9l0.4-1.5l7.1-23.7L40,56.6
			l-1.2-0.9h1.5L65,55L65,55z"/>
		<g>
			<polygon class="st1" points="30.2,104.5 30.2,104.5 30.2,104.6 			"/>
			<polygon class="st1" points="28,100.2 30.2,104.5 30.2,104.5 			"/>
		</g>
	</g>
</g>
<g class="st2">
	<path class="st1" d="M164.3,107.4l19.5-79.2h25.6l19.7,79.2h-13l-4.3-17h-30.4l-4.3,17H164.3z M193.8,38.9L184,79h25.3l-9.7-40.1
		H193.8z"/>
	<path class="st1" d="M288.5,115.2c0,12.6-9.1,19-27.4,19c-8.8,0-15.3-1.2-19.5-3.6c-4.2-2.4-6.4-6.7-6.4-13.1
		c0-2.9,0.7-5.3,2.1-7.3c1.4-2,3.6-4.3,6.7-6.7c-2.5-1.7-3.8-4.5-3.8-8.4c0-1.5,1-4,3.1-7.5l1-1.7c-5.6-3.3-8.3-9.1-8.3-17.3
		c0-6.9,2.1-12,6.2-15.3c4.2-3.2,9.8-4.9,16.9-4.9c3.4,0,6.7,0.4,10.1,1.2l1.7,0.3l17.9-0.5v10.2l-9.6-0.6c2.1,2.7,3.1,5.9,3.1,9.5
		c0,7.6-1.9,12.8-5.7,15.7c-3.8,2.9-9.8,4.3-17.9,4.3c-2,0-3.7-0.2-5.1-0.5c-1.1,2.6-1.6,4.6-1.6,6.1c0,1.4,0.7,2.4,2.1,2.9
		c1.4,0.5,4.9,0.8,10.4,0.9c9.2,0.1,15.5,1.3,18.9,3.7C286.8,104.1,288.5,108.6,288.5,115.2z M247.6,116.4c0,2.7,1.1,4.6,3.2,5.8
		c2.2,1.2,5.9,1.7,11.1,1.7c9.3,0,14-2.7,14-8c0-3-0.8-4.9-2.5-5.7c-1.7-0.8-5-1.3-9.9-1.3l-11.3-0.7c-1.7,1.4-2.9,2.7-3.6,3.9
		C247.9,113.3,247.6,114.7,247.6,116.4z M251.1,76.3c1.7,1.7,4.4,2.5,8.2,2.5c3.8,0,6.5-0.8,8.2-2.5s2.5-4.3,2.5-7.8
		s-0.8-6.1-2.5-7.8s-4.4-2.5-8.2-2.5c-7.1,0-10.6,3.4-10.6,10.3C248.5,72.1,249.4,74.7,251.1,76.3z"/>
	<path class="st1" d="M300.2,107.4V28.2H313v79.2C313,107.4,300.2,107.4,300.2,107.4z"/>
	<path class="st1" d="M358.7,107.4h-27.4V28.2h27.4c12.2,0,20.5,3.1,25,9.3s6.7,15.8,6.7,29c0,6.7-0.4,12.4-1.3,17.1
		s-2.4,8.9-4.7,12.7C380,103.6,371.4,107.4,358.7,107.4z M377.1,66.4c0-9.6-1.2-16.5-3.6-20.7s-7.3-6.4-14.8-6.4h-14.6V96h14.6
		c7.6,0,12.7-2.8,15.3-8.4c1.2-2.9,2.1-5.9,2.5-9.1C376.9,75.2,377.1,71.2,377.1,66.4z"/>
</g>
</svg>
